<svg xmlns="http://www.w3.org/2000/svg" width="130" height="96" viewBox="0 0 130 96">
    <g fill="#2C2B2A" fill-rule="nonzero">
        <path d="M35.645 58.71h58.71V0h-58.71v58.71zm1.957-56.753h54.656v54.656H37.602V1.957z"/>
        <path d="M45.43 20.548h1.957v17.613H45.43zM59.409 36.344c-3.914 0-7.13-3.215-7.13-6.99 0-3.913 3.216-6.988 7.13-6.988 1.957 0 3.914.838 5.172 2.236l1.258-1.398c-1.678-1.537-4.054-2.516-6.43-2.516-5.172 0-9.226 3.914-9.226 8.807 0 5.032 4.054 8.946 9.086 8.946 2.376 0 4.753-.979 6.57-2.656l-1.258-1.398c-1.398 1.118-3.215 1.957-5.172 1.957zM75.344 20.548c-5.172 0-9.226 3.914-9.226 8.807 0 4.892 4.054 8.946 9.226 8.946 5.172 0 9.226-3.914 9.226-8.946s-4.054-8.807-9.226-8.807zm0 15.796c-3.914 0-7.129-3.215-7.129-6.99 0-3.913 3.215-6.988 7.13-6.988 3.913 0 7.128 3.075 7.128 6.989.14 3.914-3.215 6.99-7.129 6.99z"/>
        <g>
            <path d="M15.376 70.172c-3.075 0-5.451 1.258-7.129 3.355V61.505H.28v33.409h7.967v-3.215c1.678 2.236 4.194 3.355 7.27 3.355 6.709 0 11.182-4.893 11.182-12.301 0-7.549-4.473-12.581-11.323-12.581zM13.42 88.624c-3.075 0-5.172-2.377-5.172-6.011 0-3.635 2.097-6.01 5.172-6.01 3.215 0 5.312 2.515 5.312 6.01 0 3.634-2.236 6.01-5.312 6.01zM40.677 70.172c-7.548 0-12.72 5.032-12.72 12.58 0 7.41 4.892 12.302 12.86 12.302 4.473 0 8.108-1.538 10.624-4.334l-4.194-4.193c-1.677 1.677-3.634 2.516-5.73 2.516-2.797 0-4.754-1.538-5.592-4.333h16.914c.559-8.807-3.635-14.538-12.162-14.538zm-4.892 10.344c.56-2.796 2.237-4.613 4.892-4.613 2.656 0 4.474 1.957 4.474 4.613h-9.366zM70.312 70.172c-3.495 0-6.29 1.538-8.108 4.333v-3.914h-7.967v24.323h7.967v-12.86c.28-2.796 2.097-4.613 4.753-4.613 2.516 0 4.194 1.677 4.194 4.473v13h7.967V79.538c0-5.732-3.634-9.366-8.806-9.366zM93.237 88.624c-2.936 0-4.893-2.377-4.893-5.871 0-3.495 1.957-5.871 4.893-5.871 2.096 0 3.634.978 4.752 2.516l5.731-3.355c-2.096-3.634-6.01-5.731-10.903-5.731-7.548 0-12.58 5.032-12.58 12.58 0 7.41 5.032 12.302 12.44 12.302 5.172 0 9.086-2.097 11.043-5.871l-5.87-3.355c-.84 1.817-2.517 2.656-4.613 2.656zM121.194 70.172c-3.495 0-6.29 1.538-8.108 4.333v-13h-7.968v33.409h7.968V82.892c0-3.215 1.817-5.451 4.753-5.451 2.516 0 4.193 1.677 4.193 4.473v13H130V79.538c0-5.732-3.495-9.366-8.806-9.366z"/>
        </g>
    </g>
</svg>
