<?xml version="1.0" encoding="UTF-8"?>
<svg width="153px" height="30px" viewBox="0 0 153 30" version="1.1" xmlns="http://www.w3.org/2000/svg" xmlns:xlink="http://www.w3.org/1999/xlink">
    <!-- Generator: Sketch 48.2 (47327) - http://www.bohemiancoding.com/sketch -->
    <title>Group 7 Copy</title>
    <desc>Created with Sketch.</desc>
    <defs>
        <linearGradient x1="97.8803488%" y1="100%" x2="1.06534973%" y2="5.98479599e-15%" id="linearGradient-1">
            <stop stop-color="#31D0FF" offset="0%"></stop>
            <stop stop-color="#0271FF" offset="100%"></stop>
        </linearGradient>
        <linearGradient x1="1.06534973%" y1="0%" x2="97.8803488%" y2="100%" id="linearGradient-2">
            <stop stop-color="#31D0FF" offset="0%"></stop>
            <stop stop-color="#0271FF" offset="100%"></stop>
        </linearGradient>
    </defs>
    <g id="Page-1" stroke="none" stroke-width="1" fill="none" fill-rule="evenodd">
        <g id="Group-7-Copy">
            <path d="M38.12,7.98 L50.44,7.98 L50.44,11.3 L46.36,11.3 L46.36,22 L42.18,22 L42.18,11.3 L38.12,11.3 L38.12,7.98 Z M55.26,10.98 C56.4733394,10.98 57.5333288,11.2099977 58.44,11.67 C59.3466712,12.1300023 60.0499975,12.7799958 60.55,13.62 C61.0500025,14.4600042 61.3,15.4399944 61.3,16.56 C61.3,17.6666722 61.0500025,18.6433291 60.55,19.49 C60.0499975,20.3366709 59.3466712,20.9899977 58.44,21.45 C57.5333288,21.9100023 56.4733394,22.14 55.26,22.14 C54.0466606,22.14 52.9833379,21.9100023 52.07,21.45 C51.1566621,20.9899977 50.4500025,20.3366709 49.95,19.49 C49.4499975,18.6433291 49.2,17.6666722 49.2,16.56 C49.2,15.4399944 49.4499975,14.4600042 49.95,13.62 C50.4500025,12.7799958 51.1566621,12.1300023 52.07,11.67 C52.9833379,11.2099977 54.0466606,10.98 55.26,10.98 Z M55.26,14.18 C54.659997,14.18 54.1800018,14.4033311 53.82,14.85 C53.4599982,15.2966689 53.28,15.8799964 53.28,16.6 C53.28,17.333337 53.4599982,17.9199978 53.82,18.36 C54.1800018,18.8000022 54.659997,19.02 55.26,19.02 C55.8466696,19.02 56.3199982,18.8000022 56.68,18.36 C57.0400018,17.9199978 57.22,17.333337 57.22,16.6 C57.22,15.8799964 57.0400018,15.2966689 56.68,14.85 C56.3199982,14.4033311 55.8466696,14.18 55.26,14.18 Z M69.52,10.98 C70.520005,10.98 71.3999962,11.213331 72.16,11.68 C72.9200038,12.146669 73.5099979,12.8066624 73.93,13.66 C74.3500021,14.5133376 74.56,15.4999944 74.56,16.62 C74.56,17.7266722 74.3566687,18.6966625 73.95,19.53 C73.5433313,20.3633375 72.9666704,21.0066644 72.22,21.46 C71.4733296,21.9133356 70.6066716,22.14 69.62,22.14 C68.9799968,22.14 68.4000026,22.0200012 67.88,21.78 C67.3599974,21.5399988 66.9133352,21.1933356 66.54,20.74 L66.54,25.88 L62.5,25.88 L62.5,11.12 L66.54,11.12 L66.54,12.38 C66.9000018,11.9266644 67.3333308,11.5800012 67.84,11.34 C68.3466692,11.0999988 68.9066636,10.98 69.52,10.98 Z M68.5,18.94 C69.100003,18.94 69.5799982,18.7166689 69.94,18.27 C70.3000018,17.8233311 70.48,17.2400036 70.48,16.52 C70.48,15.7999964 70.3000018,15.2166689 69.94,14.77 C69.5799982,14.3233311 69.100003,14.1 68.5,14.1 C67.9133304,14.1 67.4400018,14.3233311 67.08,14.77 C66.7199982,15.2166689 66.54,15.7999964 66.54,16.52 C66.54,17.2400036 66.7199982,17.8233311 67.08,18.27 C67.4400018,18.7166689 67.9133304,18.94 68.5,18.94 Z M79.34,7.98 L83.5,7.98 L83.5,22 L79.34,22 L79.34,7.98 Z M95.5,13.08 C95.0599978,12.4933304 94.5366697,12.0300017 93.93,11.69 C93.3233303,11.3499983 92.7333362,11.18 92.16,11.18 C91.5333302,11.18 90.9666692,11.3399984 90.46,11.66 C89.9533308,11.9800016 89.5533348,12.4233305 89.26,12.99 C88.9666652,13.5566695 88.82,14.1933298 88.82,14.9 C88.82,15.6066702 88.9666652,16.2433305 89.26,16.81 C89.5533348,17.3766695 89.9533308,17.8233317 90.46,18.15 C90.9666692,18.4766683 91.5333302,18.64 92.16,18.64 C92.693336,18.64 93.2633303,18.4933348 93.87,18.2 C94.4766697,17.9066652 95.0199976,17.5066692 95.5,17 L97.9,19.56 C97.1399962,20.3866708 96.2233387,21.0466642 95.15,21.54 C94.0766613,22.0333358 93.0133386,22.28 91.96,22.28 C90.559993,22.28 89.2966723,21.9633365 88.17,21.33 C87.0433277,20.6966635 86.1600032,19.8200056 85.52,18.7 C84.8799968,17.5799944 84.56,16.3266736 84.56,14.94 C84.56,13.5799932 84.8866634,12.3500055 85.54,11.25 C86.1933366,10.1499945 87.0933276,9.2866698 88.24,8.66 C89.3866724,8.0333302 90.6733262,7.72 92.1,7.72 C93.1533386,7.72 94.2066614,7.9466644 95.26,8.4 C96.3133386,8.8533356 97.1933298,9.4599962 97.9,10.22 L95.5,13.08 Z M105.28,7.72 C106.720007,7.72 108.023327,8.0333302 109.19,8.66 C110.356673,9.2866698 111.269997,10.1499945 111.93,11.25 C112.590003,12.3500055 112.92,13.5866598 112.92,14.96 C112.92,16.3466736 112.590003,17.5966611 111.93,18.71 C111.269997,19.8233389 110.356673,20.6966635 109.19,21.33 C108.023327,21.9633365 106.720007,22.28 105.28,22.28 C103.826659,22.28 102.520006,21.9633365 101.36,21.33 C100.199994,20.6966635 99.2900033,19.8233389 98.63,18.71 C97.9699967,17.5966611 97.64,16.3466736 97.64,14.96 C97.64,13.5866598 97.9699967,12.3500055 98.63,11.25 C99.2900033,10.1499945 100.199994,9.2866698 101.36,8.66 C102.520006,8.0333302 103.826659,7.72 105.28,7.72 Z M105.34,11.18 C104.726664,11.18 104.156669,11.346665 103.63,11.68 C103.103331,12.013335 102.683335,12.4699971 102.37,13.05 C102.056665,13.6300029 101.9,14.2733298 101.9,14.98 C101.9,15.6866702 102.056665,16.3333304 102.37,16.92 C102.683335,17.5066696 103.103331,17.9699983 103.63,18.31 C104.156669,18.6500017 104.726664,18.82 105.34,18.82 C105.940003,18.82 106.496664,18.6500017 107.01,18.31 C107.523336,17.9699983 107.926665,17.5100029 108.22,16.93 C108.513335,16.3499971 108.66,15.7000036 108.66,14.98 C108.66,14.2733298 108.513335,13.6300029 108.22,13.05 C107.926665,12.4699971 107.526669,12.013335 107.02,11.68 C106.513331,11.346665 105.953336,11.18 105.34,11.18 Z M117.7,7.98 L121.86,7.98 L121.86,18.52 L127.74,18.52 L127.74,22 L117.7,22 L117.7,7.98 Z M128.72,11.12 L132.76,11.12 L132.76,22 L128.72,22 L128.72,11.12 Z M130.72,5.94 C131.333336,5.94 131.833331,6.1333314 132.22,6.52 C132.606669,6.9066686 132.8,7.4066636 132.8,8.02 C132.8,8.6333364 132.606669,9.1333314 132.22,9.52 C131.833331,9.9066686 131.333336,10.1 130.72,10.1 C130.106664,10.1 129.603335,9.9066686 129.21,9.52 C128.816665,9.1333314 128.62,8.6333364 128.62,8.02 C128.62,7.4066636 128.816665,6.9066686 129.21,6.52 C129.603335,6.1333314 130.106664,5.94 130.72,5.94 Z M142.36,14.8 C140.879993,14.0399962 139.693338,13.66 138.8,13.66 C138.546665,13.66 138.346667,13.7033329 138.2,13.79 C138.053333,13.8766671 137.98,14.0066658 137.98,14.18 C137.98,14.380001 138.116665,14.5433327 138.39,14.67 C138.663335,14.7966673 139.099997,14.9399992 139.7,15.1 C140.500004,15.3266678 141.163331,15.5533322 141.69,15.78 C142.216669,16.0066678 142.676665,16.3499977 143.07,16.81 C143.463335,17.2700023 143.66,17.8599964 143.66,18.58 C143.66,19.6866722 143.223338,20.5633301 142.35,21.21 C141.476662,21.8566699 140.320007,22.18 138.88,22.18 C137.919995,22.18 137.003338,22.0500013 136.13,21.79 C135.256662,21.5299987 134.46667,21.1466692 133.76,20.64 L135,18.1 C135.680003,18.5400022 136.356663,18.8733322 137.03,19.1 C137.703337,19.3266678 138.339997,19.44 138.94,19.44 C139.220001,19.44 139.439999,19.3966671 139.6,19.31 C139.760001,19.2233329 139.84,19.1000008 139.84,18.94 C139.84,18.739999 139.710001,18.5766673 139.45,18.45 C139.189999,18.3233327 138.760003,18.1800008 138.16,18.02 C137.386663,17.8066656 136.740003,17.5866678 136.22,17.36 C135.699997,17.1333322 135.246669,16.7933356 134.86,16.34 C134.473331,15.8866644 134.28,15.3000036 134.28,14.58 C134.28,13.4599944 134.706662,12.5733366 135.56,11.92 C136.413338,11.2666634 137.533326,10.94 138.92,10.94 C140.586675,10.94 142.179992,11.3799956 143.7,12.26 L142.36,14.8 Z M152.34,21.48 C151.953331,21.6933344 151.483336,21.8633327 150.93,21.99 C150.376664,22.1166673 149.820003,22.18 149.26,22.18 C148.099994,22.18 147.173337,21.8600032 146.48,21.22 C145.786663,20.5799968 145.44,19.7066722 145.44,18.6 L145.44,14.26 L143.94,14.26 L143.94,11.68 L145.44,11.68 L145.44,8.66 L149.46,8.66 L149.46,11.68 L152.14,11.68 L152.14,14.26 L149.46,14.26 L149.46,17.98 C149.46,18.3266684 149.539999,18.5866658 149.7,18.76 C149.860001,18.9333342 150.086665,19.02 150.38,19.02 C150.633335,19.02 151.046664,18.9133344 151.62,18.7 L152.34,21.48 Z" id="Top-ICO-List" fill="url(#linearGradient-1)"></path>
            <rect id="Rectangle-3" stroke="url(#linearGradient-2)" stroke-width="2" x="1" y="1" width="28" height="28" rx="2"></rect>
            <path d="M7,10 L7,8 L24,8 L24,10 L7,10 Z M7,16 L7,14 L24,14 L24,16 L7,16 Z M7,22 L7,20 L24,20 L24,22 L7,22 Z" id="Combined-Shape" fill="url(#linearGradient-2)" fill-rule="nonzero"></path>
        </g>
    </g>
</svg>