<?xml version="1.0" encoding="UTF-8" standalone="no"?>
<svg
   xmlns:dc="http://purl.org/dc/elements/1.1/"
   xmlns:cc="http://creativecommons.org/ns#"
   xmlns:rdf="http://www.w3.org/1999/02/22-rdf-syntax-ns#"
   xmlns:svg="http://www.w3.org/2000/svg"
   xmlns="http://www.w3.org/2000/svg"
   xmlns:sodipodi="http://sodipodi.sourceforge.net/DTD/sodipodi-0.dtd"
   xmlns:inkscape="http://www.inkscape.org/namespaces/inkscape"
   version="1.1"
   id="Layer_1"
   x="0px"
   y="0px"
   viewBox="0 0 142.7 59.6"
   style="enable-background:new 0 0 142.7 59.6;"
   xml:space="preserve"
   class="svg replaced-svg"
   sodipodi:docname="logo.svg"
   inkscape:version="0.92.3 (unknown)"><metadata
   id="metadata4130"><rdf:RDF><cc:Work
       rdf:about=""><dc:format>image/svg+xml</dc:format><dc:type
         rdf:resource="http://purl.org/dc/dcmitype/StillImage" /><dc:title></dc:title></cc:Work></rdf:RDF></metadata><defs
   id="defs4128" /><sodipodi:namedview
   pagecolor="#ffffff"
   bordercolor="#666666"
   borderopacity="1"
   objecttolerance="10"
   gridtolerance="10"
   guidetolerance="10"
   inkscape:pageopacity="0"
   inkscape:pageshadow="2"
   inkscape:window-width="1920"
   inkscape:window-height="1027"
   id="namedview4126"
   showgrid="false"
   inkscape:pagecheckerboard="true"
   inkscape:snap-text-baseline="true"
   inkscape:zoom="8.0478233"
   inkscape:cx="102.53114"
   inkscape:cy="35.890823"
   inkscape:window-x="0"
   inkscape:window-y="0"
   inkscape:window-maximized="1"
   inkscape:current-layer="g4123" />
                <style
   type="text/css"
   id="style4024">
                    .st0 {
                        fill: #FFFFFF;
                    }

                    .st1 {
                        fill: #5D2875;
                    }

                    .st2 {
                        fill: url(#SVGID_1_);
                    }

                    .st3 {
                        fill: url(#SVGID_2_);
                    }

                    .st4 {
                        fill: url(#SVGID_3_);
                    }
                </style>
                <g
   id="g4123">
                    <g
   id="g4034"
   transform="matrix(1.061688,0,0,1,-8.7843673,0)">
                        <path
   class="st0"
   d="m 80.5,18.1 h 2.9 v 3.5 h -2.9 c -2.9,0 -4.3,1.2 -4.3,3.5 h 7.1 v 3.5 H 76.2 V 42.5 H 71.9 V 25 c 0,-4.6 2.9,-6.9 8.6,-6.9 z"
   id="path4026"
   inkscape:connector-curvature="0"
   style="fill:#ffffff" />
                        <path
   class="st0"
   d="m 95.4,38.9 h 2.9 v 3.5 h -2.9 c -5.7,0 -8.6,-2.3 -8.6,-7 V 18.1 h 4.3 v 7 h 7.1 v 3.5 h -7.1 v 7 c 0,2.2 1.4,3.3 4.3,3.3 z"
   id="path4028"
   inkscape:connector-curvature="0"
   style="fill:#ffffff" />
                        <path
   class="st0"
   d="m 108.4,25 h 2.9 c 5.7,0 8.6,2.3 8.6,7 v 3.5 h -15.7 c 0,2.3 1.4,3.5 4.3,3.5 h 8.6 v 3.5 h -8.6 c -5.7,0 -8.6,-2.3 -8.6,-7 V 32 c 0,-4.7 2.8,-7 8.5,-7 z m 2.9,3.5 h -2.9 c -2.9,0 -4.3,1.2 -4.3,3.5 h 11.4 c 0.1,-2.3 -1.4,-3.5 -4.2,-3.5 z"
   id="path4030"
   inkscape:connector-curvature="0"
   style="fill:#ffffff" />
                        <path
   class="st0"
   d="m 133.8,25 c 5.7,0 8.6,2.3 8.6,7 h -4.3 c 0,-2.3 -1.4,-3.5 -4.3,-3.5 h -2.9 c -2.9,0 -4.3,1.2 -4.3,3.5 v 3.5 c 0,2.3 1.4,3.5 4.3,3.5 h 2.9 c 2.9,0 4.3,-1.2 4.3,-3.5 h 4.3 c 0,4.6 -2.9,7 -8.6,7 h -2.9 c -5.7,0 -8.6,-2.3 -8.6,-7 V 32 c 0,-4.6 2.9,-7 8.6,-7 z"
   id="path4032"
   inkscape:connector-curvature="0"
   style="fill:#ffffff" />
                    </g>
                    <g
   id="g4078"
   transform="matrix(1.0720586,0,0,1.4587959,-10.275561,-21.425765)">
                        <path
   class="st0"
   d="m 71.9,48.6 v -0.5 h 0.6 v -0.5 c 0,-0.3 0.1,-0.5 0.3,-0.7 0.2,-0.2 0.4,-0.2 0.7,-0.2 0.1,0 0.1,0 0.2,0 0.1,0 0.1,0 0.2,0 v 0.5 c -0.1,0 -0.1,0 -0.2,0 -0.1,0 -0.1,0 -0.2,0 -0.1,0 -0.3,0 -0.3,0.1 0,0.1 -0.1,0.2 -0.1,0.3 v 0.5 h 0.7 v 0.5 h -0.7 v 3.1 h -0.6 v -3.1 z"
   id="path4036"
   inkscape:connector-curvature="0"
   style="fill:#ffffff" />
                        <path
   class="st0"
   d="M 74.4,47.4 V 46.7 H 75 v 0.7 z m 0.6,0.7 v 3.6 h -0.6 v -3.6 z"
   id="path4038"
   inkscape:connector-curvature="0"
   style="fill:#ffffff" />
                        <path
   class="st0"
   d="m 76.4,48.1 v 0.8 0 c 0.1,-0.3 0.3,-0.5 0.5,-0.6 0.2,-0.1 0.5,-0.2 0.8,-0.2 v 0.6 c -0.2,0 -0.4,0 -0.6,0.1 -0.2,0.1 -0.3,0.2 -0.4,0.3 -0.1,0.1 -0.2,0.3 -0.2,0.5 0,0.2 -0.1,0.4 -0.1,0.6 v 1.6 h -0.6 v -3.6 h 0.6 z"
   id="path4040"
   inkscape:connector-curvature="0"
   style="fill:#ffffff" />
                        <path
   class="st0"
   d="m 78.7,50.9 c 0.1,0.1 0.1,0.2 0.2,0.2 0.1,0.1 0.2,0.1 0.3,0.1 0.1,0 0.2,0 0.4,0 0.1,0 0.2,0 0.3,0 0.1,0 0.2,0 0.3,-0.1 0.1,-0.1 0.2,-0.1 0.2,-0.2 0.1,-0.1 0.1,-0.2 0.1,-0.3 0,-0.2 -0.1,-0.3 -0.2,-0.3 C 80.2,50.2 80,50.2 79.9,50.1 79.7,50.1 79.5,50 79.3,50 79.1,50 78.9,49.9 78.7,49.8 78.5,49.7 78.4,49.6 78.3,49.5 78.2,49.4 78,49.3 78,49 c 0,-0.2 0,-0.3 0.1,-0.5 0.1,-0.1 0.2,-0.2 0.3,-0.3 0.1,-0.1 0.3,-0.1 0.4,-0.2 0.2,0 0.3,-0.1 0.5,-0.1 0.2,0 0.4,0 0.6,0.1 0.2,0 0.3,0.1 0.5,0.2 0.1,0.1 0.2,0.2 0.3,0.3 0.1,0.1 0.1,0.3 0.1,0.5 h -0.6 c 0,-0.1 0,-0.2 -0.1,-0.3 -0.1,-0.1 -0.1,-0.1 -0.2,-0.2 -0.1,0 -0.2,-0.1 -0.3,-0.1 -0.1,0 -0.2,0 -0.3,0 -0.1,0 -0.2,0 -0.3,0 -0.1,0 -0.2,0 -0.2,0.1 -0.1,0 -0.1,0.1 -0.2,0.1 -0.1,0 -0.1,0.1 -0.1,0.2 0,0.1 0,0.2 0.1,0.3 0.1,0.1 0.2,0.1 0.3,0.2 0.1,0 0.2,0.1 0.4,0.1 0.1,0 0.3,0.1 0.4,0.1 0.1,0 0.3,0.1 0.4,0.1 0.1,0 0.3,0.1 0.4,0.2 0.1,0.1 0.2,0.2 0.3,0.3 0.1,0.1 0.1,0.3 0.1,0.4 0,0.2 0,0.4 -0.1,0.5 -0.1,0.1 -0.2,0.3 -0.4,0.3 -0.2,0 -0.3,0.1 -0.5,0.2 -0.2,0.1 -0.4,0.1 -0.5,0.1 -0.2,0 -0.4,0 -0.6,-0.1 -0.2,0 -0.3,-0.1 -0.5,-0.2 -0.1,-0.1 -0.3,-0.2 -0.3,-0.4 0,0.1 0,-0.1 0,-0.3 h 0.6 c 0,0.1 0,0.2 0.1,0.3 z"
   id="path4042"
   inkscape:connector-curvature="0"
   style="fill:#ffffff" />
                        <path
   class="st0"
   d="m 83.2,48.1 v 0.5 h -0.7 v 2.2 c 0,0.1 0,0.1 0,0.2 0,0.1 0,0.1 0.1,0.1 0.1,0 0.1,0 0.1,0 0.1,0 0.1,0 0.2,0 h 0.3 v 0.5 h -0.5 c -0.2,0 -0.3,0 -0.4,0 -0.1,0 -0.2,-0.1 -0.3,-0.1 -0.1,0 0,-0.1 0,-0.2 0,-0.1 0,-0.2 0,-0.4 V 48.6 H 81.4 V 48.1 H 82 V 47 h 0.6 v 1.1 z"
   id="path4044"
   inkscape:connector-curvature="0"
   style="fill:#ffffff" />
                        <path
   class="st0"
   d="m 87.4,48.1 v 0.5 h -0.7 v 2.2 c 0,0.1 0,0.1 0,0.2 0,0.1 0,0.1 0.1,0.1 0.1,0 0.1,0 0.1,0 0.1,0 0.1,0 0.2,0 h 0.3 v 0.5 h -0.5 c -0.2,0 -0.3,0 -0.4,0 -0.1,0 -0.2,-0.1 -0.3,-0.1 -0.1,0 -0.1,-0.1 -0.1,-0.2 0,-0.1 0,-0.2 0,-0.4 V 48.6 H 85.5 V 48.1 H 86 V 47 h 0.6 v 1.1 z"
   id="path4046"
   inkscape:connector-curvature="0"
   style="fill:#ffffff" />
                        <path
   class="st0"
   d="m 88.5,48.1 v 0.8 0 c 0.1,-0.3 0.3,-0.5 0.5,-0.6 0.2,-0.1 0.5,-0.2 0.8,-0.2 v 0.6 c -0.2,0 -0.4,0 -0.6,0.1 -0.2,0.1 -0.2,0.1 -0.3,0.2 -0.1,0.1 -0.2,0.3 -0.2,0.5 0,0.2 -0.1,0.4 -0.1,0.6 v 1.6 H 88 v -3.6 z"
   id="path4048"
   inkscape:connector-curvature="0"
   style="fill:#ffffff" />
                        <path
   class="st0"
   d="m 93.5,51.7 c -0.1,0.1 -0.2,0.1 -0.4,0.1 -0.2,0 -0.3,0 -0.4,-0.1 -0.1,-0.1 -0.1,-0.2 -0.1,-0.4 -0.2,0.2 -0.4,0.3 -0.6,0.4 -0.2,0.1 -0.4,0.1 -0.7,0.1 -0.2,0 -0.3,0 -0.5,-0.1 -0.1,0 -0.3,-0.1 -0.4,-0.2 C 90.3,51.4 90.2,51.3 90.1,51.2 90,51.1 90,50.9 90,50.7 c 0,-0.2 0,-0.4 0.1,-0.5 0.1,-0.1 0.2,-0.2 0.3,-0.3 0.1,-0.1 0.2,-0.1 0.4,-0.2 0.2,-0.1 0.3,-0.1 0.4,-0.1 0.2,0 0.3,-0.1 0.5,-0.1 0.2,0 0.3,0 0.4,-0.1 0.1,0 0.2,-0.1 0.3,-0.1 0.1,-0.1 0.1,-0.1 0.1,-0.3 0,-0.1 0,-0.2 -0.1,-0.3 0,-0.1 -0.1,-0.1 -0.2,-0.2 -0.1,0 -0.2,-0.1 -0.3,-0.1 -0.1,0 -0.2,0 -0.3,0 -0.3,0 -0.5,0 -0.6,0.1 -0.2,0.1 -0.3,0.3 -0.3,0.5 h -0.6 c 0,-0.2 0.1,-0.4 0.1,-0.6 0.1,-0.2 0.2,-0.3 0.3,-0.4 0.1,-0.1 0.3,-0.2 0.5,-0.2 0.2,0 0.4,-0.1 0.6,-0.1 0.2,0 0.3,0 0.5,0 0.2,0 0.3,0.1 0.4,0.1 0.1,0.1 0.2,0.2 0.3,0.3 0.1,0.1 0.1,0.3 0.1,0.5 v 1.8 c 0,0.1 0,0.2 0,0.3 0,0.1 0.1,0.1 0.2,0.1 0.1,0 0.1,0 0.2,0 v 0.9 z m -0.9,-1.9 c -0.1,0.1 -0.2,0.1 -0.3,0.1 -0.1,0 -0.3,0.1 -0.4,0.1 -0.1,0 -0.3,0 -0.4,0.1 -0.1,0.1 -0.3,0.1 -0.4,0.1 -0.1,0 -0.2,0.1 -0.3,0.2 -0.1,0.1 -0.1,0.2 -0.1,0.4 0,0.1 0,0.2 0.1,0.2 0,0.1 0.1,0.1 0.2,0.2 0.1,0 0.1,0.1 0.2,0.1 0.1,0 0.2,0 0.3,0 0.2,0 0.4,0 0.5,-0.1 0.1,-0.1 0.3,-0.1 0.3,-0.2 0.1,-0.1 0.2,-0.2 0.2,-0.3 0,-0.1 0.1,-0.2 0.1,-0.3 z"
   id="path4050"
   inkscape:connector-curvature="0"
   style="fill:#ffffff" />
                        <path
   class="st0"
   d="m 96.7,51.7 v -0.5 0 c -0.1,0.2 -0.3,0.3 -0.5,0.4 -0.2,0.1 -0.4,0.1 -0.7,0.1 -0.3,0 -0.5,-0.1 -0.7,-0.2 -0.2,-0.1 -0.4,-0.2 -0.5,-0.4 -0.1,-0.2 -0.2,-0.4 -0.3,-0.6 -0.1,-0.2 -0.1,-0.5 -0.1,-0.7 0,-0.3 0,-0.5 0.1,-0.7 0.1,-0.2 0.2,-0.4 0.3,-0.6 0.1,-0.2 0.3,-0.3 0.5,-0.4 C 95,48 95.2,48 95.5,48 c 0.1,0 0.2,0 0.3,0 0.1,0 0.2,0.1 0.3,0.1 0.1,0 0.2,0.1 0.3,0.2 0.1,0.1 0.2,0.2 0.2,0.3 v 0 -1.9 h 0.6 v 5 z m -2.1,-1.3 c 0,0.2 0.1,0.3 0.2,0.4 0.1,0.1 0.2,0.2 0.3,0.3 0.1,0.1 0.3,0.1 0.5,0.1 0.2,0 0.4,0 0.5,-0.1 0.1,-0.1 0.3,-0.2 0.3,-0.3 0.1,-0.1 0.2,-0.3 0.2,-0.4 0,-0.2 0.1,-0.3 0.1,-0.5 0,-0.2 0,-0.3 -0.1,-0.5 0,-0.2 -0.1,-0.3 -0.2,-0.4 -0.1,-0.1 -0.2,-0.2 -0.4,-0.3 -0.1,-0.1 -0.3,-0.1 -0.5,-0.1 -0.2,0 -0.4,0 -0.5,0.1 -0.1,0.1 -0.3,0.2 -0.3,0.3 -0.1,0.1 -0.1,0.3 -0.2,0.4 -0.1,0.1 -0.1,0.3 -0.1,0.5 0.1,0.2 0.1,0.4 0.2,0.5 z"
   id="path4052"
   inkscape:connector-curvature="0"
   style="fill:#ffffff" />
                        <path
   class="st0"
   d="m 98.2,47.4 v -0.7 h 0.6 v 0.7 z m 0.6,0.7 v 3.6 h -0.6 v -3.6 z"
   id="path4054"
   inkscape:connector-curvature="0"
   style="fill:#ffffff" />
                        <path
   class="st0"
   d="m 100.3,48.1 v 0.6 0 c 0.2,-0.4 0.6,-0.7 1.2,-0.7 0.2,0 0.4,0 0.6,0.1 0.2,0.1 0.3,0.2 0.4,0.3 0.1,0.1 0.2,0.3 0.2,0.4 0,0.2 0.1,0.3 0.1,0.5 v 2.4 h -0.6 v -2.4 c 0,-0.2 -0.1,-0.4 -0.2,-0.5 -0.1,-0.1 -0.3,-0.2 -0.5,-0.2 -0.2,0 -0.3,0 -0.5,0.1 -0.1,0.1 -0.2,0.1 -0.3,0.2 -0.1,0.1 -0.2,0.2 -0.2,0.4 0,0.1 -0.1,0.3 -0.1,0.4 v 2 h -0.6 v -3.6 z"
   id="path4056"
   inkscape:connector-curvature="0"
   style="fill:#ffffff" />
                        <path
   class="st0"
   d="m 106.3,52.7 c -0.3,0.3 -0.7,0.4 -1.3,0.4 -0.2,0 -0.3,0 -0.5,-0.1 -0.2,-0.1 -0.3,-0.1 -0.5,-0.2 -0.1,-0.1 -0.3,-0.2 -0.4,-0.3 -0.1,-0.1 -0.1,-0.3 -0.2,-0.5 h 0.6 c 0,0.1 0,0.2 0.1,0.3 0.1,0.1 0.1,0.1 0.2,0.2 0.1,0 0.2,0.1 0.3,0.1 0.1,0 0.2,0 0.3,0 0.2,0 0.4,0 0.5,-0.1 0.1,-0.1 0.2,-0.2 0.3,-0.3 0.1,-0.1 0.2,-0.3 0.2,-0.4 0,-0.2 0.1,-0.4 0.1,-0.5 v -0.2 0 c -0.1,0.2 -0.3,0.4 -0.5,0.5 -0.2,0.1 -0.4,0.2 -0.7,0.2 -0.3,0 -0.5,0 -0.7,-0.1 -0.2,-0.1 -0.4,-0.2 -0.5,-0.4 -0.1,-0.2 -0.2,-0.4 -0.3,-0.6 -0.1,-0.2 -0.1,-0.5 -0.1,-0.7 0,-0.2 0,-0.4 0.1,-0.7 0.1,-0.2 0.1,-0.4 0.3,-0.6 0.1,-0.2 0.3,-0.3 0.5,-0.5 0.2,-0.1 0.5,-0.2 0.8,-0.2 0.2,0 0.4,0 0.6,0.1 0.2,0.1 0.3,0.2 0.4,0.4 v 0 -0.5 h 0.6 v 3.3 c 0.2,0.7 0.1,1.1 -0.2,1.4 z m -0.7,-1.6 c 0.1,-0.1 0.2,-0.2 0.3,-0.3 0.1,-0.1 0.1,-0.3 0.2,-0.4 0,-0.2 0.1,-0.3 0.1,-0.5 0,-0.2 0,-0.3 -0.1,-0.5 -0.1,-0.2 -0.1,-0.3 -0.2,-0.4 -0.1,-0.1 -0.2,-0.2 -0.3,-0.3 -0.1,-0.1 -0.3,-0.1 -0.5,-0.1 -0.2,0 -0.4,0 -0.5,0.1 -0.1,0.1 -0.2,0.2 -0.3,0.3 -0.1,0.1 -0.1,0.3 -0.2,0.4 0,0.2 -0.1,0.3 -0.1,0.5 0,0.2 0,0.3 0,0.5 0,0.2 0.1,0.3 0.2,0.4 0.1,0.1 0.2,0.2 0.3,0.3 0.1,0.1 0.3,0.1 0.5,0.1 0.3,0 0.4,0 0.6,-0.1 z"
   id="path4058"
   inkscape:connector-curvature="0"
   style="fill:#ffffff" />
                        <path
   class="st0"
   d="m 112.1,51.5 c -0.3,0.2 -0.6,0.3 -1,0.3 -0.3,0 -0.5,0 -0.7,-0.1 -0.2,-0.1 -0.4,-0.2 -0.5,-0.4 -0.1,-0.2 -0.3,-0.4 -0.3,-0.6 -0.1,-0.2 -0.1,-0.5 -0.1,-0.8 0,-0.3 0,-0.5 0.1,-0.8 0.1,-0.2 0.2,-0.4 0.4,-0.6 0.2,-0.2 0.3,-0.3 0.5,-0.4 0.2,-0.1 0.4,-0.1 0.7,-0.1 0.3,0 0.6,0.1 0.8,0.2 0.2,0.1 0.4,0.3 0.5,0.5 0.1,0.2 0.2,0.4 0.3,0.7 0,0.2 0.1,0.5 0.1,0.7 H 110 c 0,0.2 0,0.3 0.1,0.4 0.1,0.1 0.1,0.3 0.2,0.4 0.1,0.1 0.2,0.2 0.4,0.3 0.1,0.1 0.3,0.1 0.5,0.1 0.2,0 0.5,-0.1 0.6,-0.2 0.1,-0.1 0.3,-0.3 0.3,-0.5 h 0.6 c -0.1,0.4 -0.3,0.7 -0.6,0.9 z M 112,49.1 c -0.1,-0.1 -0.1,-0.2 -0.2,-0.3 -0.1,-0.1 -0.2,-0.2 -0.3,-0.2 -0.1,0 -0.3,-0.1 -0.4,-0.1 -0.2,0 -0.3,0 -0.4,0.1 -0.1,0.1 -0.2,0.1 -0.3,0.2 -0.1,0.1 -0.2,0.2 -0.2,0.3 -0.1,0.1 -0.1,0.3 -0.1,0.4 h 2.1 C 112.1,49.4 112,49.3 112,49.1 Z"
   id="path4060"
   inkscape:connector-curvature="0"
   style="fill:#ffffff" />
                        <path
   class="st0"
   d="m 115.5,48.7 c -0.1,-0.1 -0.3,-0.2 -0.6,-0.2 -0.2,0 -0.4,0 -0.5,0.1 -0.1,0.1 -0.3,0.2 -0.3,0.3 -0.1,0.1 -0.1,0.3 -0.2,0.4 0,0.2 -0.1,0.3 -0.1,0.5 0,0.2 0,0.3 0.1,0.5 0,0.2 0.1,0.3 0.2,0.4 0.1,0.1 0.2,0.2 0.3,0.3 0.1,0.1 0.3,0.1 0.5,0.1 0.3,0 0.5,-0.1 0.7,-0.2 0.2,-0.1 0.3,-0.4 0.3,-0.6 h 0.6 c -0.1,0.4 -0.2,0.8 -0.5,1 -0.3,0.2 -0.6,0.4 -1.1,0.4 -0.3,0 -0.5,0 -0.7,-0.1 -0.2,-0.1 -0.4,-0.2 -0.5,-0.4 -0.1,-0.2 -0.2,-0.4 -0.3,-0.6 -0.1,-0.2 -0.1,-0.5 -0.1,-0.7 0,-0.2 0,-0.5 0.1,-0.8 0.1,-0.3 0.2,-0.4 0.3,-0.6 0.1,-0.2 0.3,-0.3 0.5,-0.4 0.2,-0.1 0.5,-0.1 0.7,-0.1 0.2,0 0.4,0 0.6,0.1 0.2,0.1 0.3,0.1 0.5,0.2 0.1,0.1 0.2,0.2 0.3,0.4 0.1,0.2 0.1,0.3 0.2,0.6 h -0.6 c -0.2,-0.3 -0.3,-0.5 -0.4,-0.6 z"
   id="path4062"
   inkscape:connector-curvature="0"
   style="fill:#ffffff" />
                        <path
   class="st0"
   d="m 117,49.1 c 0.1,-0.2 0.2,-0.4 0.3,-0.6 0.1,-0.2 0.3,-0.3 0.6,-0.4 0.3,-0.1 0.5,-0.1 0.8,-0.1 0.3,0 0.5,0 0.8,0.1 0.3,0.1 0.4,0.2 0.5,0.4 0.1,0.2 0.3,0.4 0.3,0.6 0.1,0.2 0.1,0.5 0.1,0.7 0,0.2 0,0.5 -0.1,0.7 -0.1,0.2 -0.2,0.4 -0.3,0.6 -0.1,0.2 -0.3,0.3 -0.5,0.4 -0.2,0.1 -0.5,0.1 -0.8,0.1 -0.3,0 -0.5,0 -0.8,-0.1 -0.2,-0.1 -0.4,-0.2 -0.6,-0.4 -0.1,-0.2 -0.3,-0.4 -0.3,-0.6 0,-0.2 -0.1,-0.5 -0.1,-0.7 0,-0.2 0,-0.4 0.1,-0.7 z m 0.6,1.4 c 0.1,0.2 0.1,0.3 0.2,0.4 0.1,0.1 0.2,0.2 0.4,0.3 0.1,0.1 0.3,0.1 0.4,0.1 0.1,0 0.3,0 0.4,-0.1 0.1,-0.1 0.3,-0.1 0.4,-0.3 0.1,-0.1 0.2,-0.3 0.2,-0.4 0,-0.1 0.1,-0.4 0.1,-0.6 0,-0.2 0,-0.4 -0.1,-0.6 -0.1,-0.2 -0.1,-0.3 -0.2,-0.4 -0.1,-0.1 -0.2,-0.2 -0.4,-0.3 -0.1,-0.1 -0.3,-0.1 -0.4,-0.1 -0.1,0 -0.3,0 -0.4,0.1 -0.1,0.1 -0.3,0.1 -0.4,0.3 -0.1,0.1 -0.2,0.3 -0.2,0.4 -0.1,0.2 -0.1,0.4 -0.1,0.6 0,0.2 0,0.4 0.1,0.6 z"
   id="path4064"
   inkscape:connector-curvature="0"
   style="fill:#ffffff" />
                        <path
   class="st0"
   d="m 121.5,50.9 c 0.1,0.1 0.1,0.2 0.2,0.2 0.1,0.1 0.2,0.1 0.3,0.1 0.1,0 0.2,0 0.4,0 0.1,0 0.2,0 0.3,0 0.1,0 0.2,0 0.3,-0.1 0.1,-0.1 0.2,-0.1 0.2,-0.2 0.1,-0.1 0.1,-0.2 0.1,-0.3 0,-0.2 -0.1,-0.3 -0.2,-0.3 -0.1,-0.1 -0.3,-0.1 -0.4,-0.2 -0.2,0 -0.4,-0.1 -0.6,-0.1 -0.2,0 -0.4,-0.1 -0.6,-0.2 -0.2,-0.1 -0.3,-0.2 -0.4,-0.3 -0.1,-0.1 -0.2,-0.3 -0.2,-0.5 0,-0.2 0,-0.3 0.1,-0.5 0.1,-0.1 0.2,-0.2 0.3,-0.3 0.1,-0.1 0.3,-0.1 0.4,-0.2 0.2,0 0.3,-0.1 0.5,-0.1 0.2,0 0.4,0 0.6,0.1 0.2,0 0.3,0.1 0.5,0.2 0.1,0.1 0.2,0.2 0.3,0.3 0.1,0.1 0.1,0.3 0.1,0.5 h -0.6 c 0,-0.1 0,-0.2 -0.1,-0.3 -0.1,-0.1 -0.1,-0.1 -0.2,-0.2 -0.1,0 -0.2,-0.1 -0.3,-0.1 -0.1,0 -0.2,0 -0.3,0 -0.1,0 -0.2,0 -0.3,0 -0.1,0 -0.2,0 -0.2,0.1 -0.1,0 -0.1,0.1 -0.2,0.1 -0.1,0 -0.1,0.1 -0.1,0.2 0,0.1 0,0.2 0.1,0.3 0.1,0.1 0.2,0.1 0.3,0.2 0.1,0 0.2,0.1 0.4,0.1 0.1,0 0.3,0.1 0.4,0.1 0.1,0 0.3,0.1 0.4,0.1 0.1,0 0.3,0.1 0.4,0.2 0.1,0.1 0.2,0.2 0.3,0.3 0.1,0.1 0.1,0.3 0.1,0.4 0,0.2 0,0.4 -0.1,0.5 -0.1,0.1 -0.2,0.3 -0.4,0.3 -0.2,0 -0.3,0.1 -0.5,0.2 -0.2,0.1 -0.4,0.1 -0.5,0.1 -0.2,0 -0.4,0 -0.6,-0.1 -0.2,0 -0.3,-0.1 -0.5,-0.2 -0.1,-0.1 -0.3,-0.2 -0.3,-0.4 -0.1,-0.2 -0.1,-0.3 -0.1,-0.6 h 0.6 c 0,0.4 0,0.5 0.1,0.6 z"
   id="path4066"
   style="fill:#ffffff;fill-opacity:1;stroke-width:2.9000001;stroke-miterlimit:4;stroke-dasharray:none"
   inkscape:connector-curvature="0" />
                        <path
   class="st0"
   d="m 125.9,52.2 c -0.1,0.2 -0.1,0.3 -0.2,0.4 -0.1,0.1 -0.1,0.2 -0.2,0.3 -0.1,0.1 -0.2,0.1 -0.3,0.2 -0.1,0 -0.2,0.1 -0.3,0.1 -0.1,0 -0.1,0 -0.2,0 -0.1,0 -0.1,0 -0.2,0 v -0.5 c 0.1,0 0.1,0 0.2,0.1 0.1,0 0.1,0 0.2,0 0.1,0 0.2,0 0.3,-0.1 0.1,-0.1 0.1,-0.1 0.2,-0.2 l 0.2,-0.6 -1.4,-3.6 h 0.7 l 1.1,2.9 v 0 l 1,-2.9 h 0.6 z"
   id="path4068"
   inkscape:connector-curvature="0"
   style="fill:#ffffff" />
                        <path
   class="st0"
   d="m 128.5,50.9 c 0.1,0.1 0.1,0.2 0.2,0.2 0.1,0.1 0.2,0.1 0.3,0.1 0.1,0 0.2,0 0.4,0 0.1,0 0.2,0 0.3,0 0.1,0 0.2,0 0.3,-0.1 0.1,-0.1 0.2,-0.1 0.2,-0.2 0.1,-0.1 0.1,-0.2 0.1,-0.3 0,-0.2 -0.1,-0.3 -0.2,-0.3 -0.1,-0.1 -0.3,-0.1 -0.4,-0.2 -0.2,0 -0.4,-0.1 -0.6,-0.1 -0.2,0 -0.4,-0.1 -0.6,-0.2 -0.2,-0.1 -0.3,-0.2 -0.4,-0.3 -0.1,-0.1 -0.2,-0.3 -0.2,-0.5 0,-0.2 0,-0.3 0.1,-0.5 0.1,-0.1 0.2,-0.2 0.3,-0.3 0.1,-0.1 0.3,-0.1 0.4,-0.2 0.2,0 0.3,-0.1 0.5,-0.1 0.2,0 0.4,0 0.6,0.1 0.2,0 0.3,0.1 0.5,0.2 0.1,0.1 0.2,0.2 0.3,0.3 0.1,0.1 0.1,0.3 0.1,0.5 h -0.6 c 0,-0.1 0,-0.2 -0.1,-0.3 -0.1,-0.1 -0.1,-0.1 -0.2,-0.2 -0.1,0 -0.2,-0.1 -0.3,-0.1 -0.1,0 -0.2,0 -0.3,0 -0.1,0 -0.2,0 -0.3,0 -0.1,0 -0.2,0 -0.2,0.1 -0.1,0 -0.1,0.1 -0.2,0.1 -0.1,0 -0.1,0.1 -0.1,0.2 0,0.1 0,0.2 0.1,0.3 0.1,0.1 0.2,0.1 0.3,0.2 0.1,0 0.2,0.1 0.4,0.1 0.1,0 0.3,0.1 0.4,0.1 0.1,0 0.3,0.1 0.4,0.1 0.1,0 0.3,0.1 0.4,0.2 0.1,0.1 0.2,0.2 0.3,0.3 0.1,0.1 0.1,0.3 0.1,0.4 0,0.2 0,0.4 -0.1,0.5 -0.1,0.1 -0.2,0.3 -0.4,0.3 -0.2,0 -0.3,0.1 -0.5,0.2 -0.2,0.1 -0.4,0.1 -0.5,0.1 -0.2,0 -0.4,0 -0.6,-0.1 -0.2,0 -0.3,-0.1 -0.5,-0.2 -0.1,-0.1 -0.3,-0.2 -0.3,-0.4 -0.1,-0.2 -0.1,-0.3 -0.1,-0.6 h 0.6 c 0,0.4 0,0.5 0.1,0.6 z"
   id="path4070"
   inkscape:connector-curvature="0"
   style="fill:#ffffff" />
                        <path
   class="st0"
   d="m 133,48.1 v 0.5 h -0.7 v 2.2 c 0,0.1 0,0.1 0,0.2 0,0.1 0,0.1 0.1,0.1 0.1,0 0.1,0 0.1,0 0.1,0 0.1,0 0.2,0 h 0.3 v 0.5 h -0.5 c -0.2,0 -0.3,0 -0.4,0 -0.1,0 -0.2,-0.1 -0.3,-0.1 -0.1,0 -0.1,-0.1 -0.1,-0.2 0,-0.1 0,-0.2 0,-0.4 v -2.3 h -0.6 v -0.5 h 0.6 V 47 h 0.6 v 1.1 z"
   id="path4072"
   inkscape:connector-curvature="0"
   style="fill:#ffffff" />
                        <path
   class="st0"
   d="m 136.2,51.5 c -0.3,0.2 -0.6,0.3 -1,0.3 -0.3,0 -0.5,0 -0.7,-0.1 -0.2,-0.1 -0.4,-0.2 -0.5,-0.4 -0.1,-0.2 -0.3,-0.4 -0.3,-0.6 -0.1,-0.2 -0.1,-0.5 -0.1,-0.8 0,-0.3 0,-0.5 0.1,-0.8 0.1,-0.2 0.2,-0.4 0.4,-0.6 0.2,-0.2 0.3,-0.3 0.5,-0.4 0.2,-0.1 0.4,-0.1 0.7,-0.1 0.3,0 0.6,0.1 0.8,0.2 0.2,0.1 0.4,0.3 0.5,0.5 0.1,0.2 0.2,0.4 0.3,0.7 0,0.2 0.1,0.5 0.1,0.7 h -2.7 c 0,0.2 0,0.3 0.1,0.4 0.1,0.1 0.1,0.3 0.2,0.4 0.1,0.1 0.2,0.2 0.4,0.3 0.1,0.1 0.3,0.1 0.5,0.1 0.2,0 0.5,-0.1 0.6,-0.2 0.1,-0.1 0.3,-0.3 0.3,-0.5 h 0.6 c -0.3,0.4 -0.5,0.7 -0.8,0.9 z m -0.1,-2.4 C 136,49 136,48.9 135.9,48.8 c -0.1,-0.1 -0.2,-0.2 -0.3,-0.2 -0.1,0 -0.3,-0.1 -0.4,-0.1 -0.2,0 -0.3,0 -0.4,0.1 -0.1,0.1 -0.2,0.1 -0.3,0.2 -0.1,0.1 -0.2,0.2 -0.2,0.3 -0.1,0.1 -0.1,0.3 -0.1,0.4 h 2.1 c -0.1,-0.1 -0.2,-0.2 -0.2,-0.4 z"
   id="path4074"
   inkscape:connector-curvature="0"
   style="fill:#ffffff" />
                        <path
   class="st0"
   d="m 138,48.1 v 0.5 0 c 0.3,-0.4 0.7,-0.6 1.2,-0.6 0.2,0 0.4,0 0.6,0.1 0.2,0.1 0.3,0.2 0.4,0.5 0.1,-0.2 0.3,-0.3 0.5,-0.5 0.2,-0.2 0.4,-0.2 0.7,-0.2 0.2,0 0.3,0 0.5,0.1 0.1,0 0.3,0.1 0.4,0.2 0.1,0.1 0.2,0.2 0.2,0.3 0.1,0.1 0.1,0.3 0.1,0.5 v 2.6 H 142 v -2.4 c 0,-0.1 0,-0.2 0,-0.3 0,-0.1 -0.1,-0.2 -0.1,-0.3 0,-0.1 -0.1,-0.1 -0.2,-0.2 -0.1,0 -0.2,-0.1 -0.4,-0.1 -0.3,0 -0.5,0.1 -0.7,0.3 -0.2,0.2 -0.3,0.4 -0.3,0.7 v 2.2 h -0.6 v -2.4 c 0,-0.1 0,-0.2 0,-0.3 0,-0.1 -0.1,-0.2 -0.1,-0.3 0,-0.1 -0.1,-0.1 -0.2,-0.2 -0.1,0 -0.2,-0.1 -0.3,-0.1 -0.2,0 -0.3,0 -0.4,0.1 -0.1,0.1 -0.2,0.2 -0.3,0.3 -0.1,0.1 -0.1,0.2 -0.2,0.3 0,0.1 -0.1,0.2 -0.1,0.3 v 2.2 h -0.6 v -3.6 h 0.5 z"
   id="path4076"
   inkscape:connector-curvature="0"
   style="fill:#ffffff" />
                    </g>
                    <g
   id="g4121">

                        <ellipse
   transform="matrix(5.246682e-02 -0.9986 0.9986 5.246682e-02 13.233 30.3305)"
   class="st1"
   cx="22.6"
   cy="8.2"
   rx="3.8"
   ry="11.4"
   id="ellipse4080" />
                        <linearGradient
   id="SVGID_1_"
   gradientUnits="userSpaceOnUse"
   x1="29.3908"
   y1="33.3929"
   x2="71.153"
   y2="15.4313">
                            <stop
   offset="0"
   style="stop-color:#1DCEC8"
   id="stop4082" />
                            <stop
   offset="9.343474e-02"
   style="stop-color:#20C6C5"
   id="stop4084" />
                            <stop
   offset="0.2416"
   style="stop-color:#29AFBD"
   id="stop4086" />
                            <stop
   offset="0.4261"
   style="stop-color:#3789B0"
   id="stop4088" />
                            <stop
   offset="0.6376"
   style="stop-color:#4B569E"
   id="stop4090" />
                            <stop
   offset="0.7876"
   style="stop-color:#5A2D90"
   id="stop4092" />
                        </linearGradient>
                        <path
   class="st2"
   d="M59,27.2c-0.3,2.6-6.1,4.1-12.9,3.3c-6.8-0.8-12-3.7-11.7-6.3c0.6-1.7,6.1-4.1,12.9-3.3    C54.1,21.8,59.4,24.6,59,27.2z"
   id="path4095" />
                        <linearGradient
   id="SVGID_2_"
   gradientUnits="userSpaceOnUse"
   x1="22.6024"
   y1="55.3451"
   x2="56.7071"
   y2="43.8448">
                            <stop
   offset="0"
   style="stop-color:#1DCEC8"
   id="stop4097" />
                            <stop
   offset="0.1698"
   style="stop-color:#25B9C1"
   id="stop4099" />
                            <stop
   offset="0.5224"
   style="stop-color:#3A81AD"
   id="stop4101" />
                            <stop
   offset="1"
   style="stop-color:#5A2D90"
   id="stop4103" />
                        </linearGradient>
                        <path
   class="st3"
   d="M50.7,50.1c-0.1,2.1-5.3,3.5-11.6,3.2S26.7,50.5,28,48.9c0.9-1.2,5.3-3.5,11.6-3.2S50.8,48,50.7,50.1z"
   id="path4106" />

                        <ellipse
   transform="matrix(0.1416 -0.9899 0.9899 0.1416 -20.6386 40.3185)"
   class="st1"
   cx="12.9"
   cy="32.1"
   rx="4.7"
   ry="12.7"
   id="ellipse4108" />

                        <radialGradient
   id="SVGID_3_"
   cx="313.8757"
   cy="1327.6235"
   r="38.0618"
   gradientTransform="matrix(0.9137 0.4064 -0.4064 0.9137 287.3541 -1322.8345)"
   gradientUnits="userSpaceOnUse">
                            <stop
   offset="0.142"
   style="stop-color:#1DCEC8"
   id="stop4110" />
                            <stop
   offset="0.2877"
   style="stop-color:#25B9C1"
   id="stop4112" />
                            <stop
   offset="0.5902"
   style="stop-color:#3A81AD"
   id="stop4114" />
                            <stop
   offset="1"
   style="stop-color:#5A2D90"
   id="stop4116" />
                        </radialGradient>
                        <path
   class="st4 st3"
   d="M47.3,19.9c3.3,0.8,6.8,0.6,9.3,0.2c0.3,0,0.8-0.2,0.5-1.3C54.3,12,49,6.2,41.7,2.9c-9.5-4.2-20-3-28.1,2.3    c-0.5,0.4-1.5,1-2,1.5c1.8-1.1,6.8-0.5,11.1,0.6C32,9.7,40.9,18.4,47.3,19.9z M13.3,39.4c-4.5-1.6-8.5-1.7-10.9-1.6    c-1,0.1-0.9,0.8-0.8,1.1c2.5,7.7,8.1,14.4,16.1,17.9c11.3,5,24.1,2.4,32.5-5.7C48.3,52.6,39.7,53,32.5,50    C25,46.9,20.5,42,13.3,39.4z M58.9,26.3c0,0.6-1.4,1.3-2.5,1.4c-2.9,0.4-7,0.5-11.7-0.9c-8.8-2.6-16.7-10.9-25.4-12.8    C13.5,12.8,8.6,13.2,6,13.6c-1,0.1-1.5,0.9-1.7,1.3c-0.6,1-1.1,1.9-1.5,3c-1.5,3.4-2.3,6.8-2.5,10.3c0,0.6-0.1,3,0.5,3.6    c-0.4-0.7,1.7-3,14,0.2c10.5,2.9,16.7,11.7,26.9,13c7.1,0.9,10.8-0.2,13.3-1.3c1.2-0.6,1.5-1.3,1.7-1.8c2-4.4,2.7-9,2.5-13.5    C59.2,28,59.1,26.9,58.9,26.3z"
   id="path4119" />
                    </g>
                </g>
            </svg>