<?xml version="1.0" encoding="UTF-8"?>
<svg width="190px" height="89px" viewBox="0 0 190 89" version="1.1" xmlns="http://www.w3.org/2000/svg" xmlns:xlink="http://www.w3.org/1999/xlink">
    <!-- Generator: Sketch 49.3 (51167) - http://www.bohemiancoding.com/sketch -->
    <title>Page 1</title>
    <desc>Created with Sketch.</desc>
    <defs>
        <polygon id="path-1" points="0 0.000412048193 12.7775687 0.000412048193 12.7775687 15.4906771 0 15.4906771"></polygon>
        <polygon id="path-3" points="-4.57831325e-05 0.215638554 29.887641 0.215638554 29.887641 36.5643325 -4.57831325e-05 36.5643325"></polygon>
    </defs>
    <g id="Page-1" stroke="none" stroke-width="1" fill="none" fill-rule="evenodd">
        <g id="ftec\partners" transform="translate(-1190.000000, -446.000000)">
            <g id="Group-8" transform="translate(485.000000, 245.000000)">
                <g id="Group-7">
                    <g id="Group-6-Copy-2" transform="translate(650.000000, 172.000000)">
                        <g id="Page-1" transform="translate(55.000000, 29.000000)">
                            <polygon id="Fill-1" fill="#FFFFFF" points="0.457831325 85.8566506 47.1566265 85.8566506 47.1566265 84.940988 0.457831325 84.940988"></polygon>
                            <polygon id="Fill-2" fill="#FFFFFF" points="144.216867 85.8566506 190 85.8566506 190 84.940988 144.216867 84.940988"></polygon>
                            <polygon id="Fill-3" fill="#FFFFFF" points="78.0645904 82.2671157 78.0645904 82.8435253 79.772759 82.8435253 79.772759 88.0728747 80.4874337 88.0728747 80.4874337 82.8435253 82.1956024 82.8435253 82.1956024 82.2671157"></polygon>
                            <polygon id="Fill-4" fill="#FFFFFF" points="88.2932747 82.2671157 86.5361181 86.7895735 84.7212747 82.2671157 83.7273229 82.2671157 83.7273229 88.0728747 84.3843108 88.0728747 84.3843108 83.1841518 86.3960217 88.0728747 86.6180699 88.0728747 88.5643108 83.1841518 88.5643108 88.0728747 89.2789855 88.0728747 89.2789855 82.2671157"></polygon>
                            <polygon id="Fill-5" fill="#FFFFFF" points="91.3115277 82.2671157 91.3115277 88.0728747 94.8839855 88.0728747 94.8839855 87.4960072 92.0262024 87.4960072 92.0262024 85.393188 94.2100578 85.393188 94.2100578 84.8163205 92.0262024 84.8163205 92.0262024 82.8435253 94.736106 82.8435253 94.736106 82.2671157"></polygon>
                            <polygon id="Fill-6" fill="#FFFFFF" points="65.6508145 82.2671157 63.9018988 87.390706 62.1529831 82.2671157 61.4460916 82.2671157 63.4422361 88.0728747 64.2960916 88.0728747 66.3242843 82.2671157"></polygon>
                            <polygon id="Fill-7" fill="#FFFFFF" points="59.2249229 82.2671157 59.2249229 87.0656458 56.3671398 82.2671157 55.4391157 82.2671157 55.4391157 88.0728747 56.1203687 88.0728747 56.1203687 83.0953325 59.0852843 88.0728747 59.9066337 88.0728747 59.9066337 82.2671157"></polygon>
                            <polygon id="Fill-8" fill="#FFFFFF" points="100.299947 82.2671157 100.299947 87.0656458 97.4421639 82.2671157 96.5145976 82.2671157 96.5145976 88.0728747 97.1963084 88.0728747 97.1963084 83.0953325 100.160766 88.0728747 100.982116 88.0728747 100.982116 82.2671157"></polygon>
                            <polygon id="Fill-9" fill="#FFFFFF" points="52.6506024 88.073012 53.3652771 88.073012 53.3652771 82.267253 52.6506024 82.267253"></polygon>
                            <g id="Group-58" transform="translate(0.000000, 0.242193)">
                                <path d="M74.997212,84.5013783 C73.7981518,84.3310651 73.5848024,84.0224867 73.5848024,83.4621012 C73.5848024,82.9099566 73.9954771,82.5203422 74.8081277,82.5203422 C75.6294771,82.5203422 76.0483928,82.8124386 76.1880313,83.5513783 L76.8285373,83.5513783 C76.7053807,82.5121012 75.990706,81.9517157 74.8081277,81.9517157 C73.6997181,81.9517157 72.9195735,82.6421253 72.9195735,83.5271133 C72.9195735,84.5663904 73.6507301,84.9317398 74.8822964,85.1267759 C75.998947,85.2970892 76.302947,85.5814024 76.302947,86.2388482 C76.302947,86.8967518 75.7201277,87.3353542 74.9642482,87.3353542 C73.7899108,87.3353542 73.5023928,86.7507036 73.4122,86.060294 L72.722706,86.060294 C72.8293807,87.051041 73.3957181,87.9035229 74.9642482,87.9035229 C76.1303446,87.9035229 76.992441,87.1645831 76.992441,86.1903181 C76.992441,85.102053 76.302947,84.6964145 74.997212,84.5013783" id="Fill-10" fill="#FFFFFF"></path>
                                <polygon id="Fill-12" fill="#FFFFFF" points="68.5790578 85.1509952 70.7633711 85.1509952 70.7633711 84.5745855 68.5790578 84.5745855 68.5790578 82.6013325 71.2889614 82.6013325 71.2889614 82.0249229 67.8643831 82.0249229 67.8643831 87.8306819 71.436841 87.8306819 71.436841 87.2538145 68.5790578 87.2538145"></polygon>
                                <path d="M137.983906,84.9399807 C137.983906,86.3610892 137.220243,87.2538602 135.717641,87.2538602 L134.912773,87.2538602 L134.912773,82.5935952 L135.708942,82.5935952 C137.326918,82.5935952 137.983906,83.5353542 137.983906,84.8749687 L137.983906,84.9399807 Z M135.750147,82.0249687 L134.198099,82.0249687 L134.198099,87.8302699 L135.733665,87.8302699 C137.794822,87.8302699 138.722846,86.5556675 138.722846,84.9482217 L138.722846,84.8749687 C138.722846,83.2592819 137.762316,82.0249687 135.750147,82.0249687 Z" id="Fill-14" fill="#FFFFFF"></path>
                                <path d="M124.999627,85.5245398 C124.999627,86.9456482 124.44153,87.3187807 123.505265,87.3187807 C122.520012,87.3187807 122.092398,86.8398892 122.092398,85.629841 L122.092398,82.0248771 L121.378639,82.0248771 L121.378639,85.7113349 C121.378639,87.1324434 122.133602,87.9034313 123.488783,87.9034313 C124.999627,87.9034313 125.714301,87.0427084 125.714301,85.6220578 L125.714301,82.0248771 L124.999627,82.0248771 L124.999627,85.5245398 Z" id="Fill-16" fill="#FFFFFF"></path>
                                <polygon id="Fill-18" fill="#FFFFFF" points="131.48348 86.8235904 128.626154 82.0250602 127.697672 82.0250602 127.697672 87.8303614 128.379841 87.8303614 128.379841 82.8532771 131.343841 87.8303614 132.16519 87.8303614 132.16519 82.0250602 131.48348 82.0250602"></polygon>
                                <polygon id="Fill-20" fill="#FFFFFF" points="102.513607 82.6014241 104.221776 82.6014241 104.221776 87.8303157 104.936451 87.8303157 104.936451 82.6014241 106.644161 82.6014241 106.644161 82.0250145 102.513607 82.0250145"></polygon>
                                <polygon id="Fill-22" fill="#FFFFFF" points="116.389376 87.8304988 117.104051 87.8304988 117.104051 85.232306 119.221978 85.232306 119.221978 84.6554386 117.104051 84.6554386 117.104051 82.6016072 119.821737 82.6016072 119.821737 82.0247398 116.389376 82.0247398"></polygon>
                                <path d="M109.982851,84.5013783 C108.784248,84.3310651 108.570441,84.0224867 108.570441,83.4621012 C108.570441,82.9099566 108.981116,82.5203422 109.794224,82.5203422 C110.615116,82.5203422 111.034031,82.8124386 111.17367,83.5513783 L111.814176,83.5513783 C111.691019,82.5121012 110.976802,81.9517157 109.794224,81.9517157 C108.685357,81.9517157 107.905212,82.6421253 107.905212,83.5271133 C107.905212,84.5663904 108.636369,84.9317398 109.867935,85.1267759 C110.984586,85.2970892 111.289043,85.5814024 111.289043,86.2388482 C111.289043,86.8967518 110.705308,87.3353542 109.950345,87.3353542 C108.775549,87.3353542 108.488031,86.7507036 108.397839,86.060294 L107.707887,86.060294 C107.815019,87.051041 108.381814,87.9035229 109.950345,87.9035229 C111.116441,87.9035229 111.97808,87.1645831 111.97808,86.1903181 C111.97808,85.102053 111.289043,84.6964145 109.982851,84.5013783" id="Fill-24" fill="#FFFFFF"></path>
                                <polygon id="Fill-26" fill="#FFFFFF" points="114.67292 59.0771807 116.319282 60.238241 116.319282 70.5298313 106.284535 59.0771807 106.256149 59.0771807 106.055619 58.8482651 105.454945 58.8482651 103.289402 58.8482651 103.147933 58.8482651 103.383258 59.0771807 103.376848 59.0771807 105.007186 60.6631084 105.007186 72.3025542 103.377764 73.4851325 103.377764 73.4942892 103.208366 73.6192771 103.377764 73.6192771 103.737619 73.6192771 103.60668 73.7140482 103.60668 73.7232048 103.437282 73.8481928 103.60668 73.8481928 105.578101 73.8481928 105.806101 73.8481928 107.824222 73.8481928 108.020173 73.8481928 107.697402 73.6192771 107.791258 73.6192771 106.150848 72.4559277 106.150848 61.94 116.519812 73.6192771 116.545908 73.6192771 116.748728 73.8481928 117.462945 73.8481928 117.462945 60.4030602 118.5828 59.5807952 119.091908 59.2108675 119.091908 59.206747 119.267716 59.0771807 119.091908 59.0771807 118.732053 59.0771807 118.862993 58.9819518 118.862993 58.9778313 119.0388 58.8482651 118.862993 58.8482651 116.806414 58.8482651 116.730414 58.8482651 114.645451 58.8482651 114.444005 58.8482651 114.768607 59.0771807"></polygon>
                                <polygon id="Fill-28" fill="#FFFFFF" points="176.817754 61.9332699 176.817754 62.1370048 178.16561 60.3253663 178.53508 59.8354867 181.96561 59.8354867 181.96561 72.364041 180.279875 73.6189566 180.471248 73.6189566 180.815995 73.6189566 180.50879 73.8478723 180.700164 73.8478723 182.877152 73.8478723 182.966887 73.8478723 185.674959 73.8478723 185.860381 73.8478723 185.556839 73.6189566 185.631465 73.6189566 184.180598 72.5247398 184.180598 59.8354867 187.805706 59.8354867 188.081778 60.2008361 189.351345 61.9080892 189.351345 61.8288843 189.580718 62.1370048 189.580718 59.7333904 189.579802 59.7333904 189.579802 59.0768602 189.350887 59.0768602 189.350887 58.8479446 176.588839 58.8479446 176.588839 59.5044747 176.588839 61.7043542 176.588839 61.9080892 176.817754 61.5999687"></polygon>
                                <polygon id="Fill-30" fill="#FFFFFF" points="29.6312096 59.0769518 30.8522458 60.1414096 35.2108 66.6572651 35.2108 72.4071687 33.5529928 73.6190482 33.7379566 73.6190482 34.0950651 73.6190482 33.7819084 73.8479639 33.9668723 73.8479639 36.1507277 73.8479639 36.239547 73.8479639 38.8981735 73.8479639 39.3715711 73.8479639 39.002559 73.6190482 39.1426554 73.6190482 37.4253301 72.5541325 37.4253301 66.5070964 41.4748482 60.3336988 42.9161012 59.0769518 42.7576916 59.0769518 42.4243904 59.0769518 42.6871855 58.8480361 42.5287759 58.8480361 41.0367036 58.8480361 40.3783422 58.8480361 38.8702458 58.8480361 38.6738361 58.8480361 38.9920289 59.0769518 38.9032096 59.0769518 40.3311855 60.105241 36.7678843 65.5703735 33.3254506 60.2911205 35.0267518 59.0769518 34.8147759 59.0769518 34.4768964 59.0769518 34.7978361 58.8480361 34.5858602 58.8480361 32.0499325 58.8480361 31.7106795 58.8480361 29.5657398 58.8480361 29.402294 58.8480361 29.6646313 59.0769518"></polygon>
                                <path d="M54.5374169,60.3290747 C53.6208386,59.342906 52.1273928,58.8484482 50.3725253,58.8484482 L47.2217301,58.8484482 L45.0625976,58.8484482 L44.8593205,58.8484482 L45.1775133,59.0773639 L45.0882361,59.0773639 L46.5349831,60.1180145 L46.5349831,72.4025446 L44.8707663,73.6190024 L45.0625976,73.6190024 L45.4128386,73.6190024 L45.0996819,73.8479181 L45.2915133,73.8479181 L47.4685012,73.8479181 L47.5568627,73.8479181 L50.4453205,73.8479181 L50.6884289,73.8479181 L50.3194169,73.6190024 L50.4595133,73.6190024 L48.7490554,72.5586651 L48.7490554,59.7686892 L49.797947,59.7686892 C51.0272241,59.7686892 51.9607422,60.1084 52.6085735,60.6903036 C53.1836096,61.3312675 53.4738747,62.2029783 53.4738747,63.2207373 C53.4738747,65.7200386 51.4882602,67.2372916 49.5470554,67.5275566 L49.5470554,67.7285446 C49.683947,67.7312916 49.8194651,67.7262554 49.955441,67.7225928 C49.8954651,67.7335807 49.8354892,67.7477735 49.7759711,67.7564723 L49.7759711,67.9574602 C52.8997542,68.0243036 55.7332723,66.3060627 55.7332723,63.1827373 C55.7332723,61.9543759 55.2887181,61.0052916 54.5374169,60.3290747" id="Fill-32" fill="#FFFFFF"></path>
                                <polygon id="Fill-34" fill="#FFFFFF" points="97.7135205 73.8476434 100.360701 73.8476434 100.845087 73.8476434 100.475617 73.6187277 100.616171 73.6187277 98.8878578 72.5474024 98.8878578 60.3191855 100.586412 59.077547 100.360701 59.077547 100.04434 59.077547 100.357496 58.8486313 100.131328 58.8486313 97.3962434 58.8486313 97.2254723 58.8486313 95.2009422 58.8486313 95.0274241 58.8486313 95.2009422 58.9754506 95.2009422 58.9823181 95.3318819 59.077547 95.2563398 59.077547 95.4303157 59.2043663 95.4303157 59.2112337 96.6733277 60.1154506 96.6733277 72.4137157 95.2009422 73.485041 95.2009422 73.4919084 95.0274241 73.6187277 95.2009422 73.6187277 95.5607976 73.6187277 95.4303157 73.7139566 95.4303157 73.7208241 95.2563398 73.8476434 95.4303157 73.8476434 97.625159 73.8476434"></polygon>
                                <path d="M130.750675,69.9875759 C130.750675,68.6800096 130.18388,67.7469494 129.296145,66.8935518 C128.694554,66.2612867 127.912578,65.6844193 127.041325,65.0512386 C126.27812,64.5196964 125.649976,64.0705639 125.172,63.6031181 C124.685325,63.0569253 124.414289,62.4626602 124.414289,61.6651181 C124.414289,60.3937205 125.373904,59.5682506 126.71306,59.5682506 C127.394313,59.5682506 127.933639,59.7751904 128.372699,60.0672867 L129.477446,62.6174072 L129.477446,62.3179855 L129.706361,62.8463229 L129.706361,59.2706602 L129.642723,59.2569253 C129.596482,59.2399855 129.534217,59.2207566 129.477446,59.2019855 L129.477446,59.0417446 L129.413807,59.0280096 C129.104313,58.9167566 128.571398,58.7565157 127.784843,58.6672386 L127.764699,58.6631181 L127.765157,58.6654072 C127.428651,58.6283229 127.050024,58.6022265 126.617831,58.6022265 C124.185373,58.6022265 122.467133,59.9194072 122.467133,62.0831181 C122.467133,63.323841 122.970747,64.2454554 123.908843,65.1391422 C124.469687,65.7242506 125.215036,66.287841 126.13253,66.9086602 C126.793181,67.3440578 127.327012,67.7364193 127.752337,68.1319855 C128.392386,68.8017928 128.715157,69.506853 128.715157,70.4728771 C128.715157,71.900853 127.644289,73.0609976 126.059735,73.0609976 C125.002145,73.0609976 124.228867,72.8197205 123.654747,72.3829494 L122.427759,69.5508048 L122.427759,69.8506843 L122.198843,69.3218892 L122.198843,72.8966361 C122.199301,72.8993831 122.199301,72.902588 122.200217,72.9048771 C122.269807,72.9442506 122.349928,72.9840819 122.427759,73.0239133 L122.427759,73.1255518 C122.428217,73.1282988 122.428217,73.1315036 122.429133,73.1337928 C122.872771,73.3874313 123.48947,73.6529735 124.260916,73.8365639 L124.288843,73.8480096 L124.287012,73.8434313 C124.866169,73.9794072 125.53094,74.0709735 126.288651,74.0709735 C129.100651,74.0709735 130.750675,72.2634554 130.750675,69.9875759" id="Fill-36" fill="#FFFFFF"></path>
                                <path d="M154.859706,72.8687084 L154.859706,66.1724675 L154.63079,66.1724675 L154.63079,65.9435518 L153.727031,65.9435518 L150.7992,65.9435518 L150.595465,65.9435518 L150.7992,66.0694554 L150.7992,66.0776964 L150.960814,66.1724675 L150.824381,66.1724675 L151.028116,66.2983711 L151.028116,66.306612 L151.244212,66.4329735 L152.628694,67.2914072 L152.628694,72.2584193 C151.936911,72.7038892 150.865586,73.0829735 149.594188,73.0829735 C148.058622,73.0829735 146.757465,72.5138892 145.761682,71.5753349 C144.542019,70.2911181 143.843369,68.4162988 143.843369,66.3510217 C143.843369,62.7144675 145.963128,59.5906843 149.532839,59.5906843 C151.077104,59.5906843 152.223971,60.0961301 153.090188,60.8323229 L153.954116,62.8280096 L153.954116,62.5281301 L154.183031,63.0569253 L154.183031,59.4817205 L154.17479,59.4794313 L154.17479,59.4789735 C154.108405,59.4602024 154.030116,59.4396 153.954116,59.4199133 L153.954116,59.2528048 L153.945875,59.2505157 L153.945875,59.2500578 C153.546646,59.1378892 152.968863,58.9932145 152.275706,58.8686843 L152.236333,58.8595277 L152.23679,58.8618169 C151.423682,58.7180578 150.452622,58.6031422 149.393658,58.6031422 C144.423441,58.6031422 141.442501,62.2877687 141.40908,66.2557928 L141.405417,66.2557928 C141.405417,66.2676964 141.40679,66.2782265 141.40679,66.2901301 C141.40679,66.3006602 141.405417,66.3116482 141.405417,66.323094 L141.40908,66.3221783 C141.425104,68.5527325 142.262935,70.4559373 143.709224,71.7937205 C145.127586,73.2345157 147.200188,74.0929494 149.711393,74.0929494 C152.049537,74.0929494 153.897802,73.1823229 154.859706,72.8687084" id="Fill-38" fill="#FFFFFF"></path>
                                <polygon id="Fill-40" fill="#FFFFFF" points="139.299713 73.6191398 137.568195 72.5450675 137.568195 60.445959 139.440725 59.0770434 139.041039 59.0770434 138.898195 59.0770434 139.211352 58.8481277 138.812123 58.8481277 136.250099 58.8481277 136.078412 58.8481277 133.880364 58.8481277 133.880364 58.9818145 134.10928 59.1484651 134.10928 59.2107301 135.353207 60.1154048 135.353207 72.4141277 133.880364 73.485453 133.880364 73.4950675 133.710508 73.6191398 133.880364 73.6191398 134.240219 73.6191398 134.10928 73.7143687 134.10928 73.7239831 133.939424 73.8480554 134.10928 73.8480554 136.308243 73.8480554 136.396605 73.8480554 139.041039 73.8480554 139.529087 73.8480554 139.159617 73.6191398"></polygon>
                                <polygon id="Fill-42" fill="#FFFFFF" points="66.8756048 73.6191398 65.5140145 72.774441 65.1994843 72.5404892 65.1994843 59.8356699 68.8250506 59.8356699 69.0617494 60.1492843 70.3706892 61.9078145 70.3706892 61.8290675 70.5996048 62.1367301 70.5996048 61.933453 70.5996048 59.7331157 70.5996048 59.0770434 70.3706892 59.0770434 70.3706892 58.8481277 57.6077253 58.8481277 57.6077253 59.5042 57.6077253 61.7045373 57.6077253 61.9078145 57.836641 61.6001518 57.836641 61.933453 57.836641 62.1367301 59.1451229 60.3782 59.5548819 59.8356699 62.9844964 59.8356699 62.9844964 72.3697181 62.4882072 72.7405614 61.2864 73.6191398 61.4896771 73.6191398 61.8284723 73.6191398 61.5153157 73.8480554 61.7185928 73.8480554 63.8836771 73.8480554 63.9724964 73.8480554 66.6947614 73.8480554 67.1045205 73.8480554 66.7355084 73.6191398"></polygon>
                                <g id="Group-46" transform="translate(0.000000, 58.602410)">
                                    <mask id="mask-2" fill="white">
                                        <use xlink:href="#path-1"></use>
                                    </mask>
                                    <g id="Clip-45"></g>
                                    <path d="M8.21665301,15.4906771 C9.26462892,15.4906771 10.200894,15.3592795 10.9814964,15.1825566 L10.9869904,15.1811831 C11.742412,15.0085807 12.3485807,14.7943157 12.7629181,14.6134723 L12.7775687,14.6084361 L12.7775687,14.6070627 L12.7775687,12.505159 L12.7775687,11.0336892 L12.548653,11.5620265 L12.548653,10.8047735 L11.4567253,13.3260506 C10.6504843,13.9487012 9.53291807,14.5035928 8.05458072,14.5035928 C6.6687253,14.5035928 5.39961687,13.9725084 4.39925542,13.0458578 C3.19790602,11.8046771 2.43790602,9.95686988 2.43790602,7.74829157 C2.43790602,4.11173735 4.55766506,0.987954217 8.1273759,0.987954217 C9.67164096,0.987954217 10.8185084,1.4934 11.6847253,2.2300506 L12.548653,4.22573735 L12.548653,3.9254 L12.7775687,4.45465301 L12.7775687,0.878990361 L12.768412,0.877159036 L12.768412,0.876701205 C12.7024843,0.85793012 12.6241952,0.837327711 12.548653,0.817183133 L12.548653,0.650074699 L12.5394964,0.648243373 L12.5394964,0.647785542 C12.141641,0.535159036 11.5634,0.390942169 10.8693277,0.26686988 L10.8299542,0.257255422 L10.8308699,0.259086747 C10.0182193,0.115327711 9.0467012,0.000412048193 7.98773735,0.000412048193 C2.9900506,0.000412048193 -4.57831325e-05,3.7267012 -4.57831325e-05,7.72036386 C-4.57831325e-05,9.98113494 0.869375904,11.8774723 2.31566506,13.2038096 C3.75096627,14.6464361 5.82173735,15.4906771 8.21665301,15.4906771" id="Fill-44" fill="#FFFFFF" mask="url(#mask-2)"></path>
                                </g>
                                <path d="M79.8431277,74.0933157 C83.8821157,74.0933157 87.2059711,70.7685446 87.2059711,66.3289542 C87.2059711,64.0626892 86.3273928,62.1526169 84.9300916,60.8258217 C83.585441,59.4262313 81.6968867,58.6025928 79.614212,58.6025928 C75.5083807,58.6025928 72.2738024,61.9497976 72.2738024,66.4118217 C72.2738024,68.6643518 73.1500916,70.5606892 74.541441,71.8792434 C75.8838024,73.2728819 77.768694,74.0933157 79.8431277,74.0933157" id="Fill-47" fill="#FFFFFF"></path>
                                <path d="M16.2651446,73.6189108 L16.4560602,73.6189108 L16.8072169,73.6189108 L16.4940602,73.8478265 L16.6849759,73.8478265 L18.8628795,73.8478265 L18.9498675,73.8478265 L21.8396988,73.8478265 L22.0823494,73.8478265 L21.7128795,73.6189108 L21.8534337,73.6189108 L20.1855542,72.5846699 L20.1438916,72.5585735 L20.1438916,66.4401157 L21.9440843,66.4401157 L24.7116747,71.2088867 C25.1383735,71.9638506 25.552253,72.4953928 25.9601807,72.8744771 C26.8273133,73.802959 27.6628554,73.9815133 28.5331928,73.9815133 C28.9571446,73.9815133 29.5372169,73.8702602 29.6484699,73.8478265 L29.6484699,73.7141398 C29.5944458,73.6967422 29.5156988,73.6614892 29.4195542,73.6088386 L29.4195542,73.4852241 C29.232759,73.4266217 28.774012,73.1684048 28.185241,72.6048145 C27.7013133,72.1021157 27.1487108,71.406212 26.591988,70.456212 L23.9370241,65.9717542 C25.0967108,65.4360916 26.6363976,64.1866699 26.6363976,62.2230313 C26.6363976,61.4062602 26.3236988,60.6865494 25.7138675,60.1417301 C25.0019398,59.3460193 23.7470241,58.8478988 21.9678916,58.8478988 L18.6399157,58.8478988 L16.4560602,58.8478988 L16.2715542,58.8478988 L16.5847108,59.0768145 L16.5004699,59.0768145 L17.9289036,60.1215855 L17.9289036,72.4019952 L16.2651446,73.6189108 Z" id="Fill-49" fill="#FFFFFF"></path>
                                <polygon id="Fill-51" fill="#FFFFFF" points="158.651557 73.1825518 158.235846 73.4851783 158.235846 73.4865518 158.054545 73.6193229 158.235846 73.6193229 158.595243 73.6193229 158.464761 73.714094 158.464761 73.7154675 158.28346 73.8482386 158.464761 73.8482386 160.653195 73.8482386 160.740641 73.8482386 163.396063 73.8482386 163.873123 73.8482386 163.504111 73.6193229 163.644207 73.6193229 161.923219 72.5521181 161.923219 66.7307928 170.016761 66.7307928 170.016761 72.4079012 168.35987 73.6193229 168.543918 73.6193229 168.9024 73.6193229 168.588786 73.8482386 168.772834 73.8482386 170.95852 73.8482386 171.046882 73.8482386 173.703677 73.8482386 174.178448 73.8482386 173.808978 73.6193229 173.949533 73.6193229 172.231749 72.5539494 172.231749 60.2904795 173.890472 59.0767687 173.703677 59.0767687 173.348858 59.0767687 173.661557 58.847853 173.474761 58.847853 170.699846 58.847853 170.52999 58.847853 168.543918 58.847853 168.331027 58.847853 168.643725 59.0767687 168.559942 59.0767687 170.016761 60.1416843 170.016761 65.7208169 161.923219 65.7208169 161.923219 60.3142867 163.614448 59.0767687 163.396063 59.0767687 163.072376 59.0767687 163.385533 58.847853 163.167147 58.847853 160.423822 58.847853 160.253051 58.847853 158.235846 58.847853 158.054545 58.847853 158.235846 58.9806241 158.235846 58.9819976 158.366328 59.0767687 158.28346 59.0767687 158.464761 59.2095398 158.464761 59.2109133 158.883219 59.5153711 159.708689 60.1187928 159.708689 72.4101904"></polygon>
                                <g id="Group-55" transform="translate(77.831325, 0.000000)">
                                    <mask id="mask-4" fill="white">
                                        <use xlink:href="#path-3"></use>
                                    </mask>
                                    <g id="Clip-54"></g>
                                    <path d="M19.0242193,36.5643325 C21.5194,36.5643325 23.7508699,36.2511759 25.6087494,35.8290554 L25.6082916,35.8299711 L25.6229422,35.8253928 C27.4213036,35.4156337 28.8653036,34.904694 29.8519301,34.4747904 L29.887641,34.4633446 L29.887641,34.4601398 L29.887641,29.4537542 L29.887641,28.5513687 L29.887641,25.9485976 L29.887641,25.9490554 L29.8844361,25.9559229 L27.2345084,31.9832723 C26.7611108,32.3486217 26.2451349,32.7020675 25.6852072,33.0275855 C24.0127494,33.9917783 21.931906,34.7128627 19.4010145,34.7522361 C19.3282193,34.7536096 19.2577133,34.7572723 19.1844602,34.7572723 C12.5033277,34.7572723 6.94388193,29.6016337 5.58320723,21.8578747 C5.37443614,20.6702602 5.26135181,19.4240434 5.26135181,18.1238024 C5.26135181,9.4625494 10.3094,2.02324819 18.8117855,2.02324819 L18.818653,2.02324819 C19.2142193,2.02324819 19.5960506,2.04110361 19.9705566,2.06811566 C20.0351108,2.07269398 20.1010386,2.07544096 20.1646771,2.08093494 C20.5098819,2.11023614 20.8445566,2.15281446 21.171906,2.20363373 C21.2556892,2.21691084 21.3390145,2.23018795 21.4209663,2.24438072 C21.7432795,2.30069398 22.0582675,2.36662169 22.3650145,2.44399518 C22.4254482,2.45910361 22.4849663,2.47558554 22.5440265,2.49160964 C24.3190386,2.96821205 25.8372072,3.79276627 27.1951349,4.8952241 C27.2120747,4.90895904 27.2290145,4.92315181 27.2459542,4.93688675 L29.887641,10.2793205 L29.887641,1.76457349 L29.887641,1.75953735 L29.8830627,1.76365783 L29.8656651,1.75953735 L29.8656651,1.75724819 C28.9161229,1.48941687 27.5403398,1.14558554 25.8884843,0.849368675 L25.7941711,0.827850602 L25.7960024,0.832428916 C23.8602916,0.489971084 21.5473277,0.215272289 19.0242193,0.215272289 C7.12060482,0.215272289 -4.57831325e-05,9.09033253 -4.57831325e-05,18.6022361 C-4.57831325e-05,29.2838988 8.13103855,36.5643325 19.0242193,36.5643325" id="Fill-53" fill="#FFFFFF" mask="url(#mask-4)"></path>
                                </g>
                                <path d="M103.012094,18.3132072 C103.012094,20.8418096 105.062263,22.8915205 107.590407,22.8915205 C110.118552,22.8915205 112.16872,20.8418096 112.16872,18.3132072 C112.16872,15.7846048 110.118552,13.734894 107.590407,13.734894 C105.062263,13.734894 103.012094,15.7846048 103.012094,18.3132072" id="Fill-56" fill="#FFFFFF"></path>
                            </g>
                        </g>
                    </g>
                </g>
            </g>
        </g>
    </g>
</svg>