<?xml version="1.0" encoding="UTF-8"?>
<svg width="800px" height="400px" viewBox="0 0 800 400" version="1.1" xmlns="http://www.w3.org/2000/svg" xmlns:xlink="http://www.w3.org/1999/xlink" style="background: #F5F2F2;">
    <!-- Generator: Sketch 47 (45396) - http://www.bohemiancoding.com/sketch -->
    <title>1-1</title>
    <desc>Created with Sketch.</desc>
    <defs>
        <linearGradient x1="17.0628739%" y1="13.8509031%" x2="90.96048%" y2="86.1159195%" id="linearGradient-1">
            <stop stop-color="#545454" offset="0%"></stop>
            <stop stop-color="#1A1A1A" offset="100%"></stop>
        </linearGradient>
        <linearGradient x1="-59.3257914%" y1="-55.7515824%" x2="90.96048%" y2="86.1159195%" id="linearGradient-2">
            <stop stop-color="#545454" offset="0%"></stop>
            <stop stop-color="#1A1A1A" offset="100%"></stop>
        </linearGradient>
        <polygon id="path-3" points="65.2804706 39.8326824 65.2804706 0.136 0 0.136 0 39.8326824 0 79.5293647 65.2804706 79.5293647"></polygon>
        <linearGradient x1="39.3913104%" y1="37.2095307%" x2="90.96048%" y2="86.1159195%" id="linearGradient-5">
            <stop stop-color="#545454" offset="0%"></stop>
            <stop stop-color="#1A1A1A" offset="100%"></stop>
        </linearGradient>
        <linearGradient x1="10.9832869%" y1="11.7859223%" x2="89.5340968%" y2="84.4164426%" id="linearGradient-6">
            <stop stop-color="#1A1A1A" offset="0%"></stop>
            <stop stop-color="#545454" offset="100%"></stop>
        </linearGradient>
    </defs>
    <g id="Page-1" stroke="none" stroke-width="1" fill="none" fill-rule="evenodd">
        <g id="1-1">
            <g id="Group-6" transform="translate(193.000000, 103.000000)">
                <g id="Group-2" transform="translate(0.000000, 128.000000)">
                    <g id="Group-2-Copy-3" transform="translate(2.000000, 49.000000)">
                        <g id="Group">
                            <polygon id="Line" fill="url(#linearGradient-1)" fill-rule="nonzero" points="-1 10 413 10 413 8 -1 8"></polygon>
                            <g id="Group-4" transform="translate(101.000000, 0.000000)">
                                <rect id="Rectangle" fill="#F5F2F2" x="0" y="0" width="212" height="17"></rect>
                                <path d="M12,2.15961801 L12,14.840382 L13.5604885,14.840382 L13.5604885,2.15961801 L12,2.15961801 Z M18.0904889,2.15961801 L18.0904889,14.840382 L19.5792308,14.840382 L19.5792308,3.9686221 L26.0543612,14.840382 L27.8480261,14.840382 L27.8480261,2.15961801 L26.3592842,2.15961801 L26.3592842,12.6412005 L20.1173303,2.15961801 L18.0904889,2.15961801 Z M31.2121443,2.15961801 L35.5707501,14.840382 L37.4361616,14.840382 L41.866514,2.15961801 L40.3957088,2.15961801 L36.5752025,13.3506139 L32.7546962,2.15961801 L31.2121443,2.15961801 Z M45.2306322,2.15961801 L45.2306322,14.840382 L53.0330747,14.840382 L53.0330747,13.5811733 L46.7911207,13.5811733 L46.7911207,8.98772169 L51.5622694,8.98772169 L51.5622694,7.72851296 L46.7911207,7.72851296 L46.7911207,3.41882674 L52.710215,3.41882674 L52.710215,2.15961801 L45.2306322,2.15961801 Z M60.737862,15 C63.2848662,15 65.1682144,13.3860846 65.1682144,11.2578445 C65.1682144,8.88130969 63.6615359,7.99454297 60.8096086,7.56889495 C58.1908578,7.19645293 57.7245049,6.52251023 57.7245049,5.29877217 C57.7245049,4.09276944 58.6213374,3.2414734 60.3970657,3.2414734 C62.1907306,3.2414734 63.1054997,3.87994543 63.4104228,5.49386085 L64.8094814,5.49386085 C64.5404317,3.22373806 62.9799432,2 60.3970657,2 C57.975618,2 56.2716363,3.50750341 56.2716363,5.44065484 C56.2716363,7.71077763 57.8679981,8.50886767 60.5584955,8.93451569 C62.9978798,9.30695771 63.6615359,9.92769441 63.6615359,11.3642565 C63.6615359,12.8008186 62.3880338,13.7585266 60.737862,13.7585266 C58.1729212,13.7585266 57.5451384,12.4815825 57.3478353,10.9740791 L55.8411568,10.9740791 C56.0743332,13.1377899 57.311962,15 60.737862,15 Z M71.2407667,3.41882674 L71.2407667,14.840382 L72.8012551,14.840382 L72.8012551,3.41882674 L76.5320782,3.41882674 L76.5320782,2.15961801 L67.5099436,2.15961801 L67.5099436,3.41882674 L71.2407667,3.41882674 Z M79.8782598,2.15961801 L79.8782598,14.840382 L81.3131917,14.840382 L81.3131917,4.16371078 L85.7076708,14.840382 L86.1919603,14.840382 L90.4429462,4.16371078 L90.4429462,14.840382 L92.0034347,14.840382 L92.0034347,2.15961801 L89.8510368,2.15961801 L86.0125938,12.0381992 L82.0485943,2.15961801 L79.8782598,2.15961801 Z M96.4437519,2.15961801 L96.4437519,14.840382 L104.246194,14.840382 L104.246194,13.5811733 L98.0042403,13.5811733 L98.0042403,8.98772169 L102.775389,8.98772169 L102.775389,7.72851296 L98.0042403,7.72851296 L98.0042403,3.41882674 L103.923335,3.41882674 L103.923335,2.15961801 L96.4437519,2.15961801 Z M107.807616,2.15961801 L107.807616,14.840382 L109.296358,14.840382 L109.296358,3.9686221 L115.771488,14.840382 L117.565153,14.840382 L117.565153,2.15961801 L116.076411,2.15961801 L116.076411,12.6412005 L109.834457,2.15961801 L107.807616,2.15961801 Z M124.642157,3.41882674 L124.642157,14.840382 L126.202646,14.840382 L126.202646,3.41882674 L129.933469,3.41882674 L129.933469,2.15961801 L120.911334,2.15961801 L120.911334,3.41882674 L124.642157,3.41882674 Z M137.153967,15 C139.700971,15 141.584319,13.3860846 141.584319,11.2578445 C141.584319,8.88130969 140.077641,7.99454297 137.225713,7.56889495 C134.606963,7.19645293 134.14061,6.52251023 134.14061,5.29877217 C134.14061,4.09276944 135.037442,3.2414734 136.813171,3.2414734 C138.606835,3.2414734 139.521605,3.87994543 139.826528,5.49386085 L141.225586,5.49386085 C140.956536,3.22373806 139.396048,2 136.813171,2 C134.391723,2 132.687741,3.50750341 132.687741,5.44065484 C132.687741,7.71077763 134.284103,8.50886767 136.9746,8.93451569 C139.413985,9.30695771 140.077641,9.92769441 140.077641,11.3642565 C140.077641,12.8008186 138.804139,13.7585266 137.153967,13.7585266 C134.589026,13.7585266 133.961243,12.4815825 133.76394,10.9740791 L132.257262,10.9740791 C132.490438,13.1377899 133.728067,15 137.153967,15 Z M151.218293,2.15961801 L151.218293,14.840382 L152.778781,14.840382 L152.778781,9.16507503 L157.406437,9.16507503 L157.406437,7.9058663 L152.778781,7.9058663 L152.778781,3.41882674 L158.715812,3.41882674 L158.715812,2.15961801 L151.218293,2.15961801 Z M166.725523,15 C170.025866,15 171.586355,13.1200546 171.586355,10.0163711 L171.586355,2.15961801 L170.025866,2.15961801 L170.025866,9.80354707 C170.025866,12.9072306 168.806174,13.7230559 166.761396,13.7230559 C164.608998,13.7230559 163.676292,12.6766712 163.676292,10.0341064 L163.676292,2.15961801 L162.115804,2.15961801 L162.115804,10.2114598 C162.115804,13.3151432 163.765975,15 166.725523,15 Z M175.919052,2.15961801 L175.919052,14.840382 L177.407794,14.840382 L177.407794,3.9686221 L183.882924,14.840382 L185.676589,14.840382 L185.676589,2.15961801 L184.187847,2.15961801 L184.187847,12.6412005 L177.945893,2.15961801 L175.919052,2.15961801 Z M193.435186,13.5811733 C196.717593,13.5811733 198.385702,11.6302865 198.385702,8.526603 L198.385702,8.38472033 C198.385702,5.45839018 196.95077,3.40109141 193.41725,3.40109141 L191.677395,3.40109141 L191.677395,13.5811733 L193.435186,13.5811733 Z M190.116906,2.15961801 L193.506933,2.15961801 C197.901412,2.15961801 200,4.85538881 200,8.38472033 L200,8.54433834 C200,12.0559345 197.973159,14.840382 193.47106,14.840382 L190.116906,14.840382 L190.116906,2.15961801 Z" id="investments-fund" fill="url(#linearGradient-2)"></path>
                            </g>
                        </g>
                    </g>
                    <g id="Group-3">
                        <path d="M329.876841,16.5344358 L336.272156,16.5344358 L338.246037,16.5344358 L338.246037,31.1603489 C336.145742,31.8457244 332.108119,33.8348364 327.00131,33.8348364 C316.480035,33.8348364 309.437421,26.9826045 309.36736,17.3614556 L309.359745,17.3629787 C309.359745,17.3386097 309.362791,17.3142408 309.362791,17.291395 C309.362791,17.265503 309.359745,17.2426572 309.359745,17.2167652 L309.36736,17.2167652 C309.440467,8.5490498 315.951534,0.501218445 326.806359,0.501218445 C329.119882,0.501218445 331.2415,0.752522793 333.017384,1.06627246 L333.015861,1.06170329 L333.102675,1.08150303 C334.616593,1.35413017 335.877684,1.6694029 336.750396,1.91461502 L336.750396,1.91613808 L336.768672,1.92070725 L336.768672,9.72941871 L334.834391,5.26229354 C332.897062,3.43919473 330.256082,2.15830408 326.611408,2.15830408 C318.814881,2.15830408 314.184788,8.98159789 314.184788,16.9243383 L314.183265,16.9243383 C314.183265,25.2097665 319.302259,32.1290129 327.244999,32.1290129 C330.023055,32.1290129 332.36247,31.3004701 333.873342,30.3272369 L333.873342,19.2881223 L330.348989,17.104059 L329.876841,16.8268627 L329.876841,16.8101091 L329.432109,16.5344358 L329.876841,16.5344358 Z M260.12176,1.03687747 L260.50557,1.03687747 L260.12176,1.32016601 L260.12176,1.32930435 L259.009929,2.13652437 L256.5639,3.93373123 L256.5639,33.2997866 L255.00429,33.2997866 L231.855352,7.22657971 L231.855352,30.4044559 L235.938667,33.2997866 L235.510688,33.2997866 L231.102962,33.2997866 L230.604922,33.2997866 L226.299241,33.2997866 L225.929138,33.2997866 L226.299241,33.0271594 L226.299241,33.0073597 L229.857101,30.4242556 L229.857101,4.98768643 L225.796632,1.03687747 L226.105813,1.03687747 L230.836427,1.03687747 L232.147779,1.03687747 L254.56565,26.6227062 L254.56565,3.92611594 L250.47015,1.03687747 L250.910314,1.03687747 L255.464253,1.03687747 L255.630266,1.03687747 L260.12176,1.03687747 Z M414.083597,2.46992148 L414.083597,7.71989776 L411.310111,3.99145507 L410.329263,2.6938108 L402.289047,2.6938108 L402.289047,30.5322403 L405.95809,33.2996343 L405.552957,33.2996343 L399.637405,33.2996343 L399.442454,33.2996343 L394.687471,33.2996343 L394.26863,33.2996343 L397.951381,30.5581323 L397.951381,2.6938108 L389.95838,2.6938108 L389.15116,3.76299657 L386.207091,7.71989776 L386.207091,7.27516522 L386.207091,2.46992148 L386.207091,1.03672516 L414.082074,1.03672516 L414.082074,2.46992148 L414.083597,2.46992148 Z M27.8891278,1.91446271 L27.8891278,1.91598577 L27.9089275,1.92055494 L27.9089275,9.7292664 L25.9746456,5.26214124 C24.0373175,3.43904242 21.3963373,2.15815178 17.7516627,2.15815178 C9.9551357,2.15815178 5.32504348,8.98144559 5.32504348,16.924186 C5.32504348,25.8919436 11.0273676,32.1791215 18.0928274,32.1791215 C21.3217075,32.1791215 23.7631673,30.9667684 25.5238208,29.6066788 L27.9089275,24.0993059 L27.9089275,27.3144785 L27.9089275,31.9049713 L27.9089275,31.9080174 L27.8769433,31.9186788 C26.9722477,32.3131505 25.6471884,32.7822519 23.9977181,33.1584469 L23.9855336,33.161493 C22.2812332,33.5483494 20.2357681,33.8346841 17.946614,33.8346841 C7.95688538,33.8346841 0.5,27.1591267 0.5,17.3628264 C0.5,8.6402809 7.03086693,0.50106614 17.946614,0.50106614 C20.260137,0.50106614 22.3817549,0.752370487 24.157639,1.06612016 L24.1545929,1.06155099 L24.2414071,1.08287378 C25.7568485,1.35397787 27.0194625,1.66925059 27.8891278,1.91446271 Z M277.985692,14.5852279 C282.274619,17.704448 285.587267,20.1900764 285.587267,24.8673834 C285.587267,29.8386403 281.982192,33.7864032 275.841228,33.7864032 C274.185665,33.7864032 272.734192,33.5868827 271.468532,33.2898867 L271.473101,33.299025 L271.412179,33.2746561 C269.726155,32.8740922 268.379773,32.2938076 267.411109,31.739415 C267.409586,31.7348458 267.409586,31.7272306 267.408063,31.7211383 L267.408063,23.9139499 L270.146519,30.234635 C271.435025,31.4210962 273.250509,32.0805797 275.841228,32.0805797 C279.301613,32.0805797 281.641028,29.5462134 281.641028,26.4269934 C281.641028,22.8219183 279.642777,20.8724058 275.500063,18.1430883 C270.67502,14.8776548 267.99444,12.3432885 267.99444,8.10309881 C267.99444,3.37705402 271.747252,0.5 277.059673,0.5 C278.003968,0.5 278.830988,0.556353096 279.566625,0.637075099 L279.565101,0.632505929 L279.60927,0.641644269 C281.327278,0.83659552 282.490893,1.18689855 283.16713,1.42906456 L283.305729,1.45952569 L283.305729,9.26976021 L280.789639,3.46082213 C279.769191,2.67949407 278.460885,2.10987088 276.767246,2.10987088 C273.842978,2.10987088 271.747252,3.91316996 271.747252,6.68970224 C271.747252,10.1988248 274.135404,11.9046482 277.985692,14.5852279 Z M376.190252,3.68669144 L376.190252,30.6630709 L380.442627,33.2994819 L379.405425,33.2994819 L373.602579,33.2994819 L373.409151,33.2994819 L368.635891,33.2994819 L368.233804,33.2994819 L371.852587,30.6539325 L371.852587,17.7536427 L353.674906,17.7536427 L353.674906,30.6585017 L357.933372,33.2994819 L356.891602,33.2994819 L351.091802,33.2994819 L350.899897,33.2994819 L346.120545,33.2994819 L345.72455,33.2994819 L346.120545,33.0101012 L346.120545,33.0070551 L347.028287,32.3460485 L349.337241,30.6585017 L349.337241,3.6775531 L347.034379,1.99457549 L346.120545,1.32899974 L346.120545,1.32595362 L345.72455,1.03657286 L346.120545,1.03657286 L350.526748,1.03657286 L350.899897,1.03657286 L356.891602,1.03657286 L357.368318,1.03657286 L353.674906,3.73847536 L353.674906,16.0478192 L371.852587,16.0478192 L371.852587,3.72781397 L368.169836,1.03657286 L368.635891,1.03657286 L372.973557,1.03657286 L373.345183,1.03657286 L379.405425,1.03657286 L379.813604,1.03657286 L376.190252,3.68669144 Z M300.477583,4.02648538 L300.477583,30.6434235 L304.760418,33.2996343 L303.694279,33.2996343 L297.918848,33.2996343 L297.72542,33.2996343 L292.923222,33.2996343 L292.551596,33.2996343 L292.923222,33.0285302 L292.923222,33.0072074 L296.139918,30.6677924 L296.139918,3.66856706 L292.923222,1.32915204 L292.923222,1.03672516 L297.723897,1.03672516 L298.098569,1.03672516 L303.694279,1.03672516 L304.56699,1.03672516 L300.477583,4.02648538 Z M48.4333344,15.6576121 L43.9981934,15.6576121 L43.9981934,2.5486635 L47.1174134,2.5486635 C50.626536,2.5486635 53.8432316,4.39917734 53.8432316,9.12674519 C53.8432316,12.5871299 51.5038166,15.6576121 48.4333344,15.6576121 M58.0818983,25.8910298 C61.0549049,30.9597623 63.9791736,32.7630614 64.7589787,33.0067505 L64.7589787,33.2991773 C64.5152896,33.3479152 63.2481065,33.5916042 62.322088,33.5916042 C59.6902461,33.5916042 57.2046177,32.860537 54.4753001,28.0354935 L48.1409075,17.1197465 L43.9981934,17.1197465 L43.9981934,30.6673354 L44.5891394,31.0404843 L48.2322909,33.2991773 L47.7022672,33.2991773 L41.3907204,33.2991773 L41.2003383,33.2991773 L36.4438324,33.2991773 L36.0265149,33.2991773 L39.6605281,30.6414435 L39.6605281,3.68334071 L36.0402224,1.03626825 L36.4438324,1.03626825 L41.2140458,1.03626825 L48.4820722,1.03626825 C54.8667257,1.03626825 58.1793739,3.96053702 58.1793739,7.90829987 C58.1793739,12.1972274 54.8164648,14.9265449 52.2836216,16.0962524 L58.0818983,25.8910298 Z M90.5895626,3.78112095 L81.7451726,17.2662646 L81.7451726,30.6630709 L85.9960237,33.2994819 L84.9618682,33.2994819 L79.1544532,33.2994819 L78.961025,33.2994819 L74.1908116,33.2994819 L73.7872016,33.2994819 L77.4075072,30.6524095 L77.4075072,18.0932843 L67.7848353,3.70801423 L64.7204453,1.03657286 L65.0783636,1.03657286 L69.7632859,1.03657286 L70.5034914,1.03657286 L76.0428485,1.03657286 L76.5058577,1.03657286 L72.7895995,3.68821449 L80.7216785,15.852868 L88.6537576,3.68669144 L84.9725296,1.03657286 L85.4005086,1.03657286 L88.6948801,1.03657286 L90.1326456,1.03657286 L93.3919868,1.03657286 L93.7377207,1.03657286 L90.5895626,3.78112095 Z M110.523937,1.03687747 C116.908591,1.03687747 121.733634,4.00988406 121.733634,10.004635 C121.733634,16.8264058 115.543932,20.5792174 108.720638,20.433004 L108.720638,19.9943636 C112.960828,19.3607721 117.298493,16.0466008 117.298493,10.5879657 C117.298493,5.86192095 114.4717,2.54774967 108.769376,2.54774967 L106.478699,2.54774967 L106.478699,30.6679447 L106.975215,30.9816943 L110.714319,33.2997866 L110.182773,33.2997866 L103.874272,33.2997866 L103.680844,33.2997866 L98.9258609,33.2997866 L98.5070203,33.2997866 L102.142557,30.6420527 L102.142557,3.67024242 L98.4826514,1.03687747 L98.9258609,1.03687747 L103.642767,1.03687747 L110.523937,1.03687747 Z M126.327782,2.46992148 L126.327782,1.03672516 L154.204288,1.03672516 L154.204288,2.46992148 L154.204288,7.27516522 L154.204288,7.71989776 L151.345511,3.87874888 L150.451477,2.6938108 L142.409738,2.6938108 L142.409738,30.5703167 L143.596199,31.4552126 L146.570728,33.2996343 L145.675171,33.2996343 L139.729158,33.2996343 L139.53573,33.2996343 L134.806639,33.2996343 L134.361906,33.2996343 L136.987656,31.3805829 L138.072072,30.5703167 L138.072072,2.6938108 L130.080594,2.6938108 L129.185037,3.87874888 L126.327782,7.71989776 L126.327782,7.27516522 L126.327782,2.46992148 Z M174.39408,32.1785123 C168.253115,32.1785123 163.185906,26.4274503 163.185906,17.2175267 C163.185906,8.00608011 168.2059,2.15906561 174.39408,2.15906561 C180.535044,2.15906561 185.699729,8.00608011 185.699729,17.2175267 C185.699729,26.3787125 180.535044,32.1785123 174.39408,32.1785123 M174.39408,0.500456917 C183.215624,0.500456917 190.476035,7.2262751 190.476035,16.8763621 C190.476035,26.5736638 183.215624,33.8355979 174.39408,33.8355979 C165.621273,33.8355979 158.360862,27.1585175 158.360862,17.5571684 C158.360862,7.81112885 165.426322,0.500456917 174.39408,0.500456917 Z M215.991803,3.74989829 L215.991803,30.6486018 L220.267023,33.2987204 L219.208499,33.2987204 L213.426975,33.2987204 L213.233547,33.2987204 L208.438965,33.2987204 L208.059724,33.2987204 L208.438965,33.0215241 L208.438965,33.0062935 L211.654138,30.6668785 L211.654138,3.66917628 L208.438965,1.32976126 L208.438965,1.3145307 L208.059724,1.03733439 L208.438965,1.03733439 L212.860398,1.03733439 L213.233547,1.03733439 L219.208499,1.03733439 L219.701969,1.03733439 L215.991803,3.74989829 Z" id="Fill-27" fill="#000000"></path>
                        <path d="M329.376689,16.0344358 L335.772004,16.0344358 L337.745885,16.0344358 L337.745885,30.6603489 C335.64559,31.3457244 331.607967,33.3348364 326.501158,33.3348364 C315.979882,33.3348364 308.937269,26.4826045 308.867208,16.8614556 L308.859593,16.8629787 C308.859593,16.8386097 308.862639,16.8142408 308.862639,16.791395 C308.862639,16.765503 308.859593,16.7426572 308.859593,16.7167652 L308.867208,16.7167652 C308.940315,8.0490498 315.451382,0.00121844532 326.306207,0.00121844532 C328.61973,0.00121844532 330.741348,0.252522793 332.517232,0.566272464 L332.515709,0.561703294 L332.602523,0.58150303 C334.116441,0.854130171 335.377532,1.1694029 336.250243,1.41461502 L336.250243,1.41613808 L336.26852,1.42070725 L336.26852,9.22941871 L334.334238,4.76229354 C332.39691,2.93919473 329.75593,1.65830408 326.111255,1.65830408 C318.314728,1.65830408 313.684636,8.48159789 313.684636,16.4243383 L313.683113,16.4243383 C313.683113,24.7097665 318.802106,31.6290129 326.744847,31.6290129 C329.522902,31.6290129 331.862317,30.8004701 333.373189,29.8272369 L333.373189,18.7881223 L329.848836,16.604059 L329.376689,16.3268627 L329.376689,16.3101091 L328.931956,16.0344358 L329.376689,16.0344358 Z M259.621608,0.53687747 L260.005418,0.53687747 L259.621608,0.820166008 L259.621608,0.829304348 L258.509777,1.63652437 L256.063748,3.43373123 L256.063748,32.7997866 L254.504138,32.7997866 L231.355199,6.72657971 L231.355199,29.9044559 L235.438514,32.7997866 L235.010535,32.7997866 L230.602809,32.7997866 L230.10477,32.7997866 L225.799089,32.7997866 L225.428986,32.7997866 L225.799089,32.5271594 L225.799089,32.5073597 L229.356949,29.9242556 L229.356949,4.48768643 L225.29648,0.53687747 L225.605661,0.53687747 L230.336275,0.53687747 L231.647626,0.53687747 L254.065497,26.1227062 L254.065497,3.42611594 L249.969998,0.53687747 L250.410161,0.53687747 L254.964101,0.53687747 L255.130114,0.53687747 L259.621608,0.53687747 Z M413.583445,1.96992148 L413.583445,7.21989776 L410.809959,3.49145507 L409.82911,2.1938108 L401.788894,2.1938108 L401.788894,30.0322403 L405.457938,32.7996343 L405.052805,32.7996343 L399.137253,32.7996343 L398.942301,32.7996343 L394.187319,32.7996343 L393.768478,32.7996343 L397.451229,30.0581323 L397.451229,2.1938108 L389.458228,2.1938108 L388.651008,3.26299657 L385.706939,7.21989776 L385.706939,6.77516522 L385.706939,1.96992148 L385.706939,0.536725165 L413.581922,0.536725165 L413.581922,1.96992148 L413.583445,1.96992148 Z M27.3889755,1.41446271 L27.3889755,1.41598577 L27.4087752,1.42055494 L27.4087752,9.2292664 L25.4744933,4.76214124 C23.5371652,2.93904242 20.896185,1.65815178 17.2515104,1.65815178 C9.4549834,1.65815178 4.82489117,8.48144559 4.82489117,16.424186 C4.82489117,25.3919436 10.5272153,31.6791215 17.5926751,31.6791215 C20.8215552,31.6791215 23.263015,30.4667684 25.0236685,29.1066788 L27.4087752,23.5993059 L27.4087752,26.8144785 L27.4087752,31.4049713 L27.4087752,31.4080174 L27.376791,31.4186788 C26.4720954,31.8131505 25.1470361,32.2822519 23.4975657,32.6584469 L23.4853813,32.661493 C21.7810809,33.0483494 19.7356158,33.3346841 17.4464617,33.3346841 C7.45673307,33.3346841 -0.000152305665,26.6591267 -0.000152305665,16.8628264 C-0.000152305665,8.1402809 6.53071462,0.00106613966 17.4464617,0.00106613966 C19.7599847,0.00106613966 21.8816026,0.252370487 23.6574867,0.566120158 L23.6544406,0.561550988 L23.7412548,0.582873781 C25.2566962,0.853977866 26.5193101,1.16925059 27.3889755,1.41446271 Z M277.485539,14.0852279 C281.774467,17.204448 285.087115,19.6900764 285.087115,24.3673834 C285.087115,29.3386403 281.48204,33.2864032 275.341076,33.2864032 C273.685513,33.2864032 272.23404,33.0868827 270.96838,32.7898867 L270.972949,32.799025 L270.912027,32.7746561 C269.226003,32.3740922 267.879621,31.7938076 266.910957,31.239415 C266.909434,31.2348458 266.909434,31.2272306 266.907911,31.2211383 L266.907911,23.4139499 L269.646367,29.734635 C270.934873,30.9210962 272.750356,31.5805797 275.341076,31.5805797 C278.80146,31.5805797 281.140875,29.0462134 281.140875,25.9269934 C281.140875,22.3219183 279.142625,20.3724058 274.999911,17.6430883 C270.174867,14.3776548 267.494288,11.8432885 267.494288,7.60309881 C267.494288,2.87705402 271.247099,0 276.559521,0 C277.503816,0 278.330836,0.0563530962 279.066472,0.137075099 L279.064949,0.132505929 L279.109118,0.141644269 C280.827126,0.33659552 281.990741,0.686898551 282.666978,0.929064559 L282.805576,0.959525692 L282.805576,8.76976021 L280.289487,2.96082213 C279.269039,2.17949407 277.960733,1.60987088 276.267094,1.60987088 C273.342825,1.60987088 271.247099,3.41316996 271.247099,6.18970224 C271.247099,9.69882477 273.635252,11.4046482 277.485539,14.0852279 Z M375.6901,3.18669144 L375.6901,30.1630709 L379.942474,32.7994819 L378.905273,32.7994819 L373.102427,32.7994819 L372.908999,32.7994819 L368.135739,32.7994819 L367.733652,32.7994819 L371.352435,30.1539325 L371.352435,17.2536427 L353.174754,17.2536427 L353.174754,30.1585017 L357.43322,32.7994819 L356.391449,32.7994819 L350.59165,32.7994819 L350.399744,32.7994819 L345.620393,32.7994819 L345.224398,32.7994819 L345.620393,32.5101012 L345.620393,32.5070551 L346.528134,31.8460485 L348.837088,30.1585017 L348.837088,3.1775531 L346.534227,1.49457549 L345.620393,0.828999736 L345.620393,0.825953623 L345.224398,0.536572859 L345.620393,0.536572859 L350.026596,0.536572859 L350.399744,0.536572859 L356.391449,0.536572859 L356.868166,0.536572859 L353.174754,3.23847536 L353.174754,15.5478192 L371.352435,15.5478192 L371.352435,3.22781397 L367.669684,0.536572859 L368.135739,0.536572859 L372.473404,0.536572859 L372.84503,0.536572859 L378.905273,0.536572859 L379.313452,0.536572859 L375.6901,3.18669144 Z M299.977431,3.52648538 L299.977431,30.1434235 L304.260266,32.7996343 L303.194126,32.7996343 L297.418696,32.7996343 L297.225267,32.7996343 L292.42307,32.7996343 L292.051444,32.7996343 L292.42307,32.5285302 L292.42307,32.5072074 L295.639765,30.1677924 L295.639765,3.16856706 L292.42307,0.829152042 L292.42307,0.536725165 L297.223744,0.536725165 L297.598416,0.536725165 L303.194126,0.536725165 L304.066838,0.536725165 L299.977431,3.52648538 Z M47.9331821,15.1576121 L43.4980411,15.1576121 L43.4980411,2.0486635 L46.6172611,2.0486635 C50.1263837,2.0486635 53.3430793,3.89917734 53.3430793,8.62674519 C53.3430793,12.0871299 51.0036643,15.1576121 47.9331821,15.1576121 M57.581746,25.3910298 C60.5547526,30.4597623 63.4790213,32.2630614 64.2588264,32.5067505 L64.2588264,32.7991773 C64.0151373,32.8479152 62.7479542,33.0916042 61.8219357,33.0916042 C59.1900938,33.0916042 56.7044653,32.360537 53.9751478,27.5354935 L47.6407552,16.6197465 L43.4980411,16.6197465 L43.4980411,30.1673354 L44.0889871,30.5404843 L47.7321386,32.7991773 L47.2021149,32.7991773 L40.8905681,32.7991773 L40.700186,32.7991773 L35.9436801,32.7991773 L35.5263626,32.7991773 L39.1603758,30.1414435 L39.1603758,3.18334071 L35.5400701,0.536268248 L35.9436801,0.536268248 L40.7138935,0.536268248 L47.9819199,0.536268248 C54.3665734,0.536268248 57.6792216,3.46053702 57.6792216,7.40829987 C57.6792216,11.6972274 54.3163125,14.4265449 51.7834693,15.5962524 L57.581746,25.3910298 Z M90.0894103,3.28112095 L81.2450203,16.7662646 L81.2450203,30.1630709 L85.4958714,32.7994819 L84.4617159,32.7994819 L78.6543009,32.7994819 L78.4608727,32.7994819 L73.6906593,32.7994819 L73.2870493,32.7994819 L76.9073549,30.1524095 L76.9073549,17.5932843 L67.284683,3.20801423 L64.220293,0.536572859 L64.5782113,0.536572859 L69.2631336,0.536572859 L70.0033391,0.536572859 L75.5426962,0.536572859 L76.0057054,0.536572859 L72.2894472,3.18821449 L80.2215262,15.352868 L88.1536053,3.18669144 L84.4723773,0.536572859 L84.9003563,0.536572859 L88.1947278,0.536572859 L89.6324933,0.536572859 L92.8918345,0.536572859 L93.2375684,0.536572859 L90.0894103,3.28112095 Z M110.023785,0.53687747 C116.408438,0.53687747 121.233482,3.50988406 121.233482,9.50463505 C121.233482,16.3264058 115.04378,20.0792174 108.220486,19.933004 L108.220486,19.4943636 C112.460676,18.8607721 116.798341,15.5466008 116.798341,10.0879657 C116.798341,5.36192095 113.971548,2.04774967 108.269224,2.04774967 L105.978547,2.04774967 L105.978547,30.1679447 L106.475063,30.4816943 L110.214167,32.7997866 L109.68262,32.7997866 L103.37412,32.7997866 L103.180691,32.7997866 L98.4257086,32.7997866 L98.006868,32.7997866 L101.642404,30.1420527 L101.642404,3.17024242 L97.9824991,0.53687747 L98.4257086,0.53687747 L103.142615,0.53687747 L110.023785,0.53687747 Z M125.82763,1.96992148 L125.82763,0.536725165 L153.704136,0.536725165 L153.704136,1.96992148 L153.704136,6.77516522 L153.704136,7.21989776 L150.845359,3.37874888 L149.951324,2.1938108 L141.909585,2.1938108 L141.909585,30.0703167 L143.096046,30.9552126 L146.070576,32.7996343 L145.175019,32.7996343 L139.229006,32.7996343 L139.035577,32.7996343 L134.306486,32.7996343 L133.861754,32.7996343 L136.487504,30.8805829 L137.57192,30.0703167 L137.57192,2.1938108 L129.580442,2.1938108 L128.684884,3.37874888 L125.82763,7.21989776 L125.82763,6.77516522 L125.82763,1.96992148 Z M173.893927,31.6785123 C167.752963,31.6785123 162.685753,25.9274503 162.685753,16.7175267 C162.685753,7.50608011 167.705748,1.65906561 173.893927,1.65906561 C180.034892,1.65906561 185.199577,7.50608011 185.199577,16.7175267 C185.199577,25.8787125 180.034892,31.6785123 173.893927,31.6785123 M173.893927,0.000456916996 C182.715471,0.000456916996 189.975882,6.7262751 189.975882,16.3763621 C189.975882,26.0736638 182.715471,33.3355979 173.893927,33.3355979 C165.121121,33.3355979 157.86071,26.6585175 157.86071,17.0571684 C157.86071,7.31112885 164.92617,0.000456916996 173.893927,0.000456916996 Z M215.491651,3.24989829 L215.491651,30.1486018 L219.766871,32.7987204 L218.708346,32.7987204 L212.926823,32.7987204 L212.733395,32.7987204 L207.938813,32.7987204 L207.559572,32.7987204 L207.938813,32.5215241 L207.938813,32.5062935 L211.153985,30.1668785 L211.153985,3.16917628 L207.938813,0.829761265 L207.938813,0.814530698 L207.559572,0.537334387 L207.938813,0.537334387 L212.360246,0.537334387 L212.733395,0.537334387 L218.708346,0.537334387 L219.201817,0.537334387 L215.491651,3.24989829 Z" id="Fill-27" fill="url(#linearGradient-1)"></path>
                    </g>
                </g>
                <g id="Group-5" transform="translate(170.000000, 0.000000)">
                    <g id="Page-1">
                        <g id="Group-3" transform="translate(0.000000, 0.334588)">
                            <mask id="mask-4" fill="white">
                                <use xlink:href="#path-3"></use>
                            </mask>
                            <g id="Clip-2"></g>
                            <path d="M65.2324706,3.50301176 C63.1595294,2.91807059 60.1534118,2.16795294 56.5463529,1.52089412 L56.3397647,1.47336471 L56.344,1.48324706 C52.1157647,0.735011765 47.0630588,0.135952941 41.5529412,0.135952941 C15.5534118,0.135952941 0,19.5204235 0,40.2968941 C0,63.6277176 17.76,79.5293647 41.5529412,79.5293647 C47.0032941,79.5293647 51.8767059,78.8456 55.9341176,77.9232471 L55.9331765,77.9251294 L55.9661176,77.9152471 C59.8931765,77.0206588 63.048,75.9044235 65.2032941,74.9651294 L65.2804706,74.9406588 L65.2804706,74.9336 L65.2804706,63.9990118 L65.2804706,56.3425412 L59.6009412,69.4564235 C55.4047059,72.6954824 49.5905882,75.5830118 41.9016471,75.5830118 C25.0715294,75.5830118 11.4917647,60.6093647 11.4917647,39.2517176 C11.4917647,20.3331294 22.5176471,4.08418824 41.0889412,4.08418824 C49.7698824,4.08418824 56.0597647,7.13454118 60.6715294,11.4761882 L65.2804706,22.1176 L65.2804706,3.51948235 L65.2324706,3.50865882 L65.2324706,3.50301176 Z" id="Fill-1" fill="url(#linearGradient-5)" mask="url(#mask-4)"></path>
                        </g>
                        <path d="M41.5670118,2.37712941 C17.3072471,2.37712941 5.32607059,21.5121882 5.32607059,40.5936 C5.32607059,62.0204235 18.7848941,77.7465412 41.5331294,77.7465412 C53.8216,77.7465412 62.2804235,72.3771294 62.2808941,72.3757176 C63.0851294,70.1978353 65.2804235,64.3333647 65.2804235,64.3333647 L65.2804235,62.3620706 L65.2804235,56.6773647 L59.4856,69.8580706 C55.2893647,73.0971294 49.5905412,75.9173647 41.9020706,75.9173647 C25.0719529,75.9173647 11.4917176,60.9437176 11.4917176,39.5860706 C11.4917176,20.6679529 22.5176,4.41854118 41.0888941,4.41854118 C48.8140706,4.41854118 54.6267765,6.7776 59.5044235,10.7710118 L65.2804235,22.4524235 L62.2808941,6.73524706 C62.2808941,6.73524706 53.8216,2.37712941 41.5670118,2.37712941" id="Fill-4" fill="url(#linearGradient-6)"></path>
                        <polygon id="Fill-6" fill="#292929" points="65.2802353 56.6772235 62.2807059 72.3755765 65.2802353 75.2682824"></polygon>
                        <polygon id="Fill-8" fill="#292929" points="65.2802353 22.4338824 62.2807059 6.73552941 65.2802353 3.84282353"></polygon>
                    </g>
                    <circle id="Oval" fill="url(#linearGradient-1)" cx="65" cy="40" r="10"></circle>
                </g>
            </g>
        </g>
    </g>
</svg>