<svg xmlns="http://www.w3.org/2000/svg" width="68" height="17" viewBox="0 0 68 17">
    <g fill="#FFF" fill-rule="nonzero">
        <path d="M24.73 15.692c.271 0 .453-.045.543-.134a.406.406 0 0 0 .182-.359c0-.09 0-.18-.046-.224a.352.352 0 0 0-.181-.18l-.272-.134a3.145 3.145 0 0 0-.363-.134c-.136-.045-.272-.09-.408-.18-.136-.045-.226-.134-.317-.224-.09-.09-.181-.18-.227-.314-.045-.134-.09-.269-.09-.448 0-.359.136-.628.362-.807.227-.18.59-.314.998-.314.226 0 .453.045.634.09.182.045.363.134.454.179l-.227.583c-.136-.09-.272-.135-.408-.18-.136-.044-.317-.044-.453-.044-.182 0-.363.045-.454.134-.09.045-.136.135-.136.27 0 .089 0 .179.046.223.045.045.09.135.136.18.045.045.136.09.226.134l.272.135c.182.09.363.134.499.224s.272.134.363.269c.09.09.181.224.226.359.046.134.091.269.091.448 0 .359-.136.628-.363.807-.272.18-.634.269-1.088.269-.181 0-.317 0-.453-.045a.862.862 0 0 1-.363-.09c-.09-.044-.181-.044-.272-.09-.09-.044-.136-.044-.181-.089l.227-.583c.09.045.226.135.408.18.181.044.408.09.634.09zM29.92 14.428c0 .222-.044.443-.088.62a4.854 4.854 0 0 1-.263.489 1.576 1.576 0 0 1-.439.31 1.204 1.204 0 0 1-.57.133c-.22 0-.395-.044-.57-.133a1.576 1.576 0 0 1-.439-.31 1.06 1.06 0 0 1-.263-.488c-.088-.178-.088-.4-.088-.621 0-.222.044-.444.088-.621.087-.177.175-.355.307-.488.131-.133.263-.222.439-.31.175-.089.35-.089.57-.089.22 0 .395.044.57.089.176.088.307.177.439.31s.22.31.263.488c.044.177.044.355.044.62zm-.68.168c0-.332-.042-.569-.17-.711a.588.588 0 0 0-.51-.285.588.588 0 0 0-.51.285c-.128.19-.17.427-.17.711 0 .332.042.57.17.76.127.19.297.284.51.284a.588.588 0 0 0 .51-.285c.127-.237.17-.474.17-.759zM32.914 11.56c.199 0 .348 0 .447.045.15.045.25.045.299.09l-.15.587c-.049-.045-.149-.045-.248-.09-.1 0-.2-.046-.299-.046-.1 0-.199 0-.298.045-.1.046-.15.09-.2.136a.329.329 0 0 0-.099.225c0 .09-.05.18-.05.27v.181h1.195v.587h-1.145v2.39h-.746v-3.157c0-.361.1-.677.348-.902.2-.226.498-.361.946-.361zM34.68 12.37l.729-.13v.87h1.117v.565h-1.117v1.174c0 .218.048.392.145.479.097.087.243.13.437.13.146 0 .243 0 .34-.043.098-.044.195-.044.243-.087l.146.522c-.097.043-.194.087-.34.087-.146.043-.291.043-.486.043-.243 0-.437-.043-.583-.087-.145-.043-.291-.13-.34-.217-.097-.087-.145-.218-.194-.392-.048-.13-.048-.304-.048-.522V12.37h-.049zM39.61 14.107l-.282.96c-.094.32-.188.639-.33.913h-.564c-.094-.183-.14-.365-.235-.594a12.416 12.416 0 0 1-.282-.73c-.094-.275-.188-.503-.282-.823a4.707 4.707 0 0 1-.235-.867h.752c.047.182.094.32.141.502l.141.548.142.548c.047.183.094.366.188.503.047-.183.094-.366.188-.548l.14-.549.142-.548c.047-.182.094-.365.14-.502h.565a1.6 1.6 0 0 1 .094.502l.141.548.141.549c.047.182.094.365.188.548.047-.137.094-.32.141-.503l.142-.548.14-.548c.048-.183.095-.365.142-.502h.752a5.944 5.944 0 0 0-.235.867l-.282.823c-.094.274-.188.502-.282.73-.094.229-.188.411-.235.594h-.565c-.094-.274-.188-.594-.329-.913a12.874 12.874 0 0 1-.282-.96zM44.03 12.92c.229 0 .412.044.595.089.137.044.275.133.366.221.092.09.183.222.183.355.046.133.046.31.046.488v1.774c-.092.044-.275.044-.503.089-.23.044-.458.044-.733.044-.183 0-.366 0-.503-.044-.138-.045-.275-.089-.366-.178-.092-.088-.183-.177-.23-.31-.045-.089-.045-.222-.045-.4 0-.177.046-.31.092-.443a.406.406 0 0 1 .274-.266c.137-.089.229-.133.412-.177.137-.045.32-.045.458-.045h.229c.091 0 .183.045.274.045v-.133c0-.089 0-.133-.046-.222 0-.089-.045-.133-.091-.177-.046-.045-.092-.09-.183-.133-.092-.045-.183-.045-.275-.045-.183 0-.32 0-.457.045-.138.044-.23.044-.32.088l-.092-.532c.091-.044.228-.044.366-.089.183 0 .366-.044.549-.044zm.022 2.38c.222 0 .355 0 .488-.036v-.608c-.044 0-.089-.036-.177-.036h-.444c-.089 0-.133.036-.222.036l-.133.107c-.044.036-.044.108-.044.18 0 .142.044.214.133.25.089.071.266.107.4.107zM48.421 13.91c-.05 0-.15-.047-.249-.047-.1 0-.249-.047-.398-.047-.1 0-.15 0-.249.047-.1 0-.149.046-.199.046v2.411h-.746v-2.875a8.64 8.64 0 0 1 .547-.139c.2-.046.448-.046.747-.046h.199c.05 0 .149 0 .199.046.05 0 .149 0 .199.047.05 0 .1.046.149.046l-.199.51zM49.3 14.519c0-.275.045-.503.136-.686.09-.182.181-.365.317-.502s.272-.228.454-.32c.181-.045.317-.091.498-.091.408 0 .726.137.952.365.227.274.363.64.363 1.142v.274h-1.95c0 .229.091.411.273.548.136.137.362.183.634.183.182 0 .318 0 .454-.046.136-.045.226-.045.317-.091l.09.548c-.045 0-.09.046-.135.046-.046 0-.136.045-.227.045-.09 0-.181.046-.272.046h-.317c-.272 0-.499-.046-.68-.137-.182-.091-.363-.183-.499-.32a1.091 1.091 0 0 1-.272-.502c-.09-.091-.136-.274-.136-.502zm2.04-.239c0-.09 0-.181-.049-.272-.048-.09-.048-.181-.145-.227-.049-.045-.146-.09-.195-.136-.097-.045-.194-.045-.291-.045-.097 0-.194 0-.291.045a.668.668 0 0 0-.195.136c-.048.046-.097.136-.145.227-.049.09-.049.181-.049.272h1.36z"/>
        <g>
            <path d="M27.092 10.2c-.092-.326-.23-.605-.322-.931-.091-.28-.23-.605-.32-.93h-3.26c-.09.325-.229.604-.32.93-.092.326-.23.605-.322.884H21.08c.275-.837.55-1.582.826-2.28.275-.699.505-1.35.78-2.002.23-.652.505-1.21.734-1.815.23-.559.505-1.117.735-1.676h1.33c.276.559.505 1.117.735 1.676.23.558.504 1.163.734 1.815.23.652.505 1.303.78 2.002.275.698.55 1.49.826 2.28h-1.468v.047zm-2.42-6.12c-.173.431-.347.91-.563 1.485-.216.574-.433 1.245-.649 1.915h2.38c-.216-.67-.433-1.34-.65-1.915-.172-.575-.345-1.102-.518-1.485zM32.853 7.069c0-.617-.09-1.091-.227-1.376-.136-.285-.409-.427-.818-.427-.137 0-.318 0-.5.047-.182 0-.319.048-.41.048V10.2H29.58V4.412c.273-.095.591-.142 1-.237.41-.048.864-.095 1.319-.095.409 0 .727.047.954.142.273.095.455.238.637.427.09-.047.182-.142.318-.19.137-.047.273-.142.41-.19.136-.047.318-.094.5-.142.181-.047.363-.047.5-.047.454 0 .818.047 1.09.19.274.142.501.332.683.57.182.236.273.52.318.853.046.332.091.712.091 1.139V10.2h-1.318V7.069c0-.617-.091-1.091-.228-1.376-.136-.285-.409-.427-.864-.427-.227 0-.409.047-.59.095-.183.095-.319.142-.41.19.046.19.091.38.137.616 0 .238.045.427.045.665v3.32h-1.319V7.07zM43.86 7.13c0 .465-.045.883-.179 1.255a2.676 2.676 0 0 1-.582.978c-.268.279-.536.465-.894.604a3.3 3.3 0 0 1-1.208.233c-.448 0-.85-.047-1.253-.093a4.456 4.456 0 0 1-.984-.233V1.593l1.342-.233v3.024c.134-.093.358-.14.537-.232a3.35 3.35 0 0 1 .716-.093c.402 0 .76.093 1.073.232.314.14.582.372.76.605.225.28.359.605.493.977s.179.791.179 1.256zm-1.36-.206c0-.547-.088-1.003-.309-1.322-.22-.32-.572-.502-1.013-.502-.22 0-.397.046-.617.091a1.021 1.021 0 0 0-.441.228v3.33c.088 0 .22.045.353.045.132 0 .308.046.528.046.485 0 .838-.182 1.102-.502.265-.365.397-.82.397-1.414zM46.24 2.55a.898.898 0 0 1-.236.614c-.189.142-.378.236-.614.236s-.425-.094-.614-.236-.236-.378-.236-.614c0-.283.094-.472.236-.614.189-.142.378-.236.614-.236s.425.094.614.236c.142.142.236.33.236.614zm0 7.65h-1.36V4.42h1.36v5.78zM49.374 9.125c.355 0 .576-.046.754-.14.177-.093.222-.233.222-.467a.518.518 0 0 0-.267-.467c-.177-.14-.443-.28-.842-.42l-.665-.28c-.222-.094-.355-.234-.488-.375-.133-.14-.266-.28-.355-.467a1.632 1.632 0 0 1-.133-.7c0-.561.177-.982.577-1.262.399-.327.886-.467 1.552-.467.31 0 .62.047.931.093.31.047.532.14.665.187l-.222 1.122c-.133-.047-.31-.14-.532-.187a3.717 3.717 0 0 0-.754-.094c-.266 0-.487.047-.62.14-.178.094-.267.234-.267.42 0 .094 0 .188.045.281.044.094.088.14.177.187.089.047.178.14.31.187.134.047.267.14.488.187.31.14.577.233.799.373.221.094.399.234.532.374.133.14.222.327.31.514.045.187.089.42.089.654 0 .56-.177.981-.577 1.262-.399.28-.975.42-1.685.42-.488 0-.887-.047-1.197-.14-.31-.094-.532-.14-.621-.187l.222-1.121c.177.093.443.14.71.233.177.094.487.14.842.14zM55.08 4.08c.467 0 .84.046 1.12.185.327.093.56.279.747.464.186.186.326.464.373.742.093.278.14.603.14.927v3.57a10.56 10.56 0 0 1-.933.14c-.42.046-.887.092-1.447.092-.373 0-.653-.046-.98-.093a1.827 1.827 0 0 1-.747-.324c-.186-.14-.373-.325-.466-.603a2.458 2.458 0 0 1-.187-.88c0-.325.047-.604.187-.835.14-.232.326-.418.513-.557.233-.139.467-.232.793-.324.28-.047.607-.093.934-.093.14 0 .326 0 .466.046.187 0 .327.047.514.093v-.232c0-.139 0-.324-.047-.463-.047-.14-.093-.279-.187-.371a1.017 1.017 0 0 0-.373-.232 1.75 1.75 0 0 0-.56-.093c-.327 0-.607 0-.887.046-.28.047-.466.093-.653.14l-.187-1.113c.187-.047.42-.14.747-.186.373-.046.7-.046 1.12-.046zm.046 5.1c.418 0 .742 0 .974-.049V7.577c-.093 0-.185-.048-.325-.048-.139 0-.278-.049-.463-.049-.14 0-.278 0-.464.049a.725.725 0 0 0-.417.145.482.482 0 0 0-.278.243c-.093.097-.093.243-.093.437 0 .34.093.583.325.68.139.049.417.146.741.146zM60.852 1.36c.319 0 .593.047.82.095.229.047.411.094.548.141l-.274 1.135a5.592 5.592 0 0 0-.456-.142c-.182-.047-.365-.047-.547-.047-.228 0-.41.047-.547.094a.712.712 0 0 0-.365.284c-.091.095-.137.236-.183.425-.045.142-.045.331-.045.52v.379H61.9v1.134h-2.098V10.2H58.48V3.818c0-.756.182-1.37.593-1.796.41-.426 1.003-.662 1.779-.662zM62.56 7.186c0-.51.095-.973.237-1.344.141-.371.378-.696.614-.974.237-.278.568-.463.9-.603.33-.139.662-.185 1.04-.185.804 0 1.466.232 1.94.742.472.51.709 1.252.709 2.225v.464h-3.926c.047.464.189.834.52 1.113.284.278.757.37 1.325.37.33 0 .662-.046.898-.092.284-.047.473-.14.663-.186l.189 1.113c-.095.046-.19.093-.331.14a1.424 1.424 0 0 1-.473.092c-.19.046-.379.046-.568.093-.19 0-.378.046-.615.046-.52 0-.993-.093-1.372-.232-.378-.139-.71-.37-.946-.649a3.32 3.32 0 0 1-.567-.974c-.19-.324-.237-.741-.237-1.159zm4.08-.477c0-.181-.05-.362-.099-.498a.861.861 0 0 0-.247-.408.767.767 0 0 0-.396-.272c-.148-.091-.346-.091-.544-.091a1.26 1.26 0 0 0-.593.136c-.149.09-.297.181-.445.317-.1.136-.198.272-.248.408-.05.182-.099.318-.148.499h2.72v-.09z"/>
        </g>
        <g>
            <path d="M11.558 8.703c-.046-.824-.734-1.465-1.56-1.556-1.056-.092-1.882.778-1.836 1.83.046.824.734 1.465 1.56 1.556 1.056.092 1.882-.778 1.836-1.83z"/>
            <path d="M16.66 8.726v-.09c-.045-2.173-1.075-4.073-2.598-5.34-.179-.135-.179-.362-.09-.543l.448-.769c.359-.633.135-1.448-.447-1.81h-.045a1.338 1.338 0 0 0-1.792.453l-.582 1.04a.424.424 0 0 1-.448.181c-.358-.045-.717-.09-1.12-.09-1.12-.045-2.329.18-2.911 2.262-.403 1.493-.269 2.308-.18 2.715.045.136.18.18.27.045.447-.588 1.074-.995 1.925-1.176.18-.045.538-.09.94-.045 1.345.09 3.047.678 4.794 2.08.761.634 1.254 1.087 1.567 1.494.09.09.269.045.269-.09V8.86v-.135z"/>
            <path d="M9.133 12.619c.09-.093.045-.277-.09-.277-.724-.093-1.402-.462-1.99-1.155-.09-.139-.316-.462-.497-.786-.588-1.247-.95-3.049-.588-5.359.136-1.016.317-1.663.497-2.125.046-.139-.09-.231-.226-.185-.045.046-.09.046-.135.092l-.09.047c-.046 0-.046.046-.091.046-1.854 1.155-2.984 3.049-3.3 5.082-.046.138-.227.323-.408.323h-.904C.588 8.322 0 8.922 0 9.616v.046c0 .74.588 1.34 1.311 1.34h1.176c.18 0 .361.138.407.277.09.37.226.647.452 1.063.542 1.062 1.356 1.986 3.39 1.432 1.493-.324 2.126-.878 2.397-1.155z"/>
            <path d="M15.07 13.506c.277-.27.46-.54.691-.898.644-.943 1.013-2.11-.506-3.637-1.105-1.078-1.888-1.392-2.302-1.482-.138-.045-.23.09-.184.224.276.674.322 1.437.046 2.245-.046.135-.23.494-.46.809-.783 1.122-2.118 2.29-4.328 3.143-.92.36-1.611.539-2.118.629-.138 0-.184.18-.046.269.046.045.092.045.138.09l.093.045c.046 0 .046.045.092.045a7.306 7.306 0 0 0 6.03.404c.184-.09.415 0 .507.18l.46.763c.368.628 1.197.853 1.795.494h.046c.645-.36.875-1.168.507-1.752l-.599-1.032c0-.18.046-.405.138-.54z"/>
        </g>
    </g>
</svg>
