<?xml version="1.0" encoding="UTF-8"?>
<svg width="13px" height="17px" viewBox="0 0 13 17" version="1.1" xmlns="http://www.w3.org/2000/svg" xmlns:xlink="http://www.w3.org/1999/xlink">
    <!-- Generator: Sketch 48.2 (47327) - http://www.bohemiancoding.com/sketch -->
    <title>Shape</title>
    <desc>Created with Sketch.</desc>
    <defs></defs>
    <g id="1-1-1-Сryptoguys-Landing" stroke="none" stroke-width="1" fill="none" fill-rule="evenodd" transform="translate(-1587.000000, -55.000000)">
        <g id="Welcome-Screen" transform="translate(-1.000000, -1023.000000)" fill="#FFFFFF" fill-rule="nonzero">
            <g id="header" transform="translate(163.000000, 1053.000000)">
                <g id="social" transform="translate(970.000000, 20.000000)">
                    <path d="M466.929243,14.7189507 C466.660694,14.2583716 466.297104,13.8977064 465.838475,13.6418291 C465.522162,13.4590596 465.062557,13.2899369 464.464536,13.1383601 C465.023079,12.9482798 465.470986,12.7084862 465.813131,12.4180046 C466.152351,12.1275229 466.413102,11.7931766 466.594897,11.4130161 C466.775229,11.0343177 466.86637,10.6331995 466.86637,10.2116112 C466.86637,9.63113532 466.695298,9.09793578 466.354128,8.61152523 C466.011497,8.12511468 465.523136,7.75275229 464.887586,7.49297592 C464.519123,7.34237385 464.061955,7.24051032 463.53363,7.17715023 L463.53363,5 L461.742976,5 L461.742976,7.10355505 L460.591772,7.10355505 L460.591772,5 L458.801118,5 L458.801118,7.10355505 L455,7.10355505 L455,8.87373853 L455.503469,8.87373853 C455.83879,8.87373853 456.066886,8.90444381 456.186783,8.96536697 C456.305218,9.02629014 456.389536,9.10914564 456.438274,9.21295872 C456.488475,9.31677179 456.511382,9.55802752 456.511382,9.9372133 L456.511382,17.0715596 C456.511382,17.443922 456.487013,17.6846904 456.438274,17.7914278 C456.389536,17.8991399 456.306193,17.9810206 456.186783,18.0390195 C456.066886,18.0970183 455.83879,18.1267489 455.503469,18.1267489 L455,18.1267489 L455,19.8974197 L458.801118,19.8974197 L458.801118,22 L460.590797,22 L460.590797,19.8974197 L461.70301,19.8974197 C461.715682,19.8974197 461.728842,19.896445 461.742001,19.896445 L461.742001,22 L463.532655,22 L463.532655,19.7921445 C464.111181,19.7170872 464.596617,19.6020642 464.984576,19.4465883 C465.731737,19.1468463 466.311239,18.7111239 466.719667,18.1389335 C467.129071,17.5677179 467.333773,16.9424025 467.333773,16.2629874 C467.332798,15.6956709 467.197792,15.180992 466.929243,14.7189507 Z M459.676462,9.1671445 L461.07867,9.1671445 C461.898452,9.1671445 462.466743,9.21783257 462.784518,9.31872133 C463.102294,9.41961009 463.345011,9.59019495 463.513647,9.82755161 C463.681307,10.0663704 463.766112,10.3534404 463.766112,10.690711 C463.766112,11.0143349 463.677408,11.2999427 463.499513,11.5475344 C463.322592,11.7956135 463.057942,11.98082 462.706537,12.1026663 C462.355132,12.225 461.812672,12.2864106 461.07867,12.2864106 L459.676462,12.2864106 L459.676462,9.1671445 Z M463.638417,17.0715596 C463.387901,17.3888475 463.08426,17.5989106 462.727494,17.6997993 C462.371216,17.8006881 461.921359,17.8518635 461.378412,17.8518635 L460.445069,17.8518635 C460.133142,17.8518635 459.943549,17.834805 459.872878,17.8011755 C459.802695,17.7670585 459.752982,17.7080849 459.721789,17.622305 C459.696445,17.5545585 459.681823,17.3269495 459.675487,16.934117 L459.675487,14.1647936 L461.330648,14.1647936 C462.057339,14.1647936 462.596875,14.2325401 462.951204,14.3665711 C463.304558,14.5006021 463.570183,14.6999427 463.747104,14.9626433 C463.924025,15.2263188 464.012729,15.5470183 464.012729,15.9266915 C464.013704,16.3716743 463.887959,16.753297 463.638417,17.0715596 Z" id="Shape"></path>
                </g>
            </g>
        </g>
    </g>
</svg>