<?xml version="1.0" encoding="UTF-8"?>
<svg width="32px" height="30px" viewBox="0 0 32 30" version="1.1" xmlns="http://www.w3.org/2000/svg" xmlns:xlink="http://www.w3.org/1999/xlink">
    <!-- Generator: Sketch 48.2 (47327) - http://www.bohemiancoding.com/sketch -->
    <title>Shape</title>
    <desc>Created with Sketch.</desc>
    <defs></defs>
    <g id="1-1-1-Сryptoguys-Landing" stroke="none" stroke-width="1" fill="none" fill-rule="evenodd" transform="translate(-1781.000000, -973.000000)">
        <g id="Welcome-Screen" transform="translate(0.000000, -1023.000000)" fill="#FFFFFF">
            <g id="chat" transform="translate(1761.000000, 1975.000000)">
                <path d="M20,33.2427591 C20,38.7600551 22.98,43.4517703 28.06,44.9619791 C28.02,45.1432041 28,45.3042931 28,45.4855181 L28,49.7946471 C28,51.2444475 29.02,51.3451281 30.06,50.3181862 L36,45.1633402 L39.64,45.1633402 C46.46,45.1633402 52,39.6863165 52,32.9205812 C52,26.1548459 46.46,21 39.64,21 L32.36,21 C25.54,21 20,26.4770238 20,33.2427591 L20,33.2427591 Z M28,29 L44,29 L44,31 L28,31 L28,29 L28,29 Z M28,33 L44,33 L44,35 L28,35 L28,33 L28,33 Z M28,37 L38,37 L38,39 L28,39 L28,37 L28,37 Z" id="Shape"></path>
            </g>
        </g>
    </g>
</svg>