<?xml version="1.0" encoding="UTF-8"?>
<svg width="12px" height="8px" viewBox="0 0 12 8" version="1.1" xmlns="http://www.w3.org/2000/svg" xmlns:xlink="http://www.w3.org/1999/xlink">
    <!-- Generator: Sketch 48.2 (47327) - http://www.bohemiancoding.com/sketch -->
    <title>Fill 1</title>
    <desc>Created with Sketch.</desc>
    <defs></defs>
    <g id="Referral-Program" stroke="none" stroke-width="1" fill="none" fill-rule="evenodd" transform="translate(-326.000000, -1270.000000)">
        <g id="5" transform="translate(320.000000, 1261.000000)" fill="#FFFFFF">
            <g id="Page-1" transform="translate(6.000000, 9.000000)">
                <path d="M0.130944043,4.40027502 C0.0429144343,4.32027002 0,4.19876242 0,4.11875742 C0,4.03875242 0.0429144343,3.91974498 0.130944043,3.83973998 L0.74770149,3.27920495 C0.924310893,3.11869492 1.18839972,3.11869492 1.36445894,3.27920495 L1.40792356,3.32020751 L3.82983817,5.67935496 C3.91786778,5.75985999 4.04881182,5.75985999 4.13739162,5.67935496 L10.034275,0.118507407 L10.0793902,0.118507407 C10.2559996,-0.0395024689 10.5200884,-0.0395024689 10.6961477,0.118507407 L11.3112546,0.67904244 C11.4873138,0.839552472 11.4873138,1.07956747 11.3112546,1.23957747 L4.2705364,7.88099256 C4.18250679,7.96099756 4.093927,8 3.96078221,8 C3.82983817,8 3.74180856,7.96099756 3.65377895,7.88099256 L0.218973652,4.51928246 L0.130944043,4.40027502 Z" id="Fill-1"></path>
            </g>
        </g>
    </g>
</svg>