<?xml version="1.0" encoding="UTF-8"?>
<svg width="21px" height="16px" viewBox="0 0 21 16" version="1.1" xmlns="http://www.w3.org/2000/svg" xmlns:xlink="http://www.w3.org/1999/xlink">
    <!-- Generator: Sketch 48.2 (47327) - http://www.bohemiancoding.com/sketch -->
    <title>check-roadmap</title>
    <desc>Created with Sketch.</desc>
    <defs></defs>
    <g id="Page-1" stroke="none" stroke-width="1" fill="none" fill-rule="evenodd">
        <g id="check-roadmap" fill="#25CBD3" fill-rule="nonzero">
            <path d="M0.242307692,8.8 C0.0807692309,8.64 0,8.4 0,8.24 C0,8.08 0.0807692309,7.84 0.242307692,7.68 L1.37307692,6.56 C1.69615385,6.24 2.18076923,6.24 2.50384615,6.56 L2.58461538,6.64 L7.02692309,11.36 C7.18846155,11.52 7.43076924,11.52 7.5923077,11.36 L18.4153846,0.24 L18.4961538,0.24 C18.8192308,-0.08 19.3038462,-0.08 19.6269231,0.24 L20.7576923,1.36 C21.0807692,1.68 21.0807692,2.16 20.7576923,2.48 L7.83461539,15.76 C7.67307693,15.92 7.51153847,16 7.26923078,16 C7.02692309,16 6.86538463,15.92 6.70384616,15.76 L0.403846154,9.04 L0.242307692,8.8 Z" id="Shape"></path>
        </g>
    </g>
</svg>