<?xml version="1.0" encoding="UTF-8"?>
<svg width="9px" height="16px" viewBox="0 0 9 16" version="1.1" xmlns="http://www.w3.org/2000/svg" xmlns:xlink="http://www.w3.org/1999/xlink">
    <!-- Generator: Sketch 48.2 (47327) - http://www.bohemiancoding.com/sketch -->
    <title>Shape</title>
    <desc>Created with Sketch.</desc>
    <defs></defs>
    <g id="1-1-1-Сryptoguys-Landing" stroke="none" stroke-width="1" fill="none" fill-rule="evenodd" transform="translate(-1192.000000, -54.000000)">
        <g id="Welcome-Screen" transform="translate(-1.000000, -1023.000000)" fill="#FFFFFF">
            <g id="header" transform="translate(163.000000, 1053.000000)">
                <g id="social" transform="translate(970.000000, 20.000000)">
                    <path d="M67.946399,4.00317054 L65.9703593,4 C63.7503466,4 62.3156768,5.47192362 62.3156768,7.7501158 L62.3156768,9.47917029 L60.3288573,9.47917029 C60.1571725,9.47917029 60.0181443,9.61835704 60.0181443,9.79004183 L60.0181443,12.2952447 C60.0181443,12.4669295 60.1573311,12.6059577 60.3288573,12.6059577 L62.3156768,12.6059577 L62.3156768,18.9273822 C62.3156768,19.099067 62.454705,19.2380952 62.6263898,19.2380952 L65.2186241,19.2380952 C65.3903089,19.2380952 65.5293371,19.0989085 65.5293371,18.9273822 L65.5293371,12.6059577 L67.8523924,12.6059577 C68.0240772,12.6059577 68.1631054,12.4669295 68.1631054,12.2952447 L68.1640566,9.79004183 C68.1640566,9.70760776 68.1312415,9.62866129 68.0730621,9.57032334 C68.0148826,9.51198539 67.9356191,9.47917029 67.853185,9.47917029 L65.5293371,9.47917029 L65.5293371,8.01342922 C65.5293371,7.30893503 65.6972172,6.95129801 66.6149303,6.95129801 L67.9460819,6.95082243 C68.1176082,6.95082243 68.2566364,6.81163569 68.2566364,6.64010942 L68.2566364,4.31388355 C68.2566364,4.14251581 68.1177667,4.0034876 67.946399,4.00317054 Z" id="Shape"></path>
                </g>
            </g>
        </g>
    </g>
</svg>