<?xml version="1.0" encoding="UTF-8"?>
<svg width="18px" height="17px" viewBox="0 0 18 17" version="1.1" xmlns="http://www.w3.org/2000/svg" xmlns:xlink="http://www.w3.org/1999/xlink">
    <!-- Generator: Sketch 48.2 (47327) - http://www.bohemiancoding.com/sketch -->
    <title>Fill 1</title>
    <desc>Created with Sketch.</desc>
    <defs></defs>
    <g id="1-1-1-Сryptoguys-Landing" stroke="none" stroke-width="1" fill="none" fill-rule="evenodd" transform="translate(-1771.000000, -680.000000)">
        <g id="Welcome-Screen" transform="translate(0.000000, -1023.000000)" fill="#FFFFFF">
            <g id="header" transform="translate(163.000000, 1053.000000)">
                <g id="social" transform="translate(1604.000000, 209.000000)">
                    <path d="M20.3595042,445.233073 C19.599317,443.931059 18.5679619,442.900213 17.2659483,442.140196 C15.9632555,441.380009 14.5418736,441 12.9999349,441 C11.4578264,441 10.0357653,441.380009 8.73307252,442.140196 C7.43105888,442.900213 6.40021318,443.931059 5.64002603,445.233073 C4.87983888,446.535596 4.5,447.957657 4.5,449.499595 C4.5,451.351756 5.0406379,453.017138 6.12106471,454.496251 C7.20217072,455.975364 8.59842243,456.999248 10.3101595,457.567224 C10.5093329,457.604409 10.6572273,457.5786 10.7526539,457.490305 C10.8489296,457.4015 10.8966429,457.290622 10.8966429,457.15801 C10.8966429,457.136106 10.8946053,456.937102 10.8913792,456.56015 C10.887304,456.184386 10.8852664,455.855996 10.8852664,455.575489 L10.6312481,455.619637 C10.4687511,455.649691 10.2636347,455.662086 10.0170875,455.658351 C9.76969136,455.654785 9.51295627,455.629145 9.24773127,455.580753 C8.98182708,455.53304 8.7349403,455.42284 8.50605214,455.249137 C8.27733378,455.075942 8.11551597,454.849092 8.01941011,454.568585 L7.9085318,454.313888 C7.83500912,454.144089 7.71886705,453.956462 7.56027541,453.749478 C7.40117437,453.543173 7.24071494,453.40258 7.07889713,453.328887 L7.00112949,453.273873 C6.949341,453.236687 6.90179746,453.19237 6.8571405,453.140581 C6.81282313,453.089472 6.77954266,453.037513 6.75780847,452.986065 C6.73590449,452.934276 6.75373331,452.891826 6.81282313,452.858716 C6.87174316,452.824586 6.9793953,452.808965 7.13391179,452.808965 L7.35532882,452.842076 C7.50271377,452.871281 7.68575638,452.960085 7.90326805,453.10747 C8.12077972,453.255365 8.29991696,453.447067 8.43983079,453.683087 C8.60962912,453.985328 8.81372672,454.215744 9.05382157,454.374675 C9.29408622,454.533437 9.53536965,454.612393 9.77886047,454.612393 C10.0223513,454.612393 10.2327314,454.593545 10.4098311,454.557378 C10.5869307,454.520192 10.7526539,454.465178 10.9076798,454.391485 C10.9742408,453.896693 11.155076,453.516684 11.4498459,453.25129 C11.0292554,453.206633 10.6512843,453.140581 10.315593,453.051437 C9.9799017,452.963481 9.6330037,452.819492 9.2755782,452.61964 C8.91747351,452.420976 8.62032642,452.173579 8.38413693,451.878979 C8.14845684,451.58387 7.95420755,451.195881 7.80376622,450.71671 C7.65247591,450.23669 7.57691565,449.683317 7.57691565,449.056761 C7.57691565,448.163962 7.86811979,447.403944 8.45120728,446.77637 C8.17783196,446.105157 8.2036413,445.35312 8.52880512,444.51924 C8.74224163,444.45234 9.05993431,444.50277 9.48052479,444.668493 C9.90111527,444.834386 10.2087899,444.977017 10.4043975,445.094347 C10.6000052,445.212357 10.7567291,445.312538 10.8747389,445.393532 C11.5612336,445.20183 12.2694625,445.105724 12.9999349,445.105724 C13.7300677,445.105724 14.4384664,445.20183 15.1249611,445.393532 L15.5453818,445.127458 C15.8326805,444.950358 16.1722772,444.78854 16.5636624,444.640646 C16.9541985,444.493431 17.2533832,444.453019 17.4603674,444.51924 C17.7919835,445.35312 17.821868,446.105157 17.5484927,446.777049 C18.1315802,447.403944 18.4227844,448.163962 18.4227844,449.056761 C18.4227844,449.683317 18.3470543,450.238727 18.1959338,450.722313 C18.0446435,451.205729 17.849715,451.593209 17.6096201,451.884073 C17.3695253,452.176126 17.0710198,452.420976 16.7127453,452.620489 C16.3553198,452.819492 16.0084218,452.963481 15.6727305,453.051437 C15.337209,453.140581 14.9590681,453.206633 14.5386474,453.25129 C14.9220521,453.583585 15.1135846,454.106903 15.1135846,454.822603 L15.1135846,457.15801 C15.1135846,457.290622 15.1601093,457.4015 15.2523098,457.489626 C15.3445103,457.577921 15.4896879,457.604409 15.6893707,457.567224 C17.4012776,456.998739 18.7975293,455.975364 19.8779561,454.495572 C20.9590621,453.016289 21.4997,451.351076 21.4997,449.499256 C21.4990208,447.957657 21.1190121,446.535596 20.3595042,445.233073" id="Fill-1"></path>
                </g>
            </g>
        </g>
    </g>
</svg>