<?xml version="1.0" encoding="UTF-8"?>
<svg width="68px" height="21px" viewBox="0 0 68 21" version="1.1" xmlns="http://www.w3.org/2000/svg" xmlns:xlink="http://www.w3.org/1999/xlink">
    <!-- Generator: Sketch 49.1 (51147) - http://www.bohemiancoding.com/sketch -->
    <title>icobanch_white</title>
    <desc>Created with Sketch.</desc>
    <defs></defs>
    <g id="Page-1" stroke="none" stroke-width="1" fill="none" fill-rule="evenodd">
        <g id="1-1-1-Сryptoguys-Landing-PRE-ICO-" transform="translate(-1204.000000, -842.000000)" fill="#FFFFFF" fill-rule="nonzero">
            <g id="Welcome-Screen" transform="translate(0.000000, -1023.000000)">
                <g id="timer" transform="translate(163.000000, 1486.000000)">
                    <g id="3" transform="translate(1005.000000, 294.000000)">
                        <g id="icobanch_white" transform="translate(36.000000, 85.000000)">
                            <g id="Group-3">
                                <path d="M0,20.5786498 L20.5786498,20.5786498 L20.5786498,0 L0,0 L0,20.5786498 Z M0.685954994,0.685954994 L19.843698,0.685954994 L19.843698,19.843698 L0.685954994,19.843698 L0.685954994,0.685954994 Z" id="Shape"></path>
                                <rect id="Rectangle-path" x="3.42977497" y="7.20252744" width="1" height="6.17359495"></rect>
                                <path d="M8.3294535,12.7391642 C6.95754351,12.7391642 5.83061745,11.6122381 5.83061745,10.2893249 C5.83061745,8.91741492 6.95754351,7.83948564 8.3294535,7.83948564 C9.01540849,7.83948564 9.70136349,8.13346636 10.1423346,8.62343421 L10.5833056,8.13346636 C9.9953442,7.59450172 9.16239885,7.25152422 8.3294535,7.25152422 C6.51657244,7.25152422 5.09566567,8.62343421 5.09566567,10.3383217 C5.09566567,12.102206 6.51657244,13.474116 8.28045671,13.474116 C9.11340206,13.474116 9.94634741,13.1311385 10.5833056,12.543177 L10.1423346,12.0532092 C9.6523667,12.4451835 9.01540849,12.7391642 8.3294535,12.7391642 Z" id="Shape"></path>
                                <path d="M13.915087,7.20252744 C12.102206,7.20252744 10.6812992,8.57443742 10.6812992,10.2893249 C10.6812992,12.0042124 12.102206,13.4251192 13.915087,13.4251192 C15.7279681,13.4251192 17.1488748,12.0532092 17.1488748,10.2893249 C17.1488748,8.52544064 15.7279681,7.20252744 13.915087,7.20252744 Z M13.915087,12.7391642 C12.543177,12.7391642 11.416251,11.6122381 11.416251,10.2893249 C11.416251,8.91741492 12.543177,7.83948564 13.915087,7.83948564 C15.286997,7.83948564 16.4139231,8.91741492 16.4139231,10.2893249 C16.4629199,11.6612349 15.286997,12.7391642 13.915087,12.7391642 Z" id="Shape"></path>
                            </g>
                            <g id="Group" transform="translate(22.432990, 4.206186)">
                                <path d="M5.38964638,3.03780069 C4.3117171,3.03780069 3.47877175,3.47877175 2.89081033,4.21372353 L2.89081033,0 L0.0979935706,0 L0.0979935706,11.7102317 L2.89081033,11.7102317 L2.89081033,10.5833056 C3.47877175,11.3672542 4.36071389,11.7592285 5.43864317,11.7592285 C7.79048886,11.7592285 9.35838599,10.044341 9.35838599,7.44751136 C9.35838599,4.80168496 7.79048886,3.03780069 5.38964638,3.03780069 Z M4.70369139,9.50537634 C3.62576211,9.50537634 2.89081033,8.67243099 2.89081033,7.39851458 C2.89081033,6.12459816 3.62576211,5.29165281 4.70369139,5.29165281 C5.83061745,5.29165281 6.56556923,6.17359495 6.56556923,7.39851458 C6.56556923,8.67243099 5.78162066,9.50537634 4.70369139,9.50537634 Z" id="Shape"></path>
                                <path d="M14.2580645,3.03780069 C11.6122381,3.03780069 9.79935706,4.80168496 9.79935706,7.44751136 C9.79935706,10.044341 11.5142445,11.7592285 14.3070613,11.7592285 C15.8749584,11.7592285 17.1488748,11.2202638 18.030817,10.2403281 L16.5609134,8.77042456 C15.972952,9.35838599 15.286997,9.6523667 14.5520452,9.6523667 C13.5721095,9.6523667 12.8861545,9.11340206 12.5921738,8.13346636 L18.5207848,8.13346636 C18.716772,5.04666888 17.2468684,3.03780069 14.2580645,3.03780069 Z M12.543177,6.6635628 C12.7391642,5.68362709 13.3271256,5.04666888 14.2580645,5.04666888 C15.1890034,5.04666888 15.8259616,5.73262388 15.8259616,6.6635628 L12.543177,6.6635628 Z" id="Shape"></path>
                                <path d="M24.645383,3.03780069 C23.4204634,3.03780069 22.4405277,3.57676533 21.8035694,4.55670103 L21.8035694,3.18479104 L19.0107527,3.18479104 L19.0107527,11.7102317 L21.8035694,11.7102317 L21.8035694,7.20252744 C21.901563,6.22259173 22.5385212,5.58563352 23.4694601,5.58563352 C24.3514023,5.58563352 24.9393637,6.17359495 24.9393637,7.15353065 L24.9393637,11.7102317 L27.7321805,11.7102317 L27.7321805,6.3205853 C27.7321805,4.3117171 26.4582641,3.03780069 24.645383,3.03780069 Z" id="Shape"></path>
                                <path d="M32.6808558,9.50537634 C31.6519233,9.50537634 30.9659683,8.67243099 30.9659683,7.44751136 C30.9659683,6.22259173 31.6519233,5.38964638 32.6808558,5.38964638 C33.4158076,5.38964638 33.9547722,5.73262388 34.3467465,6.27158852 L36.3556147,5.09566567 C35.6206629,3.82174925 34.2487529,3.08679747 32.5338654,3.08679747 C29.888039,3.08679747 28.1241548,4.85068174 28.1241548,7.49650815 C28.1241548,10.0933378 29.888039,11.8082253 32.4848686,11.8082253 C34.2977497,11.8082253 35.6696597,11.0732735 36.3556147,9.75036027 L34.2977497,8.57443742 C34.003769,9.21139563 33.4158076,9.50537634 32.6808558,9.50537634 Z" id="Shape"></path>
                                <path d="M42.4802128,3.03780069 C41.2552932,3.03780069 40.2753575,3.57676533 39.6383993,4.55670103 L39.6383993,0 L36.8455825,0 L36.8455825,11.7102317 L39.6383993,11.7102317 L39.6383993,7.49650815 C39.6383993,6.36958209 40.2753575,5.58563352 41.30429,5.58563352 C42.1862321,5.58563352 42.7741935,6.17359495 42.7741935,7.15353065 L42.7741935,11.7102317 L45.5670103,11.7102317 L45.5670103,6.3205853 C45.5670103,4.3117171 44.3420907,3.03780069 42.4802128,3.03780069 Z" id="Shape"></path>
                            </g>
                        </g>
                    </g>
                </g>
            </g>
        </g>
    </g>
</svg>