<?xml version="1.0" encoding="UTF-8"?>
<svg width="80px" height="9px" viewBox="0 0 80 9" version="1.1" xmlns="http://www.w3.org/2000/svg" xmlns:xlink="http://www.w3.org/1999/xlink">
    <!-- Generator: Sketch 49.1 (51147) - http://www.bohemiancoding.com/sketch -->
    <title>ICORATING</title>
    <desc>Created with Sketch.</desc>
    <defs></defs>
    <g id="Page-1" stroke="none" stroke-width="1" fill="none" fill-rule="evenodd">
        <g id="1-1-1-Сryptoguys-Landing-PRE-ICO-" transform="translate(-1362.000000, -849.000000)" fill="#FFFFFF">
            <g id="Welcome-Screen" transform="translate(0.000000, -1023.000000)">
                <g id="timer" transform="translate(163.000000, 1486.000000)">
                    <g id="2" transform="translate(1169.000000, 294.000000)">
                        <path d="M30,92.4915571 L31.114196,92.4915571 L31.114196,99.7775249 L30,99.7775249 L30,92.4915571 Z M41.6262346,92.8848027 L41.6262346,94.1956215 C40.8178963,93.4637477 40.0641755,93.3872832 39.6490829,93.3872832 C38.0651768,93.3872832 36.9946748,94.5560967 36.9946748,96.1618497 C36.9946748,97.7020618 38.1088708,98.8927222 39.6600064,98.8927222 C40.5338856,98.8927222 41.211142,98.4448591 41.6262346,98.0516135 L41.6262346,99.3733558 C40.8943607,99.8102954 40.1297164,99.9195303 39.6272359,99.9195303 C38.3054936,99.9195303 37.4753084,99.3187383 37.0492923,98.9145692 C36.19726,98.1171544 35.8804788,97.1886578 35.8804788,96.1618497 C35.8804788,94.8182604 36.4375768,93.8897638 37.0492923,93.3108188 C37.8030131,92.600792 38.6768923,92.3604752 39.6818534,92.3604752 C40.3481862,92.3604752 40.9926722,92.4806336 41.6262346,92.8848027 Z M49.5821765,92.3604752 C51.7668745,92.3604752 53.3726275,93.9989987 53.3726275,96.1400027 C53.3726275,98.2810068 51.7668745,99.9195303 49.5821765,99.9195303 C47.3974785,99.9195303 45.7917255,98.2810068 45.7917255,96.1400027 C45.7917255,93.9989987 47.3974785,92.3604752 49.5821765,92.3604752 Z M49.5821765,98.8927222 C51.1442356,98.8927222 52.2584316,97.7566792 52.2584316,96.1400027 C52.2584316,94.5233262 51.1442356,93.3872832 49.5821765,93.3872832 C48.0201174,93.3872832 46.9059215,94.5233262 46.9059215,96.1400027 C46.9059215,97.7566792 48.0201174,98.8927222 49.5821765,98.8927222 Z M58.1389104,92.4915571 L59.4388057,92.4915571 C60.3236084,92.4915571 60.8916299,92.600792 61.3613399,92.9175732 C62.1587547,93.4528242 62.2242957,94.3157799 62.2242957,94.6325611 C62.2242957,95.6812161 61.5798097,96.4458604 60.6076191,96.6643302 L62.8797051,99.7775249 L61.5361158,99.7775249 L59.4497292,96.7954121 L59.2531064,96.7954121 L59.2531064,99.7775249 L58.1389104,99.7775249 L58.1389104,92.4915571 Z M59.2531064,93.5183651 L59.2531064,95.834145 L59.6026581,95.834145 C59.9085158,95.834145 61.1537936,95.8013745 61.1537936,94.6434846 C61.1537936,93.6166765 60.181603,93.5183651 59.6354285,93.5183651 L59.2531064,93.5183651 Z M72.3867826,99.7775249 L71.6221383,98.018843 L68.5089436,98.018843 L67.7115288,99.7775249 L66.5099449,99.7775249 L70.1365436,92.0655409 L73.5883665,99.7775249 L72.3867826,99.7775249 Z M68.9677302,96.970188 L71.1742752,96.970188 L70.0928497,94.5014792 L68.9677302,96.970188 Z M81.1292158,93.5402121 L79.4579218,93.5402121 L79.4579218,99.7775249 L78.3437258,99.7775249 L78.3437258,93.5402121 L76.6724319,93.5402121 L76.6724319,92.4915571 L81.1292158,92.4915571 L81.1292158,93.5402121 Z M85.480406,92.4915571 L86.594602,92.4915571 L86.594602,99.7775249 L85.480406,99.7775249 L85.480406,92.4915571 Z M92.8246325,99.7775249 L91.7104365,99.7775249 L91.7104365,92 L96.9974057,97.5382094 L96.9974057,92.4915571 L98.1116017,92.4915571 L98.1116017,100.225388 L92.8246325,94.6871785 L92.8246325,99.7775249 Z M106.99604,97.0138819 L106.99604,95.9870739 L110,95.9870739 L110,96.0416913 C110,97.2869692 109.628601,98.3028537 108.918574,98.9910336 C108.164854,99.7229074 107.269127,99.9195303 106.438942,99.9195303 C105.379364,99.9195303 104.625643,99.6136725 103.95931,98.9254927 C103.249283,98.1936188 102.877885,97.2214282 102.877885,96.1727732 C102.877885,95.0367302 103.336671,94.0536161 103.937463,93.4528242 C104.560102,92.8192618 105.55414,92.3604752 106.679259,92.3604752 C107.334668,92.3604752 108.011925,92.5024805 108.579946,92.8192618 C109.180738,93.1578899 109.552137,93.5839061 109.759683,93.9116108 L108.874881,94.5342497 C108.656411,94.228392 108.328706,93.9006873 107.979154,93.7040644 C107.574985,93.4637477 107.138046,93.3872832 106.690183,93.3872832 C105.739839,93.3872832 105.128123,93.7805289 104.767648,94.141004 C104.287015,94.6216376 103.99208,95.3972054 103.99208,96.1836967 C103.99208,96.9155705 104.265168,97.6474443 104.745801,98.1608484 C105.248282,98.6960994 105.870921,98.8927222 106.570024,98.8927222 C107.203587,98.8927222 107.727914,98.7070229 108.197624,98.2482363 C108.601793,97.8549906 108.765646,97.4289745 108.80934,97.0138819 L106.99604,97.0138819 Z" id="ICORATING"></path>
                    </g>
                </g>
            </g>
        </g>
    </g>
</svg>