<?xml version="1.0" encoding="UTF-8"?>
<svg width="16px" height="16px" viewBox="0 0 16 16" version="1.1" xmlns="http://www.w3.org/2000/svg" xmlns:xlink="http://www.w3.org/1999/xlink">
    <!-- Generator: Sketch 48.2 (47327) - http://www.bohemiancoding.com/sketch -->
    <title>Shape</title>
    <desc>Created with Sketch.</desc>
    <defs></defs>
    <g id="1-1-1-Сryptoguys-Landing" stroke="none" stroke-width="1" fill="none" fill-rule="evenodd" transform="translate(-1240.000000, -54.000000)">
        <g id="Welcome-Screen" transform="translate(-1.000000, -1023.000000)" fill="#FFFFFF">
            <g id="header" transform="translate(163.000000, 1053.000000)">
                <g id="social" transform="translate(970.000000, 20.000000)">
                    <g id="Group" transform="translate(108.619048, 4.000000)">
                        <path d="M13.1691823,0 L2.06891297,0 C0.92810509,0 0,0.92810509 0,2.06891297 L0,13.1691823 C0,14.3100427 0.92810509,15.2380952 2.06891297,15.2380952 L13.1691823,15.2380952 C14.3099901,15.2380952 15.2380952,14.3100427 15.2380952,13.1691823 L15.2380952,2.06891297 C15.2380952,0.92810509 14.3099901,0 13.1691823,0 Z M7.61904762,11.3416617 C5.73992775,11.3416617 4.21117898,9.81291297 4.21117898,7.9337931 C4.21117898,6.05472578 5.7399803,4.52592447 7.61904762,4.52592447 C9.49811494,4.52592447 11.0269163,6.05472578 11.0269163,7.9337931 C11.0269163,9.81291297 9.49816749,11.3416617 7.61904762,11.3416617 Z M13.947954,5.41819376 L10.8689655,5.41819376 C10.0917176,4.48772414 8.92337603,3.89475205 7.61904762,3.89475205 C6.31471921,3.89475205 5.14637767,4.48777668 4.36912972,5.41819376 L1.29014122,5.41819376 L1.29014122,2.45932348 C1.29014122,1.70724466 1.90202956,1.09540887 2.65410837,1.09540887 L12.5840394,1.09540887 C13.3361182,1.09540887 13.9480066,1.70724466 13.9480066,2.45932348 L13.9480066,5.41819376 L13.947954,5.41819376 Z" id="Shape"></path>
                    </g>
                </g>
            </g>
        </g>
    </g>
</svg>