<?xml version="1.0" encoding="UTF-8"?>
<svg width="15px" height="15px" viewBox="0 0 15 15" version="1.1" xmlns="http://www.w3.org/2000/svg" xmlns:xlink="http://www.w3.org/1999/xlink">
    <!-- Generator: Sketch 48.2 (47327) - http://www.bohemiancoding.com/sketch -->
    <title>LinkedIn__x28_alt_x29_</title>
    <desc>Created with Sketch.</desc>
    <defs></defs>
    <g id="1-1-1-Сryptoguys-Landing" stroke="none" stroke-width="1" fill="none" fill-rule="evenodd" transform="translate(-1297.000000, -55.000000)">
        <g id="Welcome-Screen" transform="translate(-1.000000, -1023.000000)" fill="#FFFFFF" fill-rule="nonzero">
            <g id="header" transform="translate(163.000000, 1053.000000)">
                <g id="social" transform="translate(970.000000, 20.000000)">
                    <path d="M178.892223,5 L166.108301,5 C165.496155,5 165,5.48101916 165,6.07471671 L165,18.9248299 C165,19.5185623 165.496329,20 166.108301,20 L178.892223,20 C179.504229,20 179.999826,19.5182485 179.999826,18.9248299 L179.999826,6.07471671 C179.999826,5.48119353 179.504229,5 178.892223,5 Z M169.54752,17.5560195 L167.281153,17.5560195 L167.281153,10.7837035 L169.54752,10.7837035 L169.54752,17.5560195 Z M168.414563,9.85849232 L168.399323,9.85849232 C167.639311,9.85849232 167.146643,9.33872798 167.146643,8.6880112 C167.146643,8.02418174 167.653783,7.51850655 168.428861,7.51850655 C169.204009,7.51850655 169.680809,8.02404224 169.695874,8.6880112 C169.695874,9.33886747 169.204184,9.85849232 168.414563,9.85849232 Z M177.717103,17.5560195 L175.451469,17.5560195 L175.451469,13.9325952 C175.451469,13.0221358 175.123199,12.4008877 174.303865,12.4008877 C173.677072,12.4008877 173.305,12.8200052 173.141615,13.22465 C173.081073,13.3691685 173.066077,13.571299 173.066077,13.7731506 L173.066077,17.55588 L170.800862,17.55588 C170.800862,17.55588 170.830505,11.4187618 170.800862,10.7835989 L173.066426,10.7835989 L173.066426,11.7437192 C173.367181,11.282369 173.904626,10.6242589 175.10775,10.6242589 C176.598968,10.6242589 177.717103,11.591633 177.717103,13.6727479 L177.717103,17.5560195 Z M173.051779,11.8052238 C173.062879,11.7870238 173.078379,11.7651238 173.093779,11.7438238 L173.093779,11.8052238 L173.051779,11.8052238 Z" id="LinkedIn__x28_alt_x29_"></path>
                </g>
            </g>
        </g>
    </g>
</svg>