<?xml version="1.0" encoding="UTF-8"?>
<svg width="15px" height="15px" viewBox="0 0 15 15" version="1.1" xmlns="http://www.w3.org/2000/svg" xmlns:xlink="http://www.w3.org/1999/xlink">
    <!-- Generator: Sketch 48.2 (47327) - http://www.bohemiancoding.com/sketch -->
    <title>Page 1</title>
    <desc>Created with Sketch.</desc>
    <defs>
        <polygon id="path-1" points="15 7.5 15 15 0 15 0 7.5 0 0 15 0"></polygon>
    </defs>
    <g id="1-1-1-Сryptoguys-Landing" stroke="none" stroke-width="1" fill="none" fill-rule="evenodd" transform="translate(-1352.000000, -55.000000)">
        <g id="Welcome-Screen" transform="translate(-1.000000, -1023.000000)">
            <g id="header" transform="translate(163.000000, 1053.000000)">
                <g id="social" transform="translate(970.000000, 20.000000)">
                    <g id="Page-1" transform="translate(220.000000, 5.000000)">
                        <mask id="mask-2" fill="white">
                            <use xlink:href="#path-1"></use>
                        </mask>
                        <g id="Clip-2"></g>
                        <path d="M12.4615385,3.55392308 L11.6570769,4.32523077 C11.5877692,4.37807692 11.5533077,4.465 11.5676923,4.551 L11.5676923,10.2182308 C11.5533077,10.3042308 11.5877692,10.3910769 11.6570769,10.444 L12.4427692,11.2153077 L12.4427692,11.3846154 L8.491,11.3846154 L8.491,11.2153077 L9.30484615,10.4251538 C9.38484615,10.3452308 9.38484615,10.3216923 9.38484615,10.1994615 L9.38484615,5.61861538 L7.122,11.3657692 L6.81615385,11.3657692 L4.18169231,5.61861538 L4.18169231,9.47046154 C4.15976923,9.63238462 4.21353846,9.79546154 4.32753846,9.91253846 L5.38607692,11.1964615 L5.38607692,11.3657692 L2.38461538,11.3657692 L2.38461538,11.1964615 L3.44315385,9.91253846 C3.55630769,9.79523077 3.607,9.63107692 3.57953846,9.47046154 L3.57953846,5.01661538 C3.59207692,4.89284615 3.54492308,4.77061538 3.45253846,4.68738462 L2.51161538,3.55392308 L2.51161538,3.38461538 L5.43307692,3.38461538 L7.69123077,8.337 L9.67653846,3.38461538 L12.4615385,3.38461538 L12.4615385,3.55392308 Z M0,15 L15,15 L15,0 L0,0 L0,15 Z" id="Fill-1" fill="#FFFFFF" mask="url(#mask-2)"></path>
                    </g>
                </g>
            </g>
        </g>
    </g>
</svg>