<?xml version="1.0" encoding="UTF-8"?>
<svg width="24px" height="24px" viewBox="0 0 24 24" version="1.1" xmlns="http://www.w3.org/2000/svg" xmlns:xlink="http://www.w3.org/1999/xlink">
    <!-- Generator: Sketch 48.2 (47327) - http://www.bohemiancoding.com/sketch -->
    <title>refresh</title>
    <desc>Created with Sketch.</desc>
    <defs></defs>
    <g id="1-1-2-Calculator" stroke="none" stroke-width="1" fill="none" fill-rule="evenodd" transform="translate(-948.000000, -496.000000)">
        <g id="popup" transform="translate(480.000000, 276.000000)" fill="#25CBD3" fill-rule="nonzero">
            <g id="refresh" transform="translate(468.000000, 220.000000)">
                <path d="M12.2637363,21.4153846 C9.46813187,21.4153846 6.8043956,20.2813187 4.85274725,18.356044 L7.78021978,18.8835165 L0.474725275,10.8131868 L0.0263736264,21.7054945 L2.26813187,19.0417582 C4.72087912,22.021978 8.38681319,23.789011 12.2637363,23.789011 C15.0857143,23.789011 17.7758242,22.8923077 20.043956,21.2043956 L18.6197802,19.3318681 C16.7736264,20.6769231 14.5846154,21.4153846 12.2637363,21.4153846 Z" id="Shape"></path>
                <path d="M21.0725275,4.95824176 C18.6197802,1.97802198 14.9538462,0.210989011 11.0769231,0.210989011 C8.25494505,0.210989011 5.56483516,1.10769231 3.2967033,2.7956044 L4.72087912,4.66813187 C6.56703297,3.27032967 8.75604396,2.55824176 11.0769231,2.55824176 C13.8725275,2.55824176 16.5362637,3.69230769 18.4879121,5.61758242 L15.5604396,5.09010989 L22.8659341,13.1868132 L23.3142857,2.29450549 L21.0725275,4.95824176 Z" id="Shape"></path>
            </g>
        </g>
    </g>
</svg>