<?xml version="1.0" encoding="UTF-8"?>
<svg width="13px" height="18px" viewBox="0 0 13 18" version="1.1" xmlns="http://www.w3.org/2000/svg" xmlns:xlink="http://www.w3.org/1999/xlink">
    <!-- Generator: Sketch 48.2 (47327) - http://www.bohemiancoding.com/sketch -->
    <title>Combined Shape</title>
    <desc>Created with Sketch.</desc>
    <defs></defs>
    <g id="1-1-1-Ğ¡ryptoguys-Landing" stroke="none" stroke-width="1" fill="none" fill-rule="evenodd" transform="translate(-1469.000000, -53.000000)">
        <g id="Welcome-Screen" transform="translate(-1.000000, -1023.000000)" fill="#FFFFFF" fill-rule="nonzero">
            <g id="header" transform="translate(163.000000, 1053.000000)">
                <g id="social" transform="translate(970.000000, 20.000000)">
                    <g id="Group-13" transform="translate(337.000000, 3.000000)">
                        <path d="M9.71805043,0.710041322 C9.94215936,0.45452901 10.2706734,0.292570313 10.6351875,0.292570313 C11.3063906,0.292570313 11.8555313,0.841710938 11.8555313,1.51291406 C11.8555313,2.18411719 11.3063906,2.73325781 10.6351875,2.73325781 C9.96398438,2.73325781 9.41484375,2.18411719 9.41484375,1.51291406 C9.41484375,1.41567495 9.42636919,1.3209977 9.4481215,1.2301809 L7.40130469,0.628171875 L6.69552746,3.03958024 C8.05957758,3.10643261 9.42091894,3.65243522 10.360582,4.2586875 C10.6351875,4.04511328 10.9707539,3.89257031 11.3368711,3.89257031 C12.160582,3.89257031 12.8012695,4.56373828 12.8012695,5.35696875 C12.8012695,5.87562891 12.5266992,6.36377344 12.0995859,6.60782812 C12.1301016,6.76037109 12.1301016,6.88239844 12.1301016,7.03494141 C12.1301016,8.07222656 11.5199297,9.04851562 10.4216133,9.78071484 C10.0555313,9.99425391 9.68941406,10.2078281 9.26230078,10.3603711 C10.0860469,10.7570039 10.6657031,11.7027422 10.6657031,12.8010586 C10.6657031,14.051918 9.93350391,15.0892031 8.95721484,15.3637734 C8.89621875,15.5773477 8.80467188,15.8214023 8.71316016,16.0349766 C8.74364063,16.0349766 8.77415625,16.0349766 8.80467188,16.0349766 C9.68941406,16.0349766 10.3301016,16.6451484 10.3301016,17.3773477 C10.3301016,17.4688594 10.3606172,17.6824336 10.3301016,17.8044609 C10.2996211,17.9264883 10.2080742,17.9875195 10.0860469,17.9875195 L2.70298828,17.9875195 C2.58096094,17.9875195 2.48941406,17.9264883 2.39790234,17.8349766 C2.36738672,17.6824336 2.33687109,17.499375 2.33687109,17.3773477 C2.33687109,16.6451484 3.09958594,16.0349766 3.98432813,16.0349766 C4.01484375,16.0349766 4.07583984,16.0349766 4.10635547,16.0349766 C4.01484375,15.8214023 3.9538125,15.6078281 3.86230078,15.3637734 C2.88601172,15.0892031 2.1538125,14.051918 2.1538125,12.8010586 C2.1538125,11.7027422 2.73346875,10.7569687 3.55721484,10.3603711 C3.13010156,10.2078281 2.76401953,10.0247695 2.39790234,9.78071484 C1.29958594,9.04851562 0.689414063,8.07222656 0.689414063,7.03494141 C0.689414063,6.88239844 0.689414063,6.72985547 0.719929688,6.60782812 C0.292816406,6.36373828 0.0182460938,5.87562891 0.0182460938,5.35696875 C0.0182460938,4.53325781 0.689414062,3.89257031 1.48264453,3.89257031 C1.84872656,3.89257031 2.21484375,4.01463281 2.45889844,4.2586875 C3.42128522,3.66426158 4.72509409,3.14863934 6.05352766,3.05290513 C6.0521385,3.02798716 6.05383564,3.00264983 6.05889844,2.9773125 L6.82161328,0.414597656 C6.913125,0.140027344 7.18773047,-0.012515625 7.46230078,0.0484804688 L9.62841797,0.658652344 C9.66134309,0.671825426 9.6914249,0.689261818 9.71805043,0.710041322 Z M5.44876172,6.39428906 C5.44876172,5.87562891 5.05216406,5.47903125 4.53350391,5.47903125 C4.01484375,5.47903125 3.61824609,5.87562891 3.61824609,6.39428906 C3.61824609,6.91294922 4.01484375,7.30954687 4.53350391,7.30954687 C5.05212891,7.30951172 5.44876172,6.91291406 5.44876172,6.39428906 Z M9.10975781,6.39428906 C9.10975781,5.87562891 8.71316016,5.47903125 8.1945,5.47903125 C7.67583984,5.47903125 7.27924219,5.87562891 7.27924219,6.39428906 C7.27924219,6.91294922 7.67583984,7.30954687 8.1945,7.30954687 C8.71316016,7.30951172 9.10975781,6.91291406 9.10975781,6.39428906 Z M6.36398438,9.44511328 C7.18773047,9.44511328 7.98096094,9.17054297 8.40803906,8.74342969 C8.53006641,8.62140234 8.53006641,8.43834375 8.40803906,8.31631641 C8.28601172,8.19428906 8.10295313,8.19428906 7.98092578,8.31631641 C7.73687109,8.56040625 7.18769531,8.83497656 6.36398438,8.83497656 C5.54027344,8.83497656 4.99109766,8.56037109 4.74704297,8.31631641 C4.62501563,8.19428906 4.44195703,8.19428906 4.31992969,8.31631641 C4.19790234,8.43834375 4.19790234,8.62140234 4.31992969,8.74342969 C4.74704297,9.17054297 5.54023828,9.44511328 6.36398438,9.44511328 Z M6.88264453,16.4620547 C7.70635547,15.9739453 8.31652734,14.4485156 8.31652734,12.5874844 C8.31652734,12.1603711 8.28604687,11.7332227 8.22501562,11.336625 C7.64535937,11.489168 7.06570312,11.5806797 6.42501562,11.5806797 C5.78432812,11.5806797 5.17415625,11.489168 4.62501562,11.336625 C4.56401953,11.7332578 4.53350391,12.1603711 4.53350391,12.5874844 C4.53350391,14.4484805 5.14364062,15.9739102 5.96738672,16.4620547 L6.88264453,16.4620547 Z" id="Combined-Shape"></path>
                    </g>
                </g>
            </g>
        </g>
    </g>
</svg>