<?xml version="1.0" encoding="utf-8"?>
<!-- Generator: Adobe Illustrator 22.1.0, SVG Export Plug-In . SVG Version: 6.00 Build 0)  -->
<svg version="1.1"
	 id="Layer_1" xmlns:cc="http://creativecommons.org/ns#" xmlns:dc="http://purl.org/dc/elements/1.1/" xmlns:inkscape="http://www.inkscape.org/namespaces/inkscape" xmlns:rdf="http://www.w3.org/1999/02/22-rdf-syntax-ns#" xmlns:sodipodi="http://sodipodi.sourceforge.net/DTD/sodipodi-0.dtd" xmlns:svg="http://www.w3.org/2000/svg"
	 xmlns="http://www.w3.org/2000/svg" xmlns:xlink="http://www.w3.org/1999/xlink" x="0px" y="0px" viewBox="0 0 391 327.9"
	 style="enable-background:new 0 0 391 327.9;" xml:space="preserve">
<style type="text/css">
	.st0{fill:#FFFFFF;}
</style>
<g id="g3885" transform="translate(297.22034,0)">
	<path id="path9" class="st0" d="M67.4,2.2L-279,135.8c-23.6,9.5-23.5,22.7-4.3,28.5l86.4,27l33.1,101.3c4,11.1,2,15.5,13.7,15.5
		c9,0,13-4.1,18-9c3.2-3.1,22.1-21.5,43.2-42l89.9,66.4c16.5,9.1,28.5,4.4,32.6-15.4l59-277.9C98.5,6,83.2-5,67.4,2.2z
		 M-183.3,185.1L11.4,62.2c9.7-5.9,18.6-2.7,11.3,3.8L-144,216.4l-6.5,69.2L-183.3,185.1z"/>
</g>
</svg>
