<?xml version="1.0" encoding="UTF-8"?>
<svg width="35px" height="30px" viewBox="0 0 35 30" version="1.1" xmlns="http://www.w3.org/2000/svg" xmlns:xlink="http://www.w3.org/1999/xlink">
    <!-- Generator: Sketch 48.2 (47327) - http://www.bohemiancoding.com/sketch -->
    <title>Fill 1</title>
    <desc>Created with Sketch.</desc>
    <defs></defs>
    <g id="1-1-1-Сryptoguys-Landing" stroke="none" stroke-width="1" fill="none" fill-rule="evenodd" transform="translate(-1778.000000, -869.000000)">
        <g id="Welcome-Screen" transform="translate(0.000000, -1023.000000)" fill="#FFFFFF">
            <g id="telegram" transform="translate(1761.000000, 1871.000000)">
                <g id="Page-1" transform="translate(17.000000, 21.000000)">
                    <path d="M28.7404527,6.0167745 L13.8722147,19.3944049 C13.7239813,19.5274545 13.6295794,19.7122011 13.6075217,19.9120427 L13.0352018,25.0894891 C13.0161638,25.2586064 12.7839009,25.2810485 12.7346649,25.118744 L10.3789495,17.3969242 C10.2712866,17.0437282 10.4117735,16.6606095 10.7211072,16.4655769 L28.2793407,5.38585754 C28.6830763,5.13124655 29.0963966,5.69630663 28.7404527,6.0167745 M32.7536507,0.117173253 L0.743519269,12.8087165 C-0.293457684,13.2198879 -0.230435535,14.7336611 0.836870828,15.0539954 L8.97119219,17.4976465 L12.0068904,27.2982996 C12.3238393,28.3220869 13.5988561,28.6321353 14.3368717,27.865497 L18.5424186,23.496367 L26.7941187,29.658995 C27.8039173,30.4130764 29.242004,29.8525582 29.4984254,28.6054185 L34.9636274,2.02127877 C35.2314715,0.718835332 33.9723415,-0.365999868 32.7536507,0.117173253" id="Fill-1"></path>
                </g>
            </g>
        </g>
    </g>
</svg>