<?xml version="1.0" encoding="UTF-8"?>
<svg width="25px" height="15px" viewBox="0 0 25 15" version="1.1" xmlns="http://www.w3.org/2000/svg" xmlns:xlink="http://www.w3.org/1999/xlink">
    <!-- Generator: Sketch 48.2 (47327) - http://www.bohemiancoding.com/sketch -->
    <title>trading-view</title>
    <desc>Created with Sketch.</desc>
    <defs></defs>
    <g id="Page-1" stroke="none" stroke-width="1" fill="none" fill-rule="evenodd">
        <g id="trading-view" transform="translate(-1.000000, 0.000000)" fill="#FFFFFF" fill-rule="nonzero">
            <path d="M22.9969918,6.1969533 C23.4402195,6.83918053 23.6931428,7.59348548 23.7266643,8.3730898 C25.2916609,8.92701025 26.2306312,10.5271652 25.950913,12.1635636 C25.6711947,13.799962 24.2540224,14.997369 22.5938913,15.0000013 L5.54546814,15.0000013 C4.34702755,15.0016141 3.1967576,14.5283742 2.34642624,13.683863 L9.57950391,7.95862369 C9.84470161,8.10031503 10.1477847,8.18063205 10.4705682,8.18063205 C10.7498353,8.18104033 11.0257105,8.1194472 11.2782846,8.00029761 L14.7258546,11.016732 C14.4743761,11.8105865 14.7708333,12.6755761 15.4563979,13.1482785 C16.1419625,13.620981 17.0558369,13.5905249 17.7084085,13.0732274 C18.3609801,12.5559299 18.5991898,11.6731219 18.2954155,10.8977718 L22.9969918,6.1969533 Z M21.9255931,5.12555461 L17.2247746,9.82637316 C17.00414,9.73989171 16.7692076,9.69568124 16.5322297,9.69604744 C16.2529626,9.69563915 15.9770874,9.75723229 15.7245133,9.87638187 L12.2769433,6.85994753 C12.5201356,6.09180072 12.2508012,5.25387526 11.6055859,4.7712893 C10.9603706,4.28870334 10.0804886,4.26707742 9.41234443,4.71738335 C8.74420031,5.16768928 8.43402659,5.99137147 8.63918866,6.77053802 L1.45990824,12.452588 C0.766233431,11.0357621 0.856621368,9.36061017 1.69872313,8.02665179 C2.5408249,6.69269341 4.01425514,5.89062892 5.5916883,5.90750896 C5.94958922,3.05300692 8.26437953,0.843124437 11.1324016,0.617904396 C14.0004238,0.392684355 16.6317882,2.2141552 17.4308711,4.97780161 C18.075507,4.5932239 18.8124249,4.39079407 19.5630605,4.39209356 C20.4397283,4.39209356 21.2535064,4.66335292 21.9255931,5.12555461 Z" id="Shape"></path>
        </g>
    </g>
</svg>