<?xml version="1.0" encoding="UTF-8"?>
<svg width="20px" height="16px" viewBox="0 0 20 16" version="1.1" xmlns="http://www.w3.org/2000/svg" xmlns:xlink="http://www.w3.org/1999/xlink">
    <!-- Generator: Sketch 48.2 (47327) - http://www.bohemiancoding.com/sketch -->
    <title>Shape</title>
    <desc>Created with Sketch.</desc>
    <defs></defs>
    <g id="1-1-1-Сryptoguys-Landing" stroke="none" stroke-width="1" fill="none" fill-rule="evenodd" transform="translate(-1132.000000, -54.000000)">
        <g id="Welcome-Screen" transform="translate(-1.000000, -1023.000000)" fill="#FFFFFF">
            <g id="header" transform="translate(163.000000, 1053.000000)">
                <g id="social" transform="translate(970.000000, 20.000000)">
                    <path d="M19.2357267,5.82314741 C18.5452721,6.12909312 17.8044242,6.33658201 17.0260267,6.4292148 C17.8208235,5.95326859 18.4292205,5.19835114 18.7175715,4.30157247 C17.9720338,4.74232926 17.1490978,5.06237527 16.2722434,5.23587018 C15.5700795,4.48680741 14.5713189,4.02024096 13.4635263,4.02024096 C11.3382442,4.02024096 9.61503508,5.74345009 9.61503508,7.86756735 C9.61503508,8.16882319 9.64902905,8.46305953 9.71468738,8.74442169 C6.51680211,8.58380096 3.68114113,7.05168146 1.78327228,4.72356973 C1.45151689,5.29095328 1.26278753,5.95207313 1.26278753,6.65779282 C1.26278753,7.99299866 1.94269755,9.17110884 2.97428729,9.86036797 C2.34360568,9.83927883 1.75044312,9.66578392 1.23115383,9.37740226 L1.23115383,9.42546587 C1.23115383,11.2893408 2.55814471,12.8449097 4.31767742,13.1989496 C3.9953018,13.2856971 3.65536212,13.3337607 3.3036824,13.3337607 C3.05518006,13.3337607 2.81486201,13.3091465 2.57923385,13.2622477 C3.06921904,14.7920376 4.49000753,15.9044894 6.17336801,15.934989 C4.85692169,16.9665787 3.19701062,17.5796656 1.39410418,17.5796656 C1.08346858,17.5796656 0.77749221,17.5609061 0.476236374,17.5269121 C2.17952118,18.6206351 4.20165653,19.2583362 6.37500221,19.2583362 C13.4542078,19.2583362 17.3238188,13.3947291 17.3238188,8.3095196 L17.310914,7.81131944 C18.0669962,7.27204452 18.7210966,6.59449477 19.2357267,5.82314741 Z" id="Shape"></path>
                </g>
            </g>
        </g>
    </g>
</svg>