<?xml version="1.0" encoding="UTF-8"?>
<svg width="22px" height="15px" viewBox="0 0 22 15" version="1.1" xmlns="http://www.w3.org/2000/svg" xmlns:xlink="http://www.w3.org/1999/xlink">
    <!-- Generator: Sketch 48.2 (47327) - http://www.bohemiancoding.com/sketch -->
    <title>Shape</title>
    <desc>Created with Sketch.</desc>
    <defs></defs>
    <g id="1-1-1-Сryptoguys-Landing" stroke="none" stroke-width="1" fill="none" fill-rule="evenodd" transform="translate(-1407.000000, -55.000000)">
        <g id="Welcome-Screen" transform="translate(-1.000000, -1023.000000)" fill="#FFFFFF" fill-rule="nonzero">
            <g id="header" transform="translate(163.000000, 1053.000000)">
                <g id="social" transform="translate(970.000000, 20.000000)">
                    <path d="M296.148681,7.41292941 C295.885213,6.26842461 294.949083,5.42404131 293.822128,5.29808358 C291.153468,5.00018355 288.452374,4.99862851 285.763721,5.00018355 C283.074624,4.99862851 280.373086,5.00018355 277.704426,5.29808358 C276.578137,5.42404131 275.642673,6.26842461 275.379206,7.41292941 C275.004221,9.04282688 275,10.8220076 275,12.5001111 C275,14.1782146 275,15.9571732 275.374985,17.5868485 C275.638008,18.7311312 276.573694,19.5755145 277.700649,19.7016943 C280.369087,19.9998165 283.070403,20.0013715 285.7595,19.9998165 C288.449042,20.0013715 291.149691,19.9998165 293.817907,19.7016943 C294.944196,19.5757366 295.880548,18.7313533 296.144015,17.5868485 C296.519223,15.956951 296.520556,14.1779925 296.520556,12.5001111 C296.520556,10.8220076 296.523666,9.04282688 296.148681,7.41292941 Z M282.983099,15.8403235 C282.983099,13.459789 282.983099,11.1041351 282.983099,8.72337853 C285.263889,9.91342361 287.529573,11.0954714 289.824803,12.2928473 C287.536682,13.4795602 285.269887,14.6544992 282.983099,15.8403235 Z" id="Shape"></path>
                </g>
            </g>
        </g>
    </g>
</svg>