<svg xmlns="http://www.w3.org/2000/svg" xmlns:xlink="http://www.w3.org/1999/xlink" width="62" height="83" viewBox="0 0 62 83">
    <defs>
        <linearGradient id="a" x1="100%" x2="-24.616%" y1="91.313%" y2="30.487%">
            <stop offset="0%" stop-color="#A843FD"/>
            <stop offset="100%" stop-color="#FF008C"/>
        </linearGradient>
        <linearGradient id="b" x1="17.607%" x2="81.12%" y1="39.805%" y2="108.335%">
            <stop offset="0%" stop-color="#A843FD"/>
            <stop offset="100%" stop-color="#FC0290"/>
            <stop offset="100%" stop-color="#FF008C"/>
        </linearGradient>
        <linearGradient id="d" x1="50%" x2="52.97%" y1="0%" y2="100%">
            <stop offset="0%" stop-color="#12A7F6"/>
            <stop offset="100%" stop-color="#25CBD3"/>
        </linearGradient>
        <linearGradient id="c" x1="76.594%" x2="58.763%" y1="111.468%" y2="-11.135%">
            <stop offset="0%" stop-color="#12A7F6"/>
            <stop offset="100%" stop-color="#25CBD3"/>
        </linearGradient>
        <path id="e" d="M0 .207h27.441v27.496H0z"/>
    </defs>
    <g fill="none" fill-rule="evenodd" transform="translate(2 2)">
        <path fill="url(#a)" d="M12.403 34.88h18.031v44.164l-9.015-7.587-9.016 7.587z" transform="rotate(20 21.419 56.962)"/>
        <path fill="url(#b)" d="M27.73 34.88h18.03v44.164l-9.015-7.587-9.015 7.587z" transform="rotate(-20 36.745 56.962)"/>
        <ellipse cx="29" cy="29.058" fill="url(#d)" stroke="url(#c)" stroke-width="3" rx="29" ry="29.058"/>
        <g transform="translate(15.326 15.15)">
            <mask id="f" fill="#fff">
                <use xlink:href="#e"/>
            </mask>
            <path fill="#FFF" d="M26.54 25.745c0 .582-.472 1.054-1.052 1.054H1.953c-.58 0-1.052-.472-1.052-1.054V2.165c0-.582.473-1.054 1.052-1.054h23.535c.58 0 1.052.472 1.052 1.053v23.581zM25.488.207H1.953A1.958 1.958 0 0 0 0 2.164v23.581c0 1.08.876 1.958 1.953 1.958h23.535a1.958 1.958 0 0 0 1.953-1.958V2.165c0-1.08-.876-1.958-1.953-1.958z" mask="url(#f)"/>
        </g>
        <path fill="#FFF" d="M38.792 38.717a.15.15 0 0 1-.15.15H19.454a.149.149 0 0 1-.15-.15v-1.948h.31a.753.753 0 0 0 .752-.753v-2.752a.753.753 0 0 0-.752-.753h-.31v-6.589h.31a.753.753 0 0 0 .752-.753v-2.752a.753.753 0 0 0-.752-.752h-.31V19.49a.15.15 0 0 1 .15-.15h19.188c.081 0 .15.069.15.15v19.227zm-20.631-2.851h1.303v-2.451h-1.303v2.45zm0-10.847h1.303v-2.451h-1.303v2.45zm20.48-6.583H19.455c-.58 0-1.052.473-1.052 1.054v2.175h-.391a.753.753 0 0 0-.752.752v2.752c0 .416.337.753.752.753h.39v6.59h-.39a.753.753 0 0 0-.752.752v2.752c0 .415.337.753.752.753h.39v1.948c0 .58.473 1.053 1.053 1.053h19.188c.58 0 1.052-.472 1.052-1.053V19.49c0-.58-.472-1.054-1.052-1.054z"/>
        <path fill="#FFF" d="M32.653 30.75a1.646 1.646 0 0 1 0-3.291 1.646 1.646 0 0 1 0 3.291m3.726-2.097h-1.224a2.54 2.54 0 0 0-.414-1.001l.865-.868a.452.452 0 0 0-.637-.638l-.866.867a2.53 2.53 0 0 0-.999-.415v-1.226a.451.451 0 1 0-.902 0v1.226c-.366.066-.705.21-.999.415l-.866-.867a.452.452 0 0 0-.637.639l.866.867a2.531 2.531 0 0 0-.414 1.001h-1.224a.451.451 0 0 0 0 .903h1.224c.065.367.209.707.414 1.002l-.866.867a.452.452 0 0 0 .637.639l.866-.868c.294.206.633.35 1 .415v1.227a.451.451 0 1 0 .901 0V31.61c.366-.066.705-.21 1-.415l.865.868a.45.45 0 0 0 .637 0 .452.452 0 0 0 0-.64l-.865-.866a2.54 2.54 0 0 0 .414-1.002h1.224a.451.451 0 0 0 0-.903"/>
    </g>
</svg>
