<svg xmlns="http://www.w3.org/2000/svg" xmlns:xlink="http://www.w3.org/1999/xlink" width="62" height="83" viewBox="0 0 62 83">
    <defs>
        <linearGradient id="a" x1="100%" x2="-24.616%" y1="91.313%" y2="30.487%">
            <stop offset="0%" stop-color="#A843FD"/>
            <stop offset="100%" stop-color="#FF008C"/>
        </linearGradient>
        <linearGradient id="b" x1="17.607%" x2="81.12%" y1="39.805%" y2="108.335%">
            <stop offset="0%" stop-color="#A843FD"/>
            <stop offset="100%" stop-color="#FC0290"/>
            <stop offset="100%" stop-color="#FF008C"/>
        </linearGradient>
        <linearGradient id="d" x1="50%" x2="52.97%" y1="0%" y2="100%">
            <stop offset="0%" stop-color="#12A7F6"/>
            <stop offset="100%" stop-color="#25CBD3"/>
        </linearGradient>
        <linearGradient id="c" x1="76.594%" x2="58.763%" y1="111.468%" y2="-11.135%">
            <stop offset="0%" stop-color="#12A7F6"/>
            <stop offset="100%" stop-color="#25CBD3"/>
        </linearGradient>
        <path id="e" d="M0 0h29.692V11.06H0z"/>
    </defs>
    <g fill="none" fill-rule="evenodd" transform="translate(2 2)">
        <path fill="url(#a)" d="M12.403 34.88h18.031v44.164l-9.015-7.587-9.016 7.587z" transform="rotate(20 21.419 56.962)"/>
        <path fill="url(#b)" d="M27.73 34.88h18.03v44.164l-9.015-7.587-9.015 7.587z" transform="rotate(-20 36.745 56.962)"/>
        <ellipse cx="29" cy="29.058" fill="url(#d)" stroke="url(#c)" stroke-width="3" rx="29" ry="29.058"/>
        <g transform="rotate(-60 42.428 5.082)">
            <mask id="f" fill="#fff">
                <use xlink:href="#e"/>
            </mask>
            <path fill="#FFF" d="M1.094 4.904c.44.279.996.533 1.65.762v2.651c-1.07-.403-1.648-.808-1.65-1.12V4.904zm13.75-3.797c9.068 0 13.655 1.439 13.74 2.264-.066.374-.91.868-2.405 1.334-1.946.605-4.99 1.16-8.849 1.33a63.777 63.777 0 0 1-1.094.038c-.455.011-.917.019-1.393.019s-.938-.008-1.393-.018c-.168-.004-.333-.01-.498-.015-.202-.006-.398-.015-.595-.023-3.86-.171-6.905-.726-8.85-1.331-1.494-.466-2.338-.96-2.404-1.334.085-.825 4.672-2.264 13.74-2.264zm13.748 6.089c0 .084-.043.174-.126.27l-.015-.003-.2.157c-.29.228-.736.458-1.309.68V5.666c.655-.23 1.21-.483 1.65-.762v2.292zm-2.75 1.479a23.63 23.63 0 0 1-1.65.411V6.388a24.358 24.358 0 0 0 1.65-.383v2.67zm-2.75.625c-.52.092-1.07.178-1.649.254V6.82c.567-.07 1.118-.147 1.65-.234V9.3zm-2.75.385c-.53.057-1.08.105-1.65.146V7.073a53.358 53.358 0 0 0 1.65-.135v2.747zm-2.749.213c-.093.004-.183.011-.277.016h-.024c-.369.017-.745.03-1.126.038l-.178.004c-.196.004-.396.005-.595.007V7.197l.454-.007.088-.001c.554-.01 1.107-.028 1.658-.054v2.763zm-3.3.064a54.242 54.242 0 0 1-2.2-.063V7.136a57.773 57.773 0 0 0 2.2.06v2.766zm-3.3-.133c-.559-.04-1.112-.086-1.65-.143V6.938c.542.053 1.093.098 1.65.135v2.756zm-2.75-.274c-.108-.014-.221-.026-.33-.041l-.206-.03a41.149 41.149 0 0 1-.933-.147l-.18-.033V6.585c.532.087 1.082.165 1.65.234v2.736zm-2.75-.464l-.203-.044a23.333 23.333 0 0 1-1.446-.367V6.005c.514.14 1.066.267 1.65.383V9.09zM.074 2.997a1.253 1.253 0 0 0-.065.31L0 7.181c.004 1.842 4.123 2.986 8.7 3.52.033.006.064.02.1.02.911.095 1.808.173 2.695.228a54.95 54.95 0 0 0 3.354.109 53.868 53.868 0 0 0 6.02-.343c.065.005.097-.01.13-.016 4.213-.49 8.03-1.501 8.613-3.096.016-.042.033-.083.044-.126.012-.048.015-.098.02-.148.006-.044.016-.087.016-.133V3.323C29.486.095 16.352 0 14.843 0 13.387 0 1.106.09.073 2.997z" mask="url(#f)"/>
        </g>
    </g>
</svg>
