<svg xmlns="http://www.w3.org/2000/svg" width="62" height="83" viewBox="0 0 62 83">
    <defs>
        <linearGradient id="a" x1="100%" x2="-24.616%" y1="91.313%" y2="30.487%">
            <stop offset="0%" stop-color="#A843FD"/>
            <stop offset="100%" stop-color="#FF008C"/>
        </linearGradient>
        <linearGradient id="b" x1="17.607%" x2="81.12%" y1="39.805%" y2="108.335%">
            <stop offset="0%" stop-color="#A843FD"/>
            <stop offset="100%" stop-color="#FC0290"/>
            <stop offset="100%" stop-color="#FF008C"/>
        </linearGradient>
        <linearGradient id="c" x1="50%" x2="52.97%" y1="0%" y2="100%">
            <stop offset="0%" stop-color="#12A7F6"/>
            <stop offset="100%" stop-color="#25CBD3"/>
        </linearGradient>
        <linearGradient id="d" x1="76.594%" x2="58.763%" y1="111.468%" y2="-11.135%">
            <stop offset="0%" stop-color="#12A7F6"/>
            <stop offset="100%" stop-color="#25CBD3"/>
        </linearGradient>
    </defs>
    <g fill="none" fill-rule="evenodd">
        <path fill="url(#a)" d="M12.403 34.88h18.031v44.164l-9.015-7.587-9.016 7.587z" transform="rotate(20 16.747 63.634)"/>
        <path fill="url(#b)" d="M27.73 34.88h18.03v44.164l-9.015-7.587-9.015 7.587z" transform="rotate(-20 43.416 52.291)"/>
        <ellipse cx="29" cy="29.058" fill="url(#c)" stroke="url(#d)" stroke-width="3" rx="29" ry="29.058" transform="translate(2 2)"/>
        <g fill="#FFF" fill-rule="nonzero">
            <path d="M44.572 36.516a.65.65 0 1 1 1.3 0v3.756a3.54 3.54 0 0 1-3.538 3.541H20.106a3.54 3.54 0 0 1-3.537-3.541v-3.756a.65.65 0 1 1 1.3 0v3.756a2.24 2.24 0 0 0 2.237 2.24h22.228a2.24 2.24 0 0 0 2.238-2.24v-3.756zM27.137 23.763a.65.65 0 1 1-1.299 0v-1.66a3.539 3.539 0 0 1 3.537-3.542h3.69a3.539 3.539 0 0 1 3.537 3.541v1.661a.65.65 0 1 1-1.3 0v-1.66a2.239 2.239 0 0 0-2.237-2.24h-3.69a2.239 2.239 0 0 0-2.238 2.24v1.66z"/>
            <path d="M28.752 35.093a.65.65 0 0 1-.08 1.298c-4.08-.253-8.522-1.085-11.662-2.15a.65.65 0 0 1-.44-.616v-6.981a3.538 3.538 0 0 1 3.536-3.541h22.228a3.54 3.54 0 0 1 3.537 3.54v6.982a.65.65 0 0 1-.487.63c-4.498 1.16-8.085 1.861-11.608 2.12a.65.65 0 0 1-.095-1.297c3.302-.243 6.69-.89 10.891-1.958v-6.476a2.24 2.24 0 0 0-2.238-2.24H20.106a2.238 2.238 0 0 0-2.237 2.24v6.51c2.996.957 7.104 1.704 10.883 1.94z"/>
            <path d="M32.284 38.798a.794.794 0 0 0 .794-.795v-5a.795.795 0 0 0-.794-.795h-2.128a.794.794 0 0 0-.794.795v5c0 .44.356.795.794.795h2.128zm0 1.3h-2.128a2.094 2.094 0 0 1-2.093-2.095v-5c0-1.157.937-2.096 2.093-2.096h2.128c1.156 0 2.094.939 2.094 2.096v5a2.095 2.095 0 0 1-2.094 2.096z"/>
        </g>
    </g>
</svg>
