<?xml version="1.0" encoding="UTF-8"?>
<svg width="56px" height="51px" viewBox="0 0 56 51" version="1.1" xmlns="http://www.w3.org/2000/svg" xmlns:xlink="http://www.w3.org/1999/xlink">
    <!-- Generator: Sketch 48.2 (47327) - http://www.bohemiancoding.com/sketch -->
    <title>coins</title>
    <desc>Created with Sketch.</desc>
    <defs></defs>
    <g id="1-1-1-Сryptoguys-Landing" stroke="none" stroke-width="1" fill="none" fill-rule="evenodd" transform="translate(-400.000000, -3355.000000)">
        <g id="Services" transform="translate(160.000000, 2600.000000)">
            <g transform="translate(0.000000, 253.000000)" id="9">
                <g transform="translate(0.000000, 454.000000)">
                    <g id="coins" transform="translate(240.000000, 45.000000)">
                        <rect id="Rectangle" x="0" y="0" width="56" height="56"></rect>
                        <g stroke-width="1" fill-rule="evenodd" transform="translate(0.000000, 3.000000)" fill="#25CBD3" id="Shape">
                            <path d="M55.9897333,17 C55.8973333,15.3840556 53.998,14.1213333 50.1993333,13.158 C50.3272,12.8746667 50.3990667,12.58 50.4,12.274 L50.4,5.66666667 L50.3841333,5.66666667 C50.05,0.162444444 27.7601333,0 25.2,0 C22.6398667,0 0.35,0.162444444 0.0158666667,5.66666667 L0,5.66666667 L0,5.78944444 L0,12.2768333 C0.00466666667,14.0712778 2.2932,15.4756667 5.698,16.5211667 C5.65133333,16.6779444 5.62333333,16.8375556 5.614,17 L5.6,17 L5.6,17.1227778 L5.6,23.5988333 C1.932,24.5546111 0.0998666667,25.7993889 0.00933333333,27.3888889 L0,27.3888889 L0,27.5116667 L0,33.9990556 C0.0028,35.2485556 1.11626667,36.3082222 2.93813333,37.1912778 C2.86906667,37.383 2.82613333,37.5785 2.814,37.7787222 L2.8,37.7787222 L2.8,37.9015 L2.8,44.3888889 C2.80746667,47.5301111 9.7972,49.4803889 17.5634667,50.3908333 C17.6204,50.4021667 17.6726667,50.4257778 17.7333333,50.4257778 C17.7510667,50.4257778 17.766,50.4163333 17.7837333,50.4153889 C19.2808,50.5863333 20.8021333,50.7195 22.3076,50.8148889 C22.3393333,50.8186667 22.3673333,50.8337778 22.4,50.8337778 C22.4177333,50.8337778 22.4317333,50.8243333 22.4485333,50.8233889 C24.36,50.9405 26.2406667,51 28,51 C29.7593333,51 31.64,50.9405 33.5514667,50.8224444 C33.5682667,50.8233889 33.5832,50.8328333 33.6,50.8328333 C33.6326667,50.8328333 33.6606667,50.8167778 33.6924,50.8139444 C35.1978667,50.7185556 36.7192,50.5863333 38.2162667,50.4144444 C38.234,50.4144444 38.2489333,50.4238889 38.2666667,50.4238889 C38.3273333,50.4238889 38.3796,50.4002778 38.4365333,50.3889444 C46.2028,49.4785 53.1916,47.5272778 53.2,44.3851111 L53.2,37.7777778 L53.1850667,37.7777778 C53.1197333,36.6198889 52.1444,35.6537222 50.218,34.8462222 C50.3356,34.5732778 50.4,34.2899444 50.4,33.9962222 L50.4,27.8233333 C53.7506667,26.7806667 55.9953333,25.3857222 56,23.6073333 L56,17 L55.9897333,17 Z M48.4325333,34.3031667 L48.1142667,34.5855556 C47.6242667,35.0228333 46.8076,35.4638889 45.7333333,35.8888889 L45.7333333,31.3857778 C46.8430667,30.9947778 47.7876,30.5612778 48.5333333,30.0862222 L48.5333333,33.9943333 C48.5333333,34.0916111 48.4978667,34.1955 48.4325333,34.3031667 Z M27.5576,38.692 C27.4213333,38.6957778 27.2841333,38.6976667 27.1469333,38.7005 C26.8137333,38.7071111 26.4721333,38.709 26.1342667,38.7118333 L26.1342667,33.9943333 C26.3909333,33.9915 26.6476,33.9877222 26.9042667,33.983 C26.9537333,33.9820556 27.0032,33.9811111 27.0526667,33.9801667 C27.9925333,33.9622222 28.9324,33.9329444 29.8676,33.8895 L29.8676,38.6051111 C29.6678667,38.6155 29.4672,38.6249444 29.2646667,38.6334444 C28.7028,38.6589444 28.1353333,38.6778333 27.5576,38.692 Z M23.4817333,38.7052222 C23.0542667,38.6976667 22.6286667,38.6872778 22.2058667,38.6740556 C22.1536,38.6721667 22.1013333,38.6702778 22.0490667,38.6683889 C21.5404,38.6513889 21.0354667,38.6296667 20.5342667,38.6051111 L20.5342667,33.8904444 C21.4694667,33.9348333 22.4093333,33.9641111 23.3492,33.9811111 C23.3986667,33.9820556 23.4481333,33.983 23.4966667,33.9839444 C23.7533333,33.9886667 24.01,33.9924444 24.2666667,33.9952778 L24.2666667,38.7156111 C24.0856,38.7137222 23.9045333,38.7137222 23.7244,38.7108889 C23.6422667,38.709 23.5629333,38.7061667 23.4817333,38.7052222 Z M6.62386667,36.5518889 C6.59306667,36.5424444 6.56413333,36.5339444 6.53333333,36.5254444 L6.53333333,31.9628333 C7.40506667,32.2008333 8.34213333,32.4180556 9.33333333,32.6154444 L9.33333333,37.2252778 C8.47653333,37.0411111 7.686,36.8475 6.9664,36.6491667 C6.85253333,36.6161111 6.73493333,36.5849444 6.62386667,36.5518889 Z M26.2966667,44.3728333 C26.5533333,44.3775556 26.81,44.3813333 27.0666667,44.3841667 L27.0666667,49.1054444 C25.7768,49.0931667 24.5317333,49.0553889 23.3333333,48.9958889 L23.3333333,44.2802778 C24.2685333,44.3246667 25.2084,44.3539444 26.1482667,44.3709444 C26.1977333,44.3709444 26.2472,44.3718889 26.2966667,44.3728333 Z M29.8517333,44.37 C30.7916,44.3520556 31.7314667,44.3227778 32.6666667,44.2793333 L32.6666667,48.9949444 C31.4682667,49.0544444 30.2232,49.0922222 28.9333333,49.1045 L28.9333333,44.3832222 C29.19,44.3803889 29.4466667,44.3766111 29.7033333,44.3718889 C29.7528,44.3718889 29.8022667,44.3709444 29.8517333,44.37 Z M37.3333333,43.9431111 L37.3333333,48.6332222 C36.4364,48.7286111 35.5030667,48.8126667 34.5333333,48.8816111 L34.5333333,44.1716667 C35.4797333,44.1093333 36.4149333,44.0328333 37.3333333,43.9431111 Z M39.2,43.7391111 C40.1622667,43.622 41.0965333,43.4888333 42,43.3405556 L42,47.9777778 C41.1208,48.1345556 40.1865333,48.2790556 39.2,48.4103333 L39.2,43.7391111 Z M43.8666667,43.0033889 C44.8578667,42.806 45.7949333,42.5887778 46.6666667,42.3507778 L46.6666667,46.9133889 C45.8350667,47.1561111 44.8989333,47.3912778 43.8666667,47.6132222 L43.8666667,43.0033889 Z M12.1333333,43.0033889 L12.1333333,47.6132222 C11.1010667,47.3912778 10.1649333,47.1561111 9.33333333,46.9133889 L9.33333333,42.3507778 C10.2050667,42.5887778 11.1421333,42.8069444 12.1333333,43.0033889 Z M14,43.3415 C14.9034667,43.4897778 15.8377333,43.6229444 16.8,43.7400556 L16.8,48.4112778 C15.8134667,48.28 14.8792,48.1355 14,47.9787222 L14,43.3415 Z M18.6666667,43.9431111 C19.5850667,44.0328333 20.5202667,44.1093333 21.4666667,44.1726111 L21.4666667,48.8825556 C20.4969333,48.8136111 19.5636,48.7295556 18.6666667,48.6341667 L18.6666667,43.9431111 Z M16.3510667,38.2953333 C16.2558667,38.2858889 16.1616,38.2755 16.0673333,38.2660556 C16.0001333,38.2594444 15.9338667,38.2509444 15.8666667,38.2443333 L15.8666667,33.5551667 C16.7850667,33.6448889 17.7202667,33.7213889 18.6666667,33.7846667 L18.6666667,38.4908333 C17.8826667,38.4341667 17.108,38.3699444 16.3510667,38.2953333 Z M14,33.3502222 L14,38.0214444 C13.0134667,37.8901667 12.0792,37.7456667 11.2,37.5888889 L11.2,32.9516667 C12.1034667,33.0999444 13.0377333,33.2340556 14,33.3502222 Z M32.3549333,38.4464444 C32.1496,38.4625 31.9424,38.4785556 31.7333333,38.4936667 L31.7333333,33.7837222 C32.6797333,33.7204444 33.6149333,33.6448889 34.5333333,33.5542222 L34.5333333,38.2443333 C33.9565333,38.3057222 33.3666667,38.3633333 32.7609333,38.4133889 C32.6256,38.4256667 32.4902667,38.4360556 32.3549333,38.4464444 Z M36.4,38.0214444 L36.4,33.3502222 C37.3622667,33.2331111 38.2965333,33.0999444 39.2,32.9516667 L39.2,37.5888889 C38.3208,37.7456667 37.3865333,37.8911111 36.4,38.0214444 Z M41.0666667,32.6145 C42.0578667,32.4171111 42.9949333,32.1998889 43.8666667,31.9618889 L43.8666667,36.5245 C43.0350667,36.7672222 42.0989333,37.0023889 41.0666667,37.2243333 L41.0666667,32.6145 Z M28.3033333,28.3002778 C27.6014667,28.2823333 26.9154667,28.2549444 26.2416,28.2218889 C26.2052,28.22 26.1688,28.2181111 26.1333333,28.2171667 L26.1333333,23.5015556 C27.0685333,23.5459444 28.0084,23.5752222 28.9482667,23.5922222 C28.9977333,23.5931667 29.0472,23.5941111 29.0957333,23.5950556 C29.3524,23.5997778 29.6090667,23.6035556 29.8657333,23.6063889 L29.8657333,28.322 C29.4112,28.3172778 28.9529333,28.3153889 28.5096,28.305 C28.4414667,28.3031111 28.3714667,28.3021667 28.3033333,28.3002778 Z M6.53333333,14.8032222 L6.53333333,10.2406111 C7.40506667,10.4786111 8.34213333,10.6958333 9.33333333,10.8932222 L9.33333333,15.5030556 C9.21853333,15.4785 9.1,15.4539444 8.988,15.4293889 C8.49146667,15.3188889 8.00706667,15.2036667 7.54413333,15.0818333 C7.19133333,14.9902222 6.85626667,14.8967222 6.53333333,14.8032222 Z M23.4966667,12.2617222 C23.7533333,12.2664444 24.01,12.2702222 24.2666667,12.2730556 L24.2666667,16.9886667 C23.0104,16.9763889 21.7616,16.9433333 20.5333333,16.881 L20.5333333,12.1691667 C21.4685333,12.2135556 22.4084,12.2428333 23.3482667,12.2598333 C23.3977333,12.2598333 23.4472,12.2607778 23.4966667,12.2617222 Z M27.0517333,12.2588889 C27.9916,12.2409444 28.9314667,12.2116667 29.8666667,12.1682222 L29.8666667,16.8800556 C29.708,16.8876111 29.5558667,16.8989444 29.3962667,16.9065 C29.3832,16.9074444 29.3701333,16.9074444 29.3561333,16.9083889 C28.7298667,16.9367222 28.0914667,16.9575 27.4446667,16.9726111 C27.3438667,16.9754444 27.2430667,16.9763889 27.1422667,16.9792222 C26.81,16.9858333 26.4702667,16.9867778 26.1333333,16.9905556 L26.1333333,12.2730556 C26.39,12.2702222 26.6466667,12.2664444 26.9033333,12.2617222 C26.9528,12.2607778 27.0022667,12.2598333 27.0517333,12.2588889 Z M48.3196,12.733 L48.2934667,12.7273333 L47.9537333,12.9946111 C47.4609333,13.3827778 46.704,13.7756667 45.7333333,14.1553333 L45.7333333,9.66261111 C46.8430667,9.27161111 47.7876,8.83811111 48.5333333,8.36305556 L48.5333333,12.2711667 C48.5333333,12.4147222 48.4586667,12.5696111 48.3196,12.733 Z M36.4,16.2935556 L36.4,11.628 C37.3622667,11.5108889 38.2965333,11.3777222 39.2,11.2294444 L39.2,15.8591111 C38.3152,16.0177778 37.3837333,16.1632222 36.4,16.2935556 Z M41.0666667,15.4955 L41.0666667,10.8932222 C42.0578667,10.6958333 42.9949333,10.4786111 43.8666667,10.2406111 L43.8666667,14.7928333 C43.0304,15.0393333 42.0886667,15.2745 41.0666667,15.4955 Z M34.5333333,11.832 L34.5333333,16.5164444 C33.6317333,16.6127778 32.6984,16.6968333 31.7333333,16.7667222 L31.7333333,12.0615 C32.6797333,11.9982222 33.6149333,11.9217222 34.5333333,11.832 Z M15.8666667,16.5183333 L15.8666667,11.832 C16.7850667,11.9217222 17.7202667,11.9982222 18.6666667,12.0615 L18.6666667,16.7629444 C17.7165333,16.694 16.7794667,16.6156111 15.8666667,16.5183333 Z M14,11.628 L14,16.2945 C13.8152,16.2699444 13.6229333,16.2501111 13.44,16.2246111 C13.3205333,16.2076111 13.2066667,16.1896667 13.0890667,16.1726667 C12.5496,16.0942778 12.0222667,16.0102222 11.5052,15.9223889 C11.4016,15.9044444 11.3017333,15.8855556 11.2,15.8676111 L11.2,11.2303889 C12.1034667,11.3777222 13.0377333,11.5118333 14,11.628 Z M24.0352,28.0868333 C23.9092,28.0773889 23.7822667,28.0679444 23.6572,28.0585 C23.0598667,28.0112778 22.4765333,27.9593333 21.9072,27.9017222 C21.7849333,27.8894444 21.6626667,27.8762222 21.5413333,27.8639444 C21.5161333,27.8611111 21.4918667,27.8573333 21.4666667,27.8554444 L21.4666667,23.1653333 C22.3850667,23.2550556 23.3202667,23.3315556 24.2666667,23.3948333 L24.2666667,28.1019444 C24.1910667,28.0962778 24.1108,28.0925 24.0352,28.0868333 Z M17.8686667,27.3813333 C17.4990667,27.3218333 17.1518667,27.2576111 16.8,27.1952778 L16.8,22.5637222 C17.7034667,22.712 18.6377333,22.8451667 19.6,22.9622778 L19.6,27.6335 C19.0288,27.557 18.4697333,27.4776667 17.9330667,27.3926667 C17.9116,27.3879444 17.8901333,27.3841667 17.8686667,27.3813333 Z M14.9333333,22.2256111 L14.9333333,26.8278889 C13.902,26.6040556 12.9668,26.3660556 12.1333333,26.1186111 L12.1333333,21.573 C13.0050667,21.811 13.9421333,22.0291667 14.9333333,22.2256111 Z M10.2666667,20.9959444 L10.2666667,25.483 C8.79946667,24.9097222 7.85306667,24.3241667 7.54506667,23.8028333 L7.48253333,23.6970556 C7.47693333,23.6677778 7.4676,23.6366111 7.46666667,23.6073333 L7.46666667,19.6963889 C8.2124,20.1714444 9.15693333,20.6049444 10.2666667,20.9959444 Z M32.6517333,23.5922222 C33.5916,23.5742778 34.5314667,23.545 35.4666667,23.5015556 L35.4666667,28.2124444 C34.2402667,28.2738333 32.9933333,28.3078333 31.7333333,28.3210556 L31.7333333,23.6063889 C31.99,23.6035556 32.2466667,23.5997778 32.5033333,23.5950556 C32.5528,23.5941111 32.6022667,23.5931667 32.6517333,23.5922222 Z M44.7132,27.2160556 C44.3034667,27.2878333 43.89,27.3586667 43.4653333,27.4238333 C43.2217333,27.4616111 42.9725333,27.4975 42.7224,27.5333889 C42.4862667,27.5673889 42.2408,27.5966667 42.0009333,27.6278333 L42.0009333,22.9613333 C42.9632,22.8442222 43.8974667,22.7110556 44.8009333,22.5627778 L44.8009333,27.2 C44.7710667,27.2056667 44.7421333,27.2113333 44.7132,27.2160556 Z M38.3936,28.0226111 C38.0454667,28.0518889 37.6861333,28.0707778 37.3333333,28.0962778 L37.3333333,23.3948333 C38.2797333,23.3315556 39.2149333,23.256 40.1333333,23.1653333 L40.1333333,27.8507222 C39.5910667,27.9083333 39.0497333,27.9659444 38.4925333,28.0131667 C38.4589333,28.016 38.4272,28.0197778 38.3936,28.0226111 Z M49.0597333,26.2517778 C48.5949333,26.3830556 48.1030667,26.5058333 47.6009333,26.6257778 C47.3685333,26.6805556 47.1314667,26.7353333 46.8888,26.7882222 C46.8169333,26.8042778 46.7404,26.8184444 46.6676,26.8345 L46.6676,22.2265556 C47.6588,22.0291667 48.5958667,21.8119444 49.4676,21.5739444 L49.4676,26.1365556 C49.3332,26.1743333 49.1978667,26.2130556 49.0597333,26.2517778 Z M54.1230667,17.0613889 C54.0372,17.7026667 52.6008,18.5555 50.0369333,19.3573333 C46.7348,20.3896111 41.5678667,21.335 35.0196,21.6277778 C34.6845333,21.6419444 34.3504,21.6561111 34.0088,21.6674444 C33.7297333,21.6768889 33.4497333,21.6853889 33.1650667,21.6929444 C32.3922667,21.7099444 31.6082667,21.7222222 30.8,21.7222222 C29.9917333,21.7222222 29.2077333,21.7099444 28.4349333,21.692 C28.1512,21.6853889 27.8712,21.6759444 27.5912,21.6665 C27.2486667,21.6561111 26.9145333,21.641 26.5804,21.6268333 C20.0321333,21.3340556 14.8642667,20.3886667 11.5630667,19.3563889 C9.01973333,18.5611667 7.58613333,17.7149444 7.47973333,17.0765 C7.4844,17.0585556 7.4844,17.0434444 7.4956,17.0207778 C7.55906667,17.0368333 7.63,17.0500556 7.6944,17.0661111 C8.05933333,17.1539444 8.4336,17.2389444 8.8144,17.3201667 C10.6689333,17.7243889 12.7241333,18.0558889 14.9137333,18.309 C14.9212,18.309 14.9268,18.3127778 14.9333333,18.3127778 C14.9352,18.3127778 14.9370667,18.3118333 14.938,18.3118333 C16.4294667,18.4837222 17.9769333,18.6187778 19.5654667,18.7141667 C19.5776,18.7141667 19.5878667,18.7207778 19.6,18.7207778 C19.6065333,18.7207778 19.6112,18.717 19.6177333,18.717 C20.7610667,18.785 21.9193333,18.8350556 23.0916,18.8615 C23.8093333,18.8794444 24.514,18.8888889 25.2,18.8888889 C25.69,18.8888889 26.1921333,18.8832222 26.6989333,18.8737778 C33.4805333,18.768 39.7656,17.952 44.1392,16.6873889 C44.3408,16.6297778 44.5377333,16.5702778 44.7318667,16.5107778 C44.8504,16.4739444 44.9717333,16.4380556 45.0865333,16.4012222 C45.4244,16.2916667 45.7482667,16.1792778 46.0609333,16.0621667 C46.1150667,16.0413889 46.1664,16.0206111 46.2205333,15.9998333 C46.4846667,15.8987778 46.7385333,15.7939444 46.9812,15.6872222 C47.0512,15.6560556 47.1230667,15.6258333 47.1912,15.5946667 C47.4497333,15.4766111 47.6998667,15.3557222 47.9313333,15.2301111 C48.0358667,15.1743889 48.1264,15.1167778 48.2244,15.0601111 C48.3364,14.9949444 48.4484,14.9288333 48.552,14.8617778 C48.6108,14.824 48.6808,14.7881111 48.7368,14.7503333 C52.9153333,15.6673889 54.0166667,16.6703889 54.1230667,17.0613889 Z M25.2,1.88888889 C40.5897333,1.88888889 48.3737333,4.34066667 48.5193333,5.74788889 C48.4064,6.38633333 46.9737333,7.22972222 44.4369333,8.02305556 C41.1348,9.05533333 35.9678667,10.0007222 29.4196,10.2935 C29.0845333,10.3076667 28.7504,10.3218333 28.4088,10.3331667 C28.1297333,10.3426111 27.8497333,10.3511111 27.5650667,10.3586667 C26.7922667,10.3766111 26.0082667,10.3888889 25.2,10.3888889 C24.3917333,10.3888889 23.6077333,10.3766111 22.8349333,10.3586667 C22.5512,10.3520556 22.2712,10.3426111 21.9912,10.3331667 C21.6486667,10.3227778 21.3145333,10.3076667 20.9804,10.2935 C14.4321333,10.0007222 9.26426667,9.05533333 5.96306667,8.02305556 C3.42533333,7.22972222 1.9936,6.38633333 1.88066667,5.74788889 C2.02626667,4.34066667 9.81026667,1.88888889 25.2,1.88888889 Z M1.86666667,12.274 L1.86666667,8.36305556 C2.6124,8.83811111 3.55693333,9.27161111 4.66666667,9.66261111 L4.66666667,14.1846111 C2.85133333,13.4961111 1.86853333,12.8057222 1.86666667,12.274 Z M6.38773333,25.3441667 C6.40173333,25.3592778 6.4232,25.3725 6.4372,25.3876111 C7.71493333,26.6928333 10.3609333,27.7185 13.6546667,28.4835 C13.7302667,28.5014444 13.8105333,28.5184444 13.8870667,28.5363889 C14.1288,28.5911667 14.3742667,28.645 14.6225333,28.6969444 C17.6474667,29.3486111 21.2585333,29.8198889 25.1925333,30.0531667 C25.1953333,30.0531667 25.1972,30.0541111 25.1990667,30.0541111 C25.2009333,30.0541111 25.2018667,30.0531667 25.2028,30.0531667 C26.4665333,30.1277778 27.7592,30.1797222 29.0789333,30.2023889 C29.6632,30.2146667 30.2381333,30.2222222 30.8,30.2222222 C31.444,30.2222222 32.1048,30.2146667 32.7768,30.1986111 C33.9976,30.1731111 35.2006667,30.1221111 36.3869333,30.0522222 C36.3916,30.0522222 36.3953333,30.0550556 36.4,30.0550556 C36.4084,30.0550556 36.4149333,30.0503333 36.4233333,30.0503333 C40.3676,29.8151667 44.0682667,29.3391667 47.1977333,28.6544444 C46.5201333,29.0133333 45.5924,29.3845 44.4369333,29.7462222 C40.9509333,30.8361111 35.3836,31.8287222 28.308,32.0591667 C28.098,32.0657778 27.8908,32.0733333 27.678,32.079 C27.4493333,32.0846667 27.2169333,32.0884444 26.9845333,32.0931667 C26.3974667,32.1026111 25.8066667,32.1111111 25.2,32.1111111 C24.3917333,32.1111111 23.6077333,32.0988333 22.8349333,32.0808889 C22.5512,32.0742778 22.2712,32.0648333 21.9912,32.0553889 C21.6486667,32.045 21.3145333,32.0298889 20.9804,32.0157222 C14.4321333,31.7229444 9.26426667,30.7775556 5.96306667,29.7452778 C3.3964,28.9425 1.96,28.0887222 1.87693333,27.4474444 C1.98053333,27.0923333 2.92413333,26.2036111 6.38773333,25.3441667 Z M1.86666667,33.9962222 L1.86666667,30.0852778 C2.6124,30.5603333 3.55693333,30.9938333 4.66666667,31.3848333 L4.66666667,35.8888889 L4.13373333,35.6792222 L4.12253333,35.6905556 C2.6572,35.0757222 1.86853333,34.4722222 1.86666667,33.9962222 Z M4.66666667,44.3851111 L4.66666667,40.4741667 C5.4124,40.9492222 6.35693333,41.3827222 7.46666667,41.7737222 L7.46666667,46.2957222 C5.65133333,45.6072222 4.66853333,44.9168333 4.66666667,44.3851111 Z M48.5333333,46.2957222 L48.5333333,41.7746667 C49.6430667,41.3836667 50.5876,40.9501667 51.3333333,40.4751111 L51.3333333,44.3832222 C51.3324,44.9149444 50.3486667,45.6062778 48.5333333,46.2957222 Z M51.3212,37.8505 C51.2194667,38.4898889 49.7858667,39.338 47.2369333,40.1351111 C43.9348,41.1673889 38.7678667,42.1127778 32.2196,42.4055556 C31.8845333,42.4197222 31.5504,42.4338889 31.2088,42.4452222 C30.9297333,42.4546667 30.6497333,42.4631667 30.3650667,42.4707222 C29.5922667,42.4877222 28.8082667,42.5 28,42.5 C27.1917333,42.5 26.4068,42.4877222 25.6330667,42.4697778 C25.3521333,42.4631667 25.0749333,42.4537222 24.7977333,42.4442778 C24.4533333,42.4329444 24.1173333,42.4187778 23.7804,42.4046111 C17.2321333,42.1118333 12.0652,41.1664444 8.76306667,40.1341667 C6.2944,39.3625556 4.86826667,38.5427778 4.68906667,37.91 C4.9672,38.0082222 5.2556,38.1036111 5.55146667,38.1971111 C5.58133333,38.2065556 5.6112,38.216 5.64106667,38.2245 C5.89306667,38.3028889 6.15066667,38.3784444 6.4148,38.4521111 C6.51466667,38.4804444 6.61546667,38.5087778 6.7172,38.5361667 C6.86653333,38.5767778 7.0196,38.6155 7.17266667,38.6551667 C10.5718667,39.5363333 14.9109333,40.1606111 19.5953333,40.4411111 C19.5972,40.4411111 19.5981333,40.4420556 19.6,40.4420556 C19.6009333,40.4420556 19.6018667,40.4411111 19.6028,40.4411111 C21.0494667,40.528 22.5269333,40.5818333 24.0202667,40.5997778 C24.4178667,40.6073333 24.8126667,40.6111111 25.2,40.6111111 C25.7142667,40.6111111 26.2406667,40.6045 26.7736,40.5950556 C28.1353333,40.5723889 29.4793333,40.5213889 30.7934667,40.4420556 C30.7962667,40.4420556 30.7981333,40.4439444 30.8009333,40.4439444 C30.8056,40.4439444 30.8084,40.4411111 30.8130667,40.4411111 C32.4137333,40.3438333 33.9630667,40.205 35.4517333,40.0321667 C35.4573333,40.0321667 35.462,40.035 35.4676,40.035 C35.4881333,40.035 35.5049333,40.0246111 35.5254667,40.0227222 C37.1830667,39.8291111 38.7548,39.5911111 40.2136,39.3143889 C40.5141333,39.2586667 40.81,39.2010556 41.1030667,39.1415556 C41.1684,39.1283333 41.2337333,39.1151111 41.2990667,39.1009444 C44.0552,38.5286111 46.4408,37.7872222 48.0778667,36.8682778 C48.1674667,36.8191667 48.2514667,36.7681667 48.3364,36.7181111 C48.44,36.6557778 48.5389333,36.5925 48.6350667,36.5282778 C48.7246667,36.4697222 48.8282667,36.4130556 48.9104,36.3535556 C50.7528,37.0184444 51.2605333,37.6134444 51.3212,37.8505 Z M51.3333333,25.5179444 L51.3333333,20.9968889 C52.4430667,20.6058889 53.3876,20.1723889 54.1333333,19.6973333 L54.1333333,23.6054444 C54.1324,24.1371667 53.1486667,24.8285 51.3333333,25.5179444 Z" fill-rule="nonzero"></path>
                        </g>
                    </g>
                </g>
            </g>
        </g>
    </g>
</svg>