<?xml version="1.0" encoding="UTF-8"?>
<svg width="38px" height="56px" viewBox="0 0 38 56" version="1.1" xmlns="http://www.w3.org/2000/svg" xmlns:xlink="http://www.w3.org/1999/xlink">
    <!-- Generator: Sketch 48.2 (47327) - http://www.bohemiancoding.com/sketch -->
    <title>employee</title>
    <desc>Created with Sketch.</desc>
    <defs></defs>
    <g id="1-1-1-Сryptoguys-Landing" stroke="none" stroke-width="1" fill="none" fill-rule="evenodd" transform="translate(-1263.000000, -3579.000000)">
        <g id="Services" transform="translate(160.000000, 2600.000000)">
            <g transform="translate(0.000000, 253.000000)" id="15">
                <g transform="translate(854.000000, 681.000000)">
                    <g id="employee" transform="translate(240.000000, 45.000000)">
                        <rect id="Rectangle" x="0" y="0" width="56" height="56"></rect>
                        <g stroke-width="1" fill-rule="evenodd" transform="translate(9.000000, 0.000000)" fill="#25CBD3" id="Shape">
                            <path d="M13.8073864,41.1274698 L10.3459318,41.1274698 C9.89878409,41.1274698 9.53627273,41.4940351 9.53627273,41.9461832 C9.53627273,42.3984405 9.89878409,42.7648967 10.3459318,42.7648967 L13.8073864,42.7648967 C14.2545341,42.7648967 14.6170455,42.3984405 14.6170455,41.9461832 C14.6171534,41.4941442 14.254642,41.1274698 13.8073864,41.1274698 Z" fill-rule="nonzero"></path>
                            <path d="M34.1404091,31.1065263 L29.0806875,29.1329903 L26.4952841,26.5186745 C26.3236364,26.3451072 26.0930455,26.2654191 25.8670966,26.2811384 L25.8670966,24.0510721 C27.0890341,22.7460429 27.9568807,21.0854737 28.2971534,19.2118207 C28.3016875,19.1950097 28.3287841,19.1673918 28.3474602,19.1597505 C28.5734091,19.1754698 28.8020568,19.1598596 29.0275739,19.1132476 C30.2048182,18.8695984 31.0593864,17.7630253 31.0593864,16.4821209 L31.0593864,15.8001871 C31.0593864,15.0355088 30.7431875,14.3355634 30.2320227,13.8472827 C31.0643523,9.3557115 30.4055057,5.70021053 28.3187443,3.26339181 C26.3131648,0.921871345 23.0755,-0.196818713 18.9560625,0.0283820663 C15.0891307,0.239719298 12.6192386,2.0608655 11.8856875,2.67959454 C10.8551534,2.80960624 7.80565341,3.55747368 7.80565341,7.84633138 C7.80565341,10.2728889 8.20249432,12.2820117 8.47151705,13.36577 C7.55886932,13.7706511 6.94028977,14.7187212 6.94028977,15.8105575 L6.94028977,16.48223 C6.94028977,17.7630253 7.79485795,18.8695984 8.97210227,19.1133567 C9.19761932,19.160078 9.42648295,19.1756881 9.65221591,19.1598596 C9.67078409,19.167501 9.69798864,19.1950097 9.70230682,19.2110565 C10.0426875,21.085037 10.910642,22.7458246 12.1325795,24.050963 L12.1325795,26.2811384 C11.9065227,26.2654191 11.6759318,26.3452164 11.504392,26.5186745 L8.91909659,29.1328811 L3.859375,31.1064172 C1.46138068,32.0417154 -0.08075,34.4148928 0.0222386364,37.0117427 L0.738840909,55.1048733 C0.756329545,55.5455595 1.1150625,55.8908382 1.5473125,55.8908382 C1.55832386,55.8908382 1.56933523,55.8906199 1.58034659,55.8901832 C2.02717045,55.8720624 2.37478409,55.4911969 2.35697159,55.0393762 L1.64036932,36.9462456 C1.61931818,36.4156101 1.69251136,35.8978558 1.84699432,35.4121949 L4.79145455,38.3895828 C5.61925,39.2266355 6.07514205,40.33954 6.07514205,41.5232904 L6.07514205,55.0722339 C6.07514205,55.5243821 6.43765341,55.8909474 6.88480114,55.8909474 C7.33194886,55.8909474 7.69446023,55.5243821 7.69446023,55.0722339 L7.69446023,41.5230721 C7.69446023,39.9020195 7.07015909,38.3779025 5.93652841,37.2315945 L2.66183523,33.9203899 C3.12755114,33.3588616 3.73371591,32.9105341 4.44232955,32.6341365 L9.203125,30.7772943 L12.8284545,36.2762105 C13.2522841,36.9191735 13.9315341,37.3314776 14.6919659,37.4075634 C14.7766023,37.416078 14.8610227,37.4202261 14.9450114,37.4202261 C15.4573636,37.4202261 15.9530909,37.2639064 16.3728182,36.9739727 L15.5951136,55.0364288 C15.5756818,55.4881404 15.922,55.8703158 16.3688239,55.8899649 C16.3808068,55.8905107 16.3927898,55.890729 16.4046648,55.890729 C16.8356193,55.890729 17.1940284,55.547306 17.2129205,55.1076023 L17.9315739,38.4169825 L20.068858,38.4169825 L20.7875114,55.1076023 C20.8064034,55.5471969 21.1648125,55.890729 21.595767,55.890729 C21.607642,55.890729 21.619625,55.8905107 21.631608,55.8899649 C22.0783239,55.8702066 22.42475,55.4881404 22.4053182,55.0364288 L21.6276136,36.974191 C22.047233,37.2642339 22.5429602,37.4204444 23.0554205,37.4204444 C23.1394091,37.4204444 23.2239375,37.4161871 23.3084659,37.4077817 C24.0687898,37.3316959 24.7480398,36.9192827 25.1719773,36.2764288 L28.7973068,30.7775127 L33.5581023,32.6343548 C34.2667159,32.9107524 34.8728807,33.3591891 35.3385966,33.9206082 L32.0639034,37.2318129 C30.9302727,38.3781209 30.3059716,39.9022378 30.3059716,41.5232904 L30.3059716,55.0722339 C30.3059716,55.5243821 30.668483,55.8909474 31.1156307,55.8909474 C31.5627784,55.8909474 31.9252898,55.5243821 31.9252898,55.0722339 L31.9252898,41.5232904 C31.9252898,40.33954 32.3811818,39.2266355 33.2089773,38.3895828 L36.1534375,35.4121949 C36.3079205,35.8978558 36.3811136,36.4156101 36.3600625,36.9462456 L35.6435682,55.0393762 C35.6256477,55.4911969 35.9733693,55.8720624 36.4201932,55.8901832 C36.4313125,55.8906199 36.4422159,55.8908382 36.4532273,55.8908382 C36.8853693,55.8908382 37.2442102,55.5455595 37.2616989,55.1048733 L37.9783011,37.0118519 C38.0805341,34.4150019 36.5384034,32.0418246 34.1404091,31.1065263 Z M11.2944205,18.9150097 C11.1420966,18.0745731 10.3734602,17.4646862 9.54350568,17.5260351 C9.46275568,17.532039 9.37973864,17.5262534 9.29661364,17.509115 C8.87623864,17.4221131 8.55928409,16.9806628 8.55928409,16.48223 L8.55928409,15.8105575 C8.55928409,15.313653 8.88088068,14.881809 9.30740909,14.8060507 C9.65890909,14.7437193 9.99659091,14.8746043 10.210233,15.1562417 C10.3652557,15.3607018 10.5716648,15.5067602 10.8072216,15.578807 C11.1522443,15.6841481 11.5327841,15.6223626 11.825125,15.4136452 C12.5333068,14.9082261 13.133642,14.2670097 13.6092898,13.5078986 C13.848625,13.1259415 13.7365682,12.6201949 13.3588352,12.3780741 C12.9811023,12.1360624 12.4808409,12.2494815 12.2415057,12.6313294 C11.9520795,13.0930838 11.6033864,13.4965458 11.2020114,13.834729 C10.8911023,13.5441404 10.5157443,13.3405536 10.1114545,13.2356491 C9.87719318,12.3529669 9.42464773,10.3265965 9.42464773,7.84644055 C9.42464773,4.43054971 11.9397727,4.29409747 12.2206705,4.28984016 C12.4298864,4.28984016 12.6308977,4.20796881 12.7817102,4.06136452 C12.8041648,4.03964133 15.0689432,1.88063938 19.0430739,1.66340741 C22.6443295,1.46669786 25.4284773,2.39053411 27.094108,4.33546979 C28.7899659,6.31555556 29.343017,9.35898635 28.7073807,13.1636023 C28.4159034,13.1435166 28.0829716,13.1656764 27.7546818,13.2284444 L26.8500227,11.0317817 C26.6947841,10.654846 26.2877955,10.4514776 25.8975398,10.5545263 C25.8110682,10.5773411 17.1981307,12.7866667 13.5689148,8.21813645 C13.2889886,7.86565302 12.7794432,7.80932554 12.430642,8.09249123 C12.0820568,8.37565692 12.0263523,8.89100975 12.3064943,9.24349318 C15.9731705,13.8596179 23.3193693,12.7743314 25.6171818,12.2976218 L26.3256875,14.0177934 C26.5926591,14.6663236 27.2755795,15.0205536 27.9495398,14.8600858 C28.2472784,14.7892398 28.5535455,14.7803977 28.6907557,14.8079064 C29.1177159,14.8938168 29.4396364,15.3203119 29.4396364,15.800078 L29.4396364,16.4820117 C29.4396364,16.9804444 29.1226818,17.4218947 28.7023068,17.5088967 C28.6191818,17.5261442 28.5362727,17.5317115 28.4555227,17.5258168 C27.6276193,17.4642495 26.8569318,18.0743548 26.7042841,18.9150097 C26.0213636,22.6747602 22.781,25.4036959 18.9993523,25.4036959 C15.2178125,25.4036959 11.9774489,22.6747602 11.2944205,18.9150097 Z M15.5931705,35.5098947 C15.3973409,35.7080234 15.1271307,35.8059415 14.8510909,35.7782144 C14.575375,35.7505965 14.3291307,35.6010448 14.1754034,35.3679844 L10.5224375,29.8271501 L12.1135795,28.2182144 L17.8151989,33.2629084 L15.5931705,35.5098947 Z M18.0016364,36.7796647 L18.064142,35.3269396 L18.9997841,34.3808343 L19.9353182,35.3269396 L19.9978239,36.7796647 L18.0016364,36.7796647 Z M18.9997841,32.1352671 L13.7517898,27.491961 L13.7517898,25.4316413 C15.2628295,26.4521949 17.0724716,27.0414503 18.9997841,27.0414503 C20.9270966,27.0414503 22.7367386,26.4521949 24.2477784,25.4317505 L24.2477784,27.491961 L18.9997841,32.1352671 Z M23.8240568,35.3679844 C23.6703295,35.6010448 23.4240852,35.7505965 23.1483693,35.7782144 C22.8723295,35.8060507 22.6022273,35.7079142 22.4062898,35.5098947 L20.1842614,33.2629084 L25.8858807,28.2182144 L27.4770227,29.8271501 L23.8240568,35.3679844 Z" fill-rule="nonzero"></path>
                        </g>
                    </g>
                </g>
            </g>
        </g>
    </g>
</svg>