<?xml version="1.0" encoding="UTF-8"?>
<svg width="56px" height="56px" viewBox="0 0 56 56" version="1.1" xmlns="http://www.w3.org/2000/svg" xmlns:xlink="http://www.w3.org/1999/xlink">
    <!-- Generator: Sketch 48.2 (47327) - http://www.bohemiancoding.com/sketch -->
    <title>loupe</title>
    <desc>Created with Sketch.</desc>
    <defs></defs>
    <g id="1-1-1-Сryptoguys-Landing" stroke="none" stroke-width="1" fill="none" fill-rule="evenodd" transform="translate(-400.000000, -3125.000000)">
        <g id="Services" transform="translate(160.000000, 2600.000000)" fill="#25CBD3">
            <g transform="translate(0.000000, 253.000000)" id="5">
                <g transform="translate(0.000000, 227.000000)">
                    <g id="loupe" transform="translate(240.000000, 45.000000)">
                        <g id="Shape">
                            <path d="M33.90625,20.78125 C33.3025,20.78125 32.8125,21.27125 32.8125,21.875 C32.8125,22.47875 33.3025,22.96875 33.90625,22.96875 C34.51,22.96875 35,22.47875 35,21.875 C35,21.27125 34.51,20.78125 33.90625,20.78125 Z" fill-rule="nonzero"></path>
                            <path d="M54.7182344,48.5317656 L40.1188594,33.9323906 C42.4972188,30.3499219 43.75,26.2013281 43.75,21.875 C43.75,9.813125 33.936875,0 21.875,0 C9.813125,0 0,9.813125 0,21.875 C0,33.936875 9.813125,43.75 21.875,43.75 C26.2014375,43.75 30.3500313,42.4971094 33.9323906,40.1189688 L37.9677813,44.1543594 C37.9683281,44.1549062 37.968875,44.1554531 37.9695313,44.1561094 L48.5316563,54.7182344 C49.3583125,55.5447812 50.4567656,56 51.625,56 C52.7932344,56 53.8916875,55.5447812 54.7179062,54.7185625 C55.5446719,53.8924531 56,52.7938906 56,51.625 C56,50.4561094 55.5446719,49.3575469 54.7182344,48.5317656 Z M33.418,37.8138906 C33.418,37.814 33.4178906,37.814 33.4177813,37.8141094 C30.0417031,40.2662969 26.0503906,41.5625 21.875,41.5625 C11.0193125,41.5625 2.1875,32.7306875 2.1875,21.875 C2.1875,11.0193125 11.0193125,2.1875 21.875,2.1875 C32.7306875,2.1875 41.5625,11.0193125 41.5625,21.875 C41.5625,26.0503906 40.2662969,30.0417031 37.814,33.4178906 C36.5871406,35.1080625 35.1081719,36.5871406 33.418,37.8138906 Z M35.7126875,38.8054844 C36.8447188,37.8794063 37.8795156,36.8446094 38.8054844,35.7126875 L41.9085625,38.8157656 C40.964875,39.9295313 39.9295313,40.9649844 38.8157656,41.9085625 L35.7126875,38.8054844 Z M53.1714531,53.1714531 C52.7580156,53.5848906 52.2088437,53.8125 51.625,53.8125 C51.0411562,53.8125 50.4919844,53.5848906 50.0785469,53.1714531 L40.3665937,43.4595 C41.4742344,42.5089219 42.5089219,41.4743438 43.4593906,40.3667031 L53.1716719,50.0789844 C53.5848906,50.4917656 53.8125,51.0407188 53.8125,51.625 C53.8125,52.2092812 53.5848906,52.7582344 53.1714531,53.1714531 Z" fill-rule="nonzero"></path>
                            <path d="M21.875,4.375 C12.2253906,4.375 4.375,12.2253906 4.375,21.875 C4.375,31.5246094 12.2253906,39.375 21.875,39.375 C31.5246094,39.375 39.375,31.5246094 39.375,21.875 C39.375,12.2253906 31.5246094,4.375 21.875,4.375 Z M21.875,37.1875 C13.4316875,37.1875 6.5625,30.3183125 6.5625,21.875 C6.5625,13.4316875 13.4316875,6.5625 21.875,6.5625 C30.3183125,6.5625 37.1875,13.4316875 37.1875,21.875 C37.1875,30.3183125 30.3183125,37.1875 21.875,37.1875 Z" fill-rule="nonzero"></path>
                            <path d="M34.1321094,17.1798594 C33.1902812,14.7285469 31.5504219,12.6327031 29.3896094,11.1190625 C27.1773906,9.56921875 24.5788594,8.75 21.875,8.75 C21.2710313,8.75 20.78125,9.23978125 20.78125,9.84375 C20.78125,10.4477187 21.2710313,10.9375 21.875,10.9375 C26.3702031,10.9375 30.4752656,13.7613437 32.0901875,17.9645156 C32.2573125,18.3993906 32.6717344,18.6662656 33.1114219,18.6662656 C33.2417969,18.6662656 33.3744687,18.64275 33.5034219,18.5932031 C34.06725,18.3765312 34.3487812,17.7437969 34.1321094,17.1798594 Z" fill-rule="nonzero"></path>
                        </g>
                    </g>
                </g>
            </g>
        </g>
    </g>
</svg>