<?xml version="1.0" encoding="UTF-8"?>
<svg width="56px" height="50px" viewBox="0 0 56 50" version="1.1" xmlns="http://www.w3.org/2000/svg" xmlns:xlink="http://www.w3.org/1999/xlink">
    <!-- Generator: Sketch 48.2 (47327) - http://www.bohemiancoding.com/sketch -->
    <title>monitor</title>
    <desc>Created with Sketch.</desc>
    <defs></defs>
    <g id="1-1-1-Сryptoguys-Landing" stroke="none" stroke-width="1" fill="none" fill-rule="evenodd" transform="translate(-1680.000000, -3355.000000)">
        <g id="Services" transform="translate(160.000000, 2600.000000)">
            <g transform="translate(0.000000, 253.000000)" id="12">
                <g transform="translate(1280.000000, 454.000000)">
                    <g id="monitor" transform="translate(240.000000, 45.000000)">
                        <rect id="Rectangle" x="0" y="0" width="56" height="56"></rect>
                        <g stroke-width="1" fill-rule="evenodd" transform="translate(0.000000, 3.000000)" fill="#25CBD3">
                            <path d="M52.6193281,0.102292576 L3.38067187,0.102292576 C1.51659375,0.102292576 0,1.61604803 0,3.47663755 L0,37.4088428 C0,39.2694323 1.51659375,40.7831878 3.38067187,40.7831878 L20.2528594,40.7831878 L20.2528594,43.2384279 C20.2528594,45.4891921 18.4182031,47.3204148 16.1632187,47.3204148 L12.4447969,47.3204148 C11.7318906,47.3204148 11.1538437,47.8972707 11.1538437,48.608952 C11.1538437,49.3206332 11.7318906,49.8974891 12.4447969,49.8974891 L43.5549844,49.8974891 C44.2678906,49.8974891 44.8459375,49.3206332 44.8459375,48.608952 C44.8459375,47.8972707 44.2678906,47.3204148 43.5549844,47.3204148 L39.8364531,47.3204148 C37.5814687,47.3204148 35.7468125,45.4891921 35.7468125,43.2384279 L35.7468125,40.7832969 L52.619,40.7832969 C54.4830781,40.7832969 55.9997812,39.2695415 55.9997812,37.408952 L55.9997812,3.47663755 C56,1.61604803 54.4834062,0.102292576 52.6193281,0.102292576 Z M21.42875,47.3206332 C22.3087812,46.1922489 22.8349844,44.7760917 22.8349844,43.2386463 L22.8349844,40.7834061 L33.165125,40.7834061 L33.165125,43.2386463 C33.165125,44.7760917 33.6913281,46.1923581 34.5713594,47.3206332 L21.42875,47.3206332 Z M53.4180937,37.408952 C53.4180937,37.8485808 53.0597812,38.2063319 52.6192187,38.2063319 L3.38067187,38.2063319 C2.94021875,38.2063319 2.58179687,37.84869 2.58179687,37.408952 L2.58179687,30.6367904 L53.4180937,30.6367904 L53.4180937,37.408952 Z M53.4182031,28.059607 L2.58190625,28.059607 L2.58190625,3.47663755 C2.58190625,3.03700873 2.94021875,2.67925764 3.38078125,2.67925764 L52.6192187,2.67925764 C53.0596719,2.67925764 53.4182031,3.03689956 53.4182031,3.47663755 L53.4182031,28.059607 Z" id="Shape" fill-rule="nonzero"></path>
                            <ellipse id="Oval" fill-rule="nonzero" cx="28.0003281" cy="34.4219432" rx="1.39321875" ry="1.39061135"></ellipse>
                            <path d="M30.2135312,8.97969432 C29.7093125,8.47652838 28.8921719,8.47652838 28.3877344,8.97969432 L19.2643281,18.0860262 C18.7602187,18.5891921 18.7602187,19.405131 19.2643281,19.9084061 C19.5165469,20.1600437 19.84675,20.2858079 20.1772813,20.2858079 C20.5078125,20.2858079 20.8380156,20.1600437 21.090125,19.9084061 L30.2135312,10.8020742 C30.7176406,10.2989083 30.7176406,9.48296943 30.2135312,8.97969432 Z" id="Shape" fill-rule="nonzero"></path>
                            <path d="M35.6210313,14.2568777 C35.1170312,13.7537118 34.2998906,13.7537118 33.7953437,14.2567686 L30.1608125,17.8842795 C29.6567031,18.3875546 29.6567031,19.2034934 30.1608125,19.7066594 C30.4129219,19.9582969 30.7432344,20.0840611 31.0736562,20.0840611 C31.4039687,20.0840611 31.7343906,19.9582969 31.9865,19.7066594 L35.6210313,16.0791485 C36.1251406,15.5759825 36.1251406,14.7600437 35.6210313,14.2568777 Z" id="Shape" fill-rule="nonzero"></path>
                        </g>
                    </g>
                </g>
            </g>
        </g>
    </g>
</svg>