<?xml version="1.0" encoding="UTF-8"?>
<svg width="56px" height="52px" viewBox="0 0 56 52" version="1.1" xmlns="http://www.w3.org/2000/svg" xmlns:xlink="http://www.w3.org/1999/xlink">
    <!-- Generator: Sketch 48.2 (47327) - http://www.bohemiancoding.com/sketch -->
    <title>mortarboard</title>
    <desc>Created with Sketch.</desc>
    <defs></defs>
    <g id="1-1-1-Сryptoguys-Landing" stroke="none" stroke-width="1" fill="none" fill-rule="evenodd" transform="translate(-1680.000000, -3127.000000)">
        <g id="Services" transform="translate(160.000000, 2600.000000)">
            <g transform="translate(0.000000, 253.000000)" id="8">
                <g transform="translate(1280.000000, 227.000000)">
                    <g id="mortarboard" transform="translate(240.000000, 45.000000)">
                        <rect id="Rectangle" x="0" y="0" width="56" height="56"></rect>
                        <g stroke-width="1" fill-rule="evenodd" transform="translate(0.000000, 2.000000)" fill="#25CBD3" id="Shape">
                            <path d="M39.3490058,46.4505774 C38.8496998,46.3242762 38.3439532,46.6287699 38.2200546,47.1254895 L37.288577,50.8387029 C37.1628226,51.3371632 37.467384,51.8403013 37.9666901,51.9647531 C38.0421209,51.9842259 38.1185341,51.9926025 38.1930916,51.9926025 C38.6104172,51.9926025 38.9895361,51.7112803 39.0957505,51.289841 L40.0272281,47.5766276 C40.152,47.0790377 39.8483119,46.5750293 39.3490058,46.4505774 Z" fill-rule="nonzero"></path>
                            <path d="M27.9454191,27.8565523 C28.0664795,27.8565523 28.1876491,27.8333808 28.3012865,27.7860586 L38.5479766,23.5603515 C39.0230487,23.3644268 39.2484678,22.821364 39.0519766,22.3479247 C38.8553762,21.8735063 38.3085848,21.6507113 37.8344951,21.8447866 L27.9454191,25.9237406 L1.86306433,15.1683347 L1.86306433,14.8601423 C1.86306433,14.3477573 1.44573879,13.9318661 0.931586745,13.9318661 C0.417434698,13.9318661 0,14.3477573 0,14.8601423 L0,15.7884184 C0,16.1643849 0.227274854,16.5032552 0.575719298,16.6462008 L27.5896608,27.7859498 C27.7031891,27.833272 27.8243587,27.8565523 27.9454191,27.8565523 Z" fill-rule="nonzero"></path>
                            <path d="M39.0267602,37.367113 C38.7994854,36.9075983 38.2424327,36.7182008 37.7794776,36.9456736 C36.0105107,37.8173808 33.0557193,38.8310544 28.8770058,38.969431 L28.8770058,30.6414895 C28.8770058,30.1291046 28.4596803,29.7132134 27.9455283,29.7132134 C27.4313762,29.7132134 27.0140507,30.1291046 27.0140507,30.6414895 L27.0140507,38.9610544 C15.4474854,38.5934644 11.7149162,31.6106695 11.1782768,30.4483933 L11.1782768,24.1433389 C11.1782768,23.630954 10.7609513,23.2150628 10.2467992,23.2150628 C9.73264717,23.2150628 9.31532164,23.630954 9.31532164,24.1433389 L9.31532164,30.6414895 C9.31532164,30.7594142 9.33769981,30.8763598 9.38147368,30.9867782 C9.54357895,31.3887448 13.508117,40.8528536 27.9456374,40.8528536 C32.9916413,40.8528536 36.5277193,39.6330293 38.6049591,38.61 C39.0667135,38.382636 39.2558908,37.8266276 39.0267602,37.367113 Z" fill-rule="nonzero"></path>
                            <path d="M41.9181287,47.351113 C41.4029942,47.351113 40.9866511,47.7670042 40.9866511,48.2793891 L40.9866511,51.0643264 C40.9866511,51.5767113 41.4029942,51.9926025 41.9181287,51.9926025 C42.4332632,51.9926025 42.8496062,51.5767113 42.8496062,51.0643264 L42.8496062,48.2793891 C42.8496062,47.7670042 42.4332632,47.351113 41.9181287,47.351113 Z" fill-rule="nonzero"></path>
                            <path d="M54.9593606,13.9318661 C54.4442261,13.9318661 54.027883,14.3477573 54.027883,14.8601423 L54.027883,15.1664854 L42.8497154,19.7514059 L42.8497154,18.0739163 L55.3152281,12.9328787 C55.6635634,12.7899331 55.8909474,12.4510628 55.8909474,12.0750962 C55.8909474,11.6991297 55.6636725,11.3612385 55.3162105,11.2173138 L28.3012865,0.0776736402 C28.0730292,-0.0161004184 27.817809,-0.0161004184 27.5896608,0.0776736402 L0.575719298,11.2174226 C0.227274854,11.3613473 0,11.6992385 0,12.075205 C0,12.4511715 0.227274854,12.7900418 0.575719298,12.9329874 L27.5896608,24.0727364 C27.7032982,24.1200586 27.8243587,24.1433389 27.9455283,24.1433389 C28.0666979,24.1433389 28.1877583,24.1201674 28.3013957,24.0727364 L38.0693021,20.0448033 C38.5453567,19.8498577 38.7707758,19.306795 38.5741754,18.8323766 C38.377575,18.3589372 37.8326394,18.1351632 37.3575673,18.3301088 L27.9454191,22.2105272 L3.367423,12.075205 L27.9454191,1.93988285 L52.5234152,12.075205 L41.8287251,16.4856318 L31.5848733,12.6739665 C31.6389084,12.4808703 31.6715478,12.2822259 31.6715478,12.075205 C31.6715478,10.5137908 30.034885,9.29026778 27.9455283,9.29026778 C25.8561715,9.29026778 24.2195088,10.5137908 24.2195088,12.075205 C24.2195088,13.6366192 25.8561715,14.8601423 27.9455283,14.8601423 C28.8779883,14.8601423 29.7098012,14.6066695 30.3562573,14.1982845 L40.9866511,18.1538745 L40.9866511,21.1282092 L40.9866511,21.1291883 L40.9866511,41.0238661 C39.9051852,41.4090795 39.1235867,42.4292803 39.1235867,43.6380084 C39.1235867,45.1734226 40.3774191,46.4229456 41.9181287,46.4229456 C43.4588382,46.4229456 44.7126706,45.1734226 44.7126706,43.6380084 C44.7126706,42.4293891 43.9311813,41.4091883 42.8496062,41.0238661 L42.8496062,35.7547866 C45.523961,33.7431046 46.4825107,31.0640167 46.5244288,30.9452218 C46.5579415,30.847749 46.5756257,30.744728 46.5756257,30.6417071 L46.5756257,24.1435565 C46.5756257,23.6311715 46.1592827,23.2152803 45.6441481,23.2152803 C45.1290136,23.2152803 44.7126706,23.6311715 44.7126706,24.1435565 L44.7126706,30.4700418 C44.5515478,30.8636318 43.9916569,32.0769289 42.8496062,33.2744519 L42.8496062,21.7593891 L55.3142456,16.6471799 C55.6635634,16.5042343 55.8908382,16.1644937 55.8908382,15.7885272 L55.8908382,14.860251 C55.8908382,14.3477573 55.4744951,13.9318661 54.9593606,13.9318661 Z M27.9454191,13.0034812 C26.8080624,13.0034812 26.0823548,12.4538912 26.0823548,12.075205 C26.0823548,11.69641 26.8079532,11.1469289 27.9454191,11.1469289 C29.082885,11.1469289 29.8084834,11.6965188 29.8084834,12.075205 C29.8084834,12.454 29.0827758,13.0034812 27.9454191,13.0034812 Z M41.9181287,44.5661757 C41.4039766,44.5661757 40.9866511,44.1494142 40.9866511,43.6378996 C40.9866511,43.1263849 41.4039766,42.7096234 41.9181287,42.7096234 C42.4322807,42.7096234 42.8496062,43.1263849 42.8496062,43.6378996 C42.8496062,44.1493054 42.4322807,44.5661757 41.9181287,44.5661757 Z" fill-rule="nonzero"></path>
                            <path d="M45.6162027,47.1254895 C45.4914308,46.6288787 44.9845926,46.3252552 44.4872515,46.4505774 C43.9879454,46.5749205 43.6842573,47.0790377 43.8091384,47.5766276 L44.740616,51.289841 C44.8468304,51.7112803 45.2259493,51.9926025 45.6432749,51.9926025 C45.7178324,51.9926025 45.7941365,51.9842259 45.8696764,51.9647531 C46.3689825,51.84041 46.6726706,51.3371632 46.5477895,50.8387029 L45.6162027,47.1254895 Z" fill-rule="nonzero"></path>
                        </g>
                    </g>
                </g>
            </g>
        </g>
    </g>
</svg>