<?xml version="1.0" encoding="UTF-8"?>
<svg width="54px" height="56px" viewBox="0 0 54 56" version="1.1" xmlns="http://www.w3.org/2000/svg" xmlns:xlink="http://www.w3.org/1999/xlink">
    <!-- Generator: Sketch 48.2 (47327) - http://www.bohemiancoding.com/sketch -->
    <title>newspaper</title>
    <desc>Created with Sketch.</desc>
    <defs></defs>
    <g id="1-1-1-Сryptoguys-Landing" stroke="none" stroke-width="1" fill="none" fill-rule="evenodd" transform="translate(-1681.000000, -2898.000000)">
        <g id="Services" transform="translate(160.000000, 2600.000000)">
            <g transform="translate(0.000000, 253.000000)" id="4">
                <g transform="translate(1280.000000, 0.000000)">
                    <g id="newspaper" transform="translate(240.000000, 45.000000)">
                        <rect id="Rectangle" x="0" y="0" width="56" height="56"></rect>
                        <g stroke-width="1" fill-rule="evenodd" transform="translate(1.000000, 0.000000)" fill="#25CBD3" id="Shape">
                            <path d="M50.2900573,3.57446809 L45.4739471,3.57446809 C44.9811674,3.57446809 44.5818767,3.97457021 44.5818767,4.46808511 C44.5818767,4.9616 44.9811674,5.36170213 45.4739471,5.36170213 L47.1334361,5.36170213 C46.797185,5.91848511 46.6033084,6.57082553 46.6033084,7.26772766 L46.6033084,49.5070979 C46.6033084,50.0006128 47.0025991,50.4007149 47.4953789,50.4007149 C47.9881586,50.4007149 48.3874493,50.0006128 48.3874493,49.5070979 L48.3874493,7.26772766 C48.3874493,6.21671489 49.2409824,5.36170213 50.2900573,5.36170213 C51.3392511,5.36170213 52.1929031,6.21671489 52.1929031,7.26772766 L52.1929031,49.5070979 C52.1929031,52.1018043 50.0855947,54.212766 47.4953789,54.212766 C44.905163,54.212766 42.7978546,52.1018043 42.7978546,49.5070979 L42.7978546,0.893617021 C42.7978546,0.400102128 42.3985639,0 41.9057841,0 L0.915026432,0 C0.422246696,0 0.0229559471,0.400102128 0.0229559471,0.893617021 L0.0229559471,49.5070979 C0.0229559471,53.0872851 2.9307489,56 6.50474009,56 L47.4953789,56 C51.06937,56 53.9770441,53.0872851 53.9770441,49.5070979 L53.9770441,7.26772766 C53.9770441,5.23123404 52.3230264,3.57446809 50.2900573,3.57446809 Z M6.50474009,54.212766 C3.91452423,54.212766 1.80721586,52.1018043 1.80721586,49.5070979 L1.80721586,1.78723404 L41.0137137,1.78723404 L41.0137137,49.5070979 C41.0137137,51.3570043 41.7902907,53.0290213 43.0337181,54.212766 L6.50474009,54.212766 Z" fill-rule="nonzero"></path>
                            <path d="M37.1479559,4.76595745 L5.67273568,4.76595745 C5.17995595,4.76595745 4.7806652,5.16605957 4.7806652,5.65957447 L4.7806652,14.5957447 C4.7806652,15.0892596 5.17995595,15.4893617 5.67273568,15.4893617 L37.1479559,15.4893617 C37.6407357,15.4893617 38.0400264,15.0892596 38.0400264,14.5957447 L38.0400264,5.65957447 C38.0400264,5.16605957 37.6407357,4.76595745 37.1479559,4.76595745 Z M36.2558855,13.7021277 L6.56480617,13.7021277 L6.56480617,6.55319149 L36.2558855,6.55319149 L36.2558855,13.7021277 Z" fill-rule="nonzero"></path>
                            <path d="M37.1479559,17.2765957 L5.67273568,17.2765957 C5.17995595,17.2765957 4.7806652,17.6766979 4.7806652,18.1702128 C4.7806652,18.6637277 5.17995595,19.0638298 5.67273568,19.0638298 L37.1479559,19.0638298 C37.6407357,19.0638298 38.0400264,18.6637277 38.0400264,18.1702128 C38.0400264,17.6766979 37.6407357,17.2765957 37.1479559,17.2765957 Z" fill-rule="nonzero"></path>
                            <path d="M37.1479559,24.4255319 L23.1945463,24.4255319 C22.7017665,24.4255319 22.3024758,24.825634 22.3024758,25.3191489 C22.3024758,25.8126638 22.7017665,26.212766 23.1945463,26.212766 L37.1480749,26.212766 C37.6408546,26.212766 38.0401454,25.8126638 38.0401454,25.3191489 C38.0401454,24.825634 37.6407357,24.4255319 37.1479559,24.4255319 Z" fill-rule="nonzero"></path>
                            <path d="M19.6262643,24.4255319 L5.67273568,24.4255319 C5.17995595,24.4255319 4.7806652,24.825634 4.7806652,25.3191489 C4.7806652,25.8126638 5.17995595,26.212766 5.67273568,26.212766 L19.6262643,26.212766 C20.1190441,26.212766 20.5183348,25.8126638 20.5183348,25.3191489 C20.5183348,24.825634 20.1189251,24.4255319 19.6262643,24.4255319 Z" fill-rule="nonzero"></path>
                            <path d="M37.1479559,28 L23.1945463,28 C22.7017665,28 22.3024758,28.4001021 22.3024758,28.893617 C22.3024758,29.3871319 22.7017665,29.787234 23.1945463,29.787234 L37.1480749,29.787234 C37.6408546,29.787234 38.0401454,29.3871319 38.0401454,28.893617 C38.0401454,28.4001021 37.6407357,28 37.1479559,28 Z" fill-rule="nonzero"></path>
                            <path d="M19.6262643,28 L5.67273568,28 C5.17995595,28 4.7806652,28.4001021 4.7806652,28.893617 C4.7806652,29.3871319 5.17995595,29.787234 5.67273568,29.787234 L19.6262643,29.787234 C20.1190441,29.787234 20.5183348,29.3871319 20.5183348,28.893617 C20.5183348,28.4001021 20.1189251,28 19.6262643,28 Z" fill-rule="nonzero"></path>
                            <path d="M37.1479559,31.5744681 L23.1945463,31.5744681 C22.7017665,31.5744681 22.3024758,31.9745702 22.3024758,32.4680851 C22.3024758,32.9616 22.7017665,33.3617021 23.1945463,33.3617021 L37.1480749,33.3617021 C37.6408546,33.3617021 38.0401454,32.9616 38.0401454,32.4680851 C38.0401454,31.9745702 37.6407357,31.5744681 37.1479559,31.5744681 Z" fill-rule="nonzero"></path>
                            <path d="M37.1479559,35.1489362 L23.1945463,35.1489362 C22.7017665,35.1489362 22.3024758,35.5490383 22.3024758,36.0425532 C22.3024758,36.5360681 22.7017665,36.9361702 23.1945463,36.9361702 L37.1480749,36.9361702 C37.6408546,36.9361702 38.0401454,36.5360681 38.0401454,36.0425532 C38.0401454,35.5490383 37.6407357,35.1489362 37.1479559,35.1489362 Z" fill-rule="nonzero"></path>
                            <path d="M23.1945463,40.5106383 L32.3903656,40.5106383 C32.8831454,40.5106383 33.2824361,40.1105362 33.2824361,39.6170213 C33.2824361,39.1235064 32.8831454,38.7234043 32.3903656,38.7234043 L23.1945463,38.7234043 C22.7017665,38.7234043 22.3024758,39.1235064 22.3024758,39.6170213 C22.3024758,40.1105362 22.7017665,40.5106383 23.1945463,40.5106383 Z" fill-rule="nonzero"></path>
                            <path d="M32.3902467,49.4468085 L23.1944273,49.4468085 C22.7016476,49.4468085 22.3023568,49.8469106 22.3023568,50.3404255 C22.3023568,50.8339404 22.7016476,51.2340426 23.1944273,51.2340426 L32.3902467,51.2340426 C32.8830264,51.2340426 33.2823172,50.8339404 33.2823172,50.3404255 C33.2823172,49.8469106 32.8830264,49.4468085 32.3902467,49.4468085 Z" fill-rule="nonzero"></path>
                            <path d="M37.1479559,45.8723404 L23.1945463,45.8723404 C22.7017665,45.8723404 22.3024758,46.2724426 22.3024758,46.7659574 C22.3024758,47.2594723 22.7017665,47.6595745 23.1945463,47.6595745 L37.1480749,47.6595745 C37.6408546,47.6595745 38.0401454,47.2594723 38.0401454,46.7659574 C38.0401454,46.2724426 37.6407357,45.8723404 37.1479559,45.8723404 Z" fill-rule="nonzero"></path>
                            <path d="M19.6262643,31.5744681 L5.67273568,31.5744681 C5.17995595,31.5744681 4.7806652,31.9745702 4.7806652,32.4680851 L4.7806652,50.3404255 C4.7806652,50.8339404 5.17995595,51.2340426 5.67273568,51.2340426 L19.6262643,51.2340426 C20.1190441,51.2340426 20.5183348,50.8339404 20.5183348,50.3404255 L20.5183348,32.4680851 C20.5183348,31.9745702 20.1189251,31.5744681 19.6262643,31.5744681 Z M18.7341938,49.4468085 L6.56480617,49.4468085 L6.56480617,33.3617021 L18.7341938,33.3617021 L18.7341938,49.4468085 Z" fill-rule="nonzero"></path>
                        </g>
                    </g>
                </g>
            </g>
        </g>
    </g>
</svg>