<?xml version="1.0" encoding="UTF-8"?>
<svg width="56px" height="40px" viewBox="0 0 56 40" version="1.1" xmlns="http://www.w3.org/2000/svg" xmlns:xlink="http://www.w3.org/1999/xlink">
    <!-- Generator: Sketch 48.2 (47327) - http://www.bohemiancoding.com/sketch -->
    <title>question</title>
    <desc>Created with Sketch.</desc>
    <defs></defs>
    <g id="1-1-1-Сryptoguys-Landing" stroke="none" stroke-width="1" fill="none" fill-rule="evenodd" transform="translate(-827.000000, -3587.000000)">
        <g id="Services" transform="translate(160.000000, 2600.000000)">
            <g transform="translate(0.000000, 253.000000)" id="14">
                <g transform="translate(427.000000, 681.000000)">
                    <g id="question" transform="translate(240.000000, 45.000000)">
                        <rect id="Rectangle" x="0" y="0" width="56" height="56"></rect>
                        <g stroke-width="1" fill-rule="evenodd" transform="translate(0.000000, 8.000000)" fill="#25CBD3" id="Shape">
                            <path d="M52.2152515,12.1543478 L32.8361949,12.1543478 C31.9738168,9.16402174 30.280499,6.43771739 27.9093957,4.32369565 C24.3155712,1.11923913 19.673575,-0.351956522 14.8373801,0.180326087 C7.0814347,1.03456522 0.878534114,7.26858696 0.0883118915,15.0034783 C-0.343204678,19.2258696 0.816421053,23.4003261 3.35323197,26.7578261 C5.78437427,29.9752174 9.27296686,32.1994565 13.1999532,33.0421739 L17.3311813,37.1556522 C17.6779883,37.501087 18.1384327,37.6840217 18.6081559,37.683913 C18.8415439,37.683913 19.077115,37.6386957 19.3022066,37.5458696 C19.980538,37.266087 20.4186043,36.6130435 20.4186043,35.8820652 L20.4186043,33.0021739 C21.0979181,32.8509783 21.7596569,32.6592391 22.4022924,32.4307609 L22.4022924,32.5448913 C22.4022924,34.5629348 24.0511813,36.2047826 26.0778791,36.2047826 L32.2497778,36.2047826 L35.5376218,39.478587 C35.8317037,39.771413 36.2219571,39.9265217 36.6200702,39.9265217 C36.8178713,39.9265217 37.0175283,39.8881522 37.2083431,39.8095652 C37.7832982,39.5723913 38.1547758,39.0188043 38.1547758,38.3991304 L38.1547758,36.2047826 L52.2153606,36.2047826 C54.2420585,36.2047826 55.8909474,34.5629348 55.8909474,32.5448913 L55.8909474,15.8140217 C55.8908382,13.7961957 54.2419493,12.1543478 52.2152515,12.1543478 Z M19.3898635,31.4308696 C18.9723197,31.505 18.6684133,31.866413 18.6684133,32.2886957 L18.6684133,35.8821739 C18.6684133,35.9029348 18.6684133,35.9209783 18.6323899,35.9358696 C18.5963665,35.9505435 18.5837037,35.9379348 18.5687485,35.9233696 L14.2526004,31.6256522 C14.13023,31.5038043 13.9742378,31.4206522 13.8043821,31.3871739 C10.1928733,30.6725 6.97794932,28.6563043 4.75181287,25.7101087 C2.48070176,22.7042391 1.44279142,18.9645652 1.8294425,15.1798913 C2.17013645,11.8445652 3.68672125,8.67195652 6.09974269,6.24619565 C8.51320078,3.8201087 11.68446,2.28108696 15.0297232,1.91271739 C15.6117739,1.84858696 16.1898947,1.81684783 16.7637583,1.81684783 C20.4635789,1.81684783 23.9557739,3.13793478 26.741692,5.62195652 C29.9163353,8.4526087 31.7370448,12.5078261 31.7370448,16.7479348 C31.737154,23.9851087 26.5444366,30.1601087 19.3898635,31.4308696 Z M54.140538,32.545 C54.140538,33.6020652 53.2768499,34.4620652 52.2152515,34.4620652 L37.2796257,34.4620652 C36.7963665,34.4620652 36.4044756,34.8521739 36.4044756,35.3334783 L36.4044756,37.8772826 L33.2310331,34.7173913 C33.066963,34.553913 32.8443821,34.4621739 32.6123041,34.4621739 L26.0779883,34.4621739 C25.0163899,34.4621739 24.1527018,33.6021739 24.1527018,32.5451087 L24.1527018,31.6953261 C29.754885,28.953587 33.4874542,23.2327174 33.4874542,16.7480435 C33.4874542,15.7858696 33.4021988,14.8326087 33.2385653,13.8971739 L52.2153606,13.8971739 C53.2769591,13.8971739 54.1406472,14.7571739 54.1406472,15.8142391 L54.1406472,32.545 L54.140538,32.545 Z" fill-rule="nonzero"></path>
                            <path d="M49.1001014,18.9159783 C48.758425,18.5756522 48.2043197,18.5756522 47.8625341,18.9159783 L39.1465107,27.5947826 L35.0999922,23.5655435 C34.7582066,23.2252174 34.2041014,23.2252174 33.862425,23.5655435 C33.5206394,23.9058696 33.5206394,24.4576087 33.862425,24.7978261 L38.5276725,29.4431522 C38.6985107,29.6132609 38.9225107,29.6983696 39.1464016,29.6983696 C39.3702924,29.6983696 39.5944016,29.6133696 39.7652398,29.4431522 L49.0999922,20.1482609 C49.4418869,19.8079348 49.4418869,19.2561957 49.1001014,18.9159783 Z" fill-rule="nonzero"></path>
                            <path d="M16.7437817,23.3113043 C16.7434542,23.3113043 16.7430175,23.3113043 16.7425809,23.3113043 C16.2593216,23.3113043 15.866885,23.7020652 15.866885,24.1832609 C15.866885,24.1833696 15.866885,24.183587 15.866885,24.1838043 C15.866885,24.1840217 15.866885,24.1841304 15.866885,24.1843478 C15.866885,24.6655435 16.2593216,25.0563043 16.7425809,25.0563043 C16.7429084,25.0563043 16.7434542,25.0563043 16.7437817,25.0563043 C17.2270409,25.0563043 17.6194776,24.6655435 17.6194776,24.1843478 C17.6194776,24.1842391 17.6194776,24.1840217 17.6194776,24.1838043 C17.6194776,24.183587 17.6194776,24.1834783 17.6194776,24.1832609 C17.6194776,23.7020652 17.2270409,23.3113043 16.7437817,23.3113043 Z" fill-rule="nonzero"></path>
                            <path d="M20.6418402,10.0775 C19.5816608,9.02184783 18.1969435,8.44054348 16.7426901,8.44065217 C13.6868148,8.44086957 11.200655,10.9167391 11.200655,13.9594565 C11.200655,14.4406522 11.5924366,14.8308696 12.0758051,14.8308696 C12.5590643,14.8308696 12.9509552,14.4407609 12.9509552,13.9594565 C12.9509552,11.8775 14.6520234,10.1834783 16.7429084,10.1833696 C17.7296218,10.1833696 18.6747446,10.5832609 19.4042729,11.3096739 C20.1338012,12.036087 20.5355166,12.9772826 20.5355166,13.9597826 C20.5354074,15.6148913 19.4246862,17.1022826 17.8346355,17.5770652 C16.658308,17.9282609 15.8681949,18.9777174 15.8681949,20.1883696 L15.8681949,20.4659783 C15.8681949,20.9471739 16.2599766,21.3373913 16.743345,21.3373913 C17.2266043,21.3373913 17.6184951,20.9472826 17.6184951,20.4659783 L17.6184951,20.1883696 C17.6184951,19.7533696 17.9074464,19.3747826 18.3375439,19.246413 C20.6621442,18.5522826 22.2858168,16.3784783 22.2859259,13.9598913 C22.2858168,12.5119565 21.7020195,11.1330435 20.6418402,10.0775 Z" fill-rule="nonzero"></path>
                        </g>
                    </g>
                </g>
            </g>
        </g>
    </g>
</svg>