<?xml version="1.0" encoding="UTF-8"?>
<svg width="56px" height="56px" viewBox="0 0 56 56" version="1.1" xmlns="http://www.w3.org/2000/svg" xmlns:xlink="http://www.w3.org/1999/xlink">
    <!-- Generator: Sketch 48.2 (47327) - http://www.bohemiancoding.com/sketch -->
    <title>settings</title>
    <desc>Created with Sketch.</desc>
    <defs></defs>
    <g id="1-1-1-Сryptoguys-Landing" stroke="none" stroke-width="1" fill="none" fill-rule="evenodd" transform="translate(-400.000000, -2898.000000)">
        <g id="Services" transform="translate(160.000000, 2600.000000)" fill="#25CBD3">
            <g transform="translate(0.000000, 253.000000)" id="1">
                <g>
                    <g id="settings" transform="translate(240.000000, 45.000000)">
                        <g id="Shape">
                            <path d="M53.1335896,22.1215793 L49.2029673,21.4547733 C48.7935275,20.1328598 48.2671049,18.8577397 47.6236995,17.6411113 L49.939959,14.4006685 C50.9226146,13.0202632 50.7705369,11.1368289 49.565614,9.94359724 L46.0795265,6.45748903 C45.4244228,5.80238145 44.55875,5.43973261 43.6345859,5.43973261 C42.9092925,5.43973261 42.2190939,5.66200125 41.6341799,6.08314184 L38.382058,8.39941508 C37.1186437,7.73260915 35.796738,7.18278671 34.4280392,6.77334447 L33.7729355,2.88949238 C33.4921768,1.21662837 32.0532883,0 30.3570376,0 L25.4320616,0 C23.7358109,0 22.2969224,1.21662837 22.0161637,2.88949238 L21.3376634,6.86693127 C20.027456,7.27637351 18.7523435,7.8144976 17.5357223,8.46960518 L14.3186952,6.15333194 C13.7337812,5.73219135 13.0318844,5.50992271 12.306591,5.50992271 C11.3824268,5.50992271 10.5050558,5.87257155 9.86165037,6.52767913 L6.36386454,10.0137873 C5.17063994,11.207019 5.00686401,13.0904533 5.98951956,14.4708586 L8.32917564,17.7580948 C7.68577022,18.9864216 7.17104588,20.2615417 6.77330435,21.5834552 L2.88947526,22.2385628 C1.21662116,22.5193232 0,23.9582202 0,25.6544809 L0,30.5794861 C0,32.2757468 1.21662116,33.7146438 2.88947526,33.9954042 L6.86689059,34.6739085 C7.27633041,35.9841237 7.8144513,37.2592438 8.46955501,38.4758722 L6.16499377,41.68122 C5.18233822,43.0616252 5.33441586,44.9450595 6.53933874,46.1382912 L10.0254263,49.6243994 C10.68053,50.279507 11.5462028,50.6421558 12.4703669,50.6421558 C13.1956603,50.6421558 13.8858588,50.4198872 14.4707728,49.9987466 L17.7579896,47.6590767 C18.939516,48.2790892 20.1795337,48.7821182 21.4546462,49.1798621 L22.1097499,53.1105076 C22.3905087,54.7833716 23.8293972,56 25.5256478,56 L30.4623222,56 C32.1585728,56 33.5974613,54.7833716 33.87822,53.1105076 L34.545022,49.1798621 C35.8669277,48.7704199 37.1420403,48.2439942 38.3586614,47.6005849 L41.5990851,49.9168582 C42.1839991,50.3379987 42.8858959,50.5602674 43.6111893,50.5602674 C44.5353535,50.5602674 45.4010262,50.1976186 46.0561299,49.542511 L49.5422175,46.0564028 C50.7354421,44.8631711 50.899218,42.9797368 49.9165624,41.5993315 L47.6003029,38.3471903 C48.2437084,37.1188636 48.7818293,35.8437435 49.1795708,34.5335283 L53.110193,33.8784207 C54.7830471,33.5976603 55.9996683,32.1587633 55.9996683,30.4625026 L55.9996683,25.5374974 C56.0230648,23.8412367 54.8064437,22.4023397 53.1335896,22.1215793 Z M52.8645291,30.4625026 C52.8645291,30.6145812 52.7592446,30.743263 52.6071669,30.7666597 L47.6938892,31.5855442 C47.0738803,31.6908293 46.5825525,32.147065 46.4304749,32.7436808 C45.9859402,34.4633382 45.30744,36.1128055 44.3949741,37.6452893 C44.0791205,38.1834134 44.1025171,38.8502193 44.4651638,39.3649467 L47.354639,43.4359724 C47.436527,43.5529559 47.4248287,43.7284312 47.3195442,43.8337163 L43.8334566,47.3198245 C43.7515687,47.401713 43.6696807,47.4134113 43.6111893,47.4134113 C43.5409996,47.4134113 43.4825082,47.3900146 43.4357151,47.3549196 L39.3764118,44.4654272 C38.8733858,44.1027784 38.1948855,44.0793817 37.6567646,44.3952371 C36.1242899,45.3077084 34.4748323,45.9862127 32.7551851,46.4307499 C32.1468745,46.5828285 31.6906416,47.0858575 31.5970553,47.6941717 L30.7664774,52.6074786 C30.7430809,52.7595571 30.6143998,52.8648423 30.4623222,52.8648423 L25.5373461,52.8648423 C25.3852685,52.8648423 25.2565874,52.7595571 25.2331908,52.6074786 L24.4143112,47.6941717 C24.3090267,47.0741592 23.8527937,46.5828285 23.2561814,46.4307499 C21.5833273,45.997911 19.9689646,45.3311051 18.4598865,44.4654272 C18.2142226,44.325047 17.9334638,44.2548569 17.6644034,44.2548569 C17.3485498,44.2548569 17.020998,44.3484437 16.7519375,44.5473156 L12.6575394,47.4602047 C12.599048,47.4952998 12.5405566,47.5186965 12.4820652,47.5186965 C12.4352721,47.5186965 12.3416858,47.5069981 12.2597979,47.4251097 L8.7737103,43.9390015 C8.66842577,43.8337163 8.65672749,43.6699394 8.73861546,43.5412576 L11.6163924,39.5053269 C11.9790391,38.9905995 12.0024357,38.3120953 11.6865821,37.7739712 C10.7741162,36.2531857 10.0722194,34.6037184 9.62768477,32.884061 C9.46390884,32.2874452 8.97258106,31.8312095 8.36427048,31.7259244 L3.41589788,30.8836432 C3.26382023,30.8602465 3.15853571,30.7315647 3.15853571,30.5794861 L3.15853571,25.6544809 C3.15853571,25.5024023 3.26382023,25.3737205 3.41589788,25.3503238 L8.2940808,24.5314393 C8.91408966,24.4261542 9.41711572,23.9699185 9.56919336,23.3616043 C10.0020297,21.6419469 10.6688317,19.9807813 11.5695993,18.4482975 C11.8854529,17.9101734 11.850358,17.2433675 11.4877113,16.7403384 L8.57483953,12.645916 C8.49295157,12.5289325 8.50464985,12.3534573 8.60993437,12.2481721 L12.0960219,8.76206392 C12.1779099,8.68017548 12.2597979,8.66847713 12.3182893,8.66847713 C12.3884789,8.66847713 12.4469703,8.69187382 12.4937635,8.72696887 L16.5296702,11.6047629 C17.0443945,11.9674117 17.7228948,11.9908084 18.2610157,11.674953 C19.7817921,10.7624817 21.4312497,10.0605807 23.1508969,9.61604345 C23.7475092,9.45226656 24.2037421,8.96093587 24.3090267,8.35262168 L25.1513029,3.40421976 C25.1746994,3.25214122 25.3033805,3.14685607 25.4554581,3.14685607 L30.3804342,3.14685607 C30.5325118,3.14685607 30.6611929,3.25214122 30.6845895,3.40421976 L31.5034691,8.28243159 C31.6087536,8.90244412 32.0649866,9.40547316 32.6732971,9.5575517 C34.4397375,10.002089 36.1242899,10.6922916 37.6918594,11.6164612 C38.2299803,11.9323167 38.8967823,11.90892 39.4115067,11.5462712 L43.4474134,8.64508043 C43.5059048,8.60998538 43.5643962,8.58658868 43.6228876,8.58658868 C43.6696807,8.58658868 43.763267,8.59828703 43.8451549,8.68017548 L47.3312425,12.1662837 C47.436527,12.2715688 47.4482253,12.4353457 47.3663373,12.5640276 L44.4768621,16.6233549 C44.1142154,17.126384 44.0908188,17.8048882 44.4066724,18.3430123 C45.3191383,19.8754961 45.9976385,21.5249634 46.4421732,23.2446208 C46.5942508,23.852935 47.0972769,24.3091707 47.7055875,24.4027575 L52.6188652,25.2333403 C52.7709429,25.256737 52.8762274,25.3854188 52.8762274,25.5374974 L52.8762274,30.4625026 L52.8645291,30.4625026 Z" fill-rule="nonzero"></path>
                            <path d="M28.5090909,16.2909091 C21.7672094,16.2909091 16.2909091,21.7672094 16.2909091,28.5090909 C16.2909091,35.2509725 21.7672094,40.7272727 28.5090909,40.7272727 C35.2509725,40.7272727 40.7272727,35.2509725 40.7272727,28.5090909 C40.7272727,21.7672094 35.2509725,16.2909091 28.5090909,16.2909091 Z M28.5090909,37.5337499 C23.5295609,37.5337499 19.4844319,33.488621 19.4844319,28.5090909 C19.4844319,23.5295609 23.5295609,19.4844319 28.5090909,19.4844319 C33.488621,19.4844319 37.5337499,23.5295609 37.5337499,28.5090909 C37.5337499,33.488621 33.488621,37.5337499 28.5090909,37.5337499 Z" fill-rule="nonzero"></path>
                        </g>
                    </g>
                </g>
            </g>
        </g>
    </g>
</svg>