<?xml version="1.0" encoding="UTF-8"?>
<svg width="32px" height="56px" viewBox="0 0 32 56" version="1.1" xmlns="http://www.w3.org/2000/svg" xmlns:xlink="http://www.w3.org/1999/xlink">
    <!-- Generator: Sketch 48.2 (47327) - http://www.bohemiancoding.com/sketch -->
    <title>smartphone</title>
    <desc>Created with Sketch.</desc>
    <defs></defs>
    <g id="1-1-1-Сryptoguys-Landing" stroke="none" stroke-width="1" fill="none" fill-rule="evenodd" transform="translate(-412.000000, -3579.000000)">
        <g id="Services" transform="translate(160.000000, 2600.000000)">
            <g transform="translate(0.000000, 253.000000)" id="13">
                <g transform="translate(0.000000, 681.000000)">
                    <g id="smartphone" transform="translate(240.000000, 45.000000)">
                        <rect id="Rectangle" x="0" y="0" width="56" height="56"></rect>
                        <g stroke-width="1" fill-rule="evenodd" transform="translate(12.000000, 0.000000)" fill="#25CBD3" id="Shape">
                            <path d="M27.8541176,0 L4.14588235,0 C1.86070588,0 0,1.8452 0,4.11133333 L0,51.8877333 C0,54.1548 1.86070588,56 4.14588235,56 L27.8531765,56 C30.1392941,56 32,54.1548 32,51.8886667 L32,4.11133333 C32,1.8452 30.1392941,0 27.8541176,0 Z M1.88235294,7.46666667 L30.1176471,7.46666667 L30.1176471,42.9333333 L1.88235294,42.9333333 L1.88235294,7.46666667 Z M4.14588235,1.86666667 L27.8531765,1.86666667 C29.1021176,1.86666667 30.1176471,2.87373333 30.1176471,4.11133333 L30.1176471,5.6 L1.88235294,5.6 L1.88235294,4.11133333 C1.88235294,2.87373333 2.89788235,1.86666667 4.14588235,1.86666667 Z M27.8541176,54.1333333 L4.14588235,54.1333333 C2.89788235,54.1333333 1.88235294,53.1262667 1.88235294,51.8886667 L1.88235294,44.8 L30.1176471,44.8 L30.1176471,51.8886667 C30.1176471,53.1262667 29.1021176,54.1333333 27.8541176,54.1333333 Z" fill-rule="nonzero"></path>
                            <path d="M16,45.7333333 C13.9237647,45.7333333 12.2352941,47.4077333 12.2352941,49.4666667 C12.2352941,51.5256 13.9237647,53.2 16,53.2 C18.0762353,53.2 19.7647059,51.5256 19.7647059,49.4666667 C19.7647059,47.4077333 18.0762353,45.7333333 16,45.7333333 Z M16,51.3333333 C14.9618824,51.3333333 14.1176471,50.4961333 14.1176471,49.4666667 C14.1176471,48.4372 14.9618824,47.6 16,47.6 C17.0381176,47.6 17.8823529,48.4372 17.8823529,49.4666667 C17.8823529,50.4961333 17.0381176,51.3333333 16,51.3333333 Z" fill-rule="nonzero"></path>
                            <path d="M12.2352941,4.66666667 L16,4.66666667 C16.5204706,4.66666667 16.9411765,4.24946667 16.9411765,3.73333333 C16.9411765,3.2172 16.5204706,2.8 16,2.8 L12.2352941,2.8 C11.7148235,2.8 11.2941176,3.2172 11.2941176,3.73333333 C11.2941176,4.24946667 11.7148235,4.66666667 12.2352941,4.66666667 Z" fill-rule="nonzero"></path>
                            <path d="M18.8235294,4.66666667 L19.7647059,4.66666667 C20.2851765,4.66666667 20.7058824,4.24946667 20.7058824,3.73333333 C20.7058824,3.2172 20.2851765,2.8 19.7647059,2.8 L18.8235294,2.8 C18.3030588,2.8 17.8823529,3.2172 17.8823529,3.73333333 C17.8823529,4.24946667 18.3030588,4.66666667 18.8235294,4.66666667 Z" fill-rule="nonzero"></path>
                        </g>
                    </g>
                </g>
            </g>
        </g>
    </g>
</svg>