<?xml version="1.0" encoding="UTF-8"?>
<svg width="56px" height="51px" viewBox="0 0 56 51" version="1.1" xmlns="http://www.w3.org/2000/svg" xmlns:xlink="http://www.w3.org/1999/xlink">
    <!-- Generator: Sketch 48.2 (47327) - http://www.bohemiancoding.com/sketch -->
    <title>telegram</title>
    <desc>Created with Sketch.</desc>
    <defs>
        <path d="M44.9565053,50.8437193 C44.5202947,50.8437193 44.0870316,50.7130877 43.7153684,50.4580877 L29.6738105,40.8199825 L22.1426947,46.3035263 C21.5520421,46.7332982 20.7907368,46.8415614 20.1048842,46.5934211 C19.4199158,46.3446842 18.8997053,45.7705614 18.7140211,45.0586491 L14.9325474,30.5573509 L1.42092632,25.3294035 C0.570315789,25.0001404 0.00618947368,24.1766842 8.94779381e-14,23.2551053 C-0.00618947368,22.3335263 0.546736842,21.5023158 1.39322105,21.1614211 L52.7693895,0.475105263 C53.0025263,0.374894737 53.2492211,0.317035088 53.4979789,0.301526316 C53.5869895,0.296157895 53.6762947,0.296157895 53.7650105,0.30122807 C54.2802105,0.332245614 54.7862737,0.544596491 55.1812211,0.936491228 C55.2221895,0.977052632 55.2610947,1.01850877 55.2979368,1.06175439 C55.6250947,1.43992982 55.8048842,1.90101754 55.8387789,2.37075439 C55.8470316,2.48885965 55.8464421,2.60845614 55.8361263,2.72805263 C55.8290526,2.81335088 55.8169684,2.89835088 55.7998737,2.98275439 L47.1278316,49.025614 C46.9884211,49.7652632 46.4909053,50.3844211 45.8035789,50.6728246 C45.5309474,50.7873509 45.2429895,50.8437193 44.9565053,50.8437193 Z M30.9066947,36.2604035 L43.4144421,44.8454035 L50.1621474,9.01894737 L25.7912421,32.7491579 L30.8477474,36.2201404 C30.8680842,36.2329649 30.8875368,36.2466842 30.9066947,36.2604035 Z M20.4945263,34.3513333 L22.1692211,40.7725614 L25.7773895,38.1453158 L21.0527579,34.902193 C20.8331789,34.7518772 20.6451368,34.5645789 20.4945263,34.3513333 Z M8.29271579,23.1981404 L17.5704421,26.7875263 C18.2350737,27.044614 18.7367158,27.6100877 18.9182737,28.306193 L20.0948632,32.8183509 C20.1488,32.2979123 20.3819368,31.808193 20.7606737,31.4392632 L43.9826947,8.82807018 L8.29271579,23.1981404 Z" id="path-1"></path>
    </defs>
    <g id="1-1-1-Сryptoguys-Landing" stroke="none" stroke-width="1" fill="none" fill-rule="evenodd" transform="translate(-1254.000000, -3128.000000)">
        <g id="Services" transform="translate(160.000000, 2600.000000)">
            <g transform="translate(0.000000, 253.000000)" id="7">
                <g transform="translate(854.000000, 227.000000)">
                    <g id="telegram" transform="translate(240.000000, 45.000000)">
                        <rect id="Rectangle" x="0" y="0" width="56" height="56"></rect>
                        <g stroke-width="1" fill-rule="evenodd" transform="translate(0.000000, 3.000000)" id="Shape">
                            <g fill-rule="nonzero">
                                <use fill="#25CBD3" fill-rule="evenodd" xlink:href="#path-1"></use>
                                <path stroke="#0D003B" stroke-width="1" d="M44.9565053,50.3437193 C45.1799135,50.3437193 45.4017369,50.2993044 45.6101187,50.211768 C46.1419388,49.9886153 46.5280565,49.508266 46.636471,48.9330677 L55.3098238,2.88350171 C55.3230275,2.81830956 55.3323698,2.75265384 55.337976,2.6850847 C55.3459182,2.59300678 55.346554,2.49947293 55.3400755,2.40673926 C55.3130101,2.03164727 55.1682521,1.67607825 54.9173293,1.38600418 C54.8910866,1.35520018 54.8620661,1.32411008 54.829042,1.29141359 C54.5308745,0.995550782 54.1439723,0.824948745 53.7364817,0.800413512 C53.6665283,0.796415622 53.5968131,0.796473972 53.529091,0.800557419 C53.3355094,0.812626233 53.145274,0.857769805 52.9561416,0.938919503 L1.58000276,21.6252234 C0.924653552,21.8891445 0.49517237,22.5346184 0.499988724,23.2517473 C0.504804077,23.9687272 0.942860316,24.608196 1.6013526,24.8630921 L15.3517617,30.1834319 L19.197835,44.9324586 C19.3421504,45.485763 19.7456413,45.9310205 20.2749923,46.1232474 C20.8047084,46.3148978 21.3920649,46.2313498 21.8483854,45.8993209 L29.6652959,40.2076846 L29.9567665,40.4077496 L43.9982422,50.0457985 C44.2824939,50.240825 44.6162116,50.3437193 44.9565053,50.3437193 Z M30.6237454,36.6726409 L30.6155829,36.6669178 C30.5927017,36.6506754 30.5927017,36.6506754 30.56478,36.6323654 L25.0055666,32.8163045 L50.9461615,7.55767044 L43.7638437,45.6916705 L30.6237454,36.6726409 Z M21.8705279,41.6085546 L19.3168988,31.8172568 L20.9029342,34.0628841 C21.0209689,34.2300064 21.1670489,34.3744977 21.3357224,34.489966 L26.6433543,38.133277 L21.8705279,41.6085546 Z M6.93097052,23.2074207 L46.1486246,7.41698148 L44.3315053,9.18630363 L21.1095596,31.7974232 C20.8172834,32.0821312 20.6344494,32.4622218 20.5921994,32.8698935 L20.3076169,35.6158412 L19.6110416,32.9445121 L18.4344591,28.4323813 C18.2933215,27.8912501 17.904166,27.4527174 17.3900321,27.2538441 L6.93097052,23.2074207 Z"></path>
                            </g>
                        </g>
                    </g>
                </g>
            </g>
        </g>
    </g>
</svg>