<?xml version="1.0" encoding="UTF-8"?>
<svg width="32px" height="32px" viewBox="0 0 32 32" version="1.1" xmlns="http://www.w3.org/2000/svg" xmlns:xlink="http://www.w3.org/1999/xlink">
    <!-- Generator: Sketch 48.2 (47327) - http://www.bohemiancoding.com/sketch -->
    <title>Fill 1</title>
    <desc>Created with Sketch.</desc>
    <defs></defs>
    <g id="1-1-1-Сryptoguys-Landing" stroke="none" stroke-width="1" fill="none" fill-rule="evenodd" transform="translate(-186.000000, -4403.000000)">
        <g id="Features" transform="translate(124.000000, 3997.000000)" fill="#25CBD3">
            <g id="solution" transform="translate(36.000000, 380.000000)">
                <g id="1">
                    <path d="M31.624875,56.1240938 L37.24975,56.1240938 L37.24975,48.5617812 L31.624875,48.5617812 L31.624875,56.1240938 Z M39.124625,56.1240938 L44.8745,56.1240938 L44.8745,42.9369688 L39.124625,42.9369688 L39.124625,56.1240938 Z M44.312125,33.5622187 L49.5618125,28.2687187 L54.8115625,33.5622187 L53.31175,33.5622187 C52.794,33.5622187 52.37425,33.9819688 52.37425,34.4996563 L52.37425,56.1240938 L46.7494375,56.1240938 L46.7494375,34.4996563 C46.7494375,33.9819063 46.3296875,33.5621563 45.8119375,33.5621563 L44.312125,33.5621563 L44.312125,33.5622187 Z M57.061625,56.1240938 L54.2491875,56.1240938 L54.2491875,35.4371563 L57.061625,35.4371563 C57.8930625,35.4371563 58.31275,34.4298437 57.72725,33.8394688 L50.2275,26.2772187 C49.860875,25.9075938 49.2628125,25.9075938 48.8961875,26.2772187 L41.396375,33.8394688 C40.8109375,34.4298437 41.230625,35.4371563 42.062,35.4371563 L44.8744375,35.4371563 L44.8744375,41.0620312 L38.1871875,41.0620312 C37.6694375,41.0620312 37.2496875,41.4817187 37.2496875,41.9994687 L37.2496875,46.6868438 L30.687375,46.6868438 C30.169625,46.6868438 29.7499375,47.1065938 29.7499375,47.6242812 L29.7499375,56.1240938 L26.9375,56.1240938 C26.41975,56.1240938 26,56.5438437 26,57.0615313 C26,57.5792813 26.41975,57.9990313 26.9375,57.9990313 L57.061625,57.9990313 C57.5794375,57.9990313 57.999125,57.5792813 57.999125,57.0615313 C57.999125,56.5438437 57.5794375,56.1240938 57.061625,56.1240938 Z" id="Fill-1"></path>
                </g>
            </g>
        </g>
    </g>
</svg>