<?xml version="1.0" encoding="UTF-8"?>
<svg width="37px" height="32px" viewBox="0 0 37 32" version="1.1" xmlns="http://www.w3.org/2000/svg" xmlns:xlink="http://www.w3.org/1999/xlink">
    <!-- Generator: Sketch 48.2 (47327) - http://www.bohemiancoding.com/sketch -->
    <title>icon</title>
    <desc>Created with Sketch.</desc>
    <defs></defs>
    <g id="1-1-1-Сryptoguys-Landing" stroke="none" stroke-width="1" fill="none" fill-rule="evenodd" transform="translate(-184.000000, -4775.000000)">
        <g id="Features" transform="translate(124.000000, 3997.000000)" fill="#25CBD3">
            <g id="solution" transform="translate(36.000000, 380.000000)">
                <g id="4" transform="translate(0.000000, 372.000000)">
                    <g id="icon" transform="translate(24.000000, 26.000000)">
                        <path d="M34.407496,6.98695046 L1.83981407,6.98695046 C1.47284159,6.98695046 1.17427278,6.68847951 1.17427278,6.32189847 C1.17427278,5.95492599 1.47284159,5.65635719 1.83981407,5.65635719 L34.407496,5.65635719 C34.7740771,5.65635719 35.0726459,5.95492599 35.0726459,6.32189847 C35.0726459,6.68847951 34.7740771,6.98695046 34.407496,6.98695046 M33.1547988,30.7867303 L3.09251131,30.7867303 C2.72553884,30.7867303 2.42697003,30.4881615 2.42697003,30.121189 L2.42697003,8.16126239 L33.8203401,8.16126239 L33.8203401,30.121189 C33.8203401,30.4881615 33.5217713,30.7867303 33.1547988,30.7867303 M18.1235083,1.27216147 C18.4904807,1.27216147 18.7889517,1.57073028 18.7889517,1.93770275 C18.7889517,2.30467523 18.4904807,2.60324404 18.1235083,2.60324404 C17.7565358,2.60324404 17.4578691,2.30467523 17.4578691,1.93770275 C17.4578691,1.57073028 17.7565358,1.27216147 18.1235083,1.27216147 M36.2469578,6.32189847 C36.2469578,5.30729297 35.4216122,4.48204526 34.407496,4.48204526 L18.7106642,4.48204526 L18.7106642,3.68077309 C19.4380526,3.43504832 19.9632636,2.74690153 19.9632636,1.93770275 C19.9632636,0.923195107 19.1380159,0.0978495413 18.1235083,0.0978495413 C17.1089028,0.0978495413 16.2835572,0.923195107 16.2835572,1.93770275 C16.2835572,2.74690153 16.8092575,3.43504832 17.5363523,3.68077309 L17.5363523,4.48204526 L1.83981407,4.48204526 C0.825404281,4.48204526 -3.91437309e-05,5.30729297 -3.91437309e-05,6.32189847 C-3.91437309e-05,7.13070581 0.525269725,7.81914618 1.2526581,8.06496881 L1.2526581,30.121189 C1.2526581,31.1356966 2.07790581,31.9610422 3.09251131,31.9610422 L33.1547988,31.9610422 C34.1693064,31.9610422 34.994652,31.1356966 34.994652,30.121189 L34.994652,8.06496881 C35.7217468,7.81914618 36.2469578,7.13070581 36.2469578,6.32189847" id="Fill-1"></path>
                        <path d="M11.8604722,26.4025248 C11.4934997,26.4025248 11.1949309,26.103956 11.1949309,25.7369835 C11.1949309,25.370011 11.4934997,25.0714422 11.8604722,25.0714422 C12.2274446,25.0714422 12.5260135,25.370011 12.5260135,25.7369835 C12.5260135,26.103956 12.2274446,26.4025248 11.8604722,26.4025248 M13.5282887,24.8995034 L25.0520073,13.3757847 L25.0520073,15.0897908 C25.0520073,15.4139988 25.3149554,15.6769468 25.6391633,15.6769468 C25.9632734,15.6769468 26.2263193,15.4139988 26.2263193,15.0897908 L26.2263193,11.9582924 C26.2263193,11.6341823 25.9632734,11.3711364 25.6391633,11.3711364 L22.5076648,11.3711364 C22.1834569,11.3711364 21.9205089,11.6341823 21.9205089,11.9582924 C21.9205089,12.2825003 22.1834569,12.5454483 22.5076648,12.5454483 L24.2216709,12.5454483 L12.6980502,24.069167 C12.6912,24.076115 12.6854263,24.0833566 12.6792612,24.0902067 C12.4323621,23.9667083 12.1544416,23.8971303 11.8604722,23.8971303 C10.8459645,23.8971303 10.020619,24.7224758 10.020619,25.7369835 C10.020619,26.7514911 10.8459645,27.5768367 11.8604722,27.5768367 C12.8749798,27.5768367 13.7003254,26.7514911 13.7003254,25.7369835 C13.7003254,25.4430141 13.6307474,25.1650936 13.5076404,24.9185859 C13.5145884,24.9121272 13.52183,24.9063535 13.5282887,24.8995034" id="Fill-4"></path>
                        <path d="M10.1926165,14.8788159 C10.3073076,14.993507 10.4575217,15.0508526 10.6077358,15.0508526 C10.7580477,15.0508526 10.9086532,14.993507 11.0229529,14.8788159 L11.860433,14.0412379 L12.698011,14.8788159 C12.8127021,14.993507 12.9629162,15.0508526 13.1131303,15.0508526 C13.2633443,15.0508526 13.4135584,14.993507 13.5282495,14.8788159 C13.7576318,14.6494336 13.7576318,14.2774703 13.5282495,14.0485774 L12.6907694,13.2109994 L13.5282495,12.3734214 C13.7576318,12.144137 13.7576318,11.7725651 13.5282495,11.5431829 C13.2988673,11.3138006 12.9273933,11.3138006 12.698011,11.5431829 L11.860433,12.3807609 L11.0229529,11.5431829 C10.7939621,11.3138006 10.4219988,11.3138006 10.1926165,11.5431829 C9.96323425,11.7725651 9.96323425,12.1445284 10.1926165,12.3734214 L11.0301945,13.2109994 L10.1926165,14.0485774 C9.96323425,14.2774703 9.96323425,14.6494336 10.1926165,14.8788159" id="Fill-6"></path>
                        <path d="M16.4556526,14.8788159 C16.5703437,14.993507 16.7205578,15.0508526 16.8707719,15.0508526 C17.0210838,15.0508526 17.1716893,14.993507 17.285989,14.8788159 L18.1234691,14.0412379 L18.9610471,14.8788159 C19.0756404,14.993507 19.2259523,15.0508526 19.3761664,15.0508526 C19.5263804,15.0508526 19.6765945,14.993507 19.7912856,14.8788159 C20.0206679,14.6494336 20.0206679,14.2774703 19.7912856,14.0485774 L18.9537076,13.2109994 L19.7912856,12.3734214 C20.0206679,12.144137 20.0206679,11.7725651 19.7912856,11.5431829 C19.5619034,11.3138006 19.1903315,11.3138006 18.9610471,11.5431829 L18.1234691,12.3807609 L17.285989,11.5431829 C17.0569982,11.3138006 16.6850349,11.3138006 16.4556526,11.5431829 C16.2262703,11.7725651 16.2262703,12.1445284 16.4556526,12.3734214 L17.2932306,13.2109994 L16.4556526,14.0485774 C16.2262703,14.2774703 16.2262703,14.6494336 16.4556526,14.8788159" id="Fill-8"></path>
                        <path d="M10.1926165,21.1418128 C10.3073076,21.256504 10.4575217,21.3138495 10.6077358,21.3138495 C10.7580477,21.3138495 10.9086532,21.256504 11.0229529,21.1418128 L11.860433,20.3042349 L12.698011,21.1418128 C12.8127021,21.256504 12.9629162,21.3138495 13.1131303,21.3138495 C13.2633443,21.3138495 13.4135584,21.256504 13.5282495,21.1418128 C13.7576318,20.9124306 13.7576318,20.5404673 13.5282495,20.3115743 L12.6907694,19.4739963 L13.5282495,18.6364183 C13.7576318,18.4071339 13.7576318,18.0355621 13.5282495,17.8061798 C13.2988673,17.5767976 12.9273933,17.5767976 12.698011,17.8061798 L11.860433,18.6437578 L11.0229529,17.8061798 C10.7939621,17.5767976 10.4219988,17.5767976 10.1926165,17.8061798 C9.96323425,18.0355621 9.96323425,18.4075254 10.1926165,18.6364183 L11.0301945,19.4739963 L10.1926165,20.3115743 C9.96323425,20.5404673 9.96323425,20.9124306 10.1926165,21.1418128" id="Fill-10"></path>
                        <path d="M26.0542826,24.0691865 C25.8249003,23.8398043 25.4533284,23.8398043 25.224044,24.0691865 L24.3864661,24.9067645 L23.5488881,24.0691865 C23.3199951,23.8398043 22.9480318,23.8398043 22.7186495,24.0691865 C22.4891694,24.2985688 22.4891694,24.6705321 22.7186495,24.8994251 L23.5562275,25.7370031 L22.7186495,26.574581 C22.4891694,26.8038654 22.4891694,27.1754373 22.7186495,27.4048196 C22.8333407,27.5195107 22.9835547,27.5768563 23.1337688,27.5768563 C23.2839829,27.5768563 23.4345884,27.5195107 23.5488881,27.4048196 L24.3864661,26.5672416 L25.224044,27.4048196 C25.3387352,27.5195107 25.4889492,27.5768563 25.6391633,27.5768563 C25.7893774,27.5768563 25.9395914,27.5195107 26.0542826,27.4048196 C26.2836648,27.1754373 26.2836648,26.803474 26.0542826,26.574581 L25.2167046,25.7370031 L26.0542826,24.8994251 C26.2836648,24.6705321 26.2836648,24.2985688 26.0542826,24.0691865" id="Fill-12"></path>
                        <path d="M19.7912856,24.0691865 C19.5619034,23.8398043 19.1903315,23.8398043 18.9610471,24.0691865 L18.1234691,24.9067645 L17.285989,24.0691865 C17.0569982,23.8398043 16.6850349,23.8398043 16.4556526,24.0691865 C16.2262703,24.2985688 16.2262703,24.6705321 16.4556526,24.8994251 L17.2932306,25.7370031 L16.4556526,26.574581 C16.2262703,26.8038654 16.2262703,27.1754373 16.4556526,27.4048196 C16.5703437,27.5195107 16.7205578,27.5768563 16.8707719,27.5768563 C17.0210838,27.5768563 17.1716893,27.5195107 17.285989,27.4048196 L18.1234691,26.5672416 L18.9610471,27.4048196 C19.0757382,27.5195107 19.2259523,27.5768563 19.3761664,27.5768563 C19.5263804,27.5768563 19.6765945,27.5195107 19.7912856,27.4048196 C20.0206679,27.1754373 20.0206679,26.803474 19.7912856,26.574581 L18.9537076,25.7370031 L19.7912856,24.8994251 C20.0206679,24.6705321 20.0206679,24.2985688 19.7912856,24.0691865" id="Fill-14"></path>
                        <path d="M26.0542826,17.8061896 C25.8249003,17.5768073 25.4533284,17.5768073 25.224044,17.8061896 L24.3864661,18.6437676 L23.5488881,17.8061896 C23.3199951,17.5768073 22.9480318,17.5768073 22.7186495,17.8061896 C22.4891694,18.0355719 22.4891694,18.4075352 22.7186495,18.6364281 L23.5562275,19.4740061 L22.7186495,20.3115841 C22.4891694,20.5408685 22.4891694,20.9124404 22.7186495,21.1418226 C22.8333407,21.2565138 22.9835547,21.3138593 23.1337688,21.3138593 C23.2839829,21.3138593 23.4345884,21.2565138 23.5488881,21.1418226 L24.3864661,20.3042446 L25.224044,21.1418226 C25.3387352,21.2565138 25.4889492,21.3138593 25.6391633,21.3138593 C25.7893774,21.3138593 25.9395914,21.2565138 26.0542826,21.1418226 C26.2836648,20.9124404 26.2836648,20.5404771 26.0542826,20.3115841 L25.2167046,19.4740061 L26.0542826,18.6364281 C26.2836648,18.4075352 26.2836648,18.0355719 26.0542826,17.8061896" id="Fill-16"></path>
                    </g>
                </g>
            </g>
        </g>
    </g>
</svg>