<?xml version="1.0" encoding="UTF-8"?>
<svg width="27px" height="32px" viewBox="0 0 27 32" version="1.1" xmlns="http://www.w3.org/2000/svg" xmlns:xlink="http://www.w3.org/1999/xlink">
    <!-- Generator: Sketch 48.2 (47327) - http://www.bohemiancoding.com/sketch -->
    <title>icon</title>
    <desc>Created with Sketch.</desc>
    <defs></defs>
    <g id="1-1-1-Сryptoguys-Landing" stroke="none" stroke-width="1" fill="none" fill-rule="evenodd" transform="translate(-189.000000, -4899.000000)">
        <g id="Features" transform="translate(124.000000, 3997.000000)" fill="#25CBD3">
            <g id="solution" transform="translate(36.000000, 380.000000)">
                <g id="5" transform="translate(0.000000, 496.000000)">
                    <g id="icon" transform="translate(29.000000, 26.000000)">
                        <path d="M13.3210081,29.6045873 C1.92863815,25.465859 2.1004763,16.4002405 2.25381734,8.39154682 C2.2630659,7.91099191 2.27175954,7.44486474 2.27823353,6.98835607 C6.72345896,6.80116532 10.2774936,5.45365087 13.3210081,2.80338497 C16.3643376,5.45365087 19.9191121,6.80116532 24.3650775,6.98835607 C24.3715514,7.44486474 24.3802451,7.91099191 24.3894936,8.39080694 C24.5420948,16.3995006 24.7139329,25.465859 13.3210081,29.6045873 M26.6084069,8.3488185 C26.5919445,7.49258728 26.5767769,6.68407861 26.5767769,5.90165087 C26.5767769,5.28884162 26.0795746,4.79182428 25.4669503,4.79182428 C20.7204069,4.79182428 17.1069965,3.42766243 14.0947422,0.4992 C13.6633896,0.0800554913 12.9777017,0.0800554913 12.547089,0.4992 C9.53557457,3.42766243 5.92216416,4.79182428 1.17562081,4.79182428 C0.562996532,4.79182428 0.0657942197,5.28884162 0.0657942197,5.90165087 C0.0657942197,6.68407861 0.0506265896,7.49332717 0.0341641618,8.34955838 C-0.11769711,16.3157087 -0.32652948,27.2262289 12.9575399,31.8307145 C13.0753665,31.8712231 13.1981873,31.8921249 13.3210081,31.8921249 C13.4438289,31.8921249 13.5666497,31.8712231 13.6842913,31.8307145 C26.9683607,27.2262289 26.7602682,16.3157087 26.6084069,8.3488185" id="Fill-1"></path>
                        <path d="M17.1424555,12.1835283 L11.7862474,17.5397364 L9.50000462,15.2534936 C9.06661734,14.8201064 8.36428208,14.8201064 7.93070983,15.2534936 C7.49713757,15.6870659 7.49713757,16.390141 7.93070983,16.8229734 L11.0016,19.8936786 C11.2182012,20.1102798 11.5023168,20.2186728 11.7862474,20.2186728 C12.070178,20.2186728 12.3541087,20.1102798 12.5708948,19.8936786 L18.7117503,13.7528231 C19.1453225,13.3192509 19.1453225,12.6163607 18.7117503,12.1835283 C18.2791029,11.7499561 17.5760277,11.7499561 17.1424555,12.1835283" id="Fill-4"></path>
                    </g>
                </g>
            </g>
        </g>
    </g>
</svg>