<?xml version="1.0" encoding="UTF-8"?>
<svg width="39px" height="39px" viewBox="0 0 39 39" version="1.1" xmlns="http://www.w3.org/2000/svg" xmlns:xlink="http://www.w3.org/1999/xlink">
    <!-- Generator: Sketch 48.2 (47327) - http://www.bohemiancoding.com/sketch -->
    <title>Page 1</title>
    <desc>Created with Sketch.</desc>
    <defs></defs>
    <g id="1-1-1-Сryptoguys-Landing" stroke="none" stroke-width="1" fill="none" fill-rule="evenodd" transform="translate(-182.000000, -5019.000000)">
        <g id="Features" transform="translate(124.000000, 3997.000000)" fill="#25CBD3">
            <g id="solution" transform="translate(36.000000, 380.000000)">
                <g id="6" transform="translate(0.000000, 620.000000)">
                    <g id="Page-1" transform="translate(22.000000, 22.000000)">
                        <path d="M24.5060675,6.75003584 C24.3105278,7.01926487 24.370348,7.39601786 24.6396533,7.59148134 L31.9195056,12.8773776 C32.02642,12.9549534 32.1502516,12.9924458 32.2729402,12.9924458 C32.4591829,12.9924458 32.6429872,12.906259 32.7608749,12.7438681 C32.9564908,12.474639 32.8965182,12.0978861 32.6272892,11.9024988 L25.347513,6.61652628 C25.078284,6.42113901 24.7016072,6.48080681 24.5060675,6.75003584" id="Fill-1"></path>
                        <path d="M14.6965368,9.0110415 C14.6444132,8.68244949 14.3357104,8.45795225 14.0071184,8.51045687 L5.12179842,9.92046103 C4.79320641,9.97258463 4.56909019,10.2812112 4.62121379,10.6098794 C4.66830791,10.9065419 4.92435363,11.1180082 5.21545324,11.1180082 C5.24692552,11.1180082 5.27870263,11.1155697 5.31070834,11.110464 L14.1960283,9.70045984 C14.5246203,9.64833625 14.7487366,9.33963351 14.6965368,9.0110415" id="Fill-3"></path>
                        <path d="M29.1512399,22.2267195 C28.5902254,20.3681019 27.3388781,18.7839714 25.6241338,17.8008625 L25.6241338,14.6594254 L28.8990043,17.0372976 C29.0059949,17.1148734 29.1297503,17.1523658 29.2525151,17.1523658 C29.4387579,17.1523658 29.6225621,17.066179 29.7404498,16.9037881 C29.9359895,16.634559 29.8761693,16.257806 29.6068641,16.0622664 L25.6241338,13.1703976 L25.6241338,12.2455848 C25.6241338,11.9128778 25.3544476,11.6431915 25.0216643,11.6431915 L23.5207487,11.6431915 L22.3270879,10.7764463 C22.0578589,10.581059 21.6811059,10.6405744 21.4855662,10.9099558 C21.3216512,11.1356723 21.3378065,11.436526 21.5056841,11.6431915 L18.5036242,11.6431915 L17.6773433,11.6431915 L18.6309612,10.3298141 C18.6310374,10.3297379 18.6311137,10.3296617 18.6311899,10.3295093 L25.0277607,1.52008859 L37.5725532,10.628839 L29.1512399,22.2267195 Z M26.3809166,29.0274768 L26.380688,29.0277816 C25.8999926,29.508477 25.3504088,29.908396 24.7474058,30.2166415 C23.8325758,30.6842298 22.8438278,30.9213769 21.8086715,30.9213769 C19.3670927,30.9213769 17.1593842,29.5696689 16.0471094,27.3939661 C16.0470332,27.3938137 16.046957,27.393585 16.0468808,27.3934326 C15.5793687,26.478755 15.342374,25.4901594 15.342374,24.4550794 C15.342374,23.8580204 15.4245982,23.2646192 15.5869129,22.691412 C15.8362527,21.810188 16.2618525,21.0066921 16.8516721,20.3034047 C18.0850352,18.8325134 19.8917578,17.9889342 21.8086715,17.9889342 C22.8426848,17.9889342 23.8314328,18.2263861 24.7473296,18.6948126 C26.6977732,19.6922479 28.0022347,21.5825664 28.2365622,23.7516395 C28.2366384,23.7520205 28.2367147,23.7524015 28.2367147,23.7528587 C28.2619382,23.9871863 28.2747405,24.2233427 28.2747405,24.4551556 C28.2748929,26.1823973 27.6023157,27.806154 26.3809166,29.0274768 Z M8.91623599,32.2067112 L8.91623599,25.6394432 L8.91623599,20.4342471 L8.91623599,15.2290509 L8.91623599,12.8480543 L16.4944273,12.8480543 C16.4945797,12.8480543 16.4947322,12.8481305 16.4948846,12.8481305 C16.4951132,12.8481305 16.4953418,12.8480543 16.4954942,12.8480543 L18.5036242,12.8480543 L23.3239898,12.8480543 C23.3242184,12.8480543 23.3243708,12.8481305 23.3245232,12.8481305 C23.3247518,12.8481305 23.3249804,12.8480543 23.3252852,12.8480543 L24.4191949,12.8480543 L24.4191187,13.4775 L24.4191187,17.2403815 C23.5865128,16.9375465 22.7119948,16.7840714 21.8085953,16.7840714 C21.6401843,16.7840714 21.4726115,16.790244 21.3059532,16.801065 C21.2609166,16.7903964 21.2142035,16.7840714 21.1658901,16.7840714 L12.1693883,16.7840714 C11.8366813,16.7840714 11.5669189,17.0537577 11.5669189,17.3864647 C11.5669189,17.719248 11.8366813,17.9889342 12.1693883,17.9889342 L17.6803153,17.9889342 C17.02938,18.4050847 16.4375029,18.9219008 15.9283072,19.5293236 C15.3275904,20.245642 14.8708993,21.0499761 14.5662354,21.9249514 L12.1694645,21.9249514 C11.8367575,21.9249514 11.5670713,22.1946376 11.5670713,22.5273446 C11.5670713,22.8601279 11.8367575,23.1298141 12.1694645,23.1298141 L14.2525794,23.1298141 C14.1760705,23.5666921 14.137435,24.0100475 14.137435,24.4551556 C14.137435,25.359317 14.2907576,26.2337589 14.592983,27.0658313 L12.1694645,27.0658313 C11.8367575,27.0658313 11.5670713,27.3355175 11.5670713,27.6682246 C11.5670713,28.0009316 11.8367575,28.2706941 12.1694645,28.2706941 L15.1533879,28.2706941 C16.5212512,30.6580156 19.03751,32.1263159 21.8086715,32.1263159 C22.7126806,32.1263159 23.5870463,31.9730695 24.4191949,31.6708441 L24.4191949,32.2067112 L8.91623599,32.2067112 Z M1.29194118,6.54300458 L16.603323,4.11323736 L17.5094657,9.8235904 L16.1883917,11.6431153 L8.31384271,11.6431153 C7.98105947,11.6431153 7.71137322,11.9128016 7.71137322,12.2455848 L7.71137322,14.7145971 L5.92751182,14.9976953 C5.5988436,15.0498189 5.37472739,15.3585216 5.42685099,15.6871137 C5.47394511,15.9837762 5.73006704,16.1952425 6.02116664,16.1952425 C6.05256272,16.1952425 6.08433982,16.192804 6.11634554,16.1876983 L7.71137322,15.9346245 L7.71137322,19.9198695 L6.73314139,20.075021 C6.40454938,20.1271446 6.18043317,20.4358474 6.23255677,20.7645156 C6.27965089,21.0611019 6.53569661,21.2725682 6.82679621,21.2725682 C6.8582685,21.2725682 6.8900456,21.2701297 6.92197511,21.265024 L7.71137322,21.1398207 L7.71137322,25.1249895 L4.32577817,25.6622283 L1.29194118,6.54300458 Z M30.0522008,31.7333314 L34.6529461,36.3340768 L33.6873642,37.2996587 L29.086695,32.6989134 L30.0522008,31.7333314 Z M38.7678143,10.0079281 L25.2480667,0.191165565 C25.1188246,0.0973583378 24.9578053,0.0584942549 24.7996818,0.0836416027 C24.6419394,0.108712746 24.5005046,0.195432994 24.406545,0.324675121 L18.5105588,8.44482991 L17.6987567,3.32932595 C17.6738379,3.17150729 17.5870415,3.03014872 17.4577232,2.93618908 C17.3284048,2.84230565 17.1670046,2.80374638 17.0093383,2.82874132 L0.508105971,5.44741847 C0.179513961,5.49954206 -0.0446022504,5.8081686 0.0075213431,6.13676061 L3.23026826,26.4460635 C3.25533941,26.6038821 3.34198345,26.7453169 3.47130178,26.8392003 C3.57478693,26.9144138 3.69884718,26.9541161 3.82526975,26.9541161 C3.85666583,26.9541161 3.88821432,26.9516776 3.91968661,26.9466481 L7.71137322,26.3449406 L7.71137322,32.8090283 C7.71137322,33.1417353 7.98105947,33.4114216 8.31384271,33.4114216 L25.0216643,33.4114216 C25.3544476,33.4114216 25.6241338,33.1417353 25.6241338,32.8090283 L25.6241338,31.1102106 C26.0374648,30.8728349 26.4278583,30.5987288 26.7903611,30.2888068 L28.2915054,31.7900273 L27.8087525,32.2727801 C27.5734343,32.5080221 27.5734343,32.8894998 27.8087525,33.124818 L33.2614595,38.5774488 C33.3790424,38.6951079 33.5332795,38.7540137 33.6874404,38.7540137 C33.8416012,38.7540137 33.9958383,38.6951079 34.1134974,38.5774488 L35.9311934,36.7599052 C36.0440517,36.6468946 36.1075297,36.4937244 36.1075297,36.3339244 C36.1075297,36.1741244 36.0440517,36.020878 35.9311934,35.9079436 L30.478334,30.4551603 C30.3653995,30.3422259 30.2120769,30.2787479 30.052277,30.2787479 C29.8925532,30.2787479 29.739383,30.3422259 29.6262199,30.4551603 L29.143467,30.9379894 L27.6423228,29.4368452 C28.8311827,28.0490164 29.4797557,26.3020377 29.4797557,24.4550794 C29.4797557,24.2574822 29.4715256,24.0573702 29.4560562,23.8576393 L38.9014,10.8492974 C39.0970159,10.5800683 39.0370433,10.2033154 38.7678143,10.0079281 Z" id="Fill-5"></path>
                        <path d="M21.8086334,28.3510284 C19.6604403,28.3510284 17.9127759,26.6032877 17.9127759,24.4551708 C17.9127759,22.3070539 19.6604403,20.5593894 21.8086334,20.5593894 C23.9567504,20.5593894 25.7044148,22.3070539 25.7044148,24.4551708 C25.7044148,26.6032877 23.9567504,28.3510284 21.8086334,28.3510284 M21.8086334,19.3544504 C18.9960931,19.3544504 16.7079131,21.6427067 16.7079131,24.4551708 C16.7079131,27.2677111 18.9960931,29.5559674 21.8086334,29.5559674 C24.6210976,29.5559674 26.9093538,27.2677111 26.9093538,24.4551708 C26.9093538,21.6427067 24.6210976,19.3544504 21.8086334,19.3544504" id="Fill-8"></path>
                        <path d="M22.6677888,24.350535 L21.0612543,25.9570695 C20.8259361,26.1923115 20.8259361,26.5737891 21.0612543,26.8090311 C21.1789134,26.926614 21.3331504,26.9854436 21.4873113,26.9854436 C21.641396,26.9854436 21.7957092,26.9266902 21.9133683,26.8090311 L23.5199028,25.2024966 C23.7551448,24.9671784 23.7551448,24.5857008 23.5199028,24.350535 C23.2845084,24.1152168 22.903107,24.1152168 22.6677888,24.350535" id="Fill-10"></path>
                        <path d="M22.8772814,22.6319957 C23.1125234,22.3967537 23.1125234,22.0152761 22.8772814,21.7800341 C22.641887,21.544792 22.2604856,21.544792 22.0252436,21.7800341 L20.2580708,23.547283 C20.0228288,23.7826012 20.0228288,24.1640026 20.2580708,24.3991684 C20.37573,24.5167513 20.529967,24.5756571 20.6841279,24.5756571 C20.8382887,24.5756571 20.9925258,24.5168275 21.1101849,24.3991684 L22.8772814,22.6319957 Z" id="Fill-12"></path>
                    </g>
                </g>
            </g>
        </g>
    </g>
</svg>