<?xml version="1.0" encoding="UTF-8"?>
<svg width="33px" height="32px" viewBox="0 0 33 32" version="1.1" xmlns="http://www.w3.org/2000/svg" xmlns:xlink="http://www.w3.org/1999/xlink">
    <!-- Generator: Sketch 48.2 (47327) - http://www.bohemiancoding.com/sketch -->
    <title>icon</title>
    <desc>Created with Sketch.</desc>
    <defs></defs>
    <g id="1-1-1-Сryptoguys-Landing" stroke="none" stroke-width="1" fill="none" fill-rule="evenodd" transform="translate(-186.000000, -4527.000000)">
        <g id="Features" transform="translate(124.000000, 3997.000000)" fill="#fea400">
            <g id="solution" transform="translate(36.000000, 380.000000)">
                <g id="2" transform="translate(0.000000, 124.000000)">
                    <g id="icon" transform="translate(26.000000, 26.000000)">
                        <path d="M19.2925067,29.2073143 C19.0280539,29.2733844 18.7581671,29.3319504 18.4902642,29.3812011 C17.7898005,29.5110987 17.3268787,30.1847375 17.4566038,30.8855461 C17.5202588,31.2305596 17.7163989,31.5176108 17.9822318,31.7052981 C18.2560863,31.8979881 18.6048086,31.9849315 18.9602588,31.9188615 C19.2793962,31.8599504 19.6007763,31.7901714 19.9161186,31.7113358 C20.6078706,31.5391741 21.0290458,30.8387105 20.8565391,30.1476485 C20.6843774,29.4559827 19.9845175,29.0351526 19.2925067,29.2073143" id="Fill-1"></path>
                        <path d="M28.8352949,11.9104776 C28.9256022,12.1830383 29.0984539,12.4053995 29.3164162,12.5590167 C29.6395213,12.7868119 30.0624216,12.8633186 30.4660011,12.7298846 C31.1425725,12.5051084 31.5094081,11.7756636 31.2854081,11.0991784 C31.1833704,10.7908226 31.0701197,10.4815181 30.9498825,10.1806663 C30.6849984,9.51893046 29.9343353,9.19651536 29.2722544,9.46131321 C28.6108636,9.72585229 28.2887935,10.4768604 28.5535914,11.1385962 C28.6546803,11.3919224 28.7497315,11.6517175 28.8352949,11.9104776" id="Fill-3"></path>
                        <path d="M23.485904,27.3649941 C23.2581089,27.5152474 23.0233272,27.6604981 22.7864755,27.7968647 C22.1688151,28.1530911 21.9575806,28.9424819 22.3137208,29.5597111 C22.4104108,29.7275601 22.5391008,29.8646167 22.6873704,29.9697596 C23.0852571,30.249738 23.6260658,30.2915709 24.0762221,30.0324658 C24.3574943,29.8700507 24.637559,29.6975439 24.9083946,29.5182232 C25.5027666,29.1254253 25.6664755,28.3248216 25.2736776,27.7301908 C24.8807935,27.1352151 24.080621,26.971765 23.485904,27.3649941" id="Fill-5"></path>
                        <path d="M32.0876593,15.5149283 C32.0597132,14.802648 31.4599935,14.2480388 30.7473682,14.2760712 C30.0357779,14.3040173 29.4811687,14.9040819 29.5088561,15.6160173 C29.5196377,15.8882329 29.5226566,16.1645024 29.5162739,16.436373 C29.506096,16.8831655 29.7244895,17.2813973 30.064069,17.5206642 C30.2662469,17.6631547 30.5118102,17.7494081 30.7779881,17.7554458 C31.4902685,17.7709714 32.0802415,17.2062706 32.0961121,16.4937315 C32.1031849,16.1685563 32.1004248,15.8394135 32.0876593,15.5149283" id="Fill-7"></path>
                        <path d="M28.6247159,23.9701132 C28.0536323,23.541434 27.245697,23.6581348 26.8177941,24.228097 C26.6539989,24.4464906 26.4814922,24.662124 26.3049315,24.8697358 C25.8433898,25.4121833 25.9087698,26.2268464 26.4508722,26.6888194 C26.4818372,26.7149542 26.5132334,26.7390189 26.5455784,26.7614447 C27.0849208,27.1419084 27.833945,27.0543612 28.2699558,26.5428787 C28.4808453,26.2952453 28.6867321,26.0375202 28.882441,25.77669 C29.3099127,25.2066415 29.1944194,24.3980162 28.6247159,23.9701132" id="Fill-10"></path>
                        <path d="M30.5216173,19.3053585 C29.8416819,19.0920539 29.1176712,19.4707925 28.9043666,20.1507278 C28.8228571,20.4105229 28.7325499,20.6716119 28.6348248,20.9273531 C28.4205714,21.4899838 28.6257682,22.109283 29.0964528,22.4410997 C29.1827062,22.5018221 29.2780162,22.5529704 29.3810889,22.5920431 C30.0468787,22.8461456 30.7925391,22.5122588 31.0462102,21.846124 C31.1621348,21.5422534 31.2696065,21.2315687 31.3669865,20.9226092 C31.5799461,20.2426739 31.2015526,19.5186631 30.5216173,19.3053585" id="Fill-12"></path>
                        <path d="M13.6624129,29.3929574 C12.5087741,29.1857768 11.4019709,28.8330005 10.3524399,28.3410976 C10.3400194,28.3343698 10.3288927,28.326952 10.3161272,28.321173 C10.0687526,28.2046447 9.82180916,28.0799224 9.58262857,27.9499385 C9.58159353,27.9489035 9.58021348,27.9482135 9.57891968,27.9474372 C9.13989003,27.7059278 8.71129704,27.4384561 8.29486577,27.1452809 C2.22478491,22.8690113 0.765205391,14.451545 5.04147493,8.38146415 C5.97137251,7.06213261 7.09672022,5.96093585 8.35110296,5.08874178 C8.36662857,5.07796011 8.38215418,5.06717844 8.39759353,5.05639677 C12.8184237,2.01027278 18.8211407,1.80498976 23.5152216,4.93503827 L22.5070922,6.39194394 C22.2267687,6.79733477 22.3990167,7.09275256 22.8898846,7.04867709 L27.269227,6.65639677 C27.7605261,6.61232129 28.0543051,6.18735094 27.9222512,5.71295741 L26.746014,1.47576065 C26.6146501,1.00076334 26.2773132,0.943749865 25.9966447,1.3491407 L24.9862728,2.80932399 C21.5414857,0.497129919 17.4097768,-0.384983288 13.3086879,0.326261995 C12.8956205,0.397593531 12.4882458,0.485313208 12.0866501,0.587092183 C12.0836313,0.587695957 12.0808712,0.587954717 12.0785423,0.588730997 C12.0630167,0.592439892 12.0472323,0.597442588 12.0320518,0.601582749 C8.49566361,1.50983073 5.41046685,3.57223504 3.20859084,6.51528625 C3.19004636,6.53719461 3.17089811,6.55875795 3.15338868,6.58256388 C3.08024582,6.68141024 3.00744798,6.78206792 2.9363752,6.88281186 C2.82010566,7.04824582 2.70521617,7.21781995 2.59576065,7.38722156 C2.58196011,7.40774987 2.5714372,7.42836442 2.55936173,7.44915148 C0.742607008,10.2645477 -0.133727224,13.5192323 0.0165261456,16.8330005 C0.016871159,16.8437822 0.0162673854,16.8549089 0.0165261456,16.8660356 C0.0310167116,17.1898307 0.0566339623,17.5179385 0.0916528302,17.8410437 C0.0933778976,17.8620032 0.0981218329,17.8814965 0.101830728,17.9023698 C0.137539623,18.2272 0.182995148,18.552979 0.239577358,18.8784992 C0.815404852,22.1998577 2.38211105,25.1891407 4.73018652,27.5149628 C4.73553423,27.5203105 4.74131321,27.5260032 4.74666092,27.5317822 C4.748731,27.5341111 4.75071482,27.5351461 4.75278491,27.5371299 C5.38346954,28.159103 6.0697876,28.7348442 6.8083752,29.2551245 C8.74200323,30.617669 10.8948873,31.5179817 13.2069089,31.9330329 C13.9087526,32.0589628 14.578855,31.5919871 14.7045261,30.8908334 C14.8305423,30.189076 14.3639116,29.5181973 13.6624129,29.3929574" id="Fill-14"></path>
                        <path d="M15.2581003,5.71068032 C14.680979,5.71068032 14.2136582,6.17869111 14.2136582,6.75477736 L14.2136582,17.1567612 L23.7271461,22.0745833 C23.8800733,22.1541089 24.0442135,22.1914566 24.2052485,22.1914566 C24.583297,22.1914566 24.9481488,21.9855698 25.1338523,21.6264108 C25.3983051,21.1143245 25.1981973,20.4845887 24.6856798,20.2201358 L16.3012485,15.885559 L16.3012485,6.75477736 C16.3012485,6.17869111 15.8346178,5.71068032 15.2581003,5.71068032" id="Fill-17"></path>
                    </g>
                </g>
            </g>
        </g>
    </g>
</svg>