<?xml version="1.0" encoding="UTF-8"?>
<svg width="38px" height="32px" viewBox="0 0 38 32" version="1.1" xmlns="http://www.w3.org/2000/svg" xmlns:xlink="http://www.w3.org/1999/xlink">
    <!-- Generator: Sketch 48.2 (47327) - http://www.bohemiancoding.com/sketch -->
    <title>icon</title>
    <desc>Created with Sketch.</desc>
    <defs></defs>
    <g id="1-1-1-Сryptoguys-Landing" stroke="none" stroke-width="1" fill="none" fill-rule="evenodd" transform="translate(-183.000000, -4651.000000)">
        <g id="Features" transform="translate(124.000000, 3997.000000)" fill="#25CBD3">
            <g id="solution" transform="translate(36.000000, 380.000000)">
                <g id="3" transform="translate(0.000000, 248.000000)">
                    <g id="icon" transform="translate(23.000000, 26.000000)">
                        <path d="M31.5087059,1.15054382 C33.7618824,1.15054382 35.5858824,2.98425169 35.5858824,5.24942022 C35.5858824,7.51458876 33.7618824,9.31234157 31.5087059,9.31234157 C29.2555294,9.31234157 27.4315294,7.47863371 27.4315294,5.21346517 C27.4315294,2.94829663 29.2912941,1.15054382 31.5087059,1.15054382 M31.5087059,10.4629034 C34.3698824,10.4629034 36.7303529,8.12582472 36.7303529,5.21346517 C36.7303529,2.30110562 34.4056471,-1.79775281e-05 31.5087059,-1.79775281e-05 C28.6117647,-1.79775281e-05 26.3228235,2.33706067 26.3228235,5.24942022 C26.3228235,8.16177978 28.6475294,10.4629034 31.5087059,10.4629034" id="Fill-1"></path>
                        <path d="M30.2569412,7.73033708 C30.3284706,7.76629213 30.4357647,7.80224719 30.5072941,7.80224719 C30.5788235,7.83820225 30.6861176,7.83820225 30.7934118,7.8741573 C30.9007059,7.91011236 30.9722353,7.91011236 31.0795294,7.91011236 L31.1510588,7.91011236 L31.1510588,8.4494382 L31.1510588,8.62921348 L31.3298824,8.62921348 L31.8305882,8.62921348 L32.0094118,8.62921348 L32.0094118,8.4494382 L32.0094118,7.8741573 L32.0451765,7.8741573 C32.1524706,7.83820225 32.2597647,7.80224719 32.3670588,7.73033708 C32.4743529,7.69438202 32.5458824,7.62247191 32.6531765,7.5505618 C32.7247059,7.47865169 32.7962353,7.40674157 32.8677647,7.2988764 C32.9392941,7.22696629 32.9750588,7.11910112 33.0465882,7.01123596 C33.0823529,6.90337079 33.1181176,6.79550562 33.1538824,6.68764045 C33.1896471,6.57977528 33.1896471,6.47191011 33.1896471,6.32808989 C33.1896471,6.22022472 33.1896471,6.14831461 33.1538824,6.04044944 C33.1181176,5.93258427 33.1181176,5.86067416 33.0465882,5.75280899 C33.0108235,5.68089888 32.9750588,5.57303371 32.9035294,5.5011236 C32.832,5.42921348 32.7962353,5.35730337 32.7247059,5.28539326 C32.6531765,5.21348315 32.5816471,5.14157303 32.4743529,5.10561798 C32.4028235,5.03370787 32.2955294,4.99775281 32.224,4.96179775 C32.1167059,4.9258427 32.0451765,4.85393258 31.9378824,4.81797753 C31.8305882,4.78202247 31.7232941,4.74606742 31.6517647,4.71011236 C31.616,4.71011236 31.5444706,4.6741573 31.5087059,4.63820225 C31.4729412,4.60224719 31.4014118,4.60224719 31.3656471,4.56629213 C31.3298824,4.53033708 31.2583529,4.53033708 31.2225882,4.49438202 C31.1868235,4.45842697 31.1510588,4.42247191 31.1152941,4.38651685 C31.0795294,4.3505618 31.0437647,4.31460674 31.0437647,4.24269663 C31.008,4.20674157 31.008,4.13483146 31.008,4.0988764 L31.008,3.91910112 C31.008,3.88314607 31.0437647,3.81123596 31.0437647,3.7752809 C31.0795294,3.73932584 31.0795294,3.66741573 31.1152941,3.63146067 C31.1510588,3.59550562 31.1868235,3.55955056 31.2225882,3.52359551 C31.2583529,3.48764045 31.3298824,3.45168539 31.4014118,3.45168539 C31.4729412,3.41573034 31.5087059,3.41573034 31.5802353,3.41573034 L31.6875294,3.41573034 L31.7948235,3.41573034 C31.8663529,3.41573034 31.9021176,3.41573034 31.9736471,3.45168539 C32.0451765,3.45168539 32.1167059,3.48764045 32.1524706,3.48764045 C32.1882353,3.48764045 32.2597647,3.52359551 32.2955294,3.52359551 C32.3670588,3.52359551 32.4028235,3.55955056 32.4385882,3.55955056 L32.6174118,3.63146067 L32.6531765,3.41573034 L32.7247059,2.84044944 L32.7247059,2.69662921 L32.5816471,2.66067416 C32.5458824,2.66067416 32.4743529,2.6247191 32.4385882,2.6247191 C32.4028235,2.6247191 32.3670588,2.58876404 32.2955294,2.58876404 C32.2597647,2.58876404 32.1882353,2.55280899 32.1167059,2.55280899 C32.0451765,2.55280899 32.0094118,2.51685393 31.9378824,2.51685393 L31.9021176,2.51685393 L31.9021176,2.01348315 L31.9021176,1.83370787 L31.7232941,1.83370787 L31.2225882,1.83370787 L31.0437647,1.83370787 L31.0437647,2.01348315 L31.0437647,2.55280899 L31.008,2.55280899 C30.9007059,2.58876404 30.7934118,2.6247191 30.6861176,2.69662921 C30.5788235,2.73258427 30.5072941,2.80449438 30.4357647,2.87640449 C30.3642353,2.94831461 30.2927059,3.02022472 30.2211765,3.12808989 C30.1496471,3.2 30.1138824,3.30786517 30.0781176,3.41573034 C30.0423529,3.52359551 30.0065882,3.63146067 29.9708235,3.73932584 C29.9350588,3.84719101 29.9350588,3.99101124 29.9350588,4.0988764 C29.9350588,4.20674157 29.9350588,4.27865169 29.9708235,4.38651685 C30.0065882,4.49438202 30.0065882,4.56629213 30.0781176,4.6741573 C30.1138824,4.74606742 30.1854118,4.85393258 30.2211765,4.9258427 C30.2927059,4.99775281 30.3284706,5.06966292 30.4,5.14157303 C30.4715294,5.21348315 30.5430588,5.28539326 30.6503529,5.32134831 C30.7218824,5.39325843 30.8291765,5.42921348 30.9007059,5.46516854 C31.008,5.5011236 31.1152941,5.57303371 31.1868235,5.60898876 C31.2941176,5.64494382 31.4014118,5.68089888 31.4729412,5.71685393 C31.5087059,5.71685393 31.5802353,5.75280899 31.616,5.78876404 C31.6517647,5.8247191 31.7232941,5.8247191 31.7590588,5.86067416 C31.7948235,5.89662921 31.8305882,5.93258427 31.8663529,5.93258427 C31.9021176,5.96853933 31.9378824,6.00449438 31.9736471,6.04044944 C32.0094118,6.07640449 32.0094118,6.11235955 32.0451765,6.18426966 C32.0451765,6.22022472 32.0809412,6.29213483 32.0809412,6.36404494 L32.0809412,6.54382022 C32.0809412,6.57977528 32.0451765,6.65168539 32.0094118,6.68764045 C31.9736471,6.72359551 31.9378824,6.75955056 31.9021176,6.79550562 C31.8663529,6.83146067 31.8305882,6.86741573 31.7590588,6.90337079 C31.7232941,6.93932584 31.6517647,6.93932584 31.616,6.9752809 C31.5802353,6.9752809 31.5087059,7.01123596 31.4371765,7.01123596 L31.2941176,7.01123596 L31.1510588,7.01123596 L30.9722353,7.01123596 C30.9007059,7.01123596 30.8291765,6.9752809 30.7934118,6.9752809 C30.7218824,6.9752809 30.6503529,6.93932584 30.5788235,6.90337079 C30.5072941,6.86741573 30.4357647,6.86741573 30.3642353,6.83146067 C30.3284706,6.83146067 30.2927059,6.79550562 30.2569412,6.79550562 C30.2211765,6.79550562 30.1854118,6.75955056 30.1496471,6.75955056 L29.9350588,6.65168539 L29.8992941,6.90337079 L29.8277647,7.5505618 L29.8277647,7.65842697 L29.9350588,7.69438202 C30.0781176,7.65842697 30.1496471,7.69438202 30.2569412,7.73033708" id="Fill-4"></path>
                        <path d="M6.68799106,19.4157303 C6.79528518,19.4157303 6.90257929,19.3797753 7.00987341,19.3078652 L14.7708146,13.7348315 L22.2814028,16.8629213 C22.4602264,16.9348315 22.7105793,16.8988764 22.8536381,16.7910112 L28.8978734,11.9730337 C29.1482264,11.7932584 29.1839911,11.3977528 29.0051675,11.1460674 C28.826344,10.894382 28.4329322,10.858427 28.1825793,11.0382022 L22.3886969,15.6764045 L14.9138734,12.5483146 C14.7350499,12.4764045 14.5204616,12.5123596 14.3774028,12.6202247 L6.36610871,18.3730337 C6.11575576,18.552809 6.04422635,18.9123596 6.22304988,19.1640449 C6.330344,19.3438202 6.50916753,19.4157303 6.68799106,19.4157303" id="Fill-6"></path>
                        <path d="M4.39905882,30.8494382 L8.512,30.8494382 L8.512,23.047191 L4.39905882,23.047191 L4.39905882,30.8494382 Z M12.768,30.8494382 L16.8809412,30.8494382 L16.8809412,19.6674157 L12.768,19.6674157 L12.768,30.8494382 Z M21.1011765,30.8494382 L25.2141176,30.8494382 L25.2141176,20.5303371 L21.1011765,20.5303371 L21.1011765,30.8494382 Z M29.4701176,30.8494382 L33.5830588,30.8494382 L33.5830588,14.7775281 L29.4701176,14.7775281 L29.4701176,30.8494382 Z M37.3741176,30.8494382 L34.7275294,30.8494382 L34.7275294,14.2022472 C34.7275294,13.8786517 34.4771765,13.6269663 34.1552941,13.6269663 L28.8978824,13.6269663 C28.576,13.6269663 28.3256471,13.8786517 28.3256471,14.2022472 L28.3256471,30.8494382 L26.3943529,30.8494382 L26.3943529,19.9550562 C26.3943529,19.6314607 26.144,19.3797753 25.8221176,19.3797753 L20.5289412,19.3797753 C20.2070588,19.3797753 19.9567059,19.6314607 19.9567059,19.9550562 L19.9567059,30.8494382 L18.0254118,30.8494382 L18.0254118,19.0921348 C18.0254118,18.7685393 17.7750588,18.5168539 17.4531765,18.5168539 L12.1957647,18.5168539 C11.8738824,18.5168539 11.6235294,18.7685393 11.6235294,19.0921348 L11.6235294,30.8494382 L9.69223529,30.8494382 L9.69223529,22.4719101 C9.69223529,22.1483146 9.44188235,21.8966292 9.12,21.8966292 L3.82682353,21.8966292 C3.50494118,21.8966292 3.25458824,22.1483146 3.25458824,22.4719101 L3.25458824,30.8494382 L0.572235294,30.8494382 C0.250352941,30.8494382 0,31.1011236 0,31.4247191 C0,31.7483146 0.250352941,32 0.572235294,32 L3.79105882,32 L9.04847059,32 L12.1957647,32 L17.4531765,32 L20.5289412,32 L25.7863529,32 L28.8621176,32 L34.1195294,32 L37.3383529,32 C37.6602353,32 37.9105882,31.7483146 37.9105882,31.4247191 C37.9463529,31.1011236 37.696,30.8494382 37.3741176,30.8494382 Z" id="Fill-8"></path>
                    </g>
                </g>
            </g>
        </g>
    </g>
</svg>