<?xml version="1.0" encoding="UTF-8"?>
<svg width="75px" height="91px" viewBox="0 0 75 91" version="1.1" xmlns="http://www.w3.org/2000/svg" xmlns:xlink="http://www.w3.org/1999/xlink">
    <!-- Generator: Sketch 49.1 (51147) - http://www.bohemiancoding.com/sketch -->
    <title>presale_fire</title>
    <desc>Created with Sketch.</desc>
    <defs>
        <linearGradient x1="50%" y1="100%" x2="50%" y2="0%" id="linearGradient-1">
            <stop stop-color="#12A7F6" offset="0%"></stop>
            <stop stop-color="#25CBD3" offset="100%"></stop>
        </linearGradient>
    </defs>
    <g id="Page-1" stroke="none" stroke-width="1" fill="none" fill-rule="evenodd">
        <g id="ftec\sale_details" transform="translate(-484.000000, -279.000000)">
            <g id="Group-16" transform="translate(454.000000, 234.000000)">
                <g id="presale_fire" transform="translate(30.000000, 45.000000)">
                    <path d="M74.1797354,51.6044742 L73.7787983,44.4434282 L69.4133347,50.1292746 C69.0657496,50.5818987 68.3257354,51.3825996 67.3809986,52.1123007 C67.7542849,50.8737081 68.0875128,49.4611659 68.3078332,47.9030739 C69.0703581,42.5074395 68.5955082,34.2261932 62.0055707,25.4151104 L59.2404876,21.7181476 L57.4286492,25.9658918 C55.3387072,30.8655922 51.9571524,33.3237849 48.8143518,32.2280796 C46.3949041,31.3849562 44.4283274,28.6120566 43.4194265,24.6199119 C42.478412,20.8963242 41.9314219,14.3439245 44.6716901,4.27330415 L45.834443,0 L41.5196726,0.973408099 C26.9648778,4.25679669 17.1571634,14.6075115 13.1563009,30.9062396 C11.4745632,37.7575488 11.1578193,44.2485336 11.2049676,48.63881 C7.76598406,45.8545504 6.0486193,43.4116227 6.00359808,43.3470128 L2.72786084,38.5275423 L1.23577945,44.1706112 C0.415648711,47.2722402 0,50.4809014 0,53.7074901 C0,74.0512579 16.4043873,90.6272405 36.6619888,90.8741425 C36.8142456,90.8780475 36.9668569,90.88 37.12,90.88 C37.2731431,90.88 37.4257544,90.8780475 37.5780112,90.8741425 C57.83579,90.6272405 74.24,74.0512579 74.24,53.7074901 C74.24,53.0267789 74.2197936,52.3190878 74.1797354,51.6044742 Z" fill="url(#linearGradient-1)" fill-rule="nonzero" transform="translate(37.120000, 45.440000) scale(-1, 1) translate(-37.120000, -45.440000) "></path>
                    <path d="M15.56256,60.76 C15.3961592,60.76 15.2547206,60.7017606 15.13824,60.58528 C15.0217594,60.4687994 14.96352,60.3273608 14.96352,60.16096 L14.96352,43.912 C14.96352,43.7289591 15.0175995,43.5792006 15.12576,43.46272 C15.2339205,43.3462394 15.3795191,43.288 15.56256,43.288 L22.25184,43.288 C24.2652901,43.288 25.8460743,43.7622353 26.99424,44.71072 C28.1424057,45.6592047 28.71648,47.0403109 28.71648,48.85408 C28.71648,50.651209 28.1424057,52.0115154 26.99424,52.93504 C25.8460743,53.8585646 24.2652901,54.32032 22.25184,54.32032 L18.58272,54.32032 L18.58272,60.16096 C18.58272,60.3440009 18.5244806,60.4895995 18.408,60.59776 C18.2915194,60.7059205 18.1417609,60.76 17.95872,60.76 L15.56256,60.76 Z M22.12704,51.5248 C23.0921648,51.5248 23.8284775,51.2960023 24.336,50.8384 C24.8435225,50.3807977 25.09728,49.7110444 25.09728,48.82912 C25.09728,47.9638357 24.8518425,47.2899224 24.36096,46.80736 C23.8700775,46.3247976 23.125445,46.08352 22.12704,46.08352 L18.5328,46.08352 L18.5328,51.5248 L22.12704,51.5248 Z M32.03616,60.76 C31.8697592,60.76 31.7283206,60.7017606 31.61184,60.58528 C31.4953594,60.4687994 31.43712,60.3273608 31.43712,60.16096 L31.43712,43.912 C31.43712,43.7289591 31.4911995,43.5792006 31.59936,43.46272 C31.7075205,43.3462394 31.8531191,43.288 32.03616,43.288 L38.5008,43.288 C40.5475302,43.288 42.1491142,43.7622353 43.3056,44.71072 C44.4620858,45.6592047 45.04032,47.0070313 45.04032,48.75424 C45.04032,49.9689661 44.7491229,50.9881559 44.16672,51.81184 C43.5843171,52.6355241 42.7689652,53.2303982 41.72064,53.59648 L45.33984,59.96128 C45.3897602,60.0611205 45.41472,60.1526396 45.41472,60.23584 C45.41472,60.3856007 45.3606405,60.5103995 45.25248,60.61024 C45.1443195,60.7100805 45.0236807,60.76 44.89056,60.76 L42.59424,60.76 C42.3279987,60.76 42.1200007,60.6976006 41.97024,60.5728 C41.8204793,60.4479994 41.6873606,60.285761 41.57088,60.08608 L38.376,54.17056 L34.95648,54.17056 L34.95648,60.16096 C34.95648,60.3273608 34.8982406,60.4687994 34.78176,60.58528 C34.6652794,60.7017606 34.5155209,60.76 34.33248,60.76 L32.03616,60.76 Z M38.42592,51.32512 C39.424325,51.32512 40.1731175,51.1046422 40.67232,50.66368 C41.1715225,50.2227178 41.42112,49.5779242 41.42112,48.72928 C41.42112,47.8806358 41.1715225,47.2275223 40.67232,46.76992 C40.1731175,46.3123177 39.424325,46.08352 38.42592,46.08352 L34.95648,46.08352 L34.95648,51.32512 L38.42592,51.32512 Z M48.8592,60.76 C48.6927992,60.76 48.5513606,60.7017606 48.43488,60.58528 C48.3183994,60.4687994 48.26016,60.3273608 48.26016,60.16096 L48.26016,43.912 C48.26016,43.7289591 48.3142395,43.5792006 48.4224,43.46272 C48.5305605,43.3462394 48.6761591,43.288 48.8592,43.288 L59.86656,43.288 C60.0496009,43.288 60.1993594,43.3462394 60.31584,43.46272 C60.4323206,43.5792006 60.49056,43.7289591 60.49056,43.912 L60.49056,45.58432 C60.49056,45.7673609 60.4323206,45.9129595 60.31584,46.02112 C60.1993594,46.1292805 60.0496009,46.18336 59.86656,46.18336 L51.67968,46.18336 L51.67968,50.55136 L59.31744,50.55136 C59.5004809,50.55136 59.6502394,50.6095994 59.76672,50.72608 C59.8832006,50.8425606 59.94144,50.9923191 59.94144,51.17536 L59.94144,52.74784 C59.94144,52.9308809 59.8832006,53.0764795 59.76672,53.18464 C59.6502394,53.2928005 59.5004809,53.34688 59.31744,53.34688 L51.67968,53.34688 L51.67968,57.86464 L60.06624,57.86464 C60.2492809,57.86464 60.3990394,57.9187195 60.51552,58.02688 C60.6320006,58.1350405 60.69024,58.2806391 60.69024,58.46368 L60.69024,60.16096 C60.69024,60.3440009 60.6320006,60.4895995 60.51552,60.59776 C60.3990394,60.7059205 60.2492809,60.76 60.06624,60.76 L48.8592,60.76 Z M19.3344,76.752 C18.1823942,76.752 17.1968041,76.5792017 16.3776,76.2336 C15.5583959,75.8879983 14.9376021,75.4336028 14.5152,74.8704 C14.0927979,74.3071972 13.8688001,73.6928033 13.8432,73.0272 C13.8432,72.9247995 13.8815996,72.8320004 13.9584,72.7488 C14.0352004,72.6655996 14.1311994,72.624 14.2464,72.624 L15.9936,72.624 C16.1344007,72.624 16.2495996,72.6559997 16.3392,72.72 C16.4288004,72.7840003 16.5119996,72.8735994 16.5888,72.9888 C16.7168006,73.4240022 17.0079977,73.7887985 17.4624,74.0832 C17.9168023,74.3776015 18.540796,74.5248 19.3344,74.5248 C20.2304045,74.5248 20.9055977,74.3744015 21.36,74.0736 C21.8144023,73.7727985 22.0416,73.3600026 22.0416,72.8352 C22.0416,72.4895983 21.9264012,72.2016012 21.696,71.9712 C21.4655988,71.7407988 21.1168023,71.5392009 20.6496,71.3664 C20.1823977,71.1935991 19.4880046,70.9856012 18.5664,70.7424 C17.0559924,70.3839982 15.9488035,69.9104029 15.2448,69.3216 C14.5407965,68.7327971 14.1888,67.8880055 14.1888,66.7872 C14.1888,66.0447963 14.393598,65.3824029 14.8032,64.8 C15.212802,64.2175971 15.7983962,63.7600017 16.56,63.4272 C17.3216038,63.0943983 18.2079949,62.928 19.2192,62.928 C20.2816053,62.928 21.1999961,63.1135981 21.9744,63.4848 C22.7488039,63.8560019 23.337598,64.3199972 23.7408,64.8768 C24.144002,65.4336028 24.3583999,65.9871972 24.384,66.5376 C24.384,66.6400005 24.3456004,66.7327996 24.2688,66.816 C24.1919996,66.8992004 24.0960006,66.9408 23.9808,66.9408 L22.1568,66.9408 C21.8751986,66.9408 21.6832005,66.8256012 21.5808,66.5952 C21.5167997,66.185598 21.2672022,65.8432014 20.832,65.568 C20.3967978,65.2927986 19.8592032,65.1552 19.2192,65.1552 C18.5151965,65.1552 17.961602,65.2895987 17.5584,65.5584 C17.155198,65.8272013 16.9536,66.2175974 16.9536,66.7296 C16.9536,67.0752017 17.055999,67.3631988 17.2608,67.5936 C17.465601,67.8240012 17.7855978,68.0255991 18.2208,68.1984 C18.6560022,68.3712009 19.2895958,68.5663989 20.1216,68.784 C21.2608057,69.0400013 22.1663966,69.3279984 22.8384,69.648 C23.5104034,69.9680016 24.0063984,70.3711976 24.3264,70.8576 C24.6464016,71.3440024 24.8064,71.9647962 24.8064,72.72 C24.8064,73.5520042 24.5792023,74.271997 24.1248,74.88 C23.6703977,75.488003 23.0304041,75.9519984 22.2048,76.272 C21.3791959,76.5920016 20.4224054,76.752 19.3344,76.752 Z M25.9584,76.56 C25.8431994,76.56 25.7472004,76.5216004 25.6704,76.4448 C25.5935996,76.3679996 25.5552,76.2720006 25.5552,76.1568 L25.5936,75.984 L30.2016,63.6 C30.3296006,63.2799984 30.5599983,63.12 30.8928,63.12 L33.0048,63.12 C33.3376017,63.12 33.5679994,63.2799984 33.696,63.6 L38.304,75.984 L38.3424,76.1568 C38.3424,76.2720006 38.3008004,76.3679996 38.2176,76.4448 C38.1343996,76.5216004 38.0416005,76.56 37.9392,76.56 L36.2304,76.56 C35.9615987,76.56 35.7760005,76.4384012 35.6736,76.1952 L34.7904,73.872 L29.1072,73.872 L28.224,76.1952 C28.1215995,76.4384012 27.9360013,76.56 27.6672,76.56 L25.9584,76.56 Z M29.7792,71.6448 L34.1184,71.6448 L31.9488,65.7312 L29.7792,71.6448 Z M40.5696,76.56 C40.4415994,76.56 40.3328004,76.5152004 40.2432,76.4256 C40.1535996,76.3359996 40.1088,76.2272006 40.1088,76.0992 L40.1088,63.5808 C40.1088,63.4399993 40.1535996,63.3280004 40.2432,63.2448 C40.3328004,63.1615996 40.4415994,63.12 40.5696,63.12 L42.3744,63.12 C42.5152007,63.12 42.6271996,63.1615996 42.7104,63.2448 C42.7936004,63.3280004 42.8352,63.4399993 42.8352,63.5808 L42.8352,74.256 L48.9216,74.256 C49.0624007,74.256 49.1775996,74.3007996 49.2672,74.3904 C49.3568004,74.4800004 49.4016,74.5887994 49.4016,74.7168 L49.4016,76.0992 C49.4016,76.2272006 49.3568004,76.3359996 49.2672,76.4256 C49.1775996,76.5152004 49.0624007,76.56 48.9216,76.56 L40.5696,76.56 Z M51.7248,76.56 C51.5967994,76.56 51.4880004,76.5152004 51.3984,76.4256 C51.3087996,76.3359996 51.264,76.2272006 51.264,76.0992 L51.264,63.6 C51.264,63.4591993 51.3055996,63.3440004 51.3888,63.2544 C51.4720004,63.1647996 51.5839993,63.12 51.7248,63.12 L60.192,63.12 C60.3328007,63.12 60.4479996,63.1647996 60.5376,63.2544 C60.6272004,63.3440004 60.672,63.4591993 60.672,63.6 L60.672,64.8864 C60.672,65.0272007 60.6272004,65.1391996 60.5376,65.2224 C60.4479996,65.3056004 60.3328007,65.3472 60.192,65.3472 L53.8944,65.3472 L53.8944,68.7072 L59.7696,68.7072 C59.9104007,68.7072 60.0255996,68.7519996 60.1152,68.8416 C60.2048004,68.9312004 60.2496,69.0463993 60.2496,69.1872 L60.2496,70.3968 C60.2496,70.5376007 60.2048004,70.6495996 60.1152,70.7328 C60.0255996,70.8160004 59.9104007,70.8576 59.7696,70.8576 L53.8944,70.8576 L53.8944,74.3328 L60.3456,74.3328 C60.4864007,74.3328 60.6015996,74.3743996 60.6912,74.4576 C60.7808004,74.5408004 60.8256,74.6527993 60.8256,74.7936 L60.8256,76.0992 C60.8256,76.2400007 60.7808004,76.3519996 60.6912,76.4352 C60.6015996,76.5184004 60.4864007,76.56 60.3456,76.56 L51.7248,76.56 Z" id="PRE-SALE" fill="#FFFFFF"></path>
                </g>
            </g>
        </g>
    </g>
</svg>