<?xml version="1.0" encoding="UTF-8"?>
<svg width="75px" height="91px" viewBox="0 0 75 91" version="1.1" xmlns="http://www.w3.org/2000/svg" xmlns:xlink="http://www.w3.org/1999/xlink">
    <!-- Generator: Sketch 49.1 (51147) - http://www.bohemiancoding.com/sketch -->
    <title>sale_fire</title>
    <desc>Created with Sketch.</desc>
    <defs>
        <linearGradient x1="50%" y1="100%" x2="50%" y2="0%" id="linearGradient-1">
            <stop stop-color="#A843FD" offset="0%"></stop>
            <stop stop-color="#FF008C" offset="100%"></stop>
        </linearGradient>
    </defs>
    <g id="Page-1" stroke="none" stroke-width="1" fill="none" fill-rule="evenodd">
        <g id="ftec\sale_details" transform="translate(-1005.000000, -279.000000)">
            <g id="Group-16-Copy" transform="translate(975.000000, 234.000000)">
                <g id="sale_fire" transform="translate(30.000000, 45.000000)">
                    <path d="M74.1797354,51.6044742 L73.7787983,44.4434282 L69.4133347,50.1292746 C69.0657496,50.5818987 68.3257354,51.3825996 67.3809986,52.1123007 C67.7542849,50.8737081 68.0875128,49.4611659 68.3078332,47.9030739 C69.0703581,42.5074395 68.5955082,34.2261932 62.0055707,25.4151104 L59.2404876,21.7181476 L57.4286492,25.9658918 C55.3387072,30.8655922 51.9571524,33.3237849 48.8143518,32.2280796 C46.3949041,31.3849562 44.4283274,28.6120566 43.4194265,24.6199119 C42.478412,20.8963242 41.9314219,14.3439245 44.6716901,4.27330415 L45.834443,0 L41.5196726,0.973408099 C26.9648778,4.25679669 17.1571634,14.6075115 13.1563009,30.9062396 C11.4745632,37.7575488 11.1578193,44.2485336 11.2049676,48.63881 C7.76598406,45.8545504 6.0486193,43.4116227 6.00359808,43.3470128 L2.72786084,38.5275423 L1.23577945,44.1706112 C0.415648711,47.2722402 0,50.4809014 0,53.7074901 C0,74.0512579 16.4043873,90.6272405 36.6619888,90.8741425 C36.8142456,90.8780475 36.9668569,90.88 37.12,90.88 C37.2731431,90.88 37.4257544,90.8780475 37.5780112,90.8741425 C57.83579,90.6272405 74.24,74.0512579 74.24,53.7074901 C74.24,53.0267789 74.2197936,52.3190878 74.1797354,51.6044742 Z" fill="url(#linearGradient-1)" fill-rule="nonzero"></path>
                    <path d="M19.3944,65.992 C18.2423942,65.992 17.2568041,65.8192017 16.4376,65.4736 C15.6183959,65.1279983 14.9976021,64.6736028 14.5752,64.1104 C14.1527979,63.5471972 13.9288001,62.9328033 13.9032,62.2672 C13.9032,62.1647995 13.9415996,62.0720004 14.0184,61.9888 C14.0952004,61.9055996 14.1911994,61.864 14.3064,61.864 L16.0536,61.864 C16.1944007,61.864 16.3095996,61.8959997 16.3992,61.96 C16.4888004,62.0240003 16.5719996,62.1135994 16.6488,62.2288 C16.7768006,62.6640022 17.0679977,63.0287985 17.5224,63.3232 C17.9768023,63.6176015 18.600796,63.7648 19.3944,63.7648 C20.2904045,63.7648 20.9655977,63.6144015 21.42,63.3136 C21.8744023,63.0127985 22.1016,62.6000026 22.1016,62.0752 C22.1016,61.7295983 21.9864012,61.4416012 21.756,61.2112 C21.5255988,60.9807988 21.1768023,60.7792009 20.7096,60.6064 C20.2423977,60.4335991 19.5480046,60.2256012 18.6264,59.9824 C17.1159924,59.6239982 16.0088035,59.1504029 15.3048,58.5616 C14.6007965,57.9727971 14.2488,57.1280055 14.2488,56.0272 C14.2488,55.2847963 14.453598,54.6224029 14.8632,54.04 C15.272802,53.4575971 15.8583962,53.0000017 16.62,52.6672 C17.3816038,52.3343983 18.2679949,52.168 19.2792,52.168 C20.3416053,52.168 21.2599961,52.3535981 22.0344,52.7248 C22.8088039,53.0960019 23.397598,53.5599972 23.8008,54.1168 C24.204002,54.6736028 24.4183999,55.2271972 24.444,55.7776 C24.444,55.8800005 24.4056004,55.9727996 24.3288,56.056 C24.2519996,56.1392004 24.1560006,56.1808 24.0408,56.1808 L22.2168,56.1808 C21.9351986,56.1808 21.7432005,56.0656012 21.6408,55.8352 C21.5767997,55.425598 21.3272022,55.0832014 20.892,54.808 C20.4567978,54.5327986 19.9192032,54.3952 19.2792,54.3952 C18.5751965,54.3952 18.021602,54.5295987 17.6184,54.7984 C17.215198,55.0672013 17.0136,55.4575974 17.0136,55.9696 C17.0136,56.3152017 17.115999,56.6031988 17.3208,56.8336 C17.525601,57.0640012 17.8455978,57.2655991 18.2808,57.4384 C18.7160022,57.6112009 19.3495958,57.8063989 20.1816,58.024 C21.3208057,58.2800013 22.2263966,58.5679984 22.8984,58.888 C23.5704034,59.2080016 24.0663984,59.6111976 24.3864,60.0976 C24.7064016,60.5840024 24.8664,61.2047962 24.8664,61.96 C24.8664,62.7920042 24.6392023,63.511997 24.1848,64.12 C23.7303977,64.728003 23.0904041,65.1919984 22.2648,65.512 C21.4391959,65.8320016 20.4824054,65.992 19.3944,65.992 Z M26.0184,65.8 C25.9031994,65.8 25.8072004,65.7616004 25.7304,65.6848 C25.6535996,65.6079996 25.6152,65.5120006 25.6152,65.3968 L25.6536,65.224 L30.2616,52.84 C30.3896006,52.5199984 30.6199983,52.36 30.9528,52.36 L33.0648,52.36 C33.3976017,52.36 33.6279994,52.5199984 33.756,52.84 L38.364,65.224 L38.4024,65.3968 C38.4024,65.5120006 38.3608004,65.6079996 38.2776,65.6848 C38.1943996,65.7616004 38.1016005,65.8 37.9992,65.8 L36.2904,65.8 C36.0215987,65.8 35.8360005,65.6784012 35.7336,65.4352 L34.8504,63.112 L29.1672,63.112 L28.284,65.4352 C28.1815995,65.6784012 27.9960013,65.8 27.7272,65.8 L26.0184,65.8 Z M29.8392,60.8848 L34.1784,60.8848 L32.0088,54.9712 L29.8392,60.8848 Z M40.6296,65.8 C40.5015994,65.8 40.3928004,65.7552004 40.3032,65.6656 C40.2135996,65.5759996 40.1688,65.4672006 40.1688,65.3392 L40.1688,52.8208 C40.1688,52.6799993 40.2135996,52.5680004 40.3032,52.4848 C40.3928004,52.4015996 40.5015994,52.36 40.6296,52.36 L42.4344,52.36 C42.5752007,52.36 42.6871996,52.4015996 42.7704,52.4848 C42.8536004,52.5680004 42.8952,52.6799993 42.8952,52.8208 L42.8952,63.496 L48.9816,63.496 C49.1224007,63.496 49.2375996,63.5407996 49.3272,63.6304 C49.4168004,63.7200004 49.4616,63.8287994 49.4616,63.9568 L49.4616,65.3392 C49.4616,65.4672006 49.4168004,65.5759996 49.3272,65.6656 C49.2375996,65.7552004 49.1224007,65.8 48.9816,65.8 L40.6296,65.8 Z M51.7848,65.8 C51.6567994,65.8 51.5480004,65.7552004 51.4584,65.6656 C51.3687996,65.5759996 51.324,65.4672006 51.324,65.3392 L51.324,52.84 C51.324,52.6991993 51.3655996,52.5840004 51.4488,52.4944 C51.5320004,52.4047996 51.6439993,52.36 51.7848,52.36 L60.252,52.36 C60.3928007,52.36 60.5079996,52.4047996 60.5976,52.4944 C60.6872004,52.5840004 60.732,52.6991993 60.732,52.84 L60.732,54.1264 C60.732,54.2672007 60.6872004,54.3791996 60.5976,54.4624 C60.5079996,54.5456004 60.3928007,54.5872 60.252,54.5872 L53.9544,54.5872 L53.9544,57.9472 L59.8296,57.9472 C59.9704007,57.9472 60.0855996,57.9919996 60.1752,58.0816 C60.2648004,58.1712004 60.3096,58.2863993 60.3096,58.4272 L60.3096,59.6368 C60.3096,59.7776007 60.2648004,59.8895996 60.1752,59.9728 C60.0855996,60.0560004 59.9704007,60.0976 59.8296,60.0976 L53.9544,60.0976 L53.9544,63.5728 L60.4056,63.5728 C60.5464007,63.5728 60.6615996,63.6143996 60.7512,63.6976 C60.8408004,63.7808004 60.8856,63.8927993 60.8856,64.0336 L60.8856,65.3392 C60.8856,65.4800007 60.8408004,65.5919996 60.7512,65.6752 C60.6615996,65.7584004 60.5464007,65.8 60.4056,65.8 L51.7848,65.8 Z" id="SALE" fill="#FFFFFF"></path>
                </g>
            </g>
        </g>
    </g>
</svg>