<?xml version="1.0" encoding="utf-8"?>
<!-- Generator: Adobe Illustrator 22.1.0, SVG Export Plug-In . SVG Version: 6.00 Build 0)  -->
<svg version="1.1" id="Layer_1" xmlns="http://www.w3.org/2000/svg" xmlns:xlink="http://www.w3.org/1999/xlink" x="0px" y="0px"
	 viewBox="0 0 142.7 59.6" style="enable-background:new 0 0 142.7 59.6;" xml:space="preserve">
<style type="text/css">
	.st0{fill:#481365;}
	.st1{fill:#5D2875;}
	.st2{fill:url(#SVGID_1_);}
	.st3{fill:url(#SVGID_2_);}
	.st4{fill:url(#SVGID_3_);}
</style>
<g>
	<g>
		<path class="st0" d="M80.5,18.1h2.9v3.5h-2.9c-2.9,0-4.3,1.2-4.3,3.5h7.1v3.5h-7.1v13.9h-4.3V25C71.9,20.4,74.8,18.1,80.5,18.1z"
			/>
		<path class="st0" d="M95.4,38.9h2.9v3.5h-2.9c-5.7,0-8.6-2.3-8.6-7V18.1h4.3v7h7.1v3.5h-7.1v7C91.1,37.8,92.5,38.9,95.4,38.9z"/>
		<path class="st0" d="M108.4,25h2.9c5.7,0,8.6,2.3,8.6,7v3.5h-15.7c0,2.3,1.4,3.5,4.3,3.5h8.6v3.5h-8.6c-5.7,0-8.6-2.3-8.6-7V32
			C99.9,27.3,102.7,25,108.4,25z M111.3,28.5h-2.9c-2.9,0-4.3,1.2-4.3,3.5h11.4C115.6,29.7,114.1,28.5,111.3,28.5z"/>
		<path class="st0" d="M133.8,25c5.7,0,8.6,2.3,8.6,7h-4.3c0-2.3-1.4-3.5-4.3-3.5h-2.9c-2.9,0-4.3,1.2-4.3,3.5v3.5
			c0,2.3,1.4,3.5,4.3,3.5h2.9c2.9,0,4.3-1.2,4.3-3.5h4.3c0,4.6-2.9,7-8.6,7h-2.9c-5.7,0-8.6-2.3-8.6-7V32c0-4.6,2.9-7,8.6-7H133.8z"
			/>
	</g>
	<g>
		<path class="st0" d="M71.9,48.6v-0.5h0.6v-0.5c0-0.3,0.1-0.5,0.3-0.7c0.2-0.2,0.4-0.2,0.7-0.2c0.1,0,0.1,0,0.2,0s0.1,0,0.2,0v0.5
			c-0.1,0-0.1,0-0.2,0s-0.1,0-0.2,0s-0.3,0-0.3,0.1s-0.1,0.2-0.1,0.3v0.5h0.7v0.5h-0.7v3.1h-0.6v-3.1C72.5,48.6,71.9,48.6,71.9,48.6
			z"/>
		<path class="st0" d="M74.4,47.4v-0.7H75v0.7H74.4z M75,48.1v3.6h-0.6v-3.6H75z"/>
		<path class="st0" d="M76.4,48.1v0.8l0,0c0.1-0.3,0.3-0.5,0.5-0.6s0.5-0.2,0.8-0.2v0.6c-0.2,0-0.4,0-0.6,0.1s-0.3,0.2-0.4,0.3
			s-0.2,0.3-0.2,0.5s-0.1,0.4-0.1,0.6v1.6h-0.6v-3.6L76.4,48.1L76.4,48.1z"/>
		<path class="st0" d="M78.7,50.9c0.1,0.1,0.1,0.2,0.2,0.2c0.1,0.1,0.2,0.1,0.3,0.1c0.1,0,0.2,0,0.4,0c0.1,0,0.2,0,0.3,0
			c0.1,0,0.2,0,0.3-0.1s0.2-0.1,0.2-0.2c0.1-0.1,0.1-0.2,0.1-0.3c0-0.2-0.1-0.3-0.2-0.3c-0.1-0.1-0.3-0.1-0.4-0.2
			c-0.2,0-0.4-0.1-0.6-0.1s-0.4-0.1-0.6-0.2c-0.2-0.1-0.3-0.2-0.4-0.3S78,49.3,78,49c0-0.2,0-0.3,0.1-0.5c0.1-0.1,0.2-0.2,0.3-0.3
			c0.1-0.1,0.3-0.1,0.4-0.2c0.2,0,0.3-0.1,0.5-0.1s0.4,0,0.6,0.1c0.2,0,0.3,0.1,0.5,0.2c0.1,0.1,0.2,0.2,0.3,0.3
			c0.1,0.1,0.1,0.3,0.1,0.5h-0.6c0-0.1,0-0.2-0.1-0.3s-0.1-0.1-0.2-0.2c-0.1,0-0.2-0.1-0.3-0.1c-0.1,0-0.2,0-0.3,0
			c-0.1,0-0.2,0-0.3,0c-0.1,0-0.2,0-0.2,0.1c-0.1,0-0.1,0.1-0.2,0.1s-0.1,0.1-0.1,0.2c0,0.1,0,0.2,0.1,0.3s0.2,0.1,0.3,0.2
			c0.1,0,0.2,0.1,0.4,0.1c0.1,0,0.3,0.1,0.4,0.1s0.3,0.1,0.4,0.1s0.3,0.1,0.4,0.2c0.1,0.1,0.2,0.2,0.3,0.3c0.1,0.1,0.1,0.3,0.1,0.4
			c0,0.2,0,0.4-0.1,0.5s-0.2,0.3-0.4,0.3s-0.3,0.1-0.5,0.2s-0.4,0.1-0.5,0.1c-0.2,0-0.4,0-0.6-0.1c-0.2,0-0.3-0.1-0.5-0.2
			c-0.1-0.1-0.3-0.2-0.3-0.4c0,0.1,0-0.1,0-0.3h0.6C78.6,50.7,78.6,50.8,78.7,50.9z"/>
		<path class="st0" d="M83.2,48.1v0.5h-0.7v2.2c0,0.1,0,0.1,0,0.2s0,0.1,0.1,0.1s0.1,0,0.1,0c0.1,0,0.1,0,0.2,0h0.3v0.5h-0.5
			c-0.2,0-0.3,0-0.4,0s-0.2-0.1-0.3-0.1s0-0.1,0-0.2c0-0.1,0-0.2,0-0.4v-2.3h-0.6v-0.5H82V47h0.6v1.1H83.2z"/>
		<path class="st0" d="M87.4,48.1v0.5h-0.7v2.2c0,0.1,0,0.1,0,0.2s0,0.1,0.1,0.1s0.1,0,0.1,0c0.1,0,0.1,0,0.2,0h0.3v0.5h-0.5
			c-0.2,0-0.3,0-0.4,0s-0.2-0.1-0.3-0.1s-0.1-0.1-0.1-0.2c0-0.1,0-0.2,0-0.4v-2.3h-0.6v-0.5H86V47h0.6v1.1H87.4z"/>
		<path class="st0" d="M88.5,48.1v0.8l0,0c0.1-0.3,0.3-0.5,0.5-0.6s0.5-0.2,0.8-0.2v0.6c-0.2,0-0.4,0-0.6,0.1S89,48.9,88.9,49
			s-0.2,0.3-0.2,0.5s-0.1,0.4-0.1,0.6v1.6H88v-3.6H88.5z"/>
		<path class="st0" d="M93.5,51.7c-0.1,0.1-0.2,0.1-0.4,0.1c-0.2,0-0.3,0-0.4-0.1s-0.1-0.2-0.1-0.4c-0.2,0.2-0.4,0.3-0.6,0.4
			c-0.2,0.1-0.4,0.1-0.7,0.1c-0.2,0-0.3,0-0.5-0.1c-0.1,0-0.3-0.1-0.4-0.2c-0.1-0.1-0.2-0.2-0.3-0.3C90,51.1,90,50.9,90,50.7
			s0-0.4,0.1-0.5s0.2-0.2,0.3-0.3c0.1-0.1,0.2-0.1,0.4-0.2s0.3-0.1,0.4-0.1c0.2,0,0.3-0.1,0.5-0.1s0.3,0,0.4-0.1
			c0.1,0,0.2-0.1,0.3-0.1c0.1-0.1,0.1-0.1,0.1-0.3c0-0.1,0-0.2-0.1-0.3c0-0.1-0.1-0.1-0.2-0.2c-0.1,0-0.2-0.1-0.3-0.1
			c-0.1,0-0.2,0-0.3,0c-0.3,0-0.5,0-0.6,0.1c-0.2,0.1-0.3,0.3-0.3,0.5h-0.6c0-0.2,0.1-0.4,0.1-0.6c0.1-0.2,0.2-0.3,0.3-0.4
			c0.1-0.1,0.3-0.2,0.5-0.2s0.4-0.1,0.6-0.1s0.3,0,0.5,0s0.3,0.1,0.4,0.1c0.1,0.1,0.2,0.2,0.3,0.3s0.1,0.3,0.1,0.5v1.8
			c0,0.1,0,0.2,0,0.3s0.1,0.1,0.2,0.1s0.1,0,0.2,0v0.9H93.5z M92.6,49.8c-0.1,0.1-0.2,0.1-0.3,0.1S92,50,91.9,50s-0.3,0-0.4,0.1
			s-0.3,0.1-0.4,0.1s-0.2,0.1-0.3,0.2c-0.1,0.1-0.1,0.2-0.1,0.4c0,0.1,0,0.2,0.1,0.2c0,0.1,0.1,0.1,0.2,0.2c0.1,0,0.1,0.1,0.2,0.1
			s0.2,0,0.3,0c0.2,0,0.4,0,0.5-0.1s0.3-0.1,0.3-0.2c0.1-0.1,0.2-0.2,0.2-0.3s0.1-0.2,0.1-0.3C92.6,50.4,92.6,49.8,92.6,49.8z"/>
		<path class="st0" d="M96.7,51.7v-0.5l0,0c-0.1,0.2-0.3,0.3-0.5,0.4s-0.4,0.1-0.7,0.1c-0.3,0-0.5-0.1-0.7-0.2
			c-0.2-0.1-0.4-0.2-0.5-0.4s-0.2-0.4-0.3-0.6s-0.1-0.5-0.1-0.7c0-0.3,0-0.5,0.1-0.7s0.2-0.4,0.3-0.6s0.3-0.3,0.5-0.4
			C95,48,95.2,48,95.5,48c0.1,0,0.2,0,0.3,0c0.1,0,0.2,0.1,0.3,0.1c0.1,0,0.2,0.1,0.3,0.2c0.1,0.1,0.2,0.2,0.2,0.3l0,0v-1.9h0.6v5
			C97.2,51.7,96.7,51.7,96.7,51.7z M94.6,50.4c0,0.2,0.1,0.3,0.2,0.4c0.1,0.1,0.2,0.2,0.3,0.3c0.1,0.1,0.3,0.1,0.5,0.1
			s0.4,0,0.5-0.1s0.3-0.2,0.3-0.3c0.1-0.1,0.2-0.3,0.2-0.4c0-0.2,0.1-0.3,0.1-0.5s0-0.3-0.1-0.5c0-0.2-0.1-0.3-0.2-0.4
			s-0.2-0.2-0.4-0.3c-0.1-0.1-0.3-0.1-0.5-0.1s-0.4,0-0.5,0.1s-0.3,0.2-0.3,0.3c-0.1,0.1-0.1,0.3-0.2,0.4s-0.1,0.3-0.1,0.5
			C94.5,50.1,94.5,50.3,94.6,50.4z"/>
		<path class="st0" d="M98.2,47.4v-0.7h0.6v0.7H98.2z M98.8,48.1v3.6h-0.6v-3.6H98.8z"/>
		<path class="st0" d="M100.3,48.1v0.6l0,0c0.2-0.4,0.6-0.7,1.2-0.7c0.2,0,0.4,0,0.6,0.1s0.3,0.2,0.4,0.3s0.2,0.3,0.2,0.4
			c0,0.2,0.1,0.3,0.1,0.5v2.4h-0.6v-2.4c0-0.2-0.1-0.4-0.2-0.5s-0.3-0.2-0.5-0.2s-0.3,0-0.5,0.1c-0.1,0.1-0.2,0.1-0.3,0.2
			c-0.1,0.1-0.2,0.2-0.2,0.4c0,0.1-0.1,0.3-0.1,0.4v2h-0.6v-3.6H100.3z"/>
		<path class="st0" d="M106.3,52.7c-0.3,0.3-0.7,0.4-1.3,0.4c-0.2,0-0.3,0-0.5-0.1s-0.3-0.1-0.5-0.2c-0.1-0.1-0.3-0.2-0.4-0.3
			s-0.1-0.3-0.2-0.5h0.6c0,0.1,0,0.2,0.1,0.3s0.1,0.1,0.2,0.2c0.1,0,0.2,0.1,0.3,0.1c0.1,0,0.2,0,0.3,0c0.2,0,0.4,0,0.5-0.1
			s0.2-0.2,0.3-0.3s0.2-0.3,0.2-0.4c0-0.2,0.1-0.4,0.1-0.5v-0.2l0,0c-0.1,0.2-0.3,0.4-0.5,0.5s-0.4,0.2-0.7,0.2
			c-0.3,0-0.5,0-0.7-0.1s-0.4-0.2-0.5-0.4s-0.2-0.4-0.3-0.6s-0.1-0.5-0.1-0.7s0-0.4,0.1-0.7c0.1-0.2,0.1-0.4,0.3-0.6
			c0.1-0.2,0.3-0.3,0.5-0.5c0.2-0.1,0.5-0.2,0.8-0.2c0.2,0,0.4,0,0.6,0.1s0.3,0.2,0.4,0.4l0,0V48h0.6v3.3
			C106.7,52,106.6,52.4,106.3,52.7z M105.6,51.1c0.1-0.1,0.2-0.2,0.3-0.3c0.1-0.1,0.1-0.3,0.2-0.4c0-0.2,0.1-0.3,0.1-0.5
			s0-0.3-0.1-0.5s-0.1-0.3-0.2-0.4s-0.2-0.2-0.3-0.3c-0.1-0.1-0.3-0.1-0.5-0.1s-0.4,0-0.5,0.1s-0.2,0.2-0.3,0.3
			c-0.1,0.1-0.1,0.3-0.2,0.4c0,0.2-0.1,0.3-0.1,0.5s0,0.3,0,0.5s0.1,0.3,0.2,0.4c0.1,0.1,0.2,0.2,0.3,0.3s0.3,0.1,0.5,0.1
			C105.3,51.2,105.4,51.2,105.6,51.1z"/>
		<path class="st0" d="M112.1,51.5c-0.3,0.2-0.6,0.3-1,0.3c-0.3,0-0.5,0-0.7-0.1s-0.4-0.2-0.5-0.4s-0.3-0.4-0.3-0.6
			c-0.1-0.2-0.1-0.5-0.1-0.8s0-0.5,0.1-0.8c0.1-0.2,0.2-0.4,0.4-0.6c0.2-0.2,0.3-0.3,0.5-0.4c0.2-0.1,0.4-0.1,0.7-0.1
			c0.3,0,0.6,0.1,0.8,0.2c0.2,0.1,0.4,0.3,0.5,0.5s0.2,0.4,0.3,0.7c0,0.2,0.1,0.5,0.1,0.7H110c0,0.2,0,0.3,0.1,0.4s0.1,0.3,0.2,0.4
			s0.2,0.2,0.4,0.3c0.1,0.1,0.3,0.1,0.5,0.1s0.5-0.1,0.6-0.2s0.3-0.3,0.3-0.5h0.6C112.6,51,112.4,51.3,112.1,51.5z M112,49.1
			c-0.1-0.1-0.1-0.2-0.2-0.3s-0.2-0.2-0.3-0.2s-0.3-0.1-0.4-0.1c-0.2,0-0.3,0-0.4,0.1s-0.2,0.1-0.3,0.2c-0.1,0.1-0.2,0.2-0.2,0.3
			c-0.1,0.1-0.1,0.3-0.1,0.4h2.1C112.1,49.4,112,49.3,112,49.1z"/>
		<path class="st0" d="M115.5,48.7c-0.1-0.1-0.3-0.2-0.6-0.2c-0.2,0-0.4,0-0.5,0.1s-0.3,0.2-0.3,0.3c-0.1,0.1-0.1,0.3-0.2,0.4
			c0,0.2-0.1,0.3-0.1,0.5s0,0.3,0.1,0.5c0,0.2,0.1,0.3,0.2,0.4c0.1,0.1,0.2,0.2,0.3,0.3c0.1,0.1,0.3,0.1,0.5,0.1
			c0.3,0,0.5-0.1,0.7-0.2s0.3-0.4,0.3-0.6h0.6c-0.1,0.4-0.2,0.8-0.5,1s-0.6,0.4-1.1,0.4c-0.3,0-0.5,0-0.7-0.1s-0.4-0.2-0.5-0.4
			s-0.2-0.4-0.3-0.6c-0.1-0.2-0.1-0.5-0.1-0.7s0-0.5,0.1-0.8s0.2-0.4,0.3-0.6c0.1-0.2,0.3-0.3,0.5-0.4c0.2-0.1,0.5-0.1,0.7-0.1
			s0.4,0,0.6,0.1s0.3,0.1,0.5,0.2c0.1,0.1,0.2,0.2,0.3,0.4c0.1,0.2,0.1,0.3,0.2,0.6h-0.6C115.7,49,115.6,48.8,115.5,48.7z"/>
		<path class="st0" d="M117,49.1c0.1-0.2,0.2-0.4,0.3-0.6c0.1-0.2,0.3-0.3,0.6-0.4s0.5-0.1,0.8-0.1s0.5,0,0.8,0.1s0.4,0.2,0.5,0.4
			s0.3,0.4,0.3,0.6c0.1,0.2,0.1,0.5,0.1,0.7s0,0.5-0.1,0.7s-0.2,0.4-0.3,0.6c-0.1,0.2-0.3,0.3-0.5,0.4c-0.2,0.1-0.5,0.1-0.8,0.1
			s-0.5,0-0.8-0.1c-0.2-0.1-0.4-0.2-0.6-0.4c-0.1-0.2-0.3-0.4-0.3-0.6s-0.1-0.5-0.1-0.7S116.9,49.4,117,49.1z M117.6,50.5
			c0.1,0.2,0.1,0.3,0.2,0.4c0.1,0.1,0.2,0.2,0.4,0.3c0.1,0.1,0.3,0.1,0.4,0.1s0.3,0,0.4-0.1s0.3-0.1,0.4-0.3
			c0.1-0.1,0.2-0.3,0.2-0.4s0.1-0.4,0.1-0.6c0-0.2,0-0.4-0.1-0.6c-0.1-0.2-0.1-0.3-0.2-0.4c-0.1-0.1-0.2-0.2-0.4-0.3
			c-0.1-0.1-0.3-0.1-0.4-0.1s-0.3,0-0.4,0.1s-0.3,0.1-0.4,0.3c-0.1,0.1-0.2,0.3-0.2,0.4c-0.1,0.2-0.1,0.4-0.1,0.6
			S117.5,50.3,117.6,50.5z"/>
		<path class="st0" d="M121.5,50.9c0.1,0.1,0.1,0.2,0.2,0.2c0.1,0.1,0.2,0.1,0.3,0.1c0.1,0,0.2,0,0.4,0c0.1,0,0.2,0,0.3,0
			c0.1,0,0.2,0,0.3-0.1s0.2-0.1,0.2-0.2c0.1-0.1,0.1-0.2,0.1-0.3c0-0.2-0.1-0.3-0.2-0.3c-0.1-0.1-0.3-0.1-0.4-0.2
			c-0.2,0-0.4-0.1-0.6-0.1s-0.4-0.1-0.6-0.2c-0.2-0.1-0.3-0.2-0.4-0.3s-0.2-0.3-0.2-0.5s0-0.3,0.1-0.5c0.1-0.1,0.2-0.2,0.3-0.3
			c0.1-0.1,0.3-0.1,0.4-0.2c0.2,0,0.3-0.1,0.5-0.1s0.4,0,0.6,0.1c0.2,0,0.3,0.1,0.5,0.2c0.1,0.1,0.2,0.2,0.3,0.3
			c0.1,0.1,0.1,0.3,0.1,0.5h-0.6c0-0.1,0-0.2-0.1-0.3s-0.1-0.1-0.2-0.2c-0.1,0-0.2-0.1-0.3-0.1c-0.1,0-0.2,0-0.3,0
			c-0.1,0-0.2,0-0.3,0c-0.1,0-0.2,0-0.2,0.1c-0.1,0-0.1,0.1-0.2,0.1s-0.1,0.1-0.1,0.2c0,0.1,0,0.2,0.1,0.3s0.2,0.1,0.3,0.2
			c0.1,0,0.2,0.1,0.4,0.1c0.1,0,0.3,0.1,0.4,0.1s0.3,0.1,0.4,0.1s0.3,0.1,0.4,0.2c0.1,0.1,0.2,0.2,0.3,0.3c0.1,0.1,0.1,0.3,0.1,0.4
			c0,0.2,0,0.4-0.1,0.5s-0.2,0.3-0.4,0.3s-0.3,0.1-0.5,0.2s-0.4,0.1-0.5,0.1c-0.2,0-0.4,0-0.6-0.1c-0.2,0-0.3-0.1-0.5-0.2
			c-0.1-0.1-0.3-0.2-0.3-0.4c-0.1-0.2-0.1-0.3-0.1-0.6h0.6C121.4,50.7,121.4,50.8,121.5,50.9z"/>
		<path class="st0" d="M125.9,52.2c-0.1,0.2-0.1,0.3-0.2,0.4s-0.1,0.2-0.2,0.3s-0.2,0.1-0.3,0.2c-0.1,0-0.2,0.1-0.3,0.1
			c-0.1,0-0.1,0-0.2,0s-0.1,0-0.2,0v-0.5c0.1,0,0.1,0,0.2,0.1c0.1,0,0.1,0,0.2,0s0.2,0,0.3-0.1c0.1-0.1,0.1-0.1,0.2-0.2l0.2-0.6
			l-1.4-3.6h0.7l1.1,2.9l0,0l1-2.9h0.6L125.9,52.2z"/>
		<path class="st0" d="M128.5,50.9c0.1,0.1,0.1,0.2,0.2,0.2c0.1,0.1,0.2,0.1,0.3,0.1s0.2,0,0.4,0c0.1,0,0.2,0,0.3,0s0.2,0,0.3-0.1
			s0.2-0.1,0.2-0.2c0.1-0.1,0.1-0.2,0.1-0.3c0-0.2-0.1-0.3-0.2-0.3c-0.1-0.1-0.3-0.1-0.4-0.2c-0.2,0-0.4-0.1-0.6-0.1
			c-0.2,0-0.4-0.1-0.6-0.2c-0.2-0.1-0.3-0.2-0.4-0.3c-0.1-0.1-0.2-0.3-0.2-0.5s0-0.3,0.1-0.5c0.1-0.1,0.2-0.2,0.3-0.3
			s0.3-0.1,0.4-0.2c0.2,0,0.3-0.1,0.5-0.1s0.4,0,0.6,0.1c0.2,0,0.3,0.1,0.5,0.2c0.1,0.1,0.2,0.2,0.3,0.3s0.1,0.3,0.1,0.5h-0.6
			c0-0.1,0-0.2-0.1-0.3s-0.1-0.1-0.2-0.2c-0.1,0-0.2-0.1-0.3-0.1s-0.2,0-0.3,0s-0.2,0-0.3,0s-0.2,0-0.2,0.1c-0.1,0-0.1,0.1-0.2,0.1
			s-0.1,0.1-0.1,0.2c0,0.1,0,0.2,0.1,0.3s0.2,0.1,0.3,0.2c0.1,0,0.2,0.1,0.4,0.1c0.1,0,0.3,0.1,0.4,0.1c0.1,0,0.3,0.1,0.4,0.1
			c0.1,0,0.3,0.1,0.4,0.2c0.1,0.1,0.2,0.2,0.3,0.3s0.1,0.3,0.1,0.4c0,0.2,0,0.4-0.1,0.5s-0.2,0.3-0.4,0.3s-0.3,0.1-0.5,0.2
			s-0.4,0.1-0.5,0.1c-0.2,0-0.4,0-0.6-0.1c-0.2,0-0.3-0.1-0.5-0.2c-0.1-0.1-0.3-0.2-0.3-0.4c-0.1-0.2-0.1-0.3-0.1-0.6h0.6
			C128.4,50.7,128.4,50.8,128.5,50.9z"/>
		<path class="st0" d="M133,48.1v0.5h-0.7v2.2c0,0.1,0,0.1,0,0.2s0,0.1,0.1,0.1s0.1,0,0.1,0c0.1,0,0.1,0,0.2,0h0.3v0.5h-0.5
			c-0.2,0-0.3,0-0.4,0c-0.1,0-0.2-0.1-0.3-0.1s-0.1-0.1-0.1-0.2c0-0.1,0-0.2,0-0.4v-2.3h-0.6v-0.5h0.6V47h0.6v1.1H133z"/>
		<path class="st0" d="M136.2,51.5c-0.3,0.2-0.6,0.3-1,0.3c-0.3,0-0.5,0-0.7-0.1s-0.4-0.2-0.5-0.4s-0.3-0.4-0.3-0.6
			c-0.1-0.2-0.1-0.5-0.1-0.8s0-0.5,0.1-0.8c0.1-0.2,0.2-0.4,0.4-0.6c0.2-0.2,0.3-0.3,0.5-0.4c0.2-0.1,0.4-0.1,0.7-0.1
			s0.6,0.1,0.8,0.2c0.2,0.1,0.4,0.3,0.5,0.5s0.2,0.4,0.3,0.7c0,0.2,0.1,0.5,0.1,0.7h-2.7c0,0.2,0,0.3,0.1,0.4s0.1,0.3,0.2,0.4
			s0.2,0.2,0.4,0.3c0.1,0.1,0.3,0.1,0.5,0.1s0.5-0.1,0.6-0.2s0.3-0.3,0.3-0.5h0.6C136.7,51,136.5,51.3,136.2,51.5z M136.1,49.1
			c-0.1-0.1-0.1-0.2-0.2-0.3c-0.1-0.1-0.2-0.2-0.3-0.2s-0.3-0.1-0.4-0.1c-0.2,0-0.3,0-0.4,0.1s-0.2,0.1-0.3,0.2
			c-0.1,0.1-0.2,0.2-0.2,0.3c-0.1,0.1-0.1,0.3-0.1,0.4h2.1C136.2,49.4,136.1,49.3,136.1,49.1z"/>
		<path class="st0" d="M138,48.1v0.5l0,0c0.3-0.4,0.7-0.6,1.2-0.6c0.2,0,0.4,0,0.6,0.1c0.2,0.1,0.3,0.2,0.4,0.5
			c0.1-0.2,0.3-0.3,0.5-0.5s0.4-0.2,0.7-0.2c0.2,0,0.3,0,0.5,0.1c0.1,0,0.3,0.1,0.4,0.2c0.1,0.1,0.2,0.2,0.2,0.3
			c0.1,0.1,0.1,0.3,0.1,0.5v2.6H142v-2.4c0-0.1,0-0.2,0-0.3s-0.1-0.2-0.1-0.3s-0.1-0.1-0.2-0.2c-0.1,0-0.2-0.1-0.4-0.1
			c-0.3,0-0.5,0.1-0.7,0.3s-0.3,0.4-0.3,0.7v2.2h-0.6v-2.4c0-0.1,0-0.2,0-0.3s-0.1-0.2-0.1-0.3s-0.1-0.1-0.2-0.2
			c-0.1,0-0.2-0.1-0.3-0.1c-0.2,0-0.3,0-0.4,0.1c-0.1,0.1-0.2,0.2-0.3,0.3s-0.1,0.2-0.2,0.3c0,0.1-0.1,0.2-0.1,0.3v2.2h-0.6v-3.6
			h0.5V48.1z"/>
	</g>
	<g>
		
			<ellipse transform="matrix(5.246801e-02 -0.9986 0.9986 5.246801e-02 13.24 30.3387)" class="st1" cx="22.6" cy="8.2" rx="3.8" ry="11.4"/>
		
			<linearGradient id="SVGID_1_" gradientUnits="userSpaceOnUse" x1="29.3826" y1="28.6262" x2="71.1448" y2="46.5878" gradientTransform="matrix(1 0 0 -1 0 62)">
			<stop  offset="0" style="stop-color:#1DCEC8"/>
			<stop  offset="9.343474e-02" style="stop-color:#20C6C5"/>
			<stop  offset="0.2416" style="stop-color:#29AFBD"/>
			<stop  offset="0.4261" style="stop-color:#3789B0"/>
			<stop  offset="0.6376" style="stop-color:#4B569E"/>
			<stop  offset="0.7876" style="stop-color:#5A2D90"/>
		</linearGradient>
		<path class="st2" d="M59,27.2c-0.3,2.6-6.1,4.1-12.9,3.3c-6.8-0.8-12-3.7-11.7-6.3c0.6-1.7,6.1-4.1,12.9-3.3
			C54.1,21.8,59.4,24.6,59,27.2z"/>
		
			<linearGradient id="SVGID_2_" gradientUnits="userSpaceOnUse" x1="22.6125" y1="6.625" x2="56.7172" y2="18.1253" gradientTransform="matrix(1 0 0 -1 0 62)">
			<stop  offset="0" style="stop-color:#1DCEC8"/>
			<stop  offset="0.1698" style="stop-color:#25B9C1"/>
			<stop  offset="0.5224" style="stop-color:#3A81AD"/>
			<stop  offset="1" style="stop-color:#5A2D90"/>
		</linearGradient>
		<path class="st3" d="M50.7,50.1c-0.1,2.1-5.3,3.5-11.6,3.2S26.7,50.5,28,48.9c0.9-1.2,5.3-3.5,11.6-3.2S50.8,48,50.7,50.1z"/>
		<ellipse transform="matrix(0.1416 -0.9899 0.9899 0.1416 -20.6426 40.3827)" class="st1" cx="13" cy="32.1" rx="4.7" ry="12.7"/>
		
			<radialGradient id="SVGID_3_" cx="409.9199" cy="-1139.8942" r="38.0618" gradientTransform="matrix(0.9137 0.4064 0.4064 -0.9137 123.3053 -1190.3386)" gradientUnits="userSpaceOnUse">
			<stop  offset="0.142" style="stop-color:#1DCEC8"/>
			<stop  offset="0.2877" style="stop-color:#25B9C1"/>
			<stop  offset="0.5902" style="stop-color:#3A81AD"/>
			<stop  offset="1" style="stop-color:#5A2D90"/>
		</radialGradient>
		<path class="st4" d="M47.3,19.9c3.3,0.8,6.8,0.6,9.3,0.2c0.3,0,0.8-0.2,0.5-1.3C54.3,12,49,6.2,41.7,2.9c-9.5-4.2-20-3-28.1,2.3
			c-0.5,0.4-1.5,1-2,1.5c1.8-1.1,6.8-0.5,11.1,0.6C32,9.7,40.9,18.4,47.3,19.9z M13.3,39.4c-4.5-1.6-8.5-1.7-10.9-1.6
			c-1,0.1-0.9,0.8-0.8,1.1c2.5,7.7,8.1,14.4,16.1,17.9c11.3,5,24.1,2.4,32.5-5.7C48.3,52.6,39.7,53,32.5,50
			C25,46.9,20.5,42,13.3,39.4z M58.9,26.3c0,0.6-1.4,1.3-2.5,1.4c-2.9,0.4-7,0.5-11.7-0.9C35.9,24.2,28,15.9,19.3,14
			C13.5,12.8,8.6,13.2,6,13.6c-1,0.1-1.5,0.9-1.7,1.3c-0.6,1-1.1,1.9-1.5,3c-1.5,3.4-2.3,6.8-2.5,10.3c0,0.6-0.1,3,0.5,3.6
			c-0.4-0.7,1.7-3,14,0.2c10.5,2.9,16.7,11.7,26.9,13c7.1,0.9,10.8-0.2,13.3-1.3c1.2-0.6,1.5-1.3,1.7-1.8c2-4.4,2.7-9,2.5-13.5
			C59.2,28,59.1,26.9,58.9,26.3z"/>
	</g>
</g>
</svg>
