<?xml version="1.0" encoding="UTF-8"?>
<svg width="286px" height="407px" viewBox="0 0 286 407" version="1.1" xmlns="http://www.w3.org/2000/svg" xmlns:xlink="http://www.w3.org/1999/xlink">
    <!-- Generator: Sketch 48.2 (47327) - http://www.bohemiancoding.com/sketch -->
    <title>Group 4</title>
    <desc>Created with Sketch.</desc>
    <defs>
        <radialGradient cx="58.1060636%" cy="29.662234%" fx="58.1060636%" fy="29.662234%" r="64.6339963%" gradientTransform="translate(0.581061,0.296622),scale(0.999751,1.000000),translate(-0.581061,-0.296622)" id="radialGradient-1">
            <stop stop-color="#1DCEC8" offset="14.2%"></stop>
            <stop stop-color="#25B9C1" offset="28.77%"></stop>
            <stop stop-color="#3A81AD" offset="59.02%"></stop>
            <stop stop-color="#5A2D90" offset="100%"></stop>
        </radialGradient>
    </defs>
    <g id="1-1-1-Сryptoguys-Landing" stroke="none" stroke-width="1" fill="none" fill-rule="evenodd" transform="translate(-353.000000, -8006.000000)">
        <g id="Token" transform="translate(160.000000, 7751.000000)" fill-rule="nonzero">
            <g id="logo" transform="translate(193.000000, 255.000000)">
                <g id="Group-4">
                    <g id="logo" transform="translate(0.000000, 265.000000)" fill="#FFFFFF">
                        <g id="Group">
                            <path d="M34.8822349,0.0721094644 L46.6090051,0.0721094644 L46.6090051,14.2055645 L34.8822349,14.2055645 C23.1554646,14.2055645 17.4942652,19.0513205 17.4942652,28.3390195 L46.2046337,28.3390195 L46.2046337,42.4724745 L17.4942652,42.4724745 L17.4942652,98.6024816 L0.106295567,98.6024816 L0.106295567,28.3390195 C0.510666954,9.35980848 11.8330658,0.0721094644 34.8822349,0.0721094644 Z" id="Shape"></path>
                            <path d="M95.1335716,84.4690266 L106.860342,84.4690266 L106.860342,98.6024816 L95.1335716,98.6024816 C72.0844025,98.6024816 60.3576323,89.3147826 60.3576323,70.3355716 L60.3576323,0.0721094644 L77.7456019,0.0721094644 L77.7456019,28.3390195 L106.45597,28.3390195 L106.45597,42.4724745 L77.7456019,42.4724745 L77.7456019,70.7393846 C77.7456019,79.6232706 83.4068013,84.4690266 95.1335716,84.4690266 Z" id="Shape"></path>
                            <path d="M148.106223,28.3390195 L159.832994,28.3390195 C182.882163,28.3390195 194.608933,37.6267185 194.608933,56.6059296 L194.608933,70.7393846 L131.122625,70.7393846 C131.122625,80.0270836 136.783824,84.8728396 148.510595,84.8728396 L183.286534,84.8728396 L183.286534,99.0062946 L148.106223,99.0062946 C125.057054,99.0062946 113.330284,89.7185956 113.330284,70.7393846 L113.330284,56.6059296 C113.330284,37.6267185 125.057054,28.3390195 148.106223,28.3390195 Z M159.428622,42.4724745 L148.106223,42.4724745 C136.379453,42.4724745 130.718254,47.3182305 130.718254,56.6059296 L176.816592,56.6059296 C176.816592,46.9144175 171.155392,42.4724745 159.428622,42.4724745 Z" id="Shape"></path>
                            <path d="M250.412184,28.3390195 C273.461353,28.3390195 285.188124,37.6267185 285.188124,56.6059296 L267.800154,56.6059296 C267.800154,47.3182305 262.138955,42.4724745 250.412184,42.4724745 L238.685414,42.4724745 C226.958644,42.4724745 221.297444,47.3182305 221.297444,56.6059296 L221.297444,70.7393846 C221.297444,80.0270836 226.958644,84.8728396 238.685414,84.8728396 L250.412184,84.8728396 C262.138955,84.8728396 267.800154,80.0270836 267.800154,70.7393846 L285.188124,70.7393846 C285.188124,89.3147826 273.461353,99.0062946 250.412184,99.0062946 L238.685414,99.0062946 C215.636245,99.0062946 203.909475,89.7185956 203.909475,70.7393846 L203.909475,56.6059296 C203.909475,38.0305315 215.636245,28.3390195 238.685414,28.3390195 L250.412184,28.3390195 Z" id="Shape"></path>
                        </g>
                        <g id="Group" transform="translate(0.147770, 115.599338)">
                            <path d="M0.362897399,8.03954974 L0.362897399,6.02048474 L2.78912572,6.02048474 L2.78912572,4.00141973 C2.78912572,2.78998073 3.19349711,1.98235473 4.00223988,1.17472873 C4.81098266,0.367102728 5.61972543,0.367102728 6.8328396,0.367102728 C7.23721098,0.367102728 7.23721098,0.367102728 7.64158237,0.367102728 C8.04595376,0.367102728 8.04595376,0.367102728 8.45032514,0.367102728 L8.45032514,2.38616773 C8.04595376,2.38616773 8.04595376,2.38616773 7.64158237,2.38616773 C7.23721098,2.38616773 7.23721098,2.38616773 6.8328396,2.38616773 C6.42846821,2.38616773 5.61972543,2.38616773 5.61972543,2.78998073 C5.61972543,3.19379373 5.21535405,3.59760673 5.21535405,4.00141973 L5.21535405,6.02048474 L8.04595376,6.02048474 L8.04595376,8.03954974 L5.21535405,8.03954974 L5.21535405,20.5577528 L2.78912572,20.5577528 L2.78912572,8.03954974 L0.362897399,8.03954974 Z" id="Shape"></path>
                            <path d="M10.0678107,3.19379373 L10.0678107,0.367102728 L12.494039,0.367102728 L12.494039,3.19379373 L10.0678107,3.19379373 Z M12.494039,5.61667174 L12.494039,20.1539398 L10.0678107,20.1539398 L10.0678107,5.61667174 L12.494039,5.61667174 Z" id="Shape"></path>
                            <path d="M18.5596098,5.61667174 L18.5596098,8.84717574 C18.9639812,7.63573674 19.772724,6.82811074 20.5814668,6.42429774 C21.3902095,6.02048474 22.6033237,5.61667174 23.8164379,5.61667174 L23.8164379,8.03954974 C23.0076951,8.03954974 22.1989523,8.03954974 21.3902095,8.44336274 C20.5814668,8.84717574 20.1770954,9.25098874 19.772724,9.65480174 C19.3683526,10.0586147 18.9639812,10.8662407 18.9639812,11.6738667 C18.9639812,12.4814927 18.5596098,13.2891188 18.5596098,14.0967448 L18.5596098,20.5577528 L16.1333815,20.5577528 L16.1333815,6.02048474 L18.5596098,6.02048474 L18.5596098,5.61667174 Z" id="Shape"></path>
                            <path d="M27.4557803,16.9234358 C27.8601517,17.3272488 27.8601517,17.7310618 28.2645231,17.7310618 C28.6688945,18.1348748 29.0732659,18.1348748 29.4776373,18.1348748 C29.8820087,18.1348748 30.2863801,18.1348748 31.0951228,18.1348748 C31.4994942,18.1348748 31.9038656,18.1348748 32.308237,18.1348748 C32.7126084,18.1348748 33.1169798,18.1348748 33.5213512,17.7310618 C33.9257225,17.3272488 34.3300939,17.3272488 34.3300939,16.9234358 C34.7344653,16.5196228 34.7344653,16.1158098 34.7344653,15.7119968 C34.7344653,14.9043708 34.3300939,14.5005578 33.9257225,14.5005578 C33.5213512,14.0967448 32.7126084,14.0967448 32.308237,13.6929318 C31.4994942,13.6929318 30.6907514,13.2891188 29.8820087,13.2891188 C29.0732659,13.2891188 28.2645231,12.8853057 27.4557803,12.4814927 C26.6470376,12.0776797 26.2426662,11.6738667 25.8382948,11.2700537 C25.4339234,10.8662407 25.029552,10.0586147 25.029552,9.25098874 C25.029552,8.44336274 25.029552,8.03954974 25.4339234,7.23192374 C25.8382948,6.82811074 26.2426662,6.42429774 26.6470376,6.02048474 C27.051409,5.61667174 27.8601517,5.61667174 28.2645231,5.21285874 C29.0732659,5.21285874 29.4776373,4.80904574 30.2863801,4.80904574 C31.0951228,4.80904574 31.9038656,4.80904574 32.7126084,5.21285874 C33.5213512,5.21285874 33.9257225,5.61667174 34.7344653,6.02048474 C35.1388367,6.42429774 35.5432081,6.82811074 35.9475795,7.23192374 C36.3519509,7.63573674 36.3519509,8.44336274 36.3519509,9.25098874 L33.9257225,9.25098874 C33.9257225,8.84717574 33.9257225,8.44336274 33.5213512,8.03954974 C33.1169798,7.63573674 33.1169798,7.63573674 32.7126084,7.23192374 C32.308237,7.23192374 31.9038656,6.82811074 31.4994942,6.82811074 C31.0951228,6.82811074 30.6907514,6.82811074 30.2863801,6.82811074 C29.8820087,6.82811074 29.4776373,6.82811074 29.0732659,6.82811074 C28.6688945,6.82811074 28.2645231,6.82811074 28.2645231,7.23192374 C27.8601517,7.23192374 27.8601517,7.63573674 27.4557803,7.63573674 C27.051409,7.63573674 27.051409,8.03954974 27.051409,8.44336274 C27.051409,8.84717574 27.051409,9.25098874 27.4557803,9.65480174 C27.8601517,10.0586147 28.2645231,10.0586147 28.6688945,10.4624277 C29.0732659,10.4624277 29.4776373,10.8662407 30.2863801,10.8662407 C30.6907514,10.8662407 31.4994942,11.2700537 31.9038656,11.2700537 C32.308237,11.2700537 33.1169798,11.6738667 33.5213512,11.6738667 C33.9257225,11.6738667 34.7344653,12.0776797 35.1388367,12.4814927 C35.5432081,12.8853057 35.9475795,13.2891188 36.3519509,13.6929318 C36.7563223,14.0967448 36.7563223,14.9043708 36.7563223,15.3081838 C36.7563223,16.1158098 36.7563223,16.9234358 36.3519509,17.3272488 C35.9475795,17.7310618 35.5432081,18.5386878 34.7344653,18.5386878 C33.9257225,18.5386878 33.5213512,18.9425008 32.7126084,19.3463138 C31.9038656,19.7501268 31.0951228,19.7501268 30.6907514,19.7501268 C29.8820087,19.7501268 29.0732659,19.7501268 28.2645231,19.3463138 C27.4557803,19.3463138 27.051409,18.9425008 26.2426662,18.5386878 C25.8382948,18.1348748 25.029552,17.7310618 25.029552,16.9234358 C24.6251806,16.1158098 24.6251806,15.7119968 24.6251806,14.5005578 L27.051409,14.5005578 C27.051409,16.1158098 27.051409,16.5196228 27.4557803,16.9234358 Z" id="Shape"></path>
                            <path d="M46.0568642,5.61667174 L46.0568642,7.63573674 L43.2262645,7.63573674 L43.2262645,16.5196228 C43.2262645,16.9234358 43.2262645,16.9234358 43.2262645,17.3272488 C43.2262645,17.7310618 43.2262645,17.7310618 43.6306358,17.7310618 C44.0350072,17.7310618 44.0350072,17.7310618 44.0350072,17.7310618 C44.4393786,17.7310618 44.4393786,17.7310618 44.84375,17.7310618 L46.0568642,17.7310618 L46.0568642,19.7501268 L44.0350072,19.7501268 C43.2262645,19.7501268 42.8218931,19.7501268 42.4175217,19.7501268 C42.0131503,19.7501268 41.6087789,19.3463138 41.2044075,19.3463138 C40.8000361,19.3463138 40.8000361,18.9425008 40.8000361,18.5386878 C40.8000361,18.1348748 40.8000361,17.7310618 40.8000361,16.9234358 L40.8000361,7.63573674 L38.3738078,7.63573674 L38.3738078,5.61667174 L40.8000361,5.61667174 L40.8000361,1.17472873 L43.2262645,1.17472873 L43.2262645,5.61667174 L46.0568642,5.61667174 Z" id="Shape"></path>
                            <path d="M62.636091,5.61667174 L62.636091,7.63573674 L59.8054913,7.63573674 L59.8054913,16.5196228 C59.8054913,16.9234358 59.8054913,16.9234358 59.8054913,17.3272488 C59.8054913,17.7310618 59.8054913,17.7310618 60.2098627,17.7310618 C60.6142341,17.7310618 60.6142341,17.7310618 60.6142341,17.7310618 C61.0186055,17.7310618 61.0186055,17.7310618 61.4229769,17.7310618 L62.636091,17.7310618 L62.636091,19.7501268 L60.6142341,19.7501268 C59.8054913,19.7501268 59.4011199,19.7501268 58.9967486,19.7501268 C58.5923772,19.7501268 58.1880058,19.3463138 57.7836344,19.3463138 C57.379263,19.3463138 57.379263,18.9425008 57.379263,18.5386878 C57.379263,18.1348748 57.379263,17.7310618 57.379263,16.9234358 L57.379263,7.63573674 L54.9530347,7.63573674 L54.9530347,5.61667174 L57.379263,5.61667174 L57.379263,1.17472873 L59.8054913,1.17472873 L59.8054913,5.61667174 L62.636091,5.61667174 Z" id="Shape"></path>
                            <path d="M67.4885477,5.61667174 L67.4885477,8.84717574 C67.8929191,7.63573674 68.7016618,6.82811074 69.5104046,6.42429774 C70.3191474,6.02048474 71.5322616,5.61667174 72.7453757,5.61667174 L72.7453757,8.03954974 C71.9366329,8.03954974 71.1278902,8.03954974 70.3191474,8.44336274 C69.5104046,8.84717574 69.1060332,9.25098874 68.7016618,9.65480174 C68.2972905,10.0586147 67.8929191,10.8662407 67.8929191,11.6738667 C67.8929191,12.4814927 67.4885477,13.2891188 67.4885477,14.0967448 L67.4885477,20.5577528 L65.0623194,20.5577528 L65.0623194,6.02048474 L67.4885477,6.02048474 L67.4885477,5.61667174 Z" id="Shape"></path>
                            <path d="M87.7071171,20.1539398 C87.3027457,20.5577528 86.8983743,20.5577528 86.0896315,20.5577528 C85.2808887,20.5577528 84.8765173,20.5577528 84.472146,20.1539398 C84.0677746,19.7501268 84.0677746,19.3463138 84.0677746,18.5386878 C83.2590318,19.3463138 82.450289,19.7501268 81.6415462,20.1539398 C80.8328035,20.5577528 80.0240607,20.5577528 78.8109465,20.5577528 C78.0022038,20.5577528 77.5978324,20.5577528 76.7890896,20.1539398 C76.3847182,20.1539398 75.5759754,19.7501268 75.171604,19.3463138 C74.7672327,18.9425008 74.3628613,18.5386878 73.9584899,18.1348748 C73.5541185,17.7310618 73.5541185,16.9234358 73.5541185,16.1158098 C73.5541185,15.3081838 73.5541185,14.5005578 73.9584899,14.0967448 C74.3628613,13.6929318 74.7672327,13.2891188 75.171604,12.8853057 C75.5759754,12.4814927 75.9803468,12.4814927 76.7890896,12.0776797 C77.5978324,11.6738667 78.0022038,11.6738667 78.4065751,11.6738667 C79.2153179,11.6738667 79.6196893,11.2700537 80.4284321,11.2700537 C81.2371749,11.2700537 81.6415462,11.2700537 82.0459176,10.8662407 C82.450289,10.8662407 82.8546604,10.4624277 83.2590318,10.4624277 C83.6634032,10.0586147 83.6634032,10.0586147 83.6634032,9.25098874 C83.6634032,8.84717574 83.6634032,8.44336274 83.2590318,8.03954974 C83.2590318,7.63573674 82.8546604,7.63573674 82.450289,7.23192374 C82.0459176,7.23192374 81.6415462,6.82811074 81.2371749,6.82811074 C80.8328035,6.82811074 80.4284321,6.82811074 80.0240607,6.82811074 C78.8109465,6.82811074 78.0022038,6.82811074 77.5978324,7.23192374 C76.7890896,7.63573674 76.3847182,8.44336274 76.3847182,9.25098874 L73.9584899,9.25098874 C73.9584899,8.44336274 74.3628613,7.63573674 74.3628613,6.82811074 C74.7672327,6.02048474 75.171604,5.61667174 75.5759754,5.21285874 C75.9803468,4.80904574 76.7890896,4.40523274 77.5978324,4.40523274 C78.4065751,4.40523274 79.2153179,4.00141973 80.0240607,4.00141973 C80.8328035,4.00141973 81.2371749,4.00141973 82.0459176,4.00141973 C82.8546604,4.00141973 83.2590318,4.40523274 83.6634032,4.40523274 C84.0677746,4.80904574 84.472146,5.21285874 84.8765173,5.61667174 C85.2808887,6.02048474 85.2808887,6.82811074 85.2808887,7.63573674 L85.2808887,14.9043708 C85.2808887,15.3081838 85.2808887,15.7119968 85.2808887,16.1158098 C85.2808887,16.5196228 85.6852601,16.5196228 86.0896315,16.5196228 C86.4940029,16.5196228 86.4940029,16.5196228 86.8983743,16.5196228 L86.8983743,20.1539398 L87.7071171,20.1539398 Z M83.6634032,12.8853057 C83.2590318,13.2891188 82.8546604,13.2891188 82.450289,13.2891188 C82.0459176,13.2891188 81.6415462,13.2891188 80.8328035,13.6929318 C80.4284321,13.6929318 79.6196893,13.6929318 79.2153179,14.0967448 C78.8109465,14.5005578 78.0022038,14.5005578 77.5978324,14.5005578 C77.193461,14.5005578 76.7890896,14.9043708 76.3847182,15.3081838 C75.9803468,15.7119968 75.9803468,16.1158098 75.9803468,16.9234358 C75.9803468,17.3272488 75.9803468,17.7310618 76.3847182,17.7310618 C76.3847182,18.1348748 76.7890896,18.1348748 77.193461,18.5386878 C77.5978324,18.5386878 77.5978324,18.9425008 78.0022038,18.9425008 C78.4065751,18.9425008 78.8109465,18.9425008 79.2153179,18.9425008 C80.0240607,18.9425008 80.8328035,18.9425008 81.2371749,18.5386878 C81.6415462,18.1348748 82.450289,18.1348748 82.450289,17.7310618 C82.8546604,17.3272488 83.2590318,16.9234358 83.2590318,16.5196228 C83.2590318,16.1158098 83.6634032,15.7119968 83.6634032,15.3081838 L83.6634032,12.8853057 Z" id="Shape"></path>
                            <path d="M100.24263,20.1539398 L100.24263,18.5386878 C99.8382587,19.3463138 99.0295159,19.7501268 98.2207731,20.1539398 C97.4120303,20.5577528 96.6032876,20.5577528 95.3901734,20.5577528 C94.1770592,20.5577528 93.3683165,20.1539398 92.5595737,19.7501268 C91.7508309,19.3463138 90.9420882,18.9425008 90.5377168,18.1348748 C90.1333454,17.3272488 89.728974,16.5196228 89.3246026,15.7119968 C88.9202312,14.9043708 88.9202312,13.6929318 88.9202312,12.8853057 C88.9202312,11.6738667 88.9202312,10.8662407 89.3246026,10.0586147 C89.728974,9.25098874 90.1333454,8.44336274 90.5377168,7.63573674 C90.9420882,6.82811074 91.7508309,6.42429774 92.5595737,6.02048474 C93.3683165,5.61667174 94.1770592,5.61667174 95.3901734,5.61667174 C95.7945448,5.61667174 96.1989162,5.61667174 96.6032876,5.61667174 C97.007659,5.61667174 97.4120303,6.02048474 97.8164017,6.02048474 C98.2207731,6.02048474 98.6251445,6.42429774 99.0295159,6.82811074 C99.4338873,7.23192374 99.8382587,7.63573674 99.8382587,8.03954974 L99.8382587,0.367102728 L102.264487,0.367102728 L102.264487,20.5577528 L100.24263,20.5577528 L100.24263,20.1539398 Z M91.7508309,15.3081838 C91.7508309,16.1158098 92.1552023,16.5196228 92.5595737,16.9234358 C92.9639451,17.3272488 93.3683165,17.7310618 93.7726879,18.1348748 C94.1770592,18.5386878 94.985802,18.5386878 95.7945448,18.5386878 C96.6032876,18.5386878 97.4120303,18.5386878 97.8164017,18.1348748 C98.2207731,17.7310618 99.0295159,17.3272488 99.0295159,16.9234358 C99.4338873,16.5196228 99.8382587,15.7119968 99.8382587,15.3081838 C99.8382587,14.5005578 100.24263,14.0967448 100.24263,13.2891188 C100.24263,12.4814927 100.24263,12.0776797 99.8382587,11.2700537 C99.8382587,10.4624277 99.4338873,10.0586147 99.0295159,9.65480174 C98.6251445,9.25098874 98.2207731,8.84717574 97.4120303,8.44336274 C97.007659,8.03954974 96.1989162,8.03954974 95.3901734,8.03954974 C94.5814306,8.03954974 93.7726879,8.03954974 93.3683165,8.44336274 C92.9639451,8.84717574 92.1552023,9.25098874 92.1552023,9.65480174 C91.7508309,10.0586147 91.7508309,10.8662407 91.3464595,11.2700537 C90.9420882,11.6738667 90.9420882,12.4814927 90.9420882,13.2891188 C91.7508309,13.6929318 91.7508309,14.5005578 91.7508309,15.3081838 Z" id="Shape"></path>
                            <path d="M106.712572,3.19379373 L106.712572,0.367102728 L109.138801,0.367102728 L109.138801,3.19379373 L106.712572,3.19379373 Z M109.138801,5.61667174 L109.138801,20.1539398 L106.712572,20.1539398 L106.712572,5.61667174 L109.138801,5.61667174 Z" id="Shape"></path>
                            <path d="M115.204371,5.61667174 L115.204371,8.03954974 C116.013114,6.42429774 117.6306,5.21285874 120.056828,5.21285874 C120.865571,5.21285874 121.674314,5.21285874 122.483056,5.61667174 C123.291799,6.02048474 123.696171,6.42429774 124.100542,6.82811074 C124.504913,7.23192374 124.909285,8.03954974 124.909285,8.44336274 C124.909285,9.25098874 125.313656,9.65480174 125.313656,10.4624277 L125.313656,20.1539398 L122.887428,20.1539398 L122.887428,10.4624277 C122.887428,9.65480174 122.483056,8.84717574 122.078685,8.44336274 C121.674314,8.03954974 120.865571,7.63573674 120.056828,7.63573674 C119.248085,7.63573674 118.843714,7.63573674 118.034971,8.03954974 C117.6306,8.44336274 117.226228,8.44336274 116.821857,8.84717574 C116.417486,9.25098874 116.013114,9.65480174 116.013114,10.4624277 C116.013114,10.8662407 115.608743,11.6738667 115.608743,12.0776797 L115.608743,20.1539398 L113.182514,20.1539398 L113.182514,5.61667174 L115.204371,5.61667174 Z" id="Shape"></path>
                            <path d="M139.466655,24.5958828 C138.25354,25.8073218 136.636055,26.2111348 134.209827,26.2111348 C133.401084,26.2111348 132.996712,26.2111348 132.18797,25.8073218 C131.379227,25.4035088 130.974855,25.4035088 130.166113,24.9996958 C129.761741,24.5958828 128.952999,24.1920698 128.548627,23.7882568 C128.144256,23.3844438 128.144256,22.5768178 127.739884,21.7691918 L130.166113,21.7691918 C130.166113,22.1730048 130.166113,22.5768178 130.570484,22.9806308 C130.974855,23.3844438 130.974855,23.3844438 131.379227,23.7882568 C131.783598,23.7882568 132.18797,24.1920698 132.592341,24.1920698 C132.996712,24.1920698 133.401084,24.1920698 133.805455,24.1920698 C134.614198,24.1920698 135.422941,24.1920698 135.827312,23.7882568 C136.231684,23.3844438 136.636055,22.9806308 137.040426,22.5768178 C137.444798,22.1730048 137.849169,21.3653788 137.849169,20.9615658 C137.849169,20.1539398 138.25354,19.3463138 138.25354,18.9425008 L138.25354,18.1348748 C137.849169,18.9425008 137.040426,19.7501268 136.231684,20.1539398 C135.422941,20.5577528 134.614198,20.9615658 133.401084,20.9615658 C132.18797,20.9615658 131.379227,20.9615658 130.570484,20.5577528 C129.761741,20.1539398 128.952999,19.7501268 128.548627,18.9425008 C128.144256,18.1348748 127.739884,17.3272488 127.335513,16.5196228 C126.931142,15.7119968 126.931142,14.5005578 126.931142,13.6929318 C126.931142,12.8853057 126.931142,12.0776797 127.335513,10.8662407 C127.739884,10.0586147 127.739884,9.25098874 128.548627,8.44336274 C128.952999,7.63573674 129.761741,7.23192374 130.570484,6.42429774 C131.379227,6.02048474 132.592341,5.61667174 133.805455,5.61667174 C134.614198,5.61667174 135.422941,5.61667174 136.231684,6.02048474 C137.040426,6.42429774 137.444798,6.82811074 137.849169,7.63573674 L137.849169,5.61667174 L140.275397,5.61667174 L140.275397,18.9425008 C141.08414,21.3653788 140.275397,23.3844438 139.466655,24.5958828 Z M136.231684,17.7310618 C136.636055,17.3272488 137.040426,16.9234358 137.444798,16.5196228 C137.849169,16.1158098 137.849169,15.3081838 138.25354,14.9043708 C138.25354,14.0967448 138.657912,13.6929318 138.657912,12.8853057 C138.657912,12.0776797 138.657912,11.6738667 138.25354,10.8662407 C137.849169,10.0586147 137.849169,9.65480174 137.444798,9.25098874 C137.040426,8.84717574 136.636055,8.44336274 136.231684,8.03954974 C135.827312,7.63573674 135.018569,7.63573674 134.209827,7.63573674 C133.401084,7.63573674 132.592341,7.63573674 132.18797,8.03954974 C131.783598,8.44336274 131.379227,8.84717574 130.974855,9.25098874 C130.570484,9.65480174 130.570484,10.4624277 130.166113,10.8662407 C130.166113,11.6738667 129.761741,12.0776797 129.761741,12.8853057 C129.761741,13.6929318 129.761741,14.0967448 129.761741,14.9043708 C129.761741,15.7119968 130.166113,16.1158098 130.570484,16.5196228 C130.974855,16.9234358 131.379227,17.3272488 131.783598,17.7310618 C132.18797,18.1348748 132.996712,18.1348748 133.805455,18.1348748 C135.018569,18.5386878 135.827312,18.1348748 136.231684,17.7310618 Z" id="Shape"></path>
                            <path d="M162.920195,19.3463138 C161.707081,20.1539398 160.493967,20.5577528 158.876481,20.5577528 C157.663367,20.5577528 156.854624,20.5577528 156.045882,20.1539398 C155.237139,19.7501268 154.428396,19.3463138 154.024025,18.5386878 C153.619653,17.7310618 152.81091,16.9234358 152.81091,16.1158098 C152.406539,15.3081838 152.406539,14.0967448 152.406539,12.8853057 C152.406539,11.6738667 152.406539,10.8662407 152.81091,9.65480174 C153.215282,8.84717574 153.619653,8.03954974 154.428396,7.23192374 C155.237139,6.42429774 155.64151,6.02048474 156.450253,5.61667174 C157.258996,5.21285874 158.067738,5.21285874 159.280853,5.21285874 C160.493967,5.21285874 161.707081,5.61667174 162.515824,6.02048474 C163.324566,6.42429774 164.133309,7.23192374 164.537681,8.03954974 C164.942052,8.84717574 165.346423,9.65480174 165.750795,10.8662407 C165.750795,11.6738667 166.155166,12.8853057 166.155166,13.6929318 L155.237139,13.6929318 C155.237139,14.5005578 155.237139,14.9043708 155.64151,15.3081838 C156.045882,15.7119968 156.045882,16.5196228 156.450253,16.9234358 C156.854624,17.3272488 157.258996,17.7310618 158.067738,18.1348748 C158.47211,18.5386878 159.280853,18.5386878 160.089595,18.5386878 C160.898338,18.5386878 162.111452,18.1348748 162.515824,17.7310618 C162.920195,17.3272488 163.728938,16.5196228 163.728938,15.7119968 L166.155166,15.7119968 C164.537681,17.3272488 163.728938,18.5386878 162.920195,19.3463138 Z M162.111452,10.0586147 C161.707081,9.65480174 161.707081,9.25098874 161.30271,8.84717574 C160.898338,8.44336274 160.493967,8.03954974 160.089595,8.03954974 C159.685224,8.03954974 158.876481,7.63573674 158.47211,7.63573674 C157.663367,7.63573674 157.258996,7.63573674 156.854624,8.03954974 C156.450253,8.44336274 156.045882,8.44336274 155.64151,8.84717574 C155.237139,9.25098874 154.832767,9.65480174 154.832767,10.0586147 C154.428396,10.4624277 154.428396,11.2700537 154.428396,11.6738667 L162.920195,11.6738667 C162.515824,11.2700537 162.515824,10.4624277 162.111452,10.0586147 Z" id="Shape"></path>
                            <path d="M176.264451,8.44336274 C175.860079,8.03954974 175.051337,7.63573674 173.838223,7.63573674 C173.02948,7.63573674 172.220737,7.63573674 171.816366,8.03954974 C171.411994,8.44336274 170.603251,8.84717574 170.603251,9.25098874 C170.19888,9.65480174 170.19888,10.4624277 169.794509,10.8662407 C169.794509,11.6738667 169.390137,12.0776797 169.390137,12.8853057 C169.390137,13.6929318 169.390137,14.0967448 169.794509,14.9043708 C169.794509,15.7119968 170.19888,16.1158098 170.603251,16.5196228 C171.007623,16.9234358 171.411994,17.3272488 171.816366,17.7310618 C172.220737,18.1348748 173.02948,18.1348748 173.838223,18.1348748 C175.051337,18.1348748 175.860079,17.7310618 176.668822,17.3272488 C177.477565,16.9234358 177.881936,15.7119968 177.881936,14.9043708 L180.308165,14.9043708 C179.903793,16.5196228 179.499422,18.1348748 178.286308,18.9425008 C177.073194,19.7501268 175.860079,20.5577528 173.838223,20.5577528 C172.625108,20.5577528 171.816366,20.5577528 171.007623,20.1539398 C170.19888,19.7501268 169.390137,19.3463138 168.985766,18.5386878 C168.581395,17.7310618 168.177023,16.9234358 167.772652,16.1158098 C167.36828,15.3081838 167.36828,14.0967448 167.36828,13.2891188 C167.36828,12.4814927 167.36828,11.2700537 167.772652,10.0586147 C168.177023,8.84717574 168.581395,8.44336274 168.985766,7.63573674 C169.390137,6.82811074 170.19888,6.42429774 171.007623,6.02048474 C171.816366,5.61667174 173.02948,5.61667174 173.838223,5.61667174 C174.646965,5.61667174 175.455708,5.61667174 176.264451,6.02048474 C177.073194,6.42429774 177.477565,6.42429774 178.286308,6.82811074 C178.690679,7.23192374 179.095051,7.63573674 179.499422,8.44336274 C179.903793,9.25098874 179.903793,9.65480174 180.308165,10.8662407 L177.881936,10.8662407 C177.477565,9.65480174 177.073194,8.84717574 176.264451,8.44336274 Z" id="Shape"></path>
                            <path d="M182.330022,10.0586147 C182.734393,9.25098874 183.138764,8.44336274 183.543136,7.63573674 C183.947507,6.82811074 184.75625,6.42429774 185.969364,6.02048474 C187.182478,5.61667174 187.991221,5.61667174 189.204335,5.61667174 C190.417449,5.61667174 191.226192,5.61667174 192.439306,6.02048474 C193.652421,6.42429774 194.056792,6.82811074 194.461163,7.63573674 C194.865535,8.44336274 195.674277,9.25098874 195.674277,10.0586147 C196.078649,10.8662407 196.078649,12.0776797 196.078649,12.8853057 C196.078649,13.6929318 196.078649,14.9043708 195.674277,15.7119968 C195.269906,16.5196228 194.865535,17.3272488 194.461163,18.1348748 C194.056792,18.9425008 193.248049,19.3463138 192.439306,19.7501268 C191.630564,20.1539398 190.417449,20.1539398 189.204335,20.1539398 C187.991221,20.1539398 187.182478,20.1539398 185.969364,19.7501268 C185.160621,19.3463138 184.351879,18.9425008 183.543136,18.1348748 C183.138764,17.3272488 182.330022,16.5196228 182.330022,15.7119968 C182.330022,14.9043708 181.92565,13.6929318 181.92565,12.8853057 C181.92565,12.0776797 181.92565,10.8662407 182.330022,10.0586147 Z M184.75625,15.3081838 C185.160621,16.1158098 185.160621,16.5196228 185.564993,16.9234358 C185.969364,17.3272488 186.373736,17.7310618 187.182478,18.1348748 C187.58685,18.5386878 188.395592,18.5386878 188.799964,18.5386878 C189.204335,18.5386878 190.013078,18.5386878 190.417449,18.1348748 C190.821821,17.7310618 191.630564,17.7310618 192.034935,16.9234358 C192.439306,16.5196228 192.843678,15.7119968 192.843678,15.3081838 C192.843678,14.9043708 193.248049,13.6929318 193.248049,12.8853057 C193.248049,12.0776797 193.248049,11.2700537 192.843678,10.4624277 C192.439306,9.65480174 192.439306,9.25098874 192.034935,8.84717574 C191.630564,8.44336274 191.226192,8.03954974 190.417449,7.63573674 C190.013078,7.23192374 189.204335,7.23192374 188.799964,7.23192374 C188.395592,7.23192374 187.58685,7.23192374 187.182478,7.63573674 C186.778107,8.03954974 185.969364,8.03954974 185.564993,8.84717574 C185.160621,9.25098874 184.75625,10.0586147 184.75625,10.4624277 C184.351879,11.2700537 184.351879,12.0776797 184.351879,12.8853057 C184.351879,14.0967448 184.75625,14.9043708 184.75625,15.3081838 Z" id="Shape"></path>
                            <path d="M200.526734,16.9234358 C200.931105,17.3272488 200.931105,17.7310618 201.335477,17.7310618 C201.739848,18.1348748 202.14422,18.1348748 202.548591,18.1348748 C202.952962,18.1348748 203.357334,18.1348748 204.166077,18.1348748 C204.570448,18.1348748 204.974819,18.1348748 205.379191,18.1348748 C205.783562,18.1348748 206.187934,18.1348748 206.592305,17.7310618 C206.996676,17.3272488 207.401048,17.3272488 207.401048,16.9234358 C207.805419,16.5196228 207.805419,16.1158098 207.805419,15.7119968 C207.805419,14.9043708 207.401048,14.5005578 206.996676,14.5005578 C206.592305,14.0967448 205.783562,14.0967448 205.379191,13.6929318 C204.570448,13.6929318 203.761705,13.2891188 202.952962,13.2891188 C202.14422,13.2891188 201.335477,12.8853057 200.526734,12.4814927 C199.717991,12.0776797 199.31362,11.6738667 198.909249,11.2700537 C198.504877,10.8662407 198.100506,10.0586147 198.100506,9.25098874 C198.100506,8.44336274 198.100506,8.03954974 198.504877,7.23192374 C198.909249,6.82811074 199.31362,6.42429774 199.717991,6.02048474 C200.122363,5.61667174 200.931105,5.61667174 201.335477,5.21285874 C202.14422,5.21285874 202.548591,4.80904574 203.357334,4.80904574 C204.166077,4.80904574 204.974819,4.80904574 205.783562,5.21285874 C206.592305,5.21285874 206.996676,5.61667174 207.805419,6.02048474 C208.20979,6.42429774 208.614162,6.82811074 209.018533,7.23192374 C209.422905,7.63573674 209.422905,8.44336274 209.422905,9.25098874 L206.996676,9.25098874 C206.996676,8.84717574 206.996676,8.44336274 206.592305,8.03954974 C206.187934,7.63573674 206.187934,7.63573674 205.783562,7.23192374 C205.379191,7.23192374 204.974819,6.82811074 204.570448,6.82811074 C204.166077,6.82811074 203.761705,6.82811074 203.357334,6.82811074 C202.952962,6.82811074 202.548591,6.82811074 202.14422,6.82811074 C201.739848,6.82811074 201.335477,6.82811074 201.335477,7.23192374 C200.931105,7.23192374 200.931105,7.63573674 200.526734,7.63573674 C200.122363,7.63573674 200.122363,8.03954974 200.122363,8.44336274 C200.122363,8.84717574 200.122363,9.25098874 200.526734,9.65480174 C200.931105,10.0586147 201.335477,10.0586147 201.739848,10.4624277 C202.14422,10.4624277 202.548591,10.8662407 203.357334,10.8662407 C203.761705,10.8662407 204.570448,11.2700537 204.974819,11.2700537 C205.379191,11.2700537 206.187934,11.6738667 206.592305,11.6738667 C206.996676,11.6738667 207.805419,12.0776797 208.20979,12.4814927 C208.614162,12.8853057 209.018533,13.2891188 209.422905,13.6929318 C209.827276,14.0967448 209.827276,14.9043708 209.827276,15.3081838 C209.827276,16.1158098 209.827276,16.9234358 209.422905,17.3272488 C209.018533,17.7310618 208.614162,18.5386878 207.805419,18.5386878 C206.996676,18.5386878 206.592305,18.9425008 205.783562,19.3463138 C204.974819,19.7501268 204.166077,19.7501268 203.761705,19.7501268 C202.952962,19.7501268 202.14422,19.7501268 201.335477,19.3463138 C200.526734,19.3463138 200.122363,18.9425008 199.31362,18.5386878 C198.909249,18.1348748 198.100506,17.7310618 198.100506,16.9234358 C197.696134,16.1158098 197.696134,15.7119968 197.696134,14.5005578 L200.122363,14.5005578 C200.526734,16.1158098 200.526734,16.5196228 200.526734,16.9234358 Z" id="Shape"></path>
                            <path d="M218.723447,22.1730048 C218.319075,22.9806308 218.319075,23.3844438 217.914704,23.7882568 C217.510332,24.1920698 217.510332,24.5958828 217.105961,24.9996958 C216.70159,25.4035088 216.297218,25.4035088 215.892847,25.8073218 C215.488475,25.8073218 215.084104,26.2111348 214.679733,26.2111348 C214.275361,26.2111348 214.275361,26.2111348 213.87099,26.2111348 C213.466618,26.2111348 213.466618,26.2111348 213.062247,26.2111348 L213.062247,24.1920698 C213.466618,24.1920698 213.466618,24.1920698 213.87099,24.5958828 C214.275361,24.5958828 214.275361,24.5958828 214.679733,24.5958828 C215.084104,24.5958828 215.488475,24.5958828 215.892847,24.1920698 C216.297218,23.7882568 216.297218,23.7882568 216.70159,23.3844438 L217.510332,20.9615658 L211.849133,6.42429774 L214.679733,6.42429774 L219.127818,18.1348748 L223.171532,6.42429774 L225.59776,6.42429774 L218.723447,22.1730048 Z" id="Shape"></path>
                            <path d="M228.832731,16.9234358 C229.237103,17.3272488 229.237103,17.7310618 229.641474,17.7310618 C230.045845,18.1348748 230.450217,18.1348748 230.854588,18.1348748 C231.25896,18.1348748 231.663331,18.1348748 232.472074,18.1348748 C232.876445,18.1348748 233.280816,18.1348748 233.685188,18.1348748 C234.089559,18.1348748 234.493931,18.1348748 234.898302,17.7310618 C235.302673,17.3272488 235.707045,17.3272488 235.707045,16.9234358 C236.111416,16.5196228 236.111416,16.1158098 236.111416,15.7119968 C236.111416,14.9043708 235.707045,14.5005578 235.302673,14.5005578 C234.898302,14.0967448 234.089559,14.0967448 233.685188,13.6929318 C232.876445,13.6929318 232.067702,13.2891188 231.25896,13.2891188 C230.450217,13.2891188 229.641474,12.8853057 228.832731,12.4814927 C228.023988,12.0776797 227.619617,11.6738667 227.215246,11.2700537 C226.810874,10.8662407 226.406503,10.0586147 226.406503,9.25098874 C226.406503,8.44336274 226.406503,8.03954974 226.810874,7.23192374 C227.215246,6.82811074 227.619617,6.42429774 228.023988,6.02048474 C228.42836,5.61667174 229.237103,5.61667174 229.641474,5.21285874 C230.450217,5.21285874 230.854588,4.80904574 231.663331,4.80904574 C232.472074,4.80904574 233.280816,4.80904574 234.089559,5.21285874 C234.898302,5.21285874 235.302673,5.61667174 236.111416,6.02048474 C236.515788,6.42429774 236.920159,6.82811074 237.32453,7.23192374 C237.728902,7.63573674 237.728902,8.44336274 237.728902,9.25098874 L235.302673,9.25098874 C235.302673,8.84717574 235.302673,8.44336274 234.898302,8.03954974 C234.493931,7.63573674 234.493931,7.63573674 234.089559,7.23192374 C233.685188,7.23192374 233.280816,6.82811074 232.876445,6.82811074 C232.472074,6.82811074 232.067702,6.82811074 231.663331,6.82811074 C231.25896,6.82811074 230.854588,6.82811074 230.450217,6.82811074 C230.045845,6.82811074 229.641474,6.82811074 229.641474,7.23192374 C229.237103,7.23192374 229.237103,7.63573674 228.832731,7.63573674 C228.42836,7.63573674 228.42836,8.03954974 228.42836,8.44336274 C228.42836,8.84717574 228.42836,9.25098874 228.832731,9.65480174 C229.237103,10.0586147 229.641474,10.0586147 230.045845,10.4624277 C230.450217,10.4624277 230.854588,10.8662407 231.663331,10.8662407 C232.067702,10.8662407 232.876445,11.2700537 233.280816,11.2700537 C233.685188,11.2700537 234.493931,11.6738667 234.898302,11.6738667 C235.302673,11.6738667 236.111416,12.0776797 236.515788,12.4814927 C236.920159,12.8853057 237.32453,13.2891188 237.728902,13.6929318 C238.133273,14.0967448 238.133273,14.9043708 238.133273,15.3081838 C238.133273,16.1158098 238.133273,16.9234358 237.728902,17.3272488 C237.32453,17.7310618 236.920159,18.5386878 236.111416,18.5386878 C235.302673,18.5386878 234.898302,18.9425008 234.089559,19.3463138 C233.280816,19.7501268 232.472074,19.7501268 232.067702,19.7501268 C231.25896,19.7501268 230.450217,19.7501268 229.641474,19.3463138 C228.832731,19.3463138 228.42836,18.9425008 227.619617,18.5386878 C227.215246,18.1348748 226.406503,17.7310618 226.406503,16.9234358 C226.002132,16.1158098 226.002132,15.7119968 226.002132,14.5005578 L228.42836,14.5005578 C228.42836,16.1158098 228.832731,16.5196228 228.832731,16.9234358 Z" id="Shape"></path>
                            <path d="M247.433815,5.61667174 L247.433815,7.63573674 L244.603215,7.63573674 L244.603215,16.5196228 C244.603215,16.9234358 244.603215,16.9234358 244.603215,17.3272488 C244.603215,17.7310618 244.603215,17.7310618 245.007587,17.7310618 C245.411958,17.7310618 245.411958,17.7310618 245.411958,17.7310618 C245.816329,17.7310618 245.816329,17.7310618 246.220701,17.7310618 L247.433815,17.7310618 L247.433815,19.7501268 L245.411958,19.7501268 C244.603215,19.7501268 244.198844,19.7501268 243.794473,19.7501268 C243.390101,19.7501268 242.98573,19.3463138 242.581358,19.3463138 C242.176987,19.3463138 242.176987,18.9425008 242.176987,18.5386878 C242.176987,18.1348748 242.176987,17.7310618 242.176987,16.9234358 L242.176987,7.63573674 L239.750759,7.63573674 L239.750759,5.61667174 L242.176987,5.61667174 L242.176987,1.17472873 L244.603215,1.17472873 L244.603215,5.61667174 L247.433815,5.61667174 Z" id="Shape"></path>
                            <path d="M260.373699,19.3463138 C259.160585,20.1539398 257.947471,20.5577528 256.329986,20.5577528 C255.116871,20.5577528 254.308129,20.5577528 253.499386,20.1539398 C252.690643,19.7501268 251.8819,19.3463138 251.477529,18.5386878 C251.073158,17.7310618 250.264415,16.9234358 250.264415,16.1158098 C249.860043,15.3081838 249.860043,14.0967448 249.860043,12.8853057 C249.860043,11.6738667 249.860043,10.8662407 250.264415,9.65480174 C250.668786,8.84717574 251.073158,8.03954974 251.8819,7.23192374 C252.690643,6.42429774 253.095014,6.02048474 253.903757,5.61667174 C254.7125,5.21285874 255.521243,5.21285874 256.734357,5.21285874 C257.947471,5.21285874 259.160585,5.61667174 259.969328,6.02048474 C260.778071,6.42429774 261.586814,7.23192374 261.991185,8.03954974 C262.395556,8.84717574 262.799928,9.65480174 263.204299,10.8662407 C263.204299,11.6738667 263.608671,12.8853057 263.608671,13.6929318 L252.690643,13.6929318 C252.690643,14.5005578 252.690643,14.9043708 253.095014,15.3081838 C253.499386,15.7119968 253.499386,16.5196228 253.903757,16.9234358 C254.308129,17.3272488 254.7125,17.7310618 255.521243,18.1348748 C255.925614,18.5386878 256.734357,18.5386878 257.5431,18.5386878 C258.351842,18.5386878 259.564957,18.1348748 259.969328,17.7310618 C260.373699,17.3272488 261.182442,16.5196228 261.182442,15.7119968 L263.608671,15.7119968 C261.991185,17.3272488 261.586814,18.5386878 260.373699,19.3463138 Z M259.564957,10.0586147 C259.160585,9.65480174 259.160585,9.25098874 258.756214,8.84717574 C258.351842,8.44336274 257.947471,8.03954974 257.5431,8.03954974 C257.138728,8.03954974 256.329986,7.63573674 255.925614,7.63573674 C255.116871,7.63573674 254.7125,7.63573674 254.308129,8.03954974 C253.903757,8.44336274 253.499386,8.44336274 253.095014,8.84717574 C252.690643,9.25098874 252.286272,9.65480174 252.286272,10.0586147 C251.8819,10.4624277 251.8819,11.2700537 251.8819,11.6738667 L260.373699,11.6738667 C259.969328,11.2700537 259.969328,10.4624277 259.564957,10.0586147 Z" id="Shape"></path>
                            <path d="M267.248013,5.61667174 L267.248013,7.63573674 C268.461127,6.02048474 270.078613,5.21285874 272.10047,5.21285874 C272.909212,5.21285874 273.717955,5.21285874 274.526698,5.61667174 C275.335441,6.02048474 275.739812,6.42429774 276.144184,7.63573674 C276.548555,6.82811074 277.357298,6.42429774 278.16604,5.61667174 C278.974783,4.80904574 279.783526,4.80904574 280.99664,4.80904574 C281.805383,4.80904574 282.209754,4.80904574 283.018497,5.21285874 C283.422868,5.21285874 284.231611,5.61667174 284.635983,6.02048474 C285.040354,6.42429774 285.444725,6.82811074 285.444725,7.23192374 C285.849097,7.63573674 285.849097,8.44336274 285.849097,9.25098874 L285.849097,19.7501268 L283.422868,19.7501268 L283.422868,10.0586147 C283.422868,9.65480174 283.422868,9.25098874 283.422868,8.84717574 C283.422868,8.44336274 283.018497,8.03954974 283.018497,7.63573674 C283.018497,7.23192374 282.614126,7.23192374 282.209754,6.82811074 C281.805383,6.82811074 281.401012,6.42429774 280.592269,6.42429774 C279.379155,6.42429774 278.570412,6.82811074 277.761669,7.63573674 C276.952926,8.44336274 276.548555,9.25098874 276.548555,10.4624277 L276.548555,19.3463138 L274.122327,19.3463138 L274.122327,9.65480174 C274.122327,9.25098874 274.122327,8.84717574 274.122327,8.44336274 C274.122327,8.03954974 273.717955,7.63573674 273.717955,7.23192374 C273.717955,6.82811074 273.313584,6.82811074 272.909212,6.42429774 C272.504841,6.42429774 272.10047,6.02048474 271.696098,6.02048474 C270.887355,6.02048474 270.482984,6.02048474 270.078613,6.42429774 C269.674241,6.82811074 269.26987,7.23192374 268.865499,7.63573674 C268.461127,8.03954974 268.461127,8.44336274 268.056756,8.84717574 C268.056756,9.25098874 267.652384,9.65480174 267.652384,10.0586147 L267.652384,18.9425008 L265.226156,18.9425008 L265.226156,4.40523274 L267.248013,4.40523274 L267.248013,5.61667174 Z" id="Shape"></path>
                        </g>
                    </g>
                    <g id="Group" transform="translate(21.000000, 0.000000)">
                        <ellipse id="Oval" fill="#4A0D66" transform="translate(93.394365, 32.144235) rotate(-86.992424) translate(-93.394365, -32.144235) " cx="93.3943646" cy="32.1442352" rx="15.3332033" ry="45.8787201"></ellipse>
                        <path d="M240.832933,109.04581 C239.622389,119.509615 216.218549,125.546425 188.779564,122.326793 C161.340579,119.107161 139.954312,107.435994 141.56837,96.9721897 C143.989457,90.1304713 166.182753,80.4715747 193.621738,83.6912069 C221.060723,86.9108391 242.043476,98.1795517 240.832933,109.04581 Z" id="Shape" fill="#26CAD3"></path>
                        <path d="M207.341231,201.207782 C206.937716,209.659316 185.954963,215.293672 160.53355,214.08631 C135.112138,212.878948 110.09424,203.220052 115.339928,196.378333 C118.971558,191.548885 136.726196,182.292443 162.147608,183.499805 C187.569021,184.707167 207.744745,192.756247 207.341231,201.207782 Z" id="Shape" fill="#26CAD3"></path>
                        <ellipse id="Oval" fill="#4A0D66" transform="translate(54.138684, 128.425058) rotate(-81.859364) translate(-54.138684, -128.425058) " cx="54.1386845" cy="128.425058" rx="18.964731" ry="51.1104488"></ellipse>
                        <path d="M193.218224,79.2642126 C206.534202,82.4838448 220.657209,81.6789368 231.148585,80.0691207 C232.359129,80.0691207 234.376701,79.2642126 233.166158,74.8372184 C221.867752,47.0678908 200.481484,23.7255575 171.024927,10.4445747 C132.691051,-6.45849425 89.9185156,-1.62904598 57.2338424,19.7010172 C55.2162699,21.3108333 51.1811251,23.7255575 49.1635527,25.7378276 C56.4268134,21.3108333 76.6025376,23.7255575 93.9536605,28.1525517 C131.480508,38.2139023 167.393297,73.2274023 193.218224,79.2642126 Z M56.0232989,158.145201 C37.8651471,151.705937 21.7245677,150.901029 12.0402201,151.705937 C8.00507523,152.108391 8.40858971,154.925569 8.8121042,156.132931 C18.8999663,187.121891 41.4967775,214.08631 73.7779362,228.172201 C119.375073,248.294902 171.024927,237.831098 204.920144,205.232322 C197.253369,211.269132 162.551123,212.878948 133.094565,200.805328 C103.234494,188.329253 84.6728273,168.609006 56.0232989,158.145201 Z M240.429418,105.423724 C240.429418,107.838448 234.780216,110.655626 230.341556,111.05808 C218.639636,112.667897 202.095542,113.070351 183.130362,107.435994 C147.621087,96.9721897 115.743443,63.5685057 80.234168,55.9218793 C56.4268134,51.092431 37.0581181,52.2997931 26.5667415,53.9096092 C22.5315967,54.3120632 20.5140243,57.5316954 19.7069953,59.1415115 C17.2859084,63.1660517 15.268336,67.190592 13.654278,71.2151322 C7.60156075,84.898569 4.37344487,98.5820057 3.5664159,112.667897 C3.5664159,115.082621 3.16290141,124.741517 5.58398832,127.156241 C3.96993038,124.339063 12.4437346,115.082621 62.0760162,127.961149 C104.848552,139.632316 129.86645,175.04827 171.024927,180.682626 C199.674455,184.304713 214.604491,179.877718 224.692353,175.450724 C229.534527,173.036 230.745071,170.218822 231.5521,168.206552 C239.622389,150.498575 242.446991,131.98569 241.639962,113.875259 C241.236447,111.862989 241.236447,107.838448 240.429418,105.423724 Z" id="Shape" fill="url(#radialGradient-1)"></path>
                    </g>
                </g>
            </g>
        </g>
    </g>
</svg>