<?xml version="1.0" encoding="utf-8"?>
<!-- Generator: Adobe Illustrator 21.0.0, SVG Export Plug-In . SVG Version: 6.00 Build 0)  -->
<svg version="1.1" id="Layer_1" xmlns="http://www.w3.org/2000/svg" xmlns:xlink="http://www.w3.org/1999/xlink" x="0px" y="0px"
	 viewBox="0 0 71.2 101.2" style="enable-background:new 0 0 71.2 101.2;" xml:space="preserve">
<style type="text/css">
	.st0{fill:#5D2875;}
	.st1{fill:url(#SVGID_1_);}
	.st2{fill:url(#SVGID_2_);}
	.st3{fill:url(#SVGID_3_);}
	.st4{fill:#FFFFFF;}
</style>
<g>
	<g>
		
			<ellipse transform="matrix(5.246682e-02 -0.9986 0.9986 5.246682e-02 18.7436 36.2631)" class="st0" cx="28.5" cy="8.3" rx="3.8" ry="11.4"/>
		<linearGradient id="SVGID_1_" gradientUnits="userSpaceOnUse" x1="35.2724" y1="33.4554" x2="77.0345" y2="15.4938">
			<stop  offset="0" style="stop-color:#1DCEC8"/>
			<stop  offset="9.343474e-02" style="stop-color:#20C6C5"/>
			<stop  offset="0.2416" style="stop-color:#29AFBD"/>
			<stop  offset="0.4261" style="stop-color:#3789B0"/>
			<stop  offset="0.6376" style="stop-color:#4B569E"/>
			<stop  offset="0.7876" style="stop-color:#5A2D90"/>
		</linearGradient>
		<path class="st1" d="M64.9,27.3c-0.3,2.6-6.1,4.1-12.9,3.3c-6.8-0.8-12-3.7-11.7-6.3c0.6-1.7,6.1-4.1,12.9-3.3
			C60,21.8,65.2,24.6,64.9,27.3z"/>
		<linearGradient id="SVGID_2_" gradientUnits="userSpaceOnUse" x1="28.4839" y1="55.4076" x2="62.5886" y2="43.9073">
			<stop  offset="0" style="stop-color:#1DCEC8"/>
			<stop  offset="0.1698" style="stop-color:#25B9C1"/>
			<stop  offset="0.5224" style="stop-color:#3A81AD"/>
			<stop  offset="1" style="stop-color:#5A2D90"/>
		</linearGradient>
		<path class="st2" d="M56.6,50.1c-0.1,2.1-5.3,3.5-11.6,3.2s-12.4-2.7-11.2-4.4c0.9-1.2,5.3-3.5,11.6-3.2S56.7,48,56.6,50.1z"/>
		<ellipse transform="matrix(0.1416 -0.9899 0.9899 0.1416 -15.652 46.1944)" class="st0" cx="18.8" cy="32.1" rx="4.7" ry="12.7"/>
		
			<radialGradient id="SVGID_3_" cx="308.438" cy="1312.3821" r="38.0618" gradientTransform="matrix(0.9137 0.4064 -0.4064 0.9137 292.0102 -1306.6361)" gradientUnits="userSpaceOnUse">
			<stop  offset="0.142" style="stop-color:#1DCEC8"/>
			<stop  offset="0.2877" style="stop-color:#25B9C1"/>
			<stop  offset="0.5902" style="stop-color:#3A81AD"/>
			<stop  offset="1" style="stop-color:#5A2D90"/>
		</radialGradient>
		<path class="st3" d="M53.1,19.9c3.3,0.8,6.8,0.6,9.3,0.2c0.3,0,0.8-0.2,0.5-1.3C60.2,12.1,54.9,6.2,47.6,3c-9.5-4.2-20-3-28.1,2.3
			c-0.5,0.4-1.5,1-2,1.5c1.8-1.1,6.8-0.5,11.1,0.6C37.9,9.7,46.8,18.4,53.1,19.9z M19.2,39.5c-4.5-1.6-8.5-1.7-10.9-1.6
			c-1,0.1-0.9,0.8-0.8,1.1c2.5,7.7,8.1,14.4,16.1,17.9c11.3,5,24.1,2.4,32.5-5.7C54.2,52.7,45.6,53,38.3,50
			C30.9,46.9,26.3,42,19.2,39.5z M64.8,26.4c0,0.6-1.4,1.3-2.5,1.4c-2.9,0.4-7,0.5-11.7-0.9C41.8,24.3,34,16,25.2,14.1
			c-5.8-1.2-10.7-0.9-13.3-0.5c-1,0.1-1.5,0.9-1.7,1.3c-0.6,1-1.1,1.9-1.5,3c-1.5,3.4-2.3,6.8-2.5,10.3c0,0.6-0.1,3,0.5,3.6
			c-0.4-0.7,1.7-3,14,0.2c10.5,2.9,16.7,11.7,26.9,13c7.1,0.9,10.8-0.2,13.3-1.3c1.2-0.6,1.5-1.3,1.7-1.8c2-4.4,2.7-9,2.5-13.5
			C65,28,65,27,64.8,26.4z"/>
	</g>
	<g>
		<g>
			<path class="st4" d="M8.9,65.9h2.9v3.5H8.9c-2.9,0-4.3,1.2-4.3,3.5h7.1v3.5H4.6v13.9H0.3V72.8C0.3,68.2,3.2,65.9,8.9,65.9z"/>
			<path class="st4" d="M23.8,86.8h2.9v3.5h-2.9c-5.7,0-8.6-2.3-8.6-7V65.9h4.3v7h7.1v3.5h-7.1v7C19.5,85.6,20.9,86.8,23.8,86.8z"/>
			<path class="st4" d="M36.8,72.8h2.9c5.7,0,8.6,2.3,8.6,7v3.5H32.6c0,2.3,1.4,3.5,4.3,3.5h8.6v3.5h-8.6c-5.7,0-8.6-2.3-8.6-7v-3.5
				C28.3,75.2,31.1,72.8,36.8,72.8z M39.7,76.3h-2.9c-2.9,0-4.3,1.2-4.3,3.5H44C44,77.5,42.5,76.3,39.7,76.3z"/>
			<path class="st4" d="M62.2,72.8c5.7,0,8.6,2.3,8.6,7h-4.3c0-2.3-1.4-3.5-4.3-3.5h-2.9c-2.9,0-4.3,1.2-4.3,3.5v3.5
				c0,2.3,1.4,3.5,4.3,3.5h2.9c2.9,0,4.3-1.2,4.3-3.5h4.3c0,4.6-2.9,7-8.6,7h-2.9c-5.7,0-8.6-2.3-8.6-7v-3.5c0-4.6,2.9-7,8.6-7H62.2
				z"/>
		</g>
		<g>
			<path class="st4" d="M0.3,96.4v-0.5h0.6v-0.5c0-0.3,0.1-0.5,0.3-0.7c0.2-0.2,0.4-0.2,0.7-0.2c0.1,0,0.1,0,0.2,0
				c0.1,0,0.1,0,0.2,0V95c-0.1,0-0.1,0-0.2,0C2.1,95,2,95,2,95c-0.1,0-0.3,0-0.3,0.1s-0.1,0.2-0.1,0.3v0.5h0.7v0.5H1.5v3.1H0.9v-3.1
				H0.3z"/>
			<path class="st4" d="M2.8,95.3v-0.7h0.6v0.7H2.8z M3.4,95.9v3.6H2.8v-3.6H3.4z"/>
			<path class="st4" d="M4.8,95.9v0.8h0C5,96.4,5.2,96.2,5.4,96c0.2-0.1,0.5-0.2,0.8-0.2v0.6c-0.2,0-0.4,0-0.6,0.1s-0.3,0.2-0.4,0.3
				C5.1,97,5,97.1,4.9,97.3c0,0.2-0.1,0.4-0.1,0.6v1.6H4.3v-3.6H4.8z"/>
			<path class="st4" d="M7.1,98.7c0.1,0.1,0.1,0.2,0.2,0.2C7.4,99,7.5,99,7.6,99c0.1,0,0.2,0,0.4,0c0.1,0,0.2,0,0.3,0
				c0.1,0,0.2,0,0.3-0.1s0.2-0.1,0.2-0.2c0.1-0.1,0.1-0.2,0.1-0.3c0-0.2-0.1-0.3-0.2-0.3C8.5,98.1,8.4,98,8.2,98
				c-0.2,0-0.4-0.1-0.6-0.1c-0.2,0-0.4-0.1-0.6-0.2c-0.2-0.1-0.3-0.2-0.4-0.3s-0.2-0.3-0.2-0.5c0-0.2,0-0.3,0.1-0.5
				c0.1-0.1,0.2-0.2,0.3-0.3C7,96,7.2,95.9,7.3,95.9c0.2,0,0.3-0.1,0.5-0.1c0.2,0,0.4,0,0.6,0.1c0.2,0,0.3,0.1,0.5,0.2
				c0.1,0.1,0.2,0.2,0.3,0.3c0.1,0.1,0.1,0.3,0.1,0.5H8.7c0-0.1,0-0.2-0.1-0.3c-0.1-0.1-0.1-0.1-0.2-0.2c-0.1,0-0.2-0.1-0.3-0.1
				c-0.1,0-0.2,0-0.3,0c-0.1,0-0.2,0-0.3,0c-0.1,0-0.2,0-0.2,0.1c-0.1,0-0.1,0.1-0.2,0.1s-0.1,0.1-0.1,0.2c0,0.1,0,0.2,0.1,0.3
				c0.1,0.1,0.2,0.1,0.3,0.2c0.1,0,0.2,0.1,0.4,0.1c0.1,0,0.3,0.1,0.4,0.1c0.1,0,0.3,0.1,0.4,0.1c0.1,0,0.3,0.1,0.4,0.2
				c0.1,0.1,0.2,0.2,0.3,0.3c0.1,0.1,0.1,0.3,0.1,0.4c0,0.2,0,0.4-0.1,0.5c-0.1,0.1-0.2,0.3-0.4,0.3s-0.3,0.1-0.5,0.2
				s-0.4,0.1-0.5,0.1c-0.2,0-0.4,0-0.6-0.1c-0.2,0-0.3-0.1-0.5-0.2c-0.1-0.1-0.3-0.2-0.3-0.4c-0.1-0.2-0.1-0.3-0.1-0.6H7
				C7,98.5,7,98.6,7.1,98.7z"/>
			<path class="st4" d="M11.6,95.9v0.5h-0.7v2.2c0,0.1,0,0.1,0,0.2s0,0.1,0.1,0.1s0.1,0,0.1,0c0.1,0,0.1,0,0.2,0h0.3v0.5h-0.5
				c-0.2,0-0.3,0-0.4,0c-0.1,0-0.2-0.1-0.3-0.1s-0.1-0.1-0.1-0.2c0-0.1,0-0.2,0-0.4v-2.3H9.7v-0.5h0.6v-1.1h0.6v1.1H11.6z"/>
			<path class="st4" d="M15.8,95.9v0.5h-0.7v2.2c0,0.1,0,0.1,0,0.2s0,0.1,0.1,0.1s0.1,0,0.1,0c0.1,0,0.1,0,0.2,0h0.3v0.5h-0.5
				c-0.2,0-0.3,0-0.4,0c-0.1,0-0.2-0.1-0.3-0.1s-0.1-0.1-0.1-0.2c0-0.1,0-0.2,0-0.4v-2.3h-0.6v-0.5h0.6v-1.1h0.6v1.1H15.8z"/>
			<path class="st4" d="M17,95.9v0.8h0c0.1-0.3,0.3-0.5,0.5-0.6c0.2-0.1,0.5-0.2,0.8-0.2v0.6c-0.2,0-0.4,0-0.6,0.1s-0.3,0.2-0.4,0.3
				c-0.1,0.1-0.2,0.3-0.2,0.5c0,0.2-0.1,0.4-0.1,0.6v1.6h-0.6v-3.6H17z"/>
			<path class="st4" d="M21.9,99.5c-0.1,0.1-0.2,0.1-0.4,0.1c-0.2,0-0.3,0-0.4-0.1C21.1,99.4,21,99.2,21,99
				c-0.2,0.2-0.4,0.3-0.6,0.4c-0.2,0.1-0.4,0.1-0.7,0.1c-0.2,0-0.3,0-0.5-0.1c-0.1,0-0.3-0.1-0.4-0.2c-0.1-0.1-0.2-0.2-0.3-0.3
				c-0.1-0.1-0.1-0.3-0.1-0.5c0-0.2,0-0.4,0.1-0.5c0.1-0.1,0.2-0.2,0.3-0.3c0.1-0.1,0.2-0.1,0.4-0.2s0.3-0.1,0.4-0.1
				c0.2,0,0.3-0.1,0.5-0.1s0.3,0,0.4-0.1c0.1,0,0.2-0.1,0.3-0.1c0.1-0.1,0.1-0.1,0.1-0.3c0-0.1,0-0.2-0.1-0.3c0-0.1-0.1-0.1-0.2-0.2
				c-0.1,0-0.2-0.1-0.3-0.1c-0.1,0-0.2,0-0.3,0c-0.3,0-0.5,0-0.6,0.1c-0.2,0.1-0.3,0.3-0.3,0.5h-0.6c0-0.2,0.1-0.4,0.1-0.6
				c0.1-0.2,0.2-0.3,0.3-0.4c0.1-0.1,0.3-0.2,0.5-0.2s0.4-0.1,0.6-0.1c0.2,0,0.3,0,0.5,0c0.2,0,0.3,0.1,0.4,0.1
				c0.1,0.1,0.2,0.2,0.3,0.3s0.1,0.3,0.1,0.5v1.8c0,0.1,0,0.2,0,0.3c0,0.1,0.1,0.1,0.2,0.1c0.1,0,0.1,0,0.2,0V99.5z M21,97.6
				c-0.1,0.1-0.2,0.1-0.3,0.1s-0.2,0-0.4,0.1c-0.1,0-0.3,0-0.4,0.1s-0.3,0.1-0.4,0.1c-0.1,0-0.2,0.1-0.3,0.2
				c-0.1,0.1-0.1,0.2-0.1,0.4c0,0.1,0,0.2,0.1,0.2c0,0.1,0.1,0.1,0.2,0.2c0.1,0,0.1,0.1,0.2,0.1c0.1,0,0.2,0,0.3,0
				c0.2,0,0.4,0,0.5-0.1c0.1-0.1,0.3-0.1,0.3-0.2c0.1-0.1,0.2-0.2,0.2-0.3c0-0.1,0.1-0.2,0.1-0.3V97.6z"/>
			<path class="st4" d="M25.1,99.5V99h0c-0.1,0.2-0.3,0.3-0.5,0.4s-0.4,0.1-0.7,0.1c-0.3,0-0.5-0.1-0.7-0.2
				c-0.2-0.1-0.4-0.2-0.5-0.4c-0.1-0.2-0.2-0.4-0.3-0.6s-0.1-0.5-0.1-0.7c0-0.3,0-0.5,0.1-0.7s0.2-0.4,0.3-0.6s0.3-0.3,0.5-0.4
				c0.2-0.1,0.4-0.1,0.7-0.1c0.1,0,0.2,0,0.3,0c0.1,0,0.2,0.1,0.3,0.1c0.1,0,0.2,0.1,0.3,0.2c0.1,0.1,0.2,0.2,0.2,0.3h0v-1.9h0.6v5
				H25.1z M23,98.2c0,0.2,0.1,0.3,0.2,0.4c0.1,0.1,0.2,0.2,0.3,0.3c0.1,0.1,0.3,0.1,0.5,0.1c0.2,0,0.4,0,0.5-0.1
				c0.1-0.1,0.3-0.2,0.3-0.3c0.1-0.1,0.2-0.3,0.2-0.4c0-0.2,0.1-0.3,0.1-0.5c0-0.2,0-0.3-0.1-0.5c0-0.2-0.1-0.3-0.2-0.4
				s-0.2-0.2-0.4-0.3c-0.1-0.1-0.3-0.1-0.5-0.1c-0.2,0-0.4,0-0.5,0.1s-0.3,0.2-0.3,0.3c-0.1,0.1-0.1,0.3-0.2,0.4s-0.1,0.3-0.1,0.5
				C22.9,97.9,22.9,98.1,23,98.2z"/>
			<path class="st4" d="M26.7,95.3v-0.7h0.6v0.7H26.7z M27.2,95.9v3.6h-0.6v-3.6H27.2z"/>
			<path class="st4" d="M28.7,95.9v0.6h0c0.2-0.4,0.6-0.7,1.2-0.7c0.2,0,0.4,0,0.6,0.1c0.2,0.1,0.3,0.2,0.4,0.3s0.2,0.3,0.2,0.4
				c0,0.2,0.1,0.3,0.1,0.5v2.4h-0.6v-2.4c0-0.2-0.1-0.4-0.2-0.5s-0.3-0.2-0.5-0.2c-0.2,0-0.3,0-0.5,0.1c-0.1,0.1-0.2,0.1-0.3,0.2
				c-0.1,0.1-0.2,0.2-0.2,0.4c0,0.1-0.1,0.3-0.1,0.4v2h-0.6v-3.6H28.7z"/>
			<path class="st4" d="M34.7,100.5c-0.3,0.3-0.7,0.4-1.3,0.4c-0.2,0-0.3,0-0.5-0.1s-0.3-0.1-0.5-0.2c-0.1-0.1-0.3-0.2-0.4-0.3
				c-0.1-0.1-0.1-0.3-0.2-0.5h0.6c0,0.1,0,0.2,0.1,0.3c0.1,0.1,0.1,0.1,0.2,0.2c0.1,0,0.2,0.1,0.3,0.1c0.1,0,0.2,0,0.3,0
				c0.2,0,0.4,0,0.5-0.1c0.1-0.1,0.2-0.2,0.3-0.3s0.2-0.3,0.2-0.4c0-0.2,0.1-0.4,0.1-0.5v-0.2h0c-0.1,0.2-0.3,0.4-0.5,0.5
				s-0.4,0.2-0.7,0.2c-0.3,0-0.5,0-0.7-0.1c-0.2-0.1-0.4-0.2-0.5-0.4s-0.2-0.4-0.3-0.6s-0.1-0.5-0.1-0.7c0-0.2,0-0.4,0.1-0.7
				c0.1-0.2,0.1-0.4,0.3-0.6c0.1-0.2,0.3-0.3,0.5-0.5c0.2-0.1,0.5-0.2,0.8-0.2c0.2,0,0.4,0,0.6,0.1c0.2,0.1,0.3,0.2,0.4,0.4h0v-0.5
				h0.6v3.3C35.2,99.8,35,100.2,34.7,100.5z M34,98.9c0.1-0.1,0.2-0.2,0.3-0.3c0.1-0.1,0.1-0.3,0.2-0.4c0-0.2,0.1-0.3,0.1-0.5
				c0-0.2,0-0.3-0.1-0.5s-0.1-0.3-0.2-0.4s-0.2-0.2-0.3-0.3c-0.1-0.1-0.3-0.1-0.5-0.1c-0.2,0-0.4,0-0.5,0.1
				c-0.1,0.1-0.2,0.2-0.3,0.3c-0.1,0.1-0.1,0.3-0.2,0.4c0,0.2-0.1,0.3-0.1,0.5c0,0.2,0,0.3,0,0.5c0,0.2,0.1,0.3,0.2,0.4
				c0.1,0.1,0.2,0.2,0.3,0.3s0.3,0.1,0.5,0.1C33.7,99,33.9,99,34,98.9z"/>
			<path class="st4" d="M40.5,99.3c-0.3,0.2-0.6,0.3-1,0.3c-0.3,0-0.5,0-0.7-0.1c-0.2-0.1-0.4-0.2-0.5-0.4c-0.1-0.2-0.3-0.4-0.3-0.6
				c-0.1-0.2-0.1-0.5-0.1-0.8c0-0.3,0-0.5,0.1-0.8c0.1-0.2,0.2-0.4,0.4-0.6c0.2-0.2,0.3-0.3,0.5-0.4c0.2-0.1,0.4-0.1,0.7-0.1
				c0.3,0,0.6,0.1,0.8,0.2c0.2,0.1,0.4,0.3,0.5,0.5c0.1,0.2,0.2,0.4,0.3,0.7c0,0.2,0.1,0.5,0.1,0.7h-2.7c0,0.2,0,0.3,0.1,0.4
				s0.1,0.3,0.2,0.4s0.2,0.2,0.4,0.3c0.1,0.1,0.3,0.1,0.5,0.1c0.2,0,0.5-0.1,0.6-0.2s0.3-0.3,0.3-0.5h0.6
				C41,98.8,40.8,99.1,40.5,99.3z M40.4,97c-0.1-0.1-0.1-0.2-0.2-0.3c-0.1-0.1-0.2-0.2-0.3-0.2s-0.3-0.1-0.4-0.1
				c-0.2,0-0.3,0-0.4,0.1s-0.2,0.1-0.3,0.2c-0.1,0.1-0.2,0.2-0.2,0.3c-0.1,0.1-0.1,0.3-0.1,0.4h2.1C40.5,97.2,40.4,97.1,40.4,97z"/>
			<path class="st4" d="M43.9,96.5c-0.1-0.1-0.3-0.2-0.6-0.2c-0.2,0-0.4,0-0.5,0.1c-0.1,0.1-0.3,0.2-0.3,0.3
				c-0.1,0.1-0.1,0.3-0.2,0.4c0,0.2-0.1,0.3-0.1,0.5c0,0.2,0,0.3,0.1,0.5c0,0.2,0.1,0.3,0.2,0.4c0.1,0.1,0.2,0.2,0.3,0.3
				c0.1,0.1,0.3,0.1,0.5,0.1c0.3,0,0.5-0.1,0.7-0.2s0.3-0.4,0.3-0.6h0.6c-0.1,0.4-0.2,0.8-0.5,1c-0.3,0.2-0.6,0.4-1.1,0.4
				c-0.3,0-0.5,0-0.7-0.1c-0.2-0.1-0.4-0.2-0.5-0.4c-0.1-0.2-0.2-0.4-0.3-0.6c-0.1-0.2-0.1-0.5-0.1-0.7s0-0.5,0.1-0.8
				s0.2-0.4,0.3-0.6c0.1-0.2,0.3-0.3,0.5-0.4c0.2-0.1,0.5-0.1,0.7-0.1c0.2,0,0.4,0,0.6,0.1s0.3,0.1,0.5,0.2c0.1,0.1,0.2,0.2,0.3,0.4
				c0.1,0.2,0.1,0.3,0.2,0.6h-0.6C44.1,96.8,44,96.7,43.9,96.5z"/>
			<path class="st4" d="M45.4,97c0.1-0.2,0.2-0.4,0.3-0.6c0.1-0.2,0.3-0.3,0.6-0.4s0.5-0.1,0.8-0.1c0.3,0,0.5,0,0.8,0.1
				s0.4,0.2,0.5,0.4c0.1,0.2,0.3,0.4,0.3,0.6c0.1,0.2,0.1,0.5,0.1,0.7s0,0.5-0.1,0.7s-0.2,0.4-0.3,0.6c-0.1,0.2-0.3,0.3-0.5,0.4
				c-0.2,0.1-0.5,0.1-0.8,0.1c-0.3,0-0.5,0-0.8-0.1c-0.2-0.1-0.4-0.2-0.6-0.4c-0.1-0.2-0.3-0.4-0.3-0.6s-0.1-0.5-0.1-0.7
				S45.3,97.2,45.4,97z M46,98.3c0.1,0.2,0.1,0.3,0.2,0.4c0.1,0.1,0.2,0.2,0.4,0.3c0.1,0.1,0.3,0.1,0.4,0.1s0.3,0,0.4-0.1
				c0.1-0.1,0.3-0.1,0.4-0.3c0.1-0.1,0.2-0.3,0.2-0.4s0.1-0.4,0.1-0.6c0-0.2,0-0.4-0.1-0.6c-0.1-0.2-0.1-0.3-0.2-0.4
				c-0.1-0.1-0.2-0.2-0.4-0.3c-0.1-0.1-0.3-0.1-0.4-0.1s-0.3,0-0.4,0.1c-0.1,0.1-0.3,0.1-0.4,0.3C46.1,96.8,46,97,46,97.1
				c-0.1,0.2-0.1,0.4-0.1,0.6C45.9,97.9,45.9,98.1,46,98.3z"/>
			<path class="st4" d="M49.9,98.7c0.1,0.1,0.1,0.2,0.2,0.2c0.1,0.1,0.2,0.1,0.3,0.1c0.1,0,0.2,0,0.4,0c0.1,0,0.2,0,0.3,0
				c0.1,0,0.2,0,0.3-0.1s0.2-0.1,0.2-0.2c0.1-0.1,0.1-0.2,0.1-0.3c0-0.2-0.1-0.3-0.2-0.3c-0.1-0.1-0.3-0.1-0.4-0.2
				c-0.2,0-0.4-0.1-0.6-0.1c-0.2,0-0.4-0.1-0.6-0.2c-0.2-0.1-0.3-0.2-0.4-0.3s-0.2-0.3-0.2-0.5c0-0.2,0-0.3,0.1-0.5
				c0.1-0.1,0.2-0.2,0.3-0.3c0.1-0.1,0.3-0.1,0.4-0.2c0.2,0,0.3-0.1,0.5-0.1c0.2,0,0.4,0,0.6,0.1c0.2,0,0.3,0.1,0.5,0.2
				c0.1,0.1,0.2,0.2,0.3,0.3c0.1,0.1,0.1,0.3,0.1,0.5h-0.6c0-0.1,0-0.2-0.1-0.3c-0.1-0.1-0.1-0.1-0.2-0.2c-0.1,0-0.2-0.1-0.3-0.1
				c-0.1,0-0.2,0-0.3,0c-0.1,0-0.2,0-0.3,0c-0.1,0-0.2,0-0.2,0.1c-0.1,0-0.1,0.1-0.2,0.1s-0.1,0.1-0.1,0.2c0,0.1,0,0.2,0.1,0.3
				c0.1,0.1,0.2,0.1,0.3,0.2c0.1,0,0.2,0.1,0.4,0.1c0.1,0,0.3,0.1,0.4,0.1c0.1,0,0.3,0.1,0.4,0.1c0.1,0,0.3,0.1,0.4,0.2
				c0.1,0.1,0.2,0.2,0.3,0.3c0.1,0.1,0.1,0.3,0.1,0.4c0,0.2,0,0.4-0.1,0.5c-0.1,0.1-0.2,0.3-0.4,0.3s-0.3,0.1-0.5,0.2
				s-0.4,0.1-0.5,0.1c-0.2,0-0.4,0-0.6-0.1c-0.2,0-0.3-0.1-0.5-0.2c-0.1-0.1-0.3-0.2-0.3-0.4c-0.1-0.2-0.1-0.3-0.1-0.6h0.6
				C49.8,98.5,49.9,98.6,49.9,98.7z"/>
			<path class="st4" d="M54.4,100c-0.1,0.2-0.1,0.3-0.2,0.4s-0.1,0.2-0.2,0.3c-0.1,0.1-0.2,0.1-0.3,0.2c-0.1,0-0.2,0.1-0.3,0.1
				c-0.1,0-0.1,0-0.2,0c-0.1,0-0.1,0-0.2,0v-0.5c0.1,0,0.1,0,0.2,0.1c0.1,0,0.1,0,0.2,0c0.1,0,0.2,0,0.3-0.1
				c0.1-0.1,0.1-0.1,0.2-0.2l0.2-0.6l-1.4-3.6h0.7l1.1,2.9h0l1-2.9h0.6L54.4,100z"/>
			<path class="st4" d="M56.9,98.7c0.1,0.1,0.1,0.2,0.2,0.2c0.1,0.1,0.2,0.1,0.3,0.1c0.1,0,0.2,0,0.4,0c0.1,0,0.2,0,0.3,0
				c0.1,0,0.2,0,0.3-0.1s0.2-0.1,0.2-0.2c0.1-0.1,0.1-0.2,0.1-0.3c0-0.2-0.1-0.3-0.2-0.3C58.3,98.1,58.2,98,58,98
				c-0.2,0-0.4-0.1-0.6-0.1c-0.2,0-0.4-0.1-0.6-0.2c-0.2-0.1-0.3-0.2-0.4-0.3s-0.2-0.3-0.2-0.5c0-0.2,0-0.3,0.1-0.5
				c0.1-0.1,0.2-0.2,0.3-0.3c0.1-0.1,0.3-0.1,0.4-0.2c0.2,0,0.3-0.1,0.5-0.1c0.2,0,0.4,0,0.6,0.1c0.2,0,0.3,0.1,0.5,0.2
				c0.1,0.1,0.2,0.2,0.3,0.3c0.1,0.1,0.1,0.3,0.1,0.5h-0.6c0-0.1,0-0.2-0.1-0.3c-0.1-0.1-0.1-0.1-0.2-0.2c-0.1,0-0.2-0.1-0.3-0.1
				c-0.1,0-0.2,0-0.3,0c-0.1,0-0.2,0-0.3,0c-0.1,0-0.2,0-0.2,0.1c-0.1,0-0.1,0.1-0.2,0.1s-0.1,0.1-0.1,0.2c0,0.1,0,0.2,0.1,0.3
				c0.1,0.1,0.2,0.1,0.3,0.2c0.1,0,0.2,0.1,0.4,0.1c0.1,0,0.3,0.1,0.4,0.1c0.1,0,0.3,0.1,0.4,0.1c0.1,0,0.3,0.1,0.4,0.2
				c0.1,0.1,0.2,0.2,0.3,0.3c0.1,0.1,0.1,0.3,0.1,0.4c0,0.2,0,0.4-0.1,0.5c-0.1,0.1-0.2,0.3-0.4,0.3s-0.3,0.1-0.5,0.2
				s-0.4,0.1-0.5,0.1c-0.2,0-0.4,0-0.6-0.1c-0.2,0-0.3-0.1-0.5-0.2c-0.1-0.1-0.3-0.2-0.3-0.4c-0.1-0.2-0.1-0.3-0.1-0.6h0.6
				C56.8,98.5,56.8,98.6,56.9,98.7z"/>
			<path class="st4" d="M61.5,95.9v0.5h-0.7v2.2c0,0.1,0,0.1,0,0.2s0,0.1,0.1,0.1s0.1,0,0.1,0c0.1,0,0.1,0,0.2,0h0.3v0.5H61
				c-0.2,0-0.3,0-0.4,0c-0.1,0-0.2-0.1-0.3-0.1s-0.1-0.1-0.1-0.2c0-0.1,0-0.2,0-0.4v-2.3h-0.6v-0.5h0.6v-1.1h0.6v1.1H61.5z"/>
			<path class="st4" d="M64.7,99.3c-0.3,0.2-0.6,0.3-1,0.3c-0.3,0-0.5,0-0.7-0.1c-0.2-0.1-0.4-0.2-0.5-0.4c-0.1-0.2-0.3-0.4-0.3-0.6
				c-0.1-0.2-0.1-0.5-0.1-0.8c0-0.3,0-0.5,0.1-0.8c0.1-0.2,0.2-0.4,0.4-0.6c0.2-0.2,0.3-0.3,0.5-0.4c0.2-0.1,0.4-0.1,0.7-0.1
				c0.3,0,0.6,0.1,0.8,0.2c0.2,0.1,0.4,0.3,0.5,0.5c0.1,0.2,0.2,0.4,0.3,0.7c0,0.2,0.1,0.5,0.1,0.7h-2.7c0,0.2,0,0.3,0.1,0.4
				s0.1,0.3,0.2,0.4s0.2,0.2,0.4,0.3c0.1,0.1,0.3,0.1,0.5,0.1c0.2,0,0.5-0.1,0.6-0.2s0.3-0.3,0.3-0.5h0.6
				C65.1,98.8,64.9,99.1,64.7,99.3z M64.5,97c-0.1-0.1-0.1-0.2-0.2-0.3c-0.1-0.1-0.2-0.2-0.3-0.2s-0.3-0.1-0.4-0.1
				c-0.2,0-0.3,0-0.4,0.1s-0.2,0.1-0.3,0.2c-0.1,0.1-0.2,0.2-0.2,0.3c-0.1,0.1-0.1,0.3-0.1,0.4h2.1C64.6,97.2,64.6,97.1,64.5,97z"/>
			<path class="st4" d="M66.4,95.9v0.5h0c0.3-0.4,0.7-0.6,1.2-0.6c0.2,0,0.4,0,0.6,0.1c0.2,0.1,0.3,0.2,0.4,0.5
				c0.1-0.2,0.3-0.3,0.5-0.5s0.4-0.2,0.7-0.2c0.2,0,0.3,0,0.5,0.1c0.1,0,0.3,0.1,0.4,0.2c0.1,0.1,0.2,0.2,0.2,0.3
				c0.1,0.1,0.1,0.3,0.1,0.5v2.6h-0.6v-2.4c0-0.1,0-0.2,0-0.3s-0.1-0.2-0.1-0.3s-0.1-0.1-0.2-0.2c-0.1,0-0.2-0.1-0.4-0.1
				c-0.3,0-0.5,0.1-0.7,0.3s-0.3,0.4-0.3,0.7v2.2h-0.6v-2.4c0-0.1,0-0.2,0-0.3c0-0.1-0.1-0.2-0.1-0.3s-0.1-0.1-0.2-0.2
				c-0.1,0-0.2-0.1-0.3-0.1c-0.2,0-0.3,0-0.4,0.1c-0.1,0.1-0.2,0.2-0.3,0.3c-0.1,0.1-0.1,0.2-0.2,0.3c0,0.1-0.1,0.2-0.1,0.3v2.2
				h-0.6v-3.6H66.4z"/>
		</g>
	</g>
</g>
</svg>
